M48
; DRILL file {KiCad (6.0.6-0)} date Saturday, 01 April 2023 at 16:22:32
; FORMAT={-:-/ absolute / metric / decimal}
; #@! TF.CreationDate,2023-04-01T16:22:32+01:00
; #@! TF.GenerationSoftware,Kicad,Pcbnew,(6.0.6-0)
; #@! TF.FileFunction,Plated,1,4,PTH
FMAT,2
METRIC
; #@! TA.AperFunction,Plated,PTH,ViaDrill
T1C0.300
; #@! TA.AperFunction,Plated,PTH,ViaDrill
T2C0.500
; #@! TA.AperFunction,Plated,PTH,ComponentDrill
T3C0.500
; #@! TA.AperFunction,Plated,PTH,ComponentDrill
T4C0.600
; #@! TA.AperFunction,Plated,PTH,ComponentDrill
T5C0.800
; #@! TA.AperFunction,Plated,PTH,ComponentDrill
T6C1.000
; #@! TA.AperFunction,Plated,PTH,ComponentDrill
T7C2.700
%
G90
G05
T1
X166.8Y-85.0
X166.8Y-86.2
X167.65Y-82.0
X167.75Y-73.0
X167.75Y-75.975
X167.75Y-79.0
X170.55Y-87.05
X171.2Y-98.8
X171.9Y-88.85
X172.3Y-97.8
X172.7Y-95.4
X172.75Y-87.1
X175.9Y-94.6
X178.115Y-80.1
X178.115Y-80.9
X179.0Y-95.4
X179.5Y-98.3
X180.0Y-84.6
X180.5Y-99.2
X180.9Y-84.6
X181.317Y-81.953
X181.8Y-84.6
X181.883Y-81.388
X181.897Y-64.857
X182.427Y-64.327
X182.7Y-84.6
X183.4Y-71.1
X183.42Y-66.515
X183.6Y-84.8
X183.95Y-65.985
X184.2Y-70.0
X184.55Y-63.1
X184.85Y-65.35
X185.1Y-85.0
X185.345Y-74.155
X185.65Y-63.125
X185.7Y-79.7
X185.85Y-65.1
X185.9Y-73.6
X186.3Y-80.2
X186.4Y-73.0
X186.4Y-86.2
X186.726Y-76.222
X186.8Y-87.3
X187.0Y-83.35
X187.3Y-81.2
X187.5Y-88.0
X187.8Y-75.0
X187.9Y-70.1
X187.95Y-78.95
X188.2Y-68.7
X188.2Y-82.2
X188.25Y-85.5
X188.35Y-80.575
X188.4Y-72.2
X188.4Y-77.1
X188.852Y-87.55
X189.1Y-71.5
X189.4Y-83.4
X189.475Y-78.375
X189.475Y-81.875
X189.6Y-75.8
X190.011Y-87.161
X190.3Y-75.1
X190.443Y-76.368
X190.58Y-82.63
X191.2Y-75.3
X191.2Y-87.3
X191.65Y-81.55
X191.85Y-90.85
X191.9Y-76.0
X192.5Y-76.6
X192.525Y-72.025
X192.8Y-82.6
X192.875Y-78.375
X192.95Y-80.75
X193.3Y-81.9
X193.55Y-77.625
X193.976Y-81.301
X194.076Y-78.349
X194.1Y-71.7
X194.1Y-75.4
X194.125Y-79.725
X194.7Y-72.5
X194.7Y-80.7
X194.711Y-76.017
X195.284Y-76.716
X195.357Y-80.17
X195.7Y-73.8
X196.1Y-85.0
X196.3Y-77.149
X196.4Y-74.5
X196.724Y-60.25
X196.725Y-61.0
X196.756Y-59.502
X196.9Y-84.3
X196.996Y-82.775
X197.1Y-75.2
X197.167Y-79.424
X197.523Y-59.527
X197.875Y-75.3
X197.977Y-82.175
X198.4Y-80.175
X198.85Y-87.95
X199.525Y-91.075
X199.8Y-68.6
X199.9Y-73.4
X200.15Y-57.7
X200.154Y-58.449
X200.185Y-59.223
X200.2Y-60.75
X200.202Y-59.972
X201.4Y-68.6
X201.6Y-87.95
X202.6Y-96.2
X202.7Y-92.95
X203.1Y-74.3
X203.957Y-78.883
X204.15Y-90.05
X204.182Y-88.426
X204.2Y-73.125
X204.45Y-71.8
X204.575Y-77.8
X204.8Y-93.0
X206.1Y-93.3
X207.332Y-84.132
X207.95Y-96.2
X208.175Y-90.175
X208.2Y-83.6
X211.875Y-70.725
X212.4Y-74.0
X212.425Y-60.4
X212.6Y-66.65
X212.95Y-64.85
X213.0Y-63.05
X214.5Y-59.0
X214.5Y-61.8
X215.8Y-79.4
X215.8Y-81.9
X217.2Y-79.4
X217.2Y-81.5
X218.8Y-74.9
X219.6Y-78.8
X220.587Y-74.9
X220.65Y-64.8
X220.7Y-63.0
X221.0Y-66.6
X222.0Y-79.3
X222.0Y-81.2
X223.0Y-66.6
X223.3Y-64.8
X223.35Y-63.0
X224.4Y-74.0
X224.6Y-75.7
X224.9Y-58.9
X224.9Y-61.8
X227.1Y-78.8
X228.5Y-75.0
X229.6Y-79.4
X229.6Y-80.9
X231.0Y-64.8
X231.05Y-63.0
X231.4Y-66.6
X232.1Y-79.3
X232.1Y-80.525
X233.9Y-75.0
X235.5Y-53.1
X235.5Y-55.0
X235.7Y-75.0
X236.5Y-62.1
X236.5Y-63.95
X236.5Y-65.6
X236.65Y-59.35
X238.15Y-59.35
X238.3Y-62.0
X238.35Y-63.95
X238.35Y-65.6
X239.3Y-53.0
X239.3Y-55.1
T2
X163.0Y-60.0
X163.0Y-65.0
X163.0Y-70.0
X163.0Y-75.0
X163.0Y-80.0
X163.0Y-85.0
X163.0Y-90.0
X163.0Y-95.0
X163.0Y-100.0
X163.0Y-105.0
X169.025Y-54.925
X170.0Y-107.0
X175.0Y-107.0
X180.0Y-107.0
X185.0Y-107.0
X190.0Y-107.0
X195.0Y-107.0
X210.0Y-107.0
X210.2Y-79.2
X212.05Y-75.775
X212.075Y-53.8
X215.0Y-107.0
X216.4Y-70.7
X220.0Y-107.0
X224.1Y-70.7
X225.0Y-107.0
X227.2Y-73.9
X230.0Y-107.0
X235.0Y-107.0
X237.9Y-70.7
X239.1Y-73.9
X240.0Y-107.0
X245.225Y-62.575
X247.0Y-60.0
X247.0Y-65.0
X247.0Y-70.0
X247.0Y-75.0
X247.0Y-80.0
X247.0Y-85.0
X247.0Y-100.0
T3
X162.975Y-55.0
X162.975Y-105.0
X163.568Y-53.568
X163.568Y-56.432
X163.568Y-103.568
X163.568Y-106.432
X165.0Y-52.975
X165.0Y-57.025
X165.0Y-102.975
X165.0Y-107.025
X166.432Y-53.568
X166.432Y-56.432
X166.432Y-103.568
X166.432Y-106.432
X167.025Y-55.0
X167.025Y-105.0
X242.975Y-55.0
X242.975Y-105.0
X243.568Y-53.568
X243.568Y-56.432
X243.568Y-103.568
X243.568Y-106.432
X245.0Y-52.975
X245.0Y-57.025
X245.0Y-102.975
X245.0Y-107.025
X246.432Y-53.568
X246.432Y-56.432
X246.432Y-103.568
X246.432Y-106.432
X247.025Y-55.0
X247.025Y-105.0
T5
X199.6Y-98.18
X199.6Y-105.8
X202.14Y-98.18
X202.14Y-105.8
X204.68Y-98.18
X204.68Y-105.8
X207.22Y-98.18
X207.22Y-105.8
T6
X171.2Y-53.8
X171.2Y-56.34
X171.2Y-61.48
X173.74Y-53.8
X173.74Y-56.34
X173.74Y-61.48
X176.28Y-53.8
X176.28Y-56.34
X176.28Y-61.48
X178.82Y-53.8
X178.82Y-56.34
X178.82Y-61.48
X181.36Y-53.8
X181.36Y-56.34
X181.36Y-61.48
X183.9Y-53.8
X183.9Y-56.34
X183.9Y-61.48
X186.44Y-53.8
X186.44Y-56.34
X186.44Y-61.48
X188.98Y-53.8
X188.98Y-56.34
X188.98Y-61.48
X191.52Y-53.8
X191.52Y-56.34
X191.52Y-61.48
X194.06Y-53.8
X194.06Y-56.34
X194.06Y-61.48
X196.6Y-53.8
X196.6Y-56.34
X199.14Y-53.8
X199.14Y-56.34
X201.68Y-53.8
X201.68Y-56.34
X204.22Y-53.8
X204.22Y-56.34
X206.76Y-53.8
X206.76Y-56.34
X209.3Y-53.8
X209.3Y-56.34
X246.2Y-90.8
X246.2Y-93.34
X246.2Y-95.88
T7
X165.0Y-55.0
X165.0Y-105.0
X245.0Y-55.0
X245.0Y-105.0
T4
X171.08Y-100.12G85X171.08Y-101.22
G05
X171.08Y-104.55G85X171.08Y-105.15
G05
X179.72Y-100.12G85X179.72Y-101.22
G05
X179.72Y-104.55G85X179.72Y-105.15
G05
T5
X189.1Y-93.85G85X191.7Y-93.85
G05
X189.3Y-99.65G85X191.5Y-99.65
G05
X195.2Y-97.95G85X195.2Y-95.75
G05
T0
M30
