%TF.GenerationSoftware,KiCad,Pcbnew,(6.0.6-0)*%
%TF.CreationDate,2023-04-01T16:22:28+01:00*%
%TF.ProjectId,Teacup,54656163-7570-42e6-9b69-6361645f7063,A*%
%TF.SameCoordinates,Original*%
%TF.FileFunction,Soldermask,Bot*%
%TF.FilePolarity,Negative*%
%FSLAX46Y46*%
G04 Gerber Fmt 4.6, Leading zero omitted, Abs format (unit mm)*
G04 Created by KiCad (PCBNEW (6.0.6-0)) date 2023-04-01 16:22:28*
%MOMM*%
%LPD*%
G01*
G04 APERTURE LIST*
%ADD10C,0.800000*%
%ADD11C,5.400000*%
%ADD12R,1.700000X1.700000*%
%ADD13O,1.700000X1.700000*%
%ADD14C,0.650000*%
%ADD15O,1.000000X1.600000*%
%ADD16O,1.000000X2.100000*%
%ADD17C,1.300000*%
%ADD18R,1.600000X2.400000*%
%ADD19O,1.600000X2.400000*%
%ADD20R,4.400000X1.800000*%
%ADD21O,4.000000X1.800000*%
%ADD22O,1.800000X4.000000*%
%ADD23C,1.500000*%
G04 APERTURE END LIST*
D10*
%TO.C,REF\u002A\u002A*%
X246431891Y-53568109D03*
X245000000Y-52975000D03*
X243568109Y-56431891D03*
X242975000Y-55000000D03*
X245000000Y-57025000D03*
X246431891Y-56431891D03*
D11*
X245000000Y-55000000D03*
D10*
X247025000Y-55000000D03*
X243568109Y-53568109D03*
%TD*%
%TO.C,REF\u002A\u002A*%
X243568109Y-106431891D03*
D11*
X245000000Y-105000000D03*
D10*
X243568109Y-103568109D03*
X246431891Y-103568109D03*
X247025000Y-105000000D03*
X245000000Y-107025000D03*
X242975000Y-105000000D03*
X245000000Y-102975000D03*
X246431891Y-106431891D03*
%TD*%
D12*
%TO.C,J7*%
X209300000Y-56340000D03*
D13*
X206760000Y-56340000D03*
X204220000Y-56340000D03*
X201680000Y-56340000D03*
X199140000Y-56340000D03*
X196600000Y-56340000D03*
X194060000Y-56340000D03*
X191520000Y-56340000D03*
X188980000Y-56340000D03*
X186440000Y-56340000D03*
X183900000Y-56340000D03*
X181360000Y-56340000D03*
X178820000Y-56340000D03*
X176280000Y-56340000D03*
X173740000Y-56340000D03*
X171200000Y-56340000D03*
%TD*%
D12*
%TO.C,J6*%
X171200000Y-53800000D03*
D13*
X173740000Y-53800000D03*
X176280000Y-53800000D03*
X178820000Y-53800000D03*
X181360000Y-53800000D03*
X183900000Y-53800000D03*
X186440000Y-53800000D03*
X188980000Y-53800000D03*
X191520000Y-53800000D03*
X194060000Y-53800000D03*
X196600000Y-53800000D03*
X199140000Y-53800000D03*
X201680000Y-53800000D03*
X204220000Y-53800000D03*
X206760000Y-53800000D03*
X209300000Y-53800000D03*
%TD*%
D14*
%TO.C,J1*%
X172510000Y-101200000D03*
X178290000Y-101200000D03*
D15*
X171080000Y-104850000D03*
D16*
X171080000Y-100670000D03*
D15*
X179720000Y-104850000D03*
D16*
X179720000Y-100670000D03*
%TD*%
D10*
%TO.C,REF\u002A\u002A*%
X166431891Y-103568109D03*
X165000000Y-102975000D03*
D11*
X165000000Y-105000000D03*
D10*
X167025000Y-105000000D03*
X166431891Y-106431891D03*
X162975000Y-105000000D03*
X163568109Y-103568109D03*
X165000000Y-107025000D03*
X163568109Y-106431891D03*
%TD*%
D12*
%TO.C,J5*%
X246200000Y-90800000D03*
D13*
X246200000Y-93340000D03*
X246200000Y-95880000D03*
%TD*%
D12*
%TO.C,J4*%
X171200000Y-61480000D03*
D13*
X173740000Y-61480000D03*
X176280000Y-61480000D03*
X178820000Y-61480000D03*
X181360000Y-61480000D03*
X183900000Y-61480000D03*
X186440000Y-61480000D03*
X188980000Y-61480000D03*
X191520000Y-61480000D03*
X194060000Y-61480000D03*
%TD*%
D17*
%TO.C,J2*%
X214100000Y-79437500D03*
X236500000Y-79437500D03*
%TD*%
D10*
%TO.C,REF\u002A\u002A*%
X167025000Y-55000000D03*
X166431891Y-56431891D03*
X166431891Y-53568109D03*
X163568109Y-53568109D03*
X165000000Y-52975000D03*
X165000000Y-57025000D03*
X162975000Y-55000000D03*
X163568109Y-56431891D03*
D11*
X165000000Y-55000000D03*
%TD*%
D18*
%TO.C,U5*%
X199600000Y-105800000D03*
D19*
X202140000Y-105800000D03*
X204680000Y-105800000D03*
X207220000Y-105800000D03*
X207220000Y-98180000D03*
X204680000Y-98180000D03*
X202140000Y-98180000D03*
X199600000Y-98180000D03*
%TD*%
D20*
%TO.C,J8*%
X190400000Y-93850000D03*
D21*
X190400000Y-99650000D03*
D22*
X195200000Y-96850000D03*
%TD*%
D23*
%TO.C,TP7*%
X165200000Y-87000000D03*
%TD*%
%TO.C,TP9*%
X165200000Y-84400000D03*
%TD*%
M02*
