%TF.GenerationSoftware,KiCad,Pcbnew,(6.0.6-0)*%
%TF.CreationDate,2023-04-01T16:22:28+01:00*%
%TF.ProjectId,Teacup,54656163-7570-42e6-9b69-6361645f7063,A*%
%TF.SameCoordinates,Original*%
%TF.FileFunction,Copper,L1,Top*%
%TF.FilePolarity,Positive*%
%FSLAX46Y46*%
G04 Gerber Fmt 4.6, Leading zero omitted, Abs format (unit mm)*
G04 Created by KiCad (PCBNEW (6.0.6-0)) date 2023-04-01 16:22:28*
%MOMM*%
%LPD*%
G01*
G04 APERTURE LIST*
G04 Aperture macros list*
%AMRoundRect*
0 Rectangle with rounded corners*
0 $1 Rounding radius*
0 $2 $3 $4 $5 $6 $7 $8 $9 X,Y pos of 4 corners*
0 Add a 4 corners polygon primitive as box body*
4,1,4,$2,$3,$4,$5,$6,$7,$8,$9,$2,$3,0*
0 Add four circle primitives for the rounded corners*
1,1,$1+$1,$2,$3*
1,1,$1+$1,$4,$5*
1,1,$1+$1,$6,$7*
1,1,$1+$1,$8,$9*
0 Add four rect primitives between the rounded corners*
20,1,$1+$1,$2,$3,$4,$5,0*
20,1,$1+$1,$4,$5,$6,$7,0*
20,1,$1+$1,$6,$7,$8,$9,0*
20,1,$1+$1,$8,$9,$2,$3,0*%
%AMRotRect*
0 Rectangle, with rotation*
0 The origin of the aperture is its center*
0 $1 length*
0 $2 width*
0 $3 Rotation angle, in degrees counterclockwise*
0 Add horizontal line*
21,1,$1,$2,0,0,$3*%
G04 Aperture macros list end*
%TA.AperFunction,SMDPad,CuDef*%
%ADD10RoundRect,0.237500X-0.237500X0.300000X-0.237500X-0.300000X0.237500X-0.300000X0.237500X0.300000X0*%
%TD*%
%TA.AperFunction,SMDPad,CuDef*%
%ADD11RoundRect,0.237500X-0.300000X-0.237500X0.300000X-0.237500X0.300000X0.237500X-0.300000X0.237500X0*%
%TD*%
%TA.AperFunction,SMDPad,CuDef*%
%ADD12C,1.500000*%
%TD*%
%TA.AperFunction,SMDPad,CuDef*%
%ADD13RoundRect,0.140000X-0.219203X-0.021213X-0.021213X-0.219203X0.219203X0.021213X0.021213X0.219203X0*%
%TD*%
%TA.AperFunction,SMDPad,CuDef*%
%ADD14R,1.500000X2.000000*%
%TD*%
%TA.AperFunction,SMDPad,CuDef*%
%ADD15R,3.800000X2.000000*%
%TD*%
%TA.AperFunction,ComponentPad*%
%ADD16C,0.800000*%
%TD*%
%TA.AperFunction,ComponentPad*%
%ADD17C,5.400000*%
%TD*%
%TA.AperFunction,SMDPad,CuDef*%
%ADD18RoundRect,0.250000X-0.337500X-0.475000X0.337500X-0.475000X0.337500X0.475000X-0.337500X0.475000X0*%
%TD*%
%TA.AperFunction,SMDPad,CuDef*%
%ADD19RoundRect,0.140000X0.219203X0.021213X0.021213X0.219203X-0.219203X-0.021213X-0.021213X-0.219203X0*%
%TD*%
%TA.AperFunction,SMDPad,CuDef*%
%ADD20RoundRect,0.237500X0.237500X-0.250000X0.237500X0.250000X-0.237500X0.250000X-0.237500X-0.250000X0*%
%TD*%
%TA.AperFunction,SMDPad,CuDef*%
%ADD21RoundRect,0.237500X-0.237500X0.250000X-0.237500X-0.250000X0.237500X-0.250000X0.237500X0.250000X0*%
%TD*%
%TA.AperFunction,ComponentPad*%
%ADD22R,1.700000X1.700000*%
%TD*%
%TA.AperFunction,ComponentPad*%
%ADD23O,1.700000X1.700000*%
%TD*%
%TA.AperFunction,SMDPad,CuDef*%
%ADD24RoundRect,0.250000X0.337500X0.475000X-0.337500X0.475000X-0.337500X-0.475000X0.337500X-0.475000X0*%
%TD*%
%TA.AperFunction,SMDPad,CuDef*%
%ADD25RoundRect,0.237500X-0.250000X-0.237500X0.250000X-0.237500X0.250000X0.237500X-0.250000X0.237500X0*%
%TD*%
%TA.AperFunction,SMDPad,CuDef*%
%ADD26RoundRect,0.237500X0.300000X0.237500X-0.300000X0.237500X-0.300000X-0.237500X0.300000X-0.237500X0*%
%TD*%
%TA.AperFunction,SMDPad,CuDef*%
%ADD27RoundRect,0.140000X0.021213X-0.219203X0.219203X-0.021213X-0.021213X0.219203X-0.219203X0.021213X0*%
%TD*%
%TA.AperFunction,SMDPad,CuDef*%
%ADD28R,0.600000X1.450000*%
%TD*%
%TA.AperFunction,SMDPad,CuDef*%
%ADD29R,0.300000X1.450000*%
%TD*%
%TA.AperFunction,ComponentPad*%
%ADD30O,1.000000X1.600000*%
%TD*%
%TA.AperFunction,ComponentPad*%
%ADD31O,1.000000X2.100000*%
%TD*%
%TA.AperFunction,SMDPad,CuDef*%
%ADD32R,0.450000X0.700000*%
%TD*%
%TA.AperFunction,SMDPad,CuDef*%
%ADD33RoundRect,0.237500X0.250000X0.237500X-0.250000X0.237500X-0.250000X-0.237500X0.250000X-0.237500X0*%
%TD*%
%TA.AperFunction,SMDPad,CuDef*%
%ADD34RoundRect,0.140000X-0.021213X0.219203X-0.219203X0.021213X0.021213X-0.219203X0.219203X-0.021213X0*%
%TD*%
%TA.AperFunction,SMDPad,CuDef*%
%ADD35RotRect,0.150000X0.850000X45.000000*%
%TD*%
%TA.AperFunction,SMDPad,CuDef*%
%ADD36RotRect,0.150000X0.850000X315.000000*%
%TD*%
%TA.AperFunction,SMDPad,CuDef*%
%ADD37RotRect,5.800000X5.800000X315.000000*%
%TD*%
%TA.AperFunction,SMDPad,CuDef*%
%ADD38RoundRect,0.150000X0.150000X-0.650000X0.150000X0.650000X-0.150000X0.650000X-0.150000X-0.650000X0*%
%TD*%
%TA.AperFunction,SMDPad,CuDef*%
%ADD39RoundRect,0.140000X0.140000X0.170000X-0.140000X0.170000X-0.140000X-0.170000X0.140000X-0.170000X0*%
%TD*%
%TA.AperFunction,SMDPad,CuDef*%
%ADD40R,1.100000X2.000000*%
%TD*%
%TA.AperFunction,SMDPad,CuDef*%
%ADD41R,2.000000X1.000000*%
%TD*%
%TA.AperFunction,SMDPad,CuDef*%
%ADD42R,2.000000X2.000000*%
%TD*%
%TA.AperFunction,SMDPad,CuDef*%
%ADD43RoundRect,0.237500X-0.380070X0.044194X0.044194X-0.380070X0.380070X-0.044194X-0.044194X0.380070X0*%
%TD*%
%TA.AperFunction,ComponentPad*%
%ADD44R,1.600000X2.400000*%
%TD*%
%TA.AperFunction,ComponentPad*%
%ADD45O,1.600000X2.400000*%
%TD*%
%TA.AperFunction,SMDPad,CuDef*%
%ADD46RoundRect,0.140000X-0.170000X0.140000X-0.170000X-0.140000X0.170000X-0.140000X0.170000X0.140000X0*%
%TD*%
%TA.AperFunction,SMDPad,CuDef*%
%ADD47R,2.000000X0.600000*%
%TD*%
%TA.AperFunction,SMDPad,CuDef*%
%ADD48R,4.200000X0.700000*%
%TD*%
%TA.AperFunction,SMDPad,CuDef*%
%ADD49RotRect,0.900000X0.800000X45.000000*%
%TD*%
%TA.AperFunction,ComponentPad*%
%ADD50R,4.400000X1.800000*%
%TD*%
%TA.AperFunction,ComponentPad*%
%ADD51O,4.000000X1.800000*%
%TD*%
%TA.AperFunction,ComponentPad*%
%ADD52O,1.800000X4.000000*%
%TD*%
%TA.AperFunction,SMDPad,CuDef*%
%ADD53RoundRect,0.135000X0.035355X-0.226274X0.226274X-0.035355X-0.035355X0.226274X-0.226274X0.035355X0*%
%TD*%
%TA.AperFunction,SMDPad,CuDef*%
%ADD54RoundRect,0.140000X-0.140000X-0.170000X0.140000X-0.170000X0.140000X0.170000X-0.140000X0.170000X0*%
%TD*%
%TA.AperFunction,ViaPad*%
%ADD55C,0.600000*%
%TD*%
%TA.AperFunction,ViaPad*%
%ADD56C,1.000000*%
%TD*%
%TA.AperFunction,Conductor*%
%ADD57C,0.500000*%
%TD*%
%TA.AperFunction,Conductor*%
%ADD58C,0.750000*%
%TD*%
%TA.AperFunction,Conductor*%
%ADD59C,0.200000*%
%TD*%
%TA.AperFunction,Conductor*%
%ADD60C,1.000000*%
%TD*%
%TA.AperFunction,Conductor*%
%ADD61C,0.150000*%
%TD*%
%TA.AperFunction,Conductor*%
%ADD62C,0.180000*%
%TD*%
%TA.AperFunction,Conductor*%
%ADD63C,0.250000*%
%TD*%
G04 APERTURE END LIST*
D10*
%TO.P,C19,1*%
%TO.N,GND*%
X199799999Y-69625000D03*
%TO.P,C19,2*%
%TO.N,Net-(C19-Pad2)*%
X199799999Y-71350000D03*
%TD*%
D11*
%TO.P,C2,1*%
%TO.N,Net-(C1-Pad1)*%
X217737500Y-64800000D03*
%TO.P,C2,2*%
%TO.N,GND*%
X219462500Y-64800000D03*
%TD*%
D12*
%TO.P,TP8,1,1*%
%TO.N,GND*%
X245200000Y-60600000D03*
%TD*%
D13*
%TO.P,C20,1*%
%TO.N,GND*%
X183951922Y-71693954D03*
%TO.P,C20,2*%
%TO.N,Net-(C20-Pad2)*%
X184630744Y-72372776D03*
%TD*%
D14*
%TO.P,U2,1,GND*%
%TO.N,GND*%
X224900000Y-60350000D03*
D15*
%TO.P,U2,2,VO*%
%TO.N,Net-(C10-Pad1)*%
X227200000Y-54050000D03*
D14*
X227200000Y-60350000D03*
%TO.P,U2,3,VI*%
%TO.N,Net-(C7-Pad1)*%
X229500000Y-60350000D03*
%TD*%
D16*
%TO.P,REF\u002A\u002A,1*%
%TO.N,GND*%
X246431891Y-53568109D03*
X245000000Y-52975000D03*
X243568109Y-56431891D03*
X242975000Y-55000000D03*
X245000000Y-57025000D03*
X246431891Y-56431891D03*
D17*
X245000000Y-55000000D03*
D16*
X247025000Y-55000000D03*
X243568109Y-53568109D03*
%TD*%
D18*
%TO.P,C1,1*%
%TO.N,Net-(C1-Pad1)*%
X217762500Y-66600000D03*
%TO.P,C1,2*%
%TO.N,GND*%
X219837500Y-66600000D03*
%TD*%
D12*
%TO.P,TP6,1,1*%
%TO.N,Net-(C16-Pad1)*%
X242600000Y-70200000D03*
%TD*%
D19*
%TO.P,C37,1*%
%TO.N,+0V8*%
X186639411Y-75289411D03*
%TO.P,C37,2*%
%TO.N,GND*%
X185960589Y-74610589D03*
%TD*%
D12*
%TO.P,TP3,1,1*%
%TO.N,/USB_D-*%
X178200000Y-91300000D03*
%TD*%
D20*
%TO.P,R2,1*%
%TO.N,+5V*%
X218600000Y-70712500D03*
%TO.P,R2,2*%
%TO.N,Net-(C1-Pad1)*%
X218600000Y-68887500D03*
%TD*%
D21*
%TO.P,R0,1*%
%TO.N,GND*%
X202200000Y-74312500D03*
%TO.P,R0,2*%
%TO.N,Net-(IC1-Pad67)*%
X202200000Y-76137500D03*
%TD*%
D20*
%TO.P,R3,1*%
%TO.N,+3V3*%
X215000000Y-70712500D03*
%TO.P,R3,2*%
%TO.N,Net-(C4-Pad1)*%
X215000000Y-68887500D03*
%TD*%
D16*
%TO.P,REF\u002A\u002A,1*%
%TO.N,GND*%
X243568109Y-106431891D03*
D17*
X245000000Y-105000000D03*
D16*
X243568109Y-103568109D03*
X246431891Y-103568109D03*
X247025000Y-105000000D03*
X245000000Y-107025000D03*
X242975000Y-105000000D03*
X245000000Y-102975000D03*
X246431891Y-106431891D03*
%TD*%
D22*
%TO.P,J7,1,Pin_1*%
%TO.N,Net-(IC1-Pad57)*%
X209300000Y-56340000D03*
D23*
%TO.P,J7,2,Pin_2*%
%TO.N,Net-(IC1-Pad58)*%
X206760000Y-56340000D03*
%TO.P,J7,3,Pin_3*%
%TO.N,Net-(IC1-Pad59)*%
X204220000Y-56340000D03*
%TO.P,J7,4,Pin_4*%
%TO.N,Net-(IC1-Pad60)*%
X201680000Y-56340000D03*
%TO.P,J7,5,Pin_5*%
%TO.N,Net-(IC1-Pad61)*%
X199140000Y-56340000D03*
%TO.P,J7,6,Pin_6*%
%TO.N,Net-(IC1-Pad62)*%
X196600000Y-56340000D03*
%TO.P,J7,7,Pin_7*%
%TO.N,Net-(IC1-Pad63)*%
X194060000Y-56340000D03*
%TO.P,J7,8,Pin_8*%
%TO.N,Net-(IC1-Pad64)*%
X191520000Y-56340000D03*
%TO.P,J7,9,Pin_9*%
%TO.N,Net-(IC1-Pad65)*%
X188980000Y-56340000D03*
%TO.P,J7,10,Pin_10*%
%TO.N,Net-(IC1-Pad66)*%
X186440000Y-56340000D03*
%TO.P,J7,11,Pin_11*%
%TO.N,Net-(IC1-Pad68)*%
X183900000Y-56340000D03*
%TO.P,J7,12,Pin_12*%
%TO.N,Net-(IC1-Pad69)*%
X181360000Y-56340000D03*
%TO.P,J7,13,Pin_13*%
%TO.N,Net-(IC1-Pad70)*%
X178820000Y-56340000D03*
%TO.P,J7,14,Pin_14*%
%TO.N,Net-(IC1-Pad71)*%
X176280000Y-56340000D03*
%TO.P,J7,15,Pin_15*%
%TO.N,Net-(IC1-Pad1)*%
X173740000Y-56340000D03*
%TO.P,J7,16,Pin_16*%
%TO.N,Net-(IC1-Pad2)*%
X171200000Y-56340000D03*
%TD*%
D22*
%TO.P,J6,1,Pin_1*%
%TO.N,GND*%
X171200000Y-53800000D03*
D23*
%TO.P,J6,2,Pin_2*%
%TO.N,/AUX0*%
X173740000Y-53800000D03*
%TO.P,J6,3,Pin_3*%
%TO.N,/MICLP*%
X176280000Y-53800000D03*
%TO.P,J6,4,Pin_4*%
%TO.N,/HPOUTL*%
X178820000Y-53800000D03*
%TO.P,J6,5,Pin_5*%
%TO.N,GND*%
X181360000Y-53800000D03*
%TO.P,J6,6,Pin_6*%
%TO.N,/PB25*%
X183900000Y-53800000D03*
%TO.P,J6,7,Pin_7*%
%TO.N,/PB26*%
X186440000Y-53800000D03*
%TO.P,J6,8,Pin_8*%
%TO.N,GND*%
X188980000Y-53800000D03*
%TO.P,J6,9,Pin_9*%
%TO.N,/PB27*%
X191520000Y-53800000D03*
%TO.P,J6,10,Pin_10*%
%TO.N,/PB28*%
X194060000Y-53800000D03*
%TO.P,J6,11,Pin_11*%
%TO.N,GND*%
X196600000Y-53800000D03*
%TO.P,J6,12,Pin_12*%
%TO.N,/PB29*%
X199140000Y-53800000D03*
%TO.P,J6,13,Pin_13*%
%TO.N,/PB30*%
X201680000Y-53800000D03*
%TO.P,J6,14,Pin_14*%
%TO.N,GND*%
X204220000Y-53800000D03*
%TO.P,J6,15,Pin_15*%
%TO.N,+3V3*%
X206760000Y-53800000D03*
%TO.P,J6,16,Pin_16*%
X209300000Y-53800000D03*
%TD*%
D24*
%TO.P,C16,1*%
%TO.N,Net-(C16-Pad1)*%
X240437500Y-66600000D03*
%TO.P,C16,2*%
%TO.N,GND*%
X238362500Y-66600000D03*
%TD*%
D25*
%TO.P,R18,1*%
%TO.N,+3V3*%
X220587500Y-73987500D03*
%TO.P,R18,2*%
%TO.N,/MMC0_CLK*%
X222412500Y-73987500D03*
%TD*%
D13*
%TO.P,C21,1*%
%TO.N,Net-(C21-Pad1)*%
X186855224Y-68612939D03*
%TO.P,C21,2*%
%TO.N,GND*%
X187534046Y-69291761D03*
%TD*%
%TO.P,C38,1*%
%TO.N,+3V3*%
X195660589Y-83110589D03*
%TO.P,C38,2*%
%TO.N,GND*%
X196339411Y-83789411D03*
%TD*%
D12*
%TO.P,TP5,1,1*%
%TO.N,/USB_D+*%
X180038478Y-93138478D03*
%TD*%
D25*
%TO.P,R17,1*%
%TO.N,+3V3*%
X228537500Y-73987500D03*
%TO.P,R17,2*%
%TO.N,/MMC0_CMD*%
X230362500Y-73987500D03*
%TD*%
D26*
%TO.P,C18,1*%
%TO.N,Net-(C16-Pad1)*%
X240062500Y-63000000D03*
%TO.P,C18,2*%
%TO.N,GND*%
X238337500Y-63000000D03*
%TD*%
D21*
%TO.P,R13,1*%
%TO.N,+3V3*%
X200300000Y-91087500D03*
%TO.P,R13,2*%
%TO.N,Net-(R13-Pad2)*%
X200300000Y-92912500D03*
%TD*%
D20*
%TO.P,R8,1*%
%TO.N,+3V3*%
X235600000Y-70712500D03*
%TO.P,R8,2*%
%TO.N,Net-(C13-Pad1)*%
X235600000Y-68887500D03*
%TD*%
D27*
%TO.P,C25,1*%
%TO.N,+1V8*%
X188960589Y-72739411D03*
%TO.P,C25,2*%
%TO.N,GND*%
X189639411Y-72060589D03*
%TD*%
D19*
%TO.P,C30,1*%
%TO.N,+1V8*%
X188039411Y-73889411D03*
%TO.P,C30,2*%
%TO.N,GND*%
X187360589Y-73210589D03*
%TD*%
D25*
%TO.P,R15,1*%
%TO.N,+3V3*%
X235662500Y-73987500D03*
%TO.P,R15,2*%
%TO.N,/MMC0_D2*%
X237487500Y-73987500D03*
%TD*%
D28*
%TO.P,J1,A1,GND*%
%TO.N,GND*%
X172150000Y-99755000D03*
%TO.P,J1,A4,VBUS*%
%TO.N,+5V*%
X172950000Y-99755000D03*
D29*
%TO.P,J1,A5,CC1*%
%TO.N,Net-(J1-PadA5)*%
X174150000Y-99755000D03*
%TO.P,J1,A6,D+*%
%TO.N,/USB_D+*%
X175150000Y-99755000D03*
%TO.P,J1,A7,D-*%
%TO.N,/USB_D-*%
X175650000Y-99755000D03*
%TO.P,J1,A8,SBU1*%
%TO.N,unconnected-(J1-PadA8)*%
X176650000Y-99755000D03*
D28*
%TO.P,J1,A9,VBUS*%
%TO.N,+5V*%
X177850000Y-99755000D03*
%TO.P,J1,A12,GND*%
%TO.N,GND*%
X178650000Y-99755000D03*
%TO.P,J1,B1,GND*%
X178650000Y-99755000D03*
%TO.P,J1,B4,VBUS*%
%TO.N,+5V*%
X177850000Y-99755000D03*
D29*
%TO.P,J1,B5,CC2*%
%TO.N,Net-(J1-PadB5)*%
X177150000Y-99755000D03*
%TO.P,J1,B6,D+*%
%TO.N,/USB_D+*%
X176150000Y-99755000D03*
%TO.P,J1,B7,D-*%
%TO.N,/USB_D-*%
X174650000Y-99755000D03*
%TO.P,J1,B8,SBU2*%
%TO.N,unconnected-(J1-PadB8)*%
X173650000Y-99755000D03*
D28*
%TO.P,J1,B9,VBUS*%
%TO.N,+5V*%
X172950000Y-99755000D03*
%TO.P,J1,B12,GND*%
%TO.N,GND*%
X172150000Y-99755000D03*
D30*
%TO.P,J1,S1,SHIELD*%
%TO.N,unconnected-(J1-PadS1)*%
X171080000Y-104850000D03*
D31*
X171080000Y-100670000D03*
D30*
X179720000Y-104850000D03*
D31*
X179720000Y-100670000D03*
%TD*%
D11*
%TO.P,C15,1*%
%TO.N,Net-(C13-Pad1)*%
X234737500Y-63000000D03*
%TO.P,C15,2*%
%TO.N,GND*%
X236462500Y-63000000D03*
%TD*%
D26*
%TO.P,C5,1*%
%TO.N,Net-(C4-Pad1)*%
X215862500Y-64800000D03*
%TO.P,C5,2*%
%TO.N,GND*%
X214137500Y-64800000D03*
%TD*%
D12*
%TO.P,TP1,1,1*%
%TO.N,Net-(C1-Pad1)*%
X221800000Y-69800000D03*
%TD*%
D32*
%TO.P,D1,1,A1*%
%TO.N,/USB_D-*%
X175225000Y-97350000D03*
%TO.P,D1,2,A2*%
%TO.N,/USB_D+*%
X176525000Y-97350000D03*
%TO.P,D1,3,common*%
%TO.N,GND*%
X175875000Y-95350000D03*
%TD*%
D26*
%TO.P,C12,1*%
%TO.N,Net-(C10-Pad1)*%
X226262500Y-63000000D03*
%TO.P,C12,2*%
%TO.N,GND*%
X224537500Y-63000000D03*
%TD*%
D33*
%TO.P,R19,1*%
%TO.N,+3V3*%
X218862500Y-73987500D03*
%TO.P,R19,2*%
%TO.N,/MMC0_D0*%
X217037500Y-73987500D03*
%TD*%
D34*
%TO.P,C43,1*%
%TO.N,+0V8*%
X188689411Y-86760589D03*
%TO.P,C43,2*%
%TO.N,GND*%
X188010589Y-87439411D03*
%TD*%
%TO.P,C44,1*%
%TO.N,+0V8*%
X184789411Y-83610589D03*
%TO.P,C44,2*%
%TO.N,GND*%
X184110589Y-84289411D03*
%TD*%
D35*
%TO.P,IC1,1,PWM0_SSI1_DT_PB17*%
%TO.N,Net-(IC1-Pad1)*%
X190151992Y-73954757D03*
%TO.P,IC1,2,PWM1_SSI1_DR_PB18*%
%TO.N,Net-(IC1-Pad2)*%
X189904505Y-74202245D03*
%TO.P,IC1,3,VDDIO_OSC*%
%TO.N,+1V8*%
X189657017Y-74449732D03*
%TO.P,IC1,4,EXCLK_O*%
%TO.N,Net-(C21-Pad1)*%
X189409530Y-74697220D03*
%TO.P,IC1,5,EXCLK_I*%
%TO.N,Net-(C20-Pad2)*%
X189162043Y-74944707D03*
%TO.P,IC1,6,PLL_VDDHV*%
%TO.N,+1V8*%
X188914555Y-75192194D03*
%TO.P,IC1,7,PPRST_*%
%TO.N,unconnected-(IC1-Pad7)*%
X188667068Y-75439682D03*
%TO.P,IC1,8,EFUSE_AVD*%
%TO.N,GND*%
X188419581Y-75687169D03*
%TO.P,IC1,9,VDDIO0*%
%TO.N,+1V8*%
X188172093Y-75934656D03*
%TO.P,IC1,10,VDD_1*%
%TO.N,+0V8*%
X187924606Y-76182144D03*
%TO.P,IC1,11,SA2_PA18*%
%TO.N,/CAM_PE*%
X187677119Y-76429631D03*
%TO.P,IC1,12,SD7_SMB0_SCK_PA13*%
%TO.N,/I2C0_SCK*%
X187429631Y-76677119D03*
%TO.P,IC1,13,SD6_SMB0_SDA_PA12*%
%TO.N,/I2C0_SDA*%
X187182144Y-76924606D03*
%TO.P,IC1,14,RD_DVP_VSYNC_SMB1_SCK_MSC1_CMD_PA17*%
%TO.N,/PA17*%
X186934656Y-77172093D03*
%TO.P,IC1,15,CS2_DVP_HSYNC_SMB1_SDA_MSC1_CLK_PA16*%
%TO.N,/PA16*%
X186687169Y-77419581D03*
%TO.P,IC1,16,SA1_DVP_MCLK_PA15*%
%TO.N,/PA15*%
X186439682Y-77667068D03*
%TO.P,IC1,17,SA0_DVP_PCLK_PWM0_PA14*%
%TO.N,/PA14*%
X186192194Y-77914555D03*
%TO.P,IC1,18,SD5_DVP_D11_UART2_RXD_MSC1_D3_PA11*%
%TO.N,/PA11*%
X185944707Y-78162043D03*
%TO.P,IC1,19,SD4_DVP_D10_UART2_TXD_MSC1_D2_PA10*%
%TO.N,/PA10*%
X185697220Y-78409530D03*
%TO.P,IC1,20,SD3_DVP_D9_UART2_RTS_MSC1_D1_PA09*%
%TO.N,/PA09*%
X185449732Y-78657017D03*
%TO.P,IC1,21,SD2_DVP_D8_UART2_CTS_MSC1_D0_PA08*%
%TO.N,/PA08*%
X185202245Y-78904505D03*
%TO.P,IC1,22,SD1_DVP_D7_UART1_RXD_PA07*%
%TO.N,/PA07*%
X184954757Y-79151992D03*
D36*
%TO.P,IC1,23,SD0_DVP6_UART1_TXD_PA06*%
%TO.N,/PA06*%
X184954757Y-80248008D03*
%TO.P,IC1,24,MIPI_DATAN0_DVP_D5*%
%TO.N,/MIPI_0_N*%
X185202245Y-80495495D03*
%TO.P,IC1,25,MIPI_DATAP0_DVP_D4*%
%TO.N,/MIPI_0_P*%
X185449732Y-80742983D03*
%TO.P,IC1,26,MIPI_CLKN_DVP_D3*%
%TO.N,/MIPI_CLK_N*%
X185697220Y-80990470D03*
%TO.P,IC1,27,MIPI_CLKP_DVP_D2*%
%TO.N,/MIPI_CLK_P*%
X185944707Y-81237957D03*
%TO.P,IC1,28,MIPI_DATAN1_DVP_D1*%
%TO.N,/MIPI_1_N*%
X186192194Y-81485445D03*
%TO.P,IC1,29,MIPI_DATAP1_DVP_D0*%
%TO.N,/MIPI_1_P*%
X186439682Y-81732932D03*
%TO.P,IC1,30,MIPI_AVD08*%
%TO.N,+0V8*%
X186687169Y-81980419D03*
%TO.P,IC1,31,MIPI_AVD18*%
%TO.N,+1V8*%
X186934656Y-82227907D03*
%TO.P,IC1,32,ADC_AUX0*%
%TO.N,/AUX0*%
X187182144Y-82475394D03*
%TO.P,IC1,33,ADC_VREF*%
%TO.N,+1V8*%
X187429631Y-82722881D03*
%TO.P,IC1,34,ADC_AVDD*%
X187677119Y-82970369D03*
%TO.P,IC1,35,USB0PN*%
%TO.N,/USB_D-*%
X187924606Y-83217856D03*
%TO.P,IC1,36,USB0PP*%
%TO.N,/USB_D+*%
X188172093Y-83465344D03*
%TO.P,IC1,37,USB_AVD33*%
%TO.N,+3V3*%
X188419581Y-83712831D03*
%TO.P,IC1,38,USB_AVD18*%
%TO.N,+1V8*%
X188667068Y-83960318D03*
%TO.P,IC1,39,VDD_2*%
%TO.N,+0V8*%
X188914555Y-84207806D03*
%TO.P,IC1,40,VDDIO2*%
%TO.N,+3V3*%
X189162043Y-84455293D03*
%TO.P,IC1,41,MICLP*%
%TO.N,/MICLP*%
X189409530Y-84702780D03*
%TO.P,IC1,42,VCM*%
%TO.N,Net-(C22-Pad1)*%
X189657017Y-84950268D03*
%TO.P,IC1,43,CODEC_AVDD*%
%TO.N,+1V8*%
X189904505Y-85197755D03*
%TO.P,IC1,44,HPOUTL*%
%TO.N,/HPOUTL*%
X190151992Y-85445243D03*
D35*
%TO.P,IC1,45,SFC_CE0_PA28*%
%TO.N,/NOR_CE*%
X191248008Y-85445243D03*
%TO.P,IC1,46,SFC_DR_PA24*%
%TO.N,/NOR_DR*%
X191495495Y-85197755D03*
%TO.P,IC1,47,SFC_DT_PA23*%
%TO.N,/NOR_DT*%
X191742983Y-84950268D03*
%TO.P,IC1,48,SFC_CLK_PA27*%
%TO.N,/NOR_CK*%
X191990470Y-84702780D03*
%TO.P,IC1,49,MSC0_D1_SSI_SLV_DR_PB01*%
%TO.N,/MMC0_D1*%
X192237957Y-84455293D03*
%TO.P,IC1,50,MSC0_D0_SSI_SLV_DT_PB00*%
%TO.N,/MMC0_D0*%
X192485445Y-84207806D03*
%TO.P,IC1,51,MSC0_CLK_SSI_SLV_CLK_PB04*%
%TO.N,/MMC0_CLK*%
X192732932Y-83960318D03*
%TO.P,IC1,52,MSC0_CMD_SSI_SLV_CE0_PB05*%
%TO.N,/MMC0_CMD*%
X192980419Y-83712831D03*
%TO.P,IC1,53,MSC0_D3_PB03*%
%TO.N,/MMC0_D3*%
X193227907Y-83465344D03*
%TO.P,IC1,54,MSC0_D2_PB02*%
%TO.N,/MMC0_D2*%
X193475394Y-83217856D03*
%TO.P,IC1,55,VDD_3*%
%TO.N,+0V8*%
X193722881Y-82970369D03*
%TO.P,IC1,56,VDDIO1_1*%
%TO.N,+3V3*%
X193970369Y-82722881D03*
%TO.P,IC1,57,GMAC_MDIO_MSC1_D1_SLCD_D5_PB11*%
%TO.N,Net-(IC1-Pad57)*%
X194217856Y-82475394D03*
%TO.P,IC1,58,GMAC_MDCK_MSC1_D0_I2S_SDTO_SLCD_D4_PB10*%
%TO.N,Net-(IC1-Pad58)*%
X194465344Y-82227907D03*
%TO.P,IC1,59,GMAC_RXDV_MSC1_CMD_I2S_SDTI_SLCD_D3_PB09*%
%TO.N,Net-(IC1-Pad59)*%
X194712831Y-81980419D03*
%TO.P,IC1,60,GMAC_RXD0_I2S_DAC_LRCK_SLCD_WR_PB15/_SFC_CE1_PA26*%
%TO.N,Net-(IC1-Pad60)*%
X194960318Y-81732932D03*
%TO.P,IC1,61,GMAC_RXD1_SLCD_TE_PB16/_SFC_GPC_PA25*%
%TO.N,Net-(IC1-Pad61)*%
X195207806Y-81485445D03*
%TO.P,IC1,62,GMAC_TXCLK_SLCD_D0_PB06*%
%TO.N,Net-(IC1-Pad62)*%
X195455293Y-81237957D03*
%TO.P,IC1,63,GMAC_PHY_CLK_SLCD_D1_PB07*%
%TO.N,Net-(IC1-Pad63)*%
X195702780Y-80990470D03*
%TO.P,IC1,64,GMAC_TXD0_MSC1_D2_I2S_ADC_LRCK_SLCD_D6_PB13*%
%TO.N,Net-(IC1-Pad64)*%
X195950268Y-80742983D03*
%TO.P,IC1,65,GMAC_TXD1_MSC1_D3_I2S_DAC_MCLK_SLCD_D7_PB14*%
%TO.N,Net-(IC1-Pad65)*%
X196197755Y-80495495D03*
%TO.P,IC1,66,GMAC_TXEN_MSC1_CLK_I2S_ADC_MCLK_SLCD_D2_PB08*%
%TO.N,Net-(IC1-Pad66)*%
X196445243Y-80248008D03*
D36*
%TO.P,IC1,67,BOOT_SEL0_PC00*%
%TO.N,Net-(IC1-Pad67)*%
X196445243Y-79151992D03*
%TO.P,IC1,68,UART0_RTS_I2S_DAC_BCLK_SLCD_DC_PB21*%
%TO.N,Net-(IC1-Pad68)*%
X196197755Y-78904505D03*
%TO.P,IC1,69,UART0_CTS_I2S_ADC_BCLK_SLCD_CS_PB20*%
%TO.N,Net-(IC1-Pad69)*%
X195950268Y-78657017D03*
%TO.P,IC1,70,UART0_TXD_TDO_SLCD_RDY_PB22*%
%TO.N,Net-(IC1-Pad70)*%
X195702780Y-78409530D03*
%TO.P,IC1,71,UART0_RXD_TDI_PB19*%
%TO.N,Net-(IC1-Pad71)*%
X195455293Y-78162043D03*
%TO.P,IC1,72,VDD_4*%
%TO.N,+0V8*%
X195207806Y-77914555D03*
%TO.P,IC1,73,UART1_RXD_TMS_PB24*%
%TO.N,/UART_RX*%
X194960318Y-77667068D03*
%TO.P,IC1,74,UART1_TXD_TCK_PB23*%
%TO.N,/UART_TX*%
X194712831Y-77419581D03*
%TO.P,IC1,75,DDRVDD*%
%TO.N,+1V8*%
X194465344Y-77172093D03*
%TO.P,IC1,76,VDDMEM*%
X194217856Y-76924606D03*
%TO.P,IC1,77,VREF*%
%TO.N,Net-(C19-Pad2)*%
X193970369Y-76677119D03*
%TO.P,IC1,78,DDRPLL_VCCD*%
%TO.N,+0V8*%
X193722881Y-76429631D03*
%TO.P,IC1,79,DDRPLL_VCCA*%
%TO.N,+1V8*%
X193475394Y-76182144D03*
%TO.P,IC1,80,GPIO_PB31*%
%TO.N,/CAM_LED*%
X193227907Y-75934656D03*
%TO.P,IC1,81,SSI1_CE0_DMIC_DAT1_PB30*%
%TO.N,/PB30*%
X192980419Y-75687169D03*
%TO.P,IC1,82,SSI1_CLK_DMIC_DAT0_PB29*%
%TO.N,/PB29*%
X192732932Y-75439682D03*
%TO.P,IC1,83,VDD_5*%
%TO.N,+0V8*%
X192485445Y-75192194D03*
%TO.P,IC1,84,VDDIO1_2*%
%TO.N,+3V3*%
X192237957Y-74944707D03*
%TO.P,IC1,85,PWM3_SSI1_DR_DMIC_CLK_PB28*%
%TO.N,/PB28*%
X191990470Y-74697220D03*
%TO.P,IC1,86,PWM2_SSI1_DT_DRV_VBUS_PB27*%
%TO.N,/PB27*%
X191742983Y-74449732D03*
%TO.P,IC1,87,SMB1_SCK_SSI1_CLK_PB26*%
%TO.N,/PB26*%
X191495495Y-74202245D03*
%TO.P,IC1,88,SMB1_SDA_SSI1_CE0_PB25*%
%TO.N,/PB25*%
X191248008Y-73954757D03*
D37*
%TO.P,IC1,89,EP*%
%TO.N,GND*%
X190700000Y-79700000D03*
%TD*%
D33*
%TO.P,R16,1*%
%TO.N,+3V3*%
X233912500Y-73987500D03*
%TO.P,R16,2*%
%TO.N,/MMC0_D3*%
X232087500Y-73987500D03*
%TD*%
D20*
%TO.P,R12,1*%
%TO.N,/NOR_CE*%
X198600000Y-92912500D03*
%TO.P,R12,2*%
%TO.N,+3V3*%
X198600000Y-91087500D03*
%TD*%
D14*
%TO.P,U3,1,VI*%
%TO.N,Net-(C13-Pad1)*%
X235100000Y-60350000D03*
D15*
%TO.P,U3,2,GND*%
%TO.N,GND*%
X237400000Y-54050000D03*
D14*
X237400000Y-60350000D03*
%TO.P,U3,3,VO*%
%TO.N,Net-(C16-Pad1)*%
X239700000Y-60350000D03*
%TD*%
D21*
%TO.P,R11,1*%
%TO.N,GND*%
X201400000Y-69575000D03*
%TO.P,R11,2*%
%TO.N,Net-(C19-Pad2)*%
X201400000Y-71400000D03*
%TD*%
D16*
%TO.P,REF\u002A\u002A,1*%
%TO.N,GND*%
X166431891Y-103568109D03*
X165000000Y-102975000D03*
D17*
X165000000Y-105000000D03*
D16*
X167025000Y-105000000D03*
X166431891Y-106431891D03*
X162975000Y-105000000D03*
X163568109Y-103568109D03*
X165000000Y-107025000D03*
X163568109Y-106431891D03*
%TD*%
D18*
%TO.P,C13,1*%
%TO.N,Net-(C13-Pad1)*%
X234362500Y-66600000D03*
%TO.P,C13,2*%
%TO.N,GND*%
X236437500Y-66600000D03*
%TD*%
D34*
%TO.P,C39,1*%
%TO.N,+3V3*%
X187639411Y-85010589D03*
%TO.P,C39,2*%
%TO.N,GND*%
X186960589Y-85689411D03*
%TD*%
D12*
%TO.P,TP2,1,1*%
%TO.N,Net-(C4-Pad1)*%
X210400000Y-65200000D03*
%TD*%
D14*
%TO.P,U1,1,GND*%
%TO.N,GND*%
X214500000Y-60350000D03*
%TO.P,U1,2,VO*%
%TO.N,Net-(C4-Pad1)*%
X216800000Y-60350000D03*
D15*
X216800000Y-54050000D03*
D14*
%TO.P,U1,3,VI*%
%TO.N,Net-(C1-Pad1)*%
X219100000Y-60350000D03*
%TD*%
D11*
%TO.P,C9,1*%
%TO.N,Net-(C7-Pad1)*%
X228037500Y-63000000D03*
%TO.P,C9,2*%
%TO.N,GND*%
X229762500Y-63000000D03*
%TD*%
D38*
%TO.P,U4,1,~{CS}*%
%TO.N,/NOR_CE*%
X202295000Y-94600000D03*
%TO.P,U4,2,DO(IO1)*%
%TO.N,/NOR_DR*%
X203565000Y-94600000D03*
%TO.P,U4,3,IO2*%
%TO.N,Net-(R13-Pad2)*%
X204835000Y-94600000D03*
%TO.P,U4,4,GND*%
%TO.N,GND*%
X206105000Y-94600000D03*
%TO.P,U4,5,DI(IO0)*%
%TO.N,/NOR_DT*%
X206105000Y-87400000D03*
%TO.P,U4,6,CLK*%
%TO.N,/NOR_CK*%
X204835000Y-87400000D03*
%TO.P,U4,7,IO3*%
%TO.N,Net-(R14-Pad1)*%
X203565000Y-87400000D03*
%TO.P,U4,8,VCC*%
%TO.N,+3V3*%
X202295000Y-87400000D03*
%TD*%
D22*
%TO.P,J5,1,Pin_1*%
%TO.N,/UART_TX*%
X246200000Y-90800000D03*
D23*
%TO.P,J5,2,Pin_2*%
%TO.N,/UART_RX*%
X246200000Y-93340000D03*
%TO.P,J5,3,Pin_3*%
%TO.N,GND*%
X246200000Y-95880000D03*
%TD*%
D21*
%TO.P,R1,1*%
%TO.N,+3V3*%
X200600000Y-74312499D03*
%TO.P,R1,2*%
%TO.N,Net-(IC1-Pad67)*%
X200600000Y-76137499D03*
%TD*%
D22*
%TO.P,J4,1,Pin_1*%
%TO.N,/PA06*%
X171200000Y-61480000D03*
D23*
%TO.P,J4,2,Pin_2*%
%TO.N,/PA07*%
X173740000Y-61480000D03*
%TO.P,J4,3,Pin_3*%
%TO.N,/PA08*%
X176280000Y-61480000D03*
%TO.P,J4,4,Pin_4*%
%TO.N,/PA09*%
X178820000Y-61480000D03*
%TO.P,J4,5,Pin_5*%
%TO.N,/PA10*%
X181360000Y-61480000D03*
%TO.P,J4,6,Pin_6*%
%TO.N,/PA11*%
X183900000Y-61480000D03*
%TO.P,J4,7,Pin_7*%
%TO.N,/PA14*%
X186440000Y-61480000D03*
%TO.P,J4,8,Pin_8*%
%TO.N,/PA15*%
X188980000Y-61480000D03*
%TO.P,J4,9,Pin_9*%
%TO.N,/PA16*%
X191520000Y-61480000D03*
%TO.P,J4,10,Pin_10*%
%TO.N,/PA17*%
X194060000Y-61480000D03*
%TD*%
D19*
%TO.P,C34,1*%
%TO.N,+1V8*%
X187339411Y-74589411D03*
%TO.P,C34,2*%
%TO.N,GND*%
X186660589Y-73910589D03*
%TD*%
D39*
%TO.P,C23,1*%
%TO.N,+3V3*%
X200680000Y-87950000D03*
%TO.P,C23,2*%
%TO.N,GND*%
X199720000Y-87950000D03*
%TD*%
D40*
%TO.P,J2,1,CD/DAT3*%
%TO.N,/MMC0_D3*%
X232075000Y-77237500D03*
%TO.P,J2,2,CMD*%
%TO.N,/MMC0_CMD*%
X229575000Y-77237500D03*
%TO.P,J2,3,VSS*%
%TO.N,GND*%
X227075000Y-77237500D03*
%TO.P,J2,4,VDD*%
%TO.N,+3V3*%
X224575000Y-77237500D03*
%TO.P,J2,5,CLK*%
%TO.N,/MMC0_CLK*%
X222075000Y-77237500D03*
%TO.P,J2,6,VSS*%
%TO.N,GND*%
X219575000Y-77237500D03*
%TO.P,J2,7,DAT0*%
%TO.N,/MMC0_D0*%
X217150000Y-77237500D03*
%TO.P,J2,8,DAT1*%
%TO.N,/MMC0_D1*%
X215450000Y-77237500D03*
%TO.P,J2,9,DAT2*%
%TO.N,/MMC0_D2*%
X234575000Y-77237500D03*
D41*
%TO.P,J2,CP*%
%TO.N,N/C*%
X212400000Y-88637500D03*
D42*
%TO.P,J2,SH*%
X211500000Y-102637500D03*
X240500000Y-83987500D03*
X240500000Y-102637500D03*
X211500000Y-83987500D03*
D41*
%TO.P,J2,SW*%
X212400000Y-100187500D03*
%TO.P,J2,WP*%
X212400000Y-97587500D03*
%TD*%
D26*
%TO.P,C11,1*%
%TO.N,Net-(C10-Pad1)*%
X226262500Y-64800000D03*
%TO.P,C11,2*%
%TO.N,GND*%
X224537500Y-64800000D03*
%TD*%
D20*
%TO.P,R9,1*%
%TO.N,+0V8*%
X239200000Y-70712500D03*
%TO.P,R9,2*%
%TO.N,Net-(C16-Pad1)*%
X239200000Y-68887500D03*
%TD*%
D27*
%TO.P,C46,1*%
%TO.N,+0V8*%
X196960589Y-76739411D03*
%TO.P,C46,2*%
%TO.N,GND*%
X197639411Y-76060589D03*
%TD*%
%TO.P,C45,1*%
%TO.N,+0V8*%
X193460589Y-73739411D03*
%TO.P,C45,2*%
%TO.N,GND*%
X194139411Y-73060589D03*
%TD*%
D16*
%TO.P,REF\u002A\u002A,1*%
%TO.N,GND*%
X167025000Y-55000000D03*
X166431891Y-56431891D03*
X166431891Y-53568109D03*
X163568109Y-53568109D03*
X165000000Y-52975000D03*
X165000000Y-57025000D03*
X162975000Y-55000000D03*
X163568109Y-56431891D03*
D17*
X165000000Y-55000000D03*
%TD*%
D11*
%TO.P,C8,1*%
%TO.N,Net-(C7-Pad1)*%
X228075000Y-64800000D03*
%TO.P,C8,2*%
%TO.N,GND*%
X229800000Y-64800000D03*
%TD*%
D43*
%TO.P,C22,1*%
%TO.N,Net-(C22-Pad1)*%
X189890120Y-88940120D03*
%TO.P,C22,2*%
%TO.N,GND*%
X191109880Y-90159880D03*
%TD*%
D26*
%TO.P,C6,1*%
%TO.N,Net-(C4-Pad1)*%
X215862500Y-63000000D03*
%TO.P,C6,2*%
%TO.N,GND*%
X214137500Y-63000000D03*
%TD*%
%TO.P,C17,1*%
%TO.N,Net-(C16-Pad1)*%
X240062500Y-64800000D03*
%TO.P,C17,2*%
%TO.N,GND*%
X238337500Y-64800000D03*
%TD*%
D44*
%TO.P,U5,1,~{CS}*%
%TO.N,/NOR_CE*%
X199600000Y-105800000D03*
D45*
%TO.P,U5,2,DO(IO1)*%
%TO.N,/NOR_DR*%
X202140000Y-105800000D03*
%TO.P,U5,3,IO2*%
%TO.N,Net-(R13-Pad2)*%
X204680000Y-105800000D03*
%TO.P,U5,4,GND*%
%TO.N,GND*%
X207220000Y-105800000D03*
%TO.P,U5,5,DI(IO0)*%
%TO.N,/NOR_DT*%
X207220000Y-98180000D03*
%TO.P,U5,6,CLK*%
%TO.N,/NOR_CK*%
X204680000Y-98180000D03*
%TO.P,U5,7,IO3*%
%TO.N,Net-(R14-Pad1)*%
X202140000Y-98180000D03*
%TO.P,U5,8,VCC*%
%TO.N,+3V3*%
X199600000Y-98180000D03*
%TD*%
D13*
%TO.P,C42,1*%
%TO.N,+0V8*%
X194910589Y-83810589D03*
%TO.P,C42,2*%
%TO.N,GND*%
X195589411Y-84489411D03*
%TD*%
D20*
%TO.P,R7,1*%
%TO.N,+1V8*%
X225400000Y-70712500D03*
%TO.P,R7,2*%
%TO.N,Net-(C10-Pad1)*%
X225400000Y-68887500D03*
%TD*%
D27*
%TO.P,C41,1*%
%TO.N,+0V8*%
X195210589Y-75689411D03*
%TO.P,C41,2*%
%TO.N,GND*%
X195889411Y-75010589D03*
%TD*%
%TO.P,C26,1*%
%TO.N,+1V8*%
X195910589Y-76389411D03*
%TO.P,C26,2*%
%TO.N,GND*%
X196589411Y-75710589D03*
%TD*%
D34*
%TO.P,C32,1*%
%TO.N,+1V8*%
X186339411Y-83810589D03*
%TO.P,C32,2*%
%TO.N,GND*%
X185660589Y-84489411D03*
%TD*%
D46*
%TO.P,C40,1*%
%TO.N,+3V3*%
X171900000Y-87120000D03*
%TO.P,C40,2*%
%TO.N,GND*%
X171900000Y-88080000D03*
%TD*%
D13*
%TO.P,C31,1*%
%TO.N,+1V8*%
X190010589Y-87160589D03*
%TO.P,C31,2*%
%TO.N,GND*%
X190689411Y-87839411D03*
%TD*%
D47*
%TO.P,J3,1,1*%
%TO.N,GND*%
X169100000Y-73000000D03*
%TO.P,J3,2,2*%
%TO.N,/MIPI_0_N*%
X169100000Y-74000000D03*
%TO.P,J3,3,3*%
%TO.N,/MIPI_0_P*%
X169100000Y-75000000D03*
%TO.P,J3,4,4*%
%TO.N,GND*%
X169100000Y-76000000D03*
%TO.P,J3,5,5*%
%TO.N,/MIPI_1_N*%
X169100000Y-77000000D03*
%TO.P,J3,6,6*%
%TO.N,/MIPI_1_P*%
X169100000Y-78000000D03*
%TO.P,J3,7,7*%
%TO.N,GND*%
X169100000Y-79000000D03*
%TO.P,J3,8,8*%
%TO.N,/MIPI_CLK_N*%
X169100000Y-80000000D03*
%TO.P,J3,9,9*%
%TO.N,/MIPI_CLK_P*%
X169100000Y-81000000D03*
%TO.P,J3,10,10*%
%TO.N,GND*%
X169100000Y-82000000D03*
%TO.P,J3,11,11*%
%TO.N,/CAM_PE*%
X169100000Y-83000000D03*
%TO.P,J3,12,12*%
%TO.N,/CAM_LED*%
X169100000Y-84000000D03*
%TO.P,J3,13,13*%
%TO.N,/I2C0_SCK*%
X169100000Y-85000000D03*
%TO.P,J3,14,14*%
%TO.N,/I2C0_SDA*%
X169100000Y-86000000D03*
%TO.P,J3,15,15*%
%TO.N,+3V3*%
X169100000Y-87000000D03*
D48*
%TO.P,J3,MP1,MP1*%
%TO.N,unconnected-(J3-PadMP1)*%
X167000000Y-72000000D03*
%TO.P,J3,MP2,MP2*%
%TO.N,unconnected-(J3-PadMP2)*%
X167000000Y-88000000D03*
%TD*%
D21*
%TO.P,R10,1*%
%TO.N,+1V8*%
X202999999Y-69575000D03*
%TO.P,R10,2*%
%TO.N,Net-(C19-Pad2)*%
X202999999Y-71400000D03*
%TD*%
D20*
%TO.P,R14,1*%
%TO.N,Net-(R14-Pad1)*%
X208175000Y-93012500D03*
%TO.P,R14,2*%
%TO.N,+3V3*%
X208175000Y-91187500D03*
%TD*%
D18*
%TO.P,C7,1*%
%TO.N,Net-(C7-Pad1)*%
X228162500Y-66600000D03*
%TO.P,C7,2*%
%TO.N,GND*%
X230237500Y-66600000D03*
%TD*%
D21*
%TO.P,R5,1*%
%TO.N,GND*%
X178100000Y-95487500D03*
%TO.P,R5,2*%
%TO.N,Net-(J1-PadB5)*%
X178100000Y-97312500D03*
%TD*%
D34*
%TO.P,C28,1*%
%TO.N,+1V8*%
X187989411Y-86060589D03*
%TO.P,C28,2*%
%TO.N,GND*%
X187310589Y-86739411D03*
%TD*%
D49*
%TO.P,Y1,1,1*%
%TO.N,Net-(C20-Pad2)*%
X185652514Y-71450000D03*
%TO.P,Y1,2,2*%
%TO.N,GND*%
X186642463Y-70460051D03*
%TO.P,Y1,3,3*%
%TO.N,Net-(C21-Pad1)*%
X185864646Y-69682234D03*
%TO.P,Y1,4,4*%
%TO.N,GND*%
X184874697Y-70672183D03*
%TD*%
D50*
%TO.P,J8,1*%
%TO.N,+5V*%
X190400000Y-93850000D03*
D51*
%TO.P,J8,2*%
%TO.N,GND*%
X190400000Y-99650000D03*
D52*
%TO.P,J8,3*%
%TO.N,N/C*%
X195200000Y-96850000D03*
%TD*%
D27*
%TO.P,C36,1*%
%TO.N,+3V3*%
X192860589Y-72939411D03*
%TO.P,C36,2*%
%TO.N,GND*%
X193539411Y-72260589D03*
%TD*%
D20*
%TO.P,R6,1*%
%TO.N,+3V3*%
X228800000Y-70712500D03*
%TO.P,R6,2*%
%TO.N,Net-(C7-Pad1)*%
X228800000Y-68887500D03*
%TD*%
D11*
%TO.P,C14,1*%
%TO.N,Net-(C13-Pad1)*%
X234737500Y-64800000D03*
%TO.P,C14,2*%
%TO.N,GND*%
X236462500Y-64800000D03*
%TD*%
D53*
%TO.P,R21,1*%
%TO.N,Net-(C20-Pad2)*%
X186730852Y-72280852D03*
%TO.P,R21,2*%
%TO.N,Net-(C21-Pad1)*%
X187452100Y-71559604D03*
%TD*%
D11*
%TO.P,C3,1*%
%TO.N,Net-(C1-Pad1)*%
X217737500Y-63000000D03*
%TO.P,C3,2*%
%TO.N,GND*%
X219462500Y-63000000D03*
%TD*%
D25*
%TO.P,R20,1*%
%TO.N,+3V3*%
X213437500Y-73987500D03*
%TO.P,R20,2*%
%TO.N,/MMC0_D1*%
X215262500Y-73987500D03*
%TD*%
D12*
%TO.P,TP4,1,1*%
%TO.N,Net-(C10-Pad1)*%
X222000000Y-57800000D03*
%TD*%
D21*
%TO.P,R4,1*%
%TO.N,GND*%
X173620000Y-95462500D03*
%TO.P,R4,2*%
%TO.N,Net-(J1-PadA5)*%
X173620000Y-97287500D03*
%TD*%
D27*
%TO.P,C35,1*%
%TO.N,+1V8*%
X194510589Y-74989411D03*
%TO.P,C35,2*%
%TO.N,GND*%
X195189411Y-74310589D03*
%TD*%
D24*
%TO.P,C10,1*%
%TO.N,Net-(C10-Pad1)*%
X226237500Y-66600000D03*
%TO.P,C10,2*%
%TO.N,GND*%
X224162500Y-66600000D03*
%TD*%
D54*
%TO.P,C24,1*%
%TO.N,+3V3*%
X225145000Y-73987500D03*
%TO.P,C24,2*%
%TO.N,GND*%
X226105000Y-73987500D03*
%TD*%
D24*
%TO.P,C4,1*%
%TO.N,Net-(C4-Pad1)*%
X215837500Y-66600000D03*
%TO.P,C4,2*%
%TO.N,GND*%
X213762500Y-66600000D03*
%TD*%
D55*
%TO.N,GND*%
X212600000Y-66650000D03*
X219600000Y-78800000D03*
D56*
X185000000Y-107000000D03*
D55*
X186400000Y-86200000D03*
X194100000Y-71700000D03*
X223000000Y-66600000D03*
D56*
X163000000Y-70000000D03*
D55*
X194125000Y-79725000D03*
X238300000Y-62000000D03*
X167750000Y-79000000D03*
X189475000Y-78375000D03*
X185345142Y-74154858D03*
X194700000Y-72500000D03*
D56*
X247000000Y-65000000D03*
X190000000Y-107000000D03*
D55*
X180500000Y-99200000D03*
X171200000Y-98800000D03*
X227100000Y-78800000D03*
X220700000Y-63000000D03*
X187900000Y-70100000D03*
D56*
X195000000Y-107000000D03*
D55*
X185900000Y-73600000D03*
X206100000Y-93300000D03*
X196400000Y-74500000D03*
D56*
X247000000Y-84999999D03*
D55*
X197100000Y-75200000D03*
X195700000Y-73800000D03*
X198850000Y-87950000D03*
X184200000Y-70000000D03*
X236500000Y-63950000D03*
D56*
X163000000Y-90000000D03*
D55*
X220650000Y-64800000D03*
X214500000Y-59000000D03*
X221000000Y-66600000D03*
D56*
X163000000Y-65000000D03*
X163000000Y-75000001D03*
D55*
X191850000Y-90850000D03*
X186400000Y-73000000D03*
X191200000Y-87300000D03*
D56*
X163000000Y-84999999D03*
X163000000Y-60000000D03*
X220000000Y-107000000D03*
D55*
X238150000Y-59350000D03*
D56*
X163000000Y-95000000D03*
X180000000Y-107000000D03*
D55*
X236500000Y-62100000D03*
D56*
X245225000Y-62575000D03*
X210000000Y-107000000D03*
D55*
X172700000Y-95400000D03*
X167750000Y-75975000D03*
X171900000Y-88850000D03*
X183600000Y-84800000D03*
X235500000Y-53100000D03*
X183400000Y-71100000D03*
X223300000Y-64800000D03*
X231050000Y-63000000D03*
X196100000Y-85000000D03*
X175900000Y-94600000D03*
D56*
X240000000Y-107000000D03*
D55*
X187500000Y-88000000D03*
D56*
X163000000Y-100000000D03*
X170000000Y-107000000D03*
X230000000Y-107000000D03*
X225000000Y-107000000D03*
D55*
X190442628Y-76368128D03*
X238350000Y-65600000D03*
X186800000Y-87300000D03*
X203100000Y-74300000D03*
X189475000Y-81875000D03*
X185100000Y-85000000D03*
X201400000Y-68600000D03*
X235500000Y-55000000D03*
D56*
X247000000Y-100000000D03*
D55*
X239300000Y-53000000D03*
D56*
X247000000Y-80000001D03*
D55*
X188200000Y-68700000D03*
X231400000Y-66600000D03*
X187949500Y-78950000D03*
X189100000Y-71500000D03*
X197875500Y-75300000D03*
X167750000Y-73000000D03*
D56*
X163000000Y-105000000D03*
D55*
X213000000Y-63050000D03*
D56*
X247000000Y-60000000D03*
X235000000Y-107000000D03*
D55*
X214500000Y-61800000D03*
X212950000Y-64850000D03*
D56*
X247000000Y-75000000D03*
D55*
X199800000Y-68600000D03*
D56*
X163000000Y-80000001D03*
D55*
X192875000Y-78375000D03*
D56*
X247000000Y-70000000D03*
D55*
X179000000Y-95400000D03*
X224900000Y-61800000D03*
X192950000Y-80750000D03*
X196900000Y-84300000D03*
X223350000Y-63000000D03*
X224900000Y-58900000D03*
X188350000Y-80575000D03*
X231000000Y-64800000D03*
X239300000Y-55100000D03*
X190580378Y-82630378D03*
X236500000Y-65600000D03*
X191650000Y-81550000D03*
D56*
X215000000Y-107000000D03*
X175000000Y-107000000D03*
D55*
X167650000Y-82000000D03*
X236650000Y-59350000D03*
X238350000Y-63950000D03*
%TO.N,Net-(C19-Pad2)*%
X193550000Y-77625000D03*
X204200000Y-73125000D03*
%TO.N,+3V3*%
X193300000Y-81900000D03*
X201600000Y-87950000D03*
X208175000Y-90175000D03*
D56*
X212050000Y-75775000D03*
D55*
X212400000Y-74000000D03*
D56*
X227200000Y-73900000D03*
D55*
X235700000Y-75000000D03*
X212425000Y-60400000D03*
X220587500Y-74900000D03*
X228500000Y-75000000D03*
X211875000Y-70725000D03*
X199900000Y-73400000D03*
X172750000Y-87100000D03*
X192525500Y-72025000D03*
X233900000Y-75000000D03*
X191200000Y-75300000D03*
D56*
X239100000Y-73900000D03*
D55*
X199525000Y-91075000D03*
D56*
X212075000Y-53800000D03*
X216400000Y-70700000D03*
D55*
X170550000Y-87050000D03*
X224600000Y-75700000D03*
X224400000Y-74000000D03*
X218800000Y-74900000D03*
X189400000Y-83400000D03*
%TO.N,+1V8*%
X188400000Y-72200000D03*
X204450000Y-71800000D03*
D56*
X224100000Y-70700000D03*
D55*
X187800000Y-75000000D03*
X189600000Y-75800000D03*
X194100000Y-75400000D03*
X187000000Y-83350000D03*
X190010589Y-87160589D03*
X190300000Y-75100000D03*
X188200000Y-82200000D03*
X195283972Y-76716028D03*
X188250500Y-85500000D03*
%TO.N,+0V8*%
X188851886Y-87550000D03*
X187300000Y-81200000D03*
D56*
X237900000Y-70700000D03*
D55*
X192800000Y-82600000D03*
X188400000Y-77100000D03*
X191900000Y-76000000D03*
X196300000Y-77149114D03*
X194710901Y-76016528D03*
%TO.N,Net-(IC1-Pad1)*%
X182426990Y-64326990D03*
X183949773Y-65984775D03*
%TO.N,Net-(IC1-Pad2)*%
X183419794Y-66514754D03*
X181897012Y-64856968D03*
%TO.N,/MIPI_CLK_N*%
X178115034Y-80100000D03*
X181882843Y-81387657D03*
%TO.N,/MIPI_CLK_P*%
X178115034Y-80900000D03*
X181317157Y-81953343D03*
%TO.N,/NOR_CK*%
X204150000Y-90050000D03*
X204182082Y-88425813D03*
%TO.N,/MMC0_D1*%
X215800000Y-79400000D03*
X215800000Y-81900000D03*
%TO.N,/MMC0_D0*%
X217200000Y-81500000D03*
X217200000Y-79400000D03*
%TO.N,/MMC0_CLK*%
X222000000Y-81200000D03*
X222000000Y-79300000D03*
%TO.N,/MMC0_CMD*%
X229600000Y-79400000D03*
X229600000Y-80900000D03*
%TO.N,/MMC0_D3*%
X232100000Y-80524500D03*
X232100000Y-79300000D03*
D56*
%TO.N,/HPOUTL*%
X169025000Y-54925000D03*
D55*
%TO.N,Net-(IC1-Pad58)*%
X193976284Y-81301299D03*
X196995878Y-82775500D03*
%TO.N,Net-(IC1-Pad60)*%
X197977297Y-82175500D03*
X194700000Y-80700000D03*
%TO.N,Net-(IC1-Pad62)*%
X200150000Y-57700000D03*
%TO.N,Net-(IC1-Pad63)*%
X200154142Y-58449491D03*
%TO.N,Net-(IC1-Pad64)*%
X200185462Y-59222568D03*
%TO.N,Net-(IC1-Pad65)*%
X198400000Y-80175500D03*
X195356896Y-80170335D03*
X200201543Y-59971898D03*
%TO.N,Net-(IC1-Pad66)*%
X200200000Y-60750000D03*
%TO.N,Net-(IC1-Pad68)*%
X197523192Y-59526808D03*
%TO.N,Net-(IC1-Pad69)*%
X196756299Y-59501671D03*
%TO.N,Net-(IC1-Pad70)*%
X196724500Y-60250498D03*
%TO.N,Net-(IC1-Pad71)*%
X196725500Y-61000000D03*
%TO.N,/UART_RX*%
X207331538Y-84131538D03*
X203957184Y-78882684D03*
%TO.N,/UART_TX*%
X197166622Y-79423508D03*
X194075500Y-78348513D03*
X204575500Y-77800000D03*
X208200000Y-83600000D03*
D56*
%TO.N,+5V*%
X210200000Y-79200000D03*
D55*
X179500000Y-98300000D03*
X172300000Y-97800000D03*
%TO.N,Net-(R13-Pad2)*%
X204800000Y-93000000D03*
X202700000Y-92950000D03*
%TO.N,Net-(R14-Pad1)*%
X207950000Y-96200000D03*
X202600000Y-96200000D03*
%TO.N,/PB26*%
X185650000Y-63125500D03*
X185850000Y-65100000D03*
%TO.N,/PB25*%
X184850000Y-65350000D03*
X184550000Y-63100000D03*
%TO.N,/CAM_PE*%
X186726184Y-76221865D03*
X180000000Y-84600000D03*
%TO.N,/I2C0_SCK*%
X166800000Y-85000000D03*
X186300000Y-80200000D03*
X181800000Y-84600000D03*
%TO.N,/I2C0_SDA*%
X185700000Y-79700000D03*
X182700000Y-84600000D03*
X166800000Y-86200000D03*
%TO.N,/CAM_LED*%
X180900000Y-84600000D03*
X192500000Y-76600000D03*
%TD*%
D57*
%TO.N,Net-(C1-Pad1)*%
X218600000Y-68887500D02*
X220887500Y-68887500D01*
D58*
X219100000Y-61450000D02*
X219100000Y-60350000D01*
X218600000Y-68887500D02*
X218600000Y-68650000D01*
X217737500Y-66600000D02*
X217737500Y-63000000D01*
X217737500Y-67787500D02*
X217737500Y-66600000D01*
X218600000Y-68650000D02*
X217737500Y-67787500D01*
D57*
X220887500Y-68887500D02*
X221800000Y-69800000D01*
D58*
X217737500Y-63000000D02*
X217737500Y-62812500D01*
X217737500Y-62812500D02*
X219100000Y-61450000D01*
%TO.N,GND*%
X237400000Y-61300000D02*
X237400000Y-60350000D01*
D59*
X194139411Y-73060589D02*
X194700000Y-72500000D01*
X183600000Y-84800000D02*
X184110589Y-84289411D01*
D57*
X227100000Y-77262500D02*
X227075000Y-77237500D01*
D58*
X212950000Y-64850000D02*
X214087500Y-64850000D01*
D57*
X227100000Y-78800000D02*
X227100000Y-77262500D01*
D59*
X186610589Y-73210589D02*
X186400000Y-73000000D01*
D58*
X238300000Y-62000000D02*
X237600000Y-61300000D01*
X236462500Y-62137500D02*
X236462500Y-66600000D01*
D59*
X197639411Y-76060589D02*
X197639411Y-75536089D01*
D57*
X180500000Y-99200000D02*
X179205000Y-99200000D01*
D59*
X185150000Y-85000000D02*
X185660589Y-84489411D01*
X190550000Y-82600000D02*
X190550000Y-77817588D01*
D57*
X227075000Y-77237500D02*
X227075000Y-76075000D01*
D59*
X196850000Y-84300000D02*
X196339411Y-83789411D01*
X197639411Y-75536089D02*
X197875500Y-75300000D01*
X185800873Y-74610589D02*
X185960589Y-74610589D01*
X184872183Y-70672183D02*
X184200000Y-70000000D01*
X191850000Y-90850000D02*
X191800000Y-90850000D01*
X173557500Y-95400000D02*
X173620000Y-95462500D01*
D58*
X213000000Y-63050000D02*
X214087500Y-63050000D01*
D59*
X186642463Y-70460051D02*
X187539949Y-70460051D01*
X195189411Y-74310589D02*
X195700000Y-73800000D01*
D57*
X167750000Y-73000000D02*
X169100000Y-73000000D01*
D59*
X187534046Y-69291761D02*
X187608239Y-69291761D01*
X186210589Y-73910589D02*
X185900000Y-73600000D01*
D58*
X237150000Y-61300000D02*
X237400000Y-61300000D01*
D59*
X187500000Y-87950000D02*
X188010589Y-87439411D01*
D57*
X198850000Y-87950000D02*
X199720000Y-87950000D01*
D58*
X238300000Y-62000000D02*
X238337500Y-62037500D01*
X219462500Y-64800000D02*
X220650000Y-64800000D01*
D59*
X186400000Y-86200000D02*
X186450000Y-86200000D01*
X175900000Y-95325000D02*
X175875000Y-95350000D01*
X186800000Y-87300000D02*
X186800000Y-87250000D01*
X186660589Y-73910589D02*
X186210589Y-73910589D01*
X187360589Y-73210589D02*
X186610589Y-73210589D01*
D57*
X245200000Y-62550000D02*
X245225000Y-62575000D01*
D58*
X237600000Y-61300000D02*
X237400000Y-61300000D01*
X238337500Y-62037500D02*
X238337500Y-66600000D01*
D59*
X191800000Y-90850000D02*
X191109880Y-90159880D01*
D57*
X245200000Y-60600000D02*
X245200000Y-62550000D01*
D59*
X187539949Y-70460051D02*
X187900000Y-70100000D01*
D58*
X230237500Y-66600000D02*
X229787500Y-66150000D01*
D57*
X167750000Y-79000000D02*
X169100000Y-79000000D01*
D59*
X196100000Y-85000000D02*
X195589411Y-84489411D01*
D58*
X224900000Y-65862500D02*
X224900000Y-61800000D01*
X236500000Y-62100000D02*
X236462500Y-62137500D01*
D57*
X227075000Y-76075000D02*
X226105000Y-75105000D01*
D58*
X214087500Y-63050000D02*
X214137500Y-63000000D01*
D59*
X185100000Y-85000000D02*
X185150000Y-85000000D01*
D57*
X206105000Y-93305000D02*
X206100000Y-93300000D01*
D58*
X219462500Y-66225000D02*
X219462500Y-63000000D01*
D59*
X190689411Y-87839411D02*
X190689411Y-87810589D01*
D58*
X223300000Y-64800000D02*
X224537500Y-64800000D01*
D59*
X202200000Y-74312500D02*
X203087500Y-74312500D01*
X178100000Y-95487500D02*
X178912500Y-95487500D01*
X178912500Y-95487500D02*
X179000000Y-95400000D01*
X187500000Y-88000000D02*
X187500000Y-87950000D01*
D58*
X231400000Y-66600000D02*
X230237500Y-66600000D01*
D59*
X190580378Y-82630378D02*
X190550000Y-82600000D01*
D57*
X226105000Y-75105000D02*
X226105000Y-73987500D01*
X171200000Y-98800000D02*
X171200000Y-98805000D01*
X196589411Y-75710589D02*
X197100000Y-75200000D01*
D58*
X214500000Y-59000000D02*
X214500000Y-61800000D01*
X224900000Y-61800000D02*
X224900000Y-58900000D01*
X229787500Y-63000000D02*
X231050000Y-63000000D01*
D59*
X196900000Y-84300000D02*
X196850000Y-84300000D01*
X199799999Y-69625000D02*
X199800000Y-68600000D01*
D58*
X224162500Y-66600000D02*
X224900000Y-65862500D01*
D59*
X187608239Y-69291761D02*
X188200000Y-68700000D01*
X172700000Y-95400000D02*
X173557500Y-95400000D01*
D57*
X167750000Y-75975000D02*
X169075000Y-75975000D01*
X219600000Y-77262500D02*
X219575000Y-77237500D01*
D59*
X189639411Y-72039411D02*
X189100000Y-71500000D01*
X186800000Y-87250000D02*
X187310589Y-86739411D01*
D58*
X214137500Y-62162500D02*
X214500000Y-61800000D01*
X223350000Y-63000000D02*
X224537500Y-63000000D01*
D59*
X185345142Y-74154858D02*
X185800873Y-74610589D01*
D58*
X214087500Y-64850000D02*
X214137500Y-64800000D01*
X219837500Y-66600000D02*
X219462500Y-66225000D01*
D59*
X203087500Y-74312500D02*
X203100000Y-74300000D01*
X201400000Y-69575000D02*
X201400000Y-68600000D01*
D57*
X219600000Y-78800000D02*
X219600000Y-77262500D01*
X206105000Y-94600000D02*
X206105000Y-93305000D01*
D59*
X183951922Y-71693954D02*
X183951922Y-71651922D01*
X183951922Y-71651922D02*
X183400000Y-71100000D01*
X189639411Y-72060589D02*
X189639411Y-72039411D01*
D58*
X221000000Y-66600000D02*
X219837500Y-66600000D01*
D59*
X193539411Y-72260589D02*
X194100000Y-71700000D01*
D58*
X231000000Y-64800000D02*
X229800000Y-64800000D01*
X219462500Y-63000000D02*
X220700000Y-63000000D01*
D57*
X171900000Y-88850000D02*
X171900000Y-88080000D01*
D59*
X184874697Y-70672183D02*
X184872183Y-70672183D01*
D57*
X171200000Y-98805000D02*
X172150000Y-99755000D01*
D59*
X190550000Y-77817588D02*
X188419581Y-75687169D01*
D57*
X169075000Y-75975000D02*
X169100000Y-76000000D01*
D59*
X175900000Y-94600000D02*
X175900000Y-95325000D01*
D58*
X223000000Y-66600000D02*
X224162500Y-66600000D01*
X214137500Y-66600000D02*
X214137500Y-62162500D01*
X229787500Y-66150000D02*
X229787500Y-63000000D01*
X236500000Y-62100000D02*
X236500000Y-61950000D01*
X236500000Y-61950000D02*
X237150000Y-61300000D01*
X214087500Y-66650000D02*
X214137500Y-66600000D01*
D57*
X179205000Y-99200000D02*
X178650000Y-99755000D01*
D58*
X212600000Y-66650000D02*
X214087500Y-66650000D01*
D59*
X195889411Y-75010589D02*
X196400000Y-74500000D01*
D57*
X167650000Y-82000000D02*
X169100000Y-82000000D01*
D59*
X190689411Y-87810589D02*
X191200000Y-87300000D01*
X186450000Y-86200000D02*
X186960589Y-85689411D01*
D57*
%TO.N,Net-(C4-Pad1)*%
X215000000Y-68887500D02*
X211787500Y-68887500D01*
X210400000Y-67500000D02*
X210400000Y-65200000D01*
D58*
X216800000Y-60350000D02*
X216800000Y-61600000D01*
D57*
X211787500Y-68887500D02*
X210400000Y-67500000D01*
D58*
X215862500Y-66600000D02*
X215862500Y-68025000D01*
X215862500Y-62537500D02*
X215862500Y-66600000D01*
X216800000Y-61600000D02*
X215862500Y-62537500D01*
X216800000Y-60350000D02*
X216800000Y-54050000D01*
X215862500Y-68025000D02*
X215000000Y-68887500D01*
%TO.N,Net-(C7-Pad1)*%
X229500000Y-60350000D02*
X229500000Y-61150000D01*
X228062500Y-68150000D02*
X228800000Y-68887500D01*
X228062500Y-66600000D02*
X228062500Y-68150000D01*
X228062500Y-62587500D02*
X228062500Y-66600000D01*
X229500000Y-61150000D02*
X228062500Y-62587500D01*
D57*
%TO.N,Net-(C10-Pad1)*%
X226050000Y-57800000D02*
X222000000Y-57800000D01*
D58*
X227200000Y-61500000D02*
X226262500Y-62437500D01*
D57*
X227200000Y-58950000D02*
X226050000Y-57800000D01*
D58*
X226262500Y-66600000D02*
X226262500Y-68025000D01*
X227200000Y-60350000D02*
X227200000Y-61500000D01*
X226262500Y-62437500D02*
X226262500Y-66600000D01*
X227200000Y-60350000D02*
X227200000Y-54050000D01*
X226262500Y-68025000D02*
X225400000Y-68887500D01*
D57*
X227200000Y-60350000D02*
X227200000Y-58950000D01*
D58*
%TO.N,Net-(C13-Pad1)*%
X235600000Y-68200000D02*
X235600000Y-68887500D01*
X234650000Y-60800000D02*
X234650000Y-67250000D01*
X235100000Y-60350000D02*
X234650000Y-60800000D01*
X234650000Y-67250000D02*
X235600000Y-68200000D01*
%TO.N,Net-(C16-Pad1)*%
X239212500Y-68887500D02*
X240062500Y-68037500D01*
D57*
X241300000Y-68900000D02*
X239212500Y-68900000D01*
X242600000Y-70200000D02*
X241300000Y-68900000D01*
D58*
X240062500Y-60712500D02*
X239700000Y-60350000D01*
X239200000Y-68887500D02*
X239212500Y-68887500D01*
D57*
X239212500Y-68900000D02*
X239200000Y-68887500D01*
D58*
X240062500Y-68037500D02*
X240062500Y-63000000D01*
X240062500Y-63000000D02*
X240062500Y-60712500D01*
D59*
%TO.N,Net-(C19-Pad2)*%
X199849999Y-71400000D02*
X199799999Y-71350000D01*
X193550000Y-77097488D02*
X193550000Y-77625000D01*
X204200000Y-72600001D02*
X202999999Y-71400000D01*
X202999999Y-71400000D02*
X199849999Y-71400000D01*
X204200000Y-73125000D02*
X204200000Y-72600001D01*
X193970369Y-76677119D02*
X193550000Y-77097488D01*
%TO.N,Net-(C22-Pad1)*%
X189248439Y-86543414D02*
X189248439Y-85358847D01*
X189401386Y-88451386D02*
X189401386Y-86696361D01*
X189248439Y-85358847D02*
X189657017Y-84950268D01*
X189401386Y-86696361D02*
X189248439Y-86543414D01*
X189890120Y-88940120D02*
X189401386Y-88451386D01*
%TO.N,+3V3*%
X218862500Y-74837500D02*
X218800000Y-74900000D01*
X193300000Y-82052512D02*
X193970369Y-82722881D01*
D60*
X216387500Y-70712500D02*
X216400000Y-70700000D01*
D59*
X218862500Y-73987500D02*
X218862500Y-74837500D01*
X192851386Y-72350886D02*
X192851386Y-74331278D01*
X233900000Y-75000000D02*
X233900000Y-74000000D01*
D57*
X171920000Y-87100000D02*
X171900000Y-87120000D01*
D60*
X238400000Y-72300000D02*
X239100000Y-73000000D01*
X215000000Y-70712500D02*
X216387500Y-70712500D01*
X239100000Y-73000000D02*
X239100000Y-73900000D01*
D57*
X172750000Y-87100000D02*
X171920000Y-87100000D01*
D60*
X227200000Y-72312500D02*
X228800000Y-70712500D01*
D59*
X188732412Y-83400000D02*
X189400000Y-83400000D01*
D60*
X236700000Y-72300000D02*
X238400000Y-72300000D01*
D59*
X189468108Y-83468108D02*
X189468108Y-84149228D01*
X220587500Y-73987500D02*
X220587500Y-74900000D01*
X233900000Y-74000000D02*
X233912500Y-73987500D01*
X193970369Y-82722881D02*
X194358077Y-83110589D01*
X189400000Y-83400000D02*
X189468108Y-83468108D01*
D57*
X199512500Y-91087500D02*
X198600000Y-91087500D01*
D59*
X228500000Y-74025000D02*
X228537500Y-73987500D01*
X208175000Y-91187500D02*
X208175000Y-90175000D01*
X191200000Y-75300000D02*
X191882664Y-75300000D01*
X199900000Y-73612499D02*
X200600000Y-74312499D01*
X235700000Y-75000000D02*
X235700000Y-74025000D01*
X191882664Y-75300000D02*
X192237957Y-74944707D01*
D57*
X171780000Y-87000000D02*
X171900000Y-87120000D01*
D59*
X192851386Y-74331278D02*
X192237957Y-74944707D01*
X188419581Y-83712831D02*
X187639411Y-84493001D01*
X189468108Y-84149228D02*
X189162043Y-84455293D01*
X212400000Y-74000000D02*
X213425000Y-74000000D01*
D60*
X235600000Y-70712500D02*
X235600000Y-71200000D01*
D59*
X213425000Y-74000000D02*
X213437500Y-73987500D01*
D57*
X225132500Y-74000000D02*
X225145000Y-73987500D01*
D59*
X194358077Y-83110589D02*
X195710589Y-83110589D01*
D57*
X200680000Y-87950000D02*
X201600000Y-87950000D01*
X199525000Y-91075000D02*
X199512500Y-91087500D01*
X169100000Y-87000000D02*
X171780000Y-87000000D01*
D60*
X227200000Y-73900000D02*
X227200000Y-72312500D01*
X212075000Y-53800000D02*
X206760000Y-53800000D01*
D59*
X199900000Y-73400000D02*
X199900000Y-73612499D01*
D57*
X224600000Y-75800000D02*
X224575000Y-75825000D01*
X224575000Y-75825000D02*
X224575000Y-77237500D01*
X224600000Y-75700000D02*
X224600000Y-75800000D01*
X224400000Y-74000000D02*
X225132500Y-74000000D01*
X199525000Y-91075000D02*
X200287500Y-91075000D01*
D59*
X187639411Y-84493001D02*
X187639411Y-85010589D01*
X228500000Y-75000000D02*
X228500000Y-74025000D01*
D57*
X201745000Y-87950000D02*
X202295000Y-87400000D01*
D59*
X188419581Y-83712831D02*
X188732412Y-83400000D01*
D57*
X201600000Y-87950000D02*
X201745000Y-87950000D01*
D59*
X193300000Y-81900000D02*
X193300000Y-82052512D01*
X192525500Y-72025000D02*
X192851386Y-72350886D01*
D57*
X200287500Y-91075000D02*
X200300000Y-91087500D01*
D60*
X235600000Y-71200000D02*
X236700000Y-72300000D01*
D59*
X235700000Y-74025000D02*
X235662500Y-73987500D01*
%TO.N,/USB_D-*%
X175600000Y-98500000D02*
X175650000Y-98550000D01*
X179021231Y-92121231D02*
X176650000Y-94492461D01*
X187924606Y-83217856D02*
X179021231Y-92121231D01*
X178200000Y-91300000D02*
X179021231Y-92121231D01*
X176350000Y-95950000D02*
X176155026Y-95950000D01*
X176650000Y-94492461D02*
X176650000Y-95650000D01*
X175750000Y-96825000D02*
X175225000Y-97350000D01*
X175750000Y-96355026D02*
X175750000Y-96825000D01*
X174650000Y-99755000D02*
X174650000Y-98850000D01*
X175000000Y-98500000D02*
X175600000Y-98500000D01*
X175225000Y-97350000D02*
X175650000Y-97775000D01*
X176155026Y-95950000D02*
X175750000Y-96355026D01*
X174650000Y-98850000D02*
X175000000Y-98500000D01*
X176650000Y-95650000D02*
X176350000Y-95950000D01*
X175650000Y-97775000D02*
X175650000Y-98550000D01*
X175650000Y-98550000D02*
X175650000Y-99755000D01*
%TO.N,/USB_D+*%
X175900000Y-101100000D02*
X176150000Y-100850000D01*
X176150000Y-100850000D02*
X176150000Y-99755000D01*
X176100000Y-97775000D02*
X176100000Y-99705000D01*
X176100000Y-96925000D02*
X176525000Y-97350000D01*
X176525000Y-97350000D02*
X176100000Y-97775000D01*
X180038478Y-93138478D02*
X179268718Y-92368718D01*
X176100000Y-96500000D02*
X176100000Y-96925000D01*
X179268718Y-92368718D02*
X177000000Y-94637437D01*
X176300000Y-96300000D02*
X176100000Y-96500000D01*
X176100000Y-99705000D02*
X176150000Y-99755000D01*
X177000000Y-95794974D02*
X176494974Y-96300000D01*
X175400000Y-101100000D02*
X175900000Y-101100000D01*
X175150000Y-100850000D02*
X175400000Y-101100000D01*
X188172093Y-83465344D02*
X179268718Y-92368718D01*
X176494974Y-96300000D02*
X176300000Y-96300000D01*
X177000000Y-94637437D02*
X177000000Y-95794974D01*
X175150000Y-99755000D02*
X175150000Y-100850000D01*
D61*
%TO.N,Net-(C20-Pad2)*%
X187187456Y-72280852D02*
X188623614Y-73717010D01*
X186730852Y-72280852D02*
X187187456Y-72280852D01*
X185900000Y-71450000D02*
X186730852Y-72280852D01*
X188623614Y-74406278D02*
X189162043Y-74944707D01*
X184630744Y-72372776D02*
X184729738Y-72372776D01*
X184729738Y-72372776D02*
X185652514Y-71450000D01*
X188623614Y-73717010D02*
X188623614Y-74406278D01*
X185652514Y-71450000D02*
X185900000Y-71450000D01*
X186730852Y-72280852D02*
X187042051Y-72280852D01*
%TO.N,Net-(C21-Pad1)*%
X187452100Y-71559604D02*
X186787422Y-71559604D01*
X185864646Y-69603517D02*
X186855224Y-68612939D01*
X185816422Y-70588604D02*
X185816422Y-69730458D01*
X187452100Y-72121232D02*
X188923614Y-73592746D01*
X188923614Y-73592746D02*
X188923614Y-74211304D01*
X185816422Y-69730458D02*
X185864646Y-69682234D01*
X186787422Y-71559604D02*
X185816422Y-70588604D01*
X188923614Y-74211304D02*
X189409530Y-74697220D01*
X185864646Y-69682234D02*
X185864646Y-69603517D01*
X187452100Y-71559604D02*
X187452100Y-72121232D01*
%TO.N,+1V8*%
X189223614Y-73468482D02*
X188960589Y-73205457D01*
X189657017Y-74449732D02*
X189223614Y-74016329D01*
X188914555Y-75214555D02*
X188914555Y-75192194D01*
X189657017Y-74449732D02*
X189657017Y-74457017D01*
X187800000Y-75000000D02*
X187891028Y-75091028D01*
D59*
X188248614Y-84378772D02*
X188667068Y-83960318D01*
D61*
X188914555Y-75192194D02*
X188039411Y-74317050D01*
X188039411Y-74317050D02*
X188039411Y-73889411D01*
D59*
X190010589Y-86810589D02*
X190010589Y-87160589D01*
D61*
X189600000Y-75800000D02*
X189500000Y-75800000D01*
X187429631Y-82722881D02*
X187429631Y-82770369D01*
D59*
X194100000Y-75400000D02*
X194100000Y-75557538D01*
X194100000Y-75400000D02*
X194510589Y-74989411D01*
D61*
X188172093Y-75934656D02*
X187891028Y-75653591D01*
D59*
X194100000Y-75557538D02*
X193475394Y-76182144D01*
D61*
X189223614Y-74016329D02*
X189223614Y-73468482D01*
X188939411Y-72739411D02*
X188400000Y-72200000D01*
D59*
X188250500Y-85799500D02*
X187989411Y-86060589D01*
D57*
X195583972Y-76716028D02*
X195283972Y-76716028D01*
X187050000Y-83350000D02*
X188200000Y-82200000D01*
D61*
X189657017Y-74457017D02*
X190300000Y-75100000D01*
D57*
X195283972Y-76716028D02*
X194683972Y-76716028D01*
D59*
X188250500Y-85500000D02*
X188250500Y-85799500D01*
X187921841Y-81921841D02*
X187247793Y-81921841D01*
D61*
X187389411Y-74589411D02*
X187339411Y-74589411D01*
X189500000Y-75800000D02*
X188914555Y-75214555D01*
X187950000Y-82697488D02*
X187677119Y-82970369D01*
D59*
X189598439Y-86398439D02*
X190010589Y-86810589D01*
X188200000Y-82200000D02*
X187921841Y-81921841D01*
D61*
X187891028Y-75653591D02*
X187891028Y-75091028D01*
D57*
X187000000Y-83350000D02*
X187050000Y-83350000D01*
D59*
X189598439Y-85503821D02*
X189598439Y-86398439D01*
D61*
X188960589Y-73205457D02*
X188960589Y-72739411D01*
D59*
X187247793Y-81921841D02*
X186938191Y-82231443D01*
D61*
X187891028Y-75091028D02*
X187389411Y-74589411D01*
D57*
X194683972Y-76716028D02*
X194150000Y-77250000D01*
D59*
X203750000Y-69575000D02*
X202999999Y-69575000D01*
D60*
X224100000Y-70700000D02*
X225387500Y-70700000D01*
X225387500Y-70700000D02*
X225400000Y-70712500D01*
D57*
X186539411Y-83810589D02*
X187000000Y-83350000D01*
D59*
X189904505Y-85197755D02*
X189598439Y-85503821D01*
D61*
X188960589Y-72739411D02*
X188939411Y-72739411D01*
D57*
X195910589Y-76389411D02*
X195583972Y-76716028D01*
X186339411Y-83810589D02*
X186539411Y-83810589D01*
D59*
X204450000Y-70275000D02*
X203750000Y-69575000D01*
X204450000Y-71800000D02*
X204450000Y-70275000D01*
X188250500Y-85500000D02*
X188248614Y-85498114D01*
X188248614Y-85498114D02*
X188248614Y-84378772D01*
%TO.N,+0V8*%
X191900000Y-75777639D02*
X192485445Y-75192194D01*
X191900000Y-76000000D02*
X191900000Y-75777639D01*
D60*
X237912500Y-70712500D02*
X239200000Y-70712500D01*
D59*
X184789411Y-83610589D02*
X185064071Y-83610589D01*
X194883472Y-76016528D02*
X195210589Y-75689411D01*
X188608490Y-84785624D02*
X188608490Y-84513871D01*
D61*
X188400000Y-76657538D02*
X187924606Y-76182144D01*
D59*
X193460589Y-74217050D02*
X193460589Y-73739411D01*
X188800000Y-84977134D02*
X188608490Y-84785624D01*
X194600000Y-83500000D02*
X194910589Y-83810589D01*
D61*
X187442462Y-75700000D02*
X187924606Y-76182144D01*
X186639411Y-75289411D02*
X187050000Y-75700000D01*
D59*
X194710901Y-76016528D02*
X194644373Y-75950000D01*
X194644373Y-75950000D02*
X194202512Y-75950000D01*
D61*
X187050000Y-75700000D02*
X187442462Y-75700000D01*
D59*
X188851886Y-87550000D02*
X188800000Y-87498114D01*
X192485445Y-75192194D02*
X193460589Y-74217050D01*
X185064071Y-83610589D02*
X186690705Y-81983955D01*
X195973247Y-77149114D02*
X195207806Y-77914555D01*
X192876257Y-82523743D02*
X193276257Y-82523743D01*
X188608490Y-84513871D02*
X188914555Y-84207806D01*
X196300000Y-77149114D02*
X195973247Y-77149114D01*
X194710901Y-76016528D02*
X194883472Y-76016528D01*
X196300000Y-77149114D02*
X196550886Y-77149114D01*
X194252512Y-83500000D02*
X194600000Y-83500000D01*
X192800000Y-82600000D02*
X192876257Y-82523743D01*
X188851886Y-87550000D02*
X188851886Y-86923064D01*
X188851886Y-86923064D02*
X188689411Y-86760589D01*
D61*
X187300000Y-81367588D02*
X187300000Y-81200000D01*
D59*
X193722881Y-82970369D02*
X194252512Y-83500000D01*
X193276257Y-82523743D02*
X193722881Y-82970369D01*
D60*
X237900000Y-70700000D02*
X237912500Y-70712500D01*
D59*
X188800000Y-87498114D02*
X188800000Y-84977134D01*
D61*
X188400000Y-77100000D02*
X188400000Y-76657538D01*
D59*
X194202512Y-75950000D02*
X193722881Y-76429631D01*
D61*
X186687169Y-81980419D02*
X187300000Y-81367588D01*
D59*
X196550886Y-77149114D02*
X196960589Y-76739411D01*
D61*
%TO.N,Net-(IC1-Pad1)*%
X181124264Y-59300000D02*
X175475000Y-59300000D01*
X175475000Y-59300000D02*
X173740000Y-57565000D01*
X173740000Y-57565000D02*
X173740000Y-56340000D01*
X182426990Y-62872274D02*
X182735000Y-62564264D01*
X188075736Y-66550000D02*
X190800000Y-69274264D01*
X190800000Y-73306749D02*
X190151992Y-73954757D01*
X184514998Y-66550000D02*
X188075736Y-66550000D01*
X182426990Y-64326990D02*
X182426990Y-62872274D01*
X190800000Y-69274264D02*
X190800000Y-73306749D01*
X182735000Y-62564264D02*
X182735000Y-60910736D01*
X182735000Y-60910736D02*
X181124264Y-59300000D01*
X183949773Y-65984775D02*
X184514998Y-66550000D01*
%TO.N,Net-(IC1-Pad2)*%
X183419794Y-66514754D02*
X183755040Y-66850000D01*
X189623439Y-73301561D02*
X189623439Y-73921179D01*
X189623439Y-73921179D02*
X189904505Y-74202245D01*
X172800000Y-59600000D02*
X171200000Y-58000000D01*
X187951472Y-66850000D02*
X190500000Y-69398528D01*
X182435000Y-61035000D02*
X181000000Y-59600000D01*
X181000000Y-59600000D02*
X172800000Y-59600000D01*
X190500000Y-69398528D02*
X190500000Y-72425000D01*
X181897012Y-64856968D02*
X181897012Y-62977988D01*
X190500000Y-72425000D02*
X189623439Y-73301561D01*
X183755040Y-66850000D02*
X187951472Y-66850000D01*
X171200000Y-58000000D02*
X171200000Y-56340000D01*
X181897012Y-62977988D02*
X182435000Y-62440000D01*
X182435000Y-62440000D02*
X182435000Y-61035000D01*
%TO.N,/PA17*%
X190990000Y-64550000D02*
X194060000Y-61480000D01*
X184642792Y-64550000D02*
X190990000Y-64550000D01*
X181400000Y-67792792D02*
X184642792Y-64550000D01*
X185300000Y-75537437D02*
X185300000Y-74851472D01*
X186934656Y-77172093D02*
X185300000Y-75537437D01*
X181400000Y-70951472D02*
X181400000Y-67792792D01*
X185300000Y-74851472D02*
X181400000Y-70951472D01*
%TO.N,/PA16*%
X186687169Y-77419581D02*
X185000000Y-75732412D01*
X181100000Y-67668528D02*
X184518528Y-64250000D01*
X181100000Y-71075736D02*
X181100000Y-67668528D01*
X188750000Y-64250000D02*
X191520000Y-61480000D01*
X184518528Y-64250000D02*
X188750000Y-64250000D01*
X185000000Y-75732412D02*
X185000000Y-74975736D01*
X185000000Y-74975736D02*
X181100000Y-71075736D01*
%TO.N,/PA15*%
X184700000Y-75927386D02*
X184700000Y-75100000D01*
X180800000Y-67544264D02*
X184394264Y-63950000D01*
X186510000Y-63950000D02*
X188980000Y-61480000D01*
X184394264Y-63950000D02*
X186510000Y-63950000D01*
X184700000Y-75100000D02*
X180800000Y-71200000D01*
X186439682Y-77667068D02*
X184700000Y-75927386D01*
X180800000Y-71200000D02*
X180800000Y-67544264D01*
%TO.N,/PA14*%
X180500000Y-71378680D02*
X180500000Y-67420000D01*
X184400000Y-75278680D02*
X180500000Y-71378680D01*
X184400000Y-76122361D02*
X184400000Y-75278680D01*
X186000000Y-63650000D02*
X186440000Y-63210000D01*
X184270000Y-63650000D02*
X186000000Y-63650000D01*
X186192194Y-77914555D02*
X184400000Y-76122361D01*
X180500000Y-67420000D02*
X184270000Y-63650000D01*
X186440000Y-63210000D02*
X186440000Y-61480000D01*
%TO.N,/PA11*%
X184100000Y-75402944D02*
X180200000Y-71502944D01*
X185944707Y-78162043D02*
X184100000Y-76317336D01*
X180200000Y-67295736D02*
X183900000Y-63595736D01*
X184100000Y-76317336D02*
X184100000Y-75402944D01*
X180200000Y-71502944D02*
X180200000Y-67295736D01*
X183900000Y-63595736D02*
X183900000Y-61480000D01*
%TO.N,/PA10*%
X185697220Y-78409530D02*
X183800000Y-76512310D01*
X177600000Y-69327208D02*
X177600000Y-65240000D01*
X177600000Y-65240000D02*
X181360000Y-61480000D01*
X183800000Y-76512310D02*
X183800000Y-75527208D01*
X183800000Y-75527208D02*
X177600000Y-69327208D01*
%TO.N,/PA09*%
X183500000Y-75651472D02*
X177300000Y-69451472D01*
X177300000Y-69451472D02*
X177300000Y-63000000D01*
X177300000Y-63000000D02*
X178820000Y-61480000D01*
X183500000Y-76707285D02*
X183500000Y-75651472D01*
X185449732Y-78657017D02*
X183500000Y-76707285D01*
%TO.N,/PA08*%
X183200000Y-76902260D02*
X183200000Y-75775736D01*
X183200000Y-75775736D02*
X177000000Y-69575736D01*
X177000000Y-62200000D02*
X176280000Y-61480000D01*
X177000000Y-69575736D02*
X177000000Y-62200000D01*
X185202245Y-78904505D02*
X183200000Y-76902260D01*
%TO.N,/PA07*%
X182900000Y-75900000D02*
X176700000Y-69700000D01*
X184954757Y-79151992D02*
X182900000Y-77097235D01*
X182900000Y-77097235D02*
X182900000Y-75900000D01*
X176700000Y-64440000D02*
X173740000Y-61480000D01*
X176700000Y-69700000D02*
X176700000Y-64440000D01*
%TO.N,/PA06*%
X184500000Y-79793251D02*
X184500000Y-79121499D01*
X176400000Y-69824264D02*
X176400000Y-66700000D01*
X184954757Y-80248008D02*
X184500000Y-79793251D01*
X171200000Y-61500000D02*
X171200000Y-61480000D01*
X182600000Y-76024264D02*
X176400000Y-69824264D01*
X182600000Y-77221499D02*
X182600000Y-76024264D01*
X176400000Y-66700000D02*
X171200000Y-61500000D01*
X184500000Y-79121499D02*
X182600000Y-77221499D01*
D62*
%TO.N,/MIPI_0_N*%
X170600001Y-74000000D02*
X169100000Y-74000000D01*
X184666526Y-81010000D02*
X183078702Y-81010000D01*
X179578702Y-74310000D02*
X170910001Y-74310000D01*
X181590000Y-79521298D02*
X181590000Y-76321298D01*
X183078702Y-81010000D02*
X181590000Y-79521298D01*
X181590000Y-76321298D02*
X179578702Y-74310000D01*
X185181031Y-80495495D02*
X184666526Y-81010000D01*
X170910001Y-74310000D02*
X170600001Y-74000000D01*
X185202245Y-80495495D02*
X185181031Y-80495495D01*
%TO.N,/MIPI_0_P*%
X170600001Y-75000000D02*
X169100000Y-75000000D01*
X179421298Y-74690000D02*
X170910001Y-74690000D01*
X184823928Y-81390000D02*
X182921298Y-81390000D01*
X185449732Y-80764196D02*
X184823928Y-81390000D01*
X182921298Y-81390000D02*
X181210000Y-79678702D01*
X170910001Y-74690000D02*
X170600001Y-75000000D01*
X185449732Y-80742983D02*
X185449732Y-80764196D01*
X181210000Y-76478702D02*
X179421298Y-74690000D01*
X181210000Y-79678702D02*
X181210000Y-76478702D01*
%TO.N,/MIPI_CLK_N*%
X169100000Y-80000000D02*
X170600001Y-80000000D01*
X170600001Y-80000000D02*
X170910001Y-80310000D01*
X182008201Y-81810000D02*
X181882843Y-81684642D01*
X177905034Y-80310000D02*
X178115034Y-80100000D01*
X170910001Y-80310000D02*
X177905034Y-80310000D01*
X184877690Y-81810000D02*
X182008201Y-81810000D01*
X181882843Y-81684642D02*
X181882843Y-81387657D01*
X185697220Y-80990470D02*
X184877690Y-81810000D01*
%TO.N,/MIPI_CLK_P*%
X185013878Y-82190000D02*
X181850799Y-82190000D01*
X185944707Y-81259171D02*
X185013878Y-82190000D01*
X181614142Y-81953343D02*
X181317157Y-81953343D01*
X170910001Y-80690000D02*
X177905034Y-80690000D01*
X169100000Y-81000000D02*
X170600001Y-81000000D01*
X170600001Y-81000000D02*
X170910001Y-80690000D01*
X185944707Y-81237957D02*
X185944707Y-81259171D01*
X177905034Y-80690000D02*
X178115034Y-80900000D01*
X181850799Y-82190000D02*
X181614142Y-81953343D01*
%TO.N,/MIPI_1_N*%
X169100000Y-77000000D02*
X170600001Y-77000000D01*
X177978702Y-77310000D02*
X179790000Y-79121298D01*
X185067639Y-82610000D02*
X186192194Y-81485445D01*
X170600001Y-77000000D02*
X170910001Y-77310000D01*
X170910001Y-77310000D02*
X177978702Y-77310000D01*
X181078702Y-82610000D02*
X185067639Y-82610000D01*
X179790000Y-79121298D02*
X179790000Y-81321298D01*
X179790000Y-81321298D02*
X181078702Y-82610000D01*
%TO.N,/MIPI_1_P*%
X180921298Y-82990000D02*
X185203828Y-82990000D01*
X170600001Y-78000000D02*
X170910001Y-77690000D01*
X177821298Y-77690000D02*
X179410000Y-79278702D01*
X179410000Y-79278702D02*
X179410000Y-81478702D01*
X169100000Y-78000000D02*
X170600001Y-78000000D01*
X179410000Y-81478702D02*
X180921298Y-82990000D01*
X170910001Y-77690000D02*
X177821298Y-77690000D01*
X186439682Y-81754146D02*
X186439682Y-81732932D01*
X185203828Y-82990000D02*
X186439682Y-81754146D01*
D61*
%TO.N,/NOR_CE*%
X199600000Y-105800000D02*
X200800000Y-104600000D01*
X200800000Y-96095000D02*
X202295000Y-94600000D01*
X191248008Y-85445243D02*
X198600000Y-92797235D01*
X198600000Y-92912500D02*
X199487500Y-93800000D01*
X198600000Y-92797235D02*
X198600000Y-92912500D01*
X200800000Y-104600000D02*
X200800000Y-96095000D01*
X199487500Y-93800000D02*
X201495000Y-93800000D01*
X201495000Y-93800000D02*
X202295000Y-94600000D01*
%TO.N,/NOR_DR*%
X191495495Y-85197755D02*
X195947740Y-89650000D01*
X203565000Y-91215000D02*
X203565000Y-94600000D01*
X203400000Y-94765000D02*
X203565000Y-94600000D01*
X202000000Y-89650000D02*
X203565000Y-91215000D01*
X203400000Y-104540000D02*
X203400000Y-94765000D01*
X195947740Y-89650000D02*
X202000000Y-89650000D01*
X202140000Y-105800000D02*
X203400000Y-104540000D01*
%TO.N,/NOR_DT*%
X191742983Y-84950268D02*
X196142715Y-89350000D01*
X206100000Y-91800000D02*
X206100000Y-89500000D01*
X207220000Y-98180000D02*
X207220000Y-92920000D01*
X206600000Y-89000000D02*
X206600000Y-87895000D01*
X206600000Y-87895000D02*
X206105000Y-87400000D01*
X204600000Y-89350000D02*
X206105000Y-87845000D01*
X196142715Y-89350000D02*
X204600000Y-89350000D01*
X206105000Y-87845000D02*
X206105000Y-87400000D01*
X206100000Y-89500000D02*
X206600000Y-89000000D01*
X207220000Y-92920000D02*
X206100000Y-91800000D01*
%TO.N,/NOR_CK*%
X191990470Y-84702780D02*
X196287690Y-89000000D01*
X204200000Y-90250000D02*
X204200000Y-90100000D01*
X204200000Y-90100000D02*
X204150000Y-90050000D01*
X204182082Y-88052918D02*
X204835000Y-87400000D01*
X204200000Y-97700000D02*
X204200000Y-90250000D01*
X204680000Y-98180000D02*
X204200000Y-97700000D01*
X196287690Y-89000000D02*
X204400000Y-89000000D01*
X204400000Y-89000000D02*
X204835000Y-88565000D01*
X204835000Y-88565000D02*
X204835000Y-87400000D01*
X204182082Y-88425813D02*
X204182082Y-88052918D01*
%TO.N,/MMC0_D1*%
X195182664Y-87400000D02*
X192237957Y-84455293D01*
X215500000Y-82200000D02*
X208521320Y-82200000D01*
X200850000Y-85500000D02*
X198950000Y-87400000D01*
X205221320Y-85500000D02*
X200850000Y-85500000D01*
X198950000Y-87400000D02*
X195182664Y-87400000D01*
X215450000Y-77237500D02*
X215450000Y-74175000D01*
X215450000Y-74175000D02*
X215262500Y-73987500D01*
X215450000Y-79050000D02*
X215450000Y-77237500D01*
X215800000Y-79400000D02*
X215450000Y-79050000D01*
X215800000Y-81900000D02*
X215500000Y-82200000D01*
X208521320Y-82200000D02*
X205221320Y-85500000D01*
%TO.N,/MMC0_D0*%
X205097056Y-85200000D02*
X208397056Y-81900000D01*
X214872057Y-81900000D02*
X215536029Y-81236028D01*
X215536029Y-81236028D02*
X216936028Y-81236028D01*
X192485445Y-84207806D02*
X195377639Y-87100000D01*
X217150000Y-79350000D02*
X217150000Y-77237500D01*
X200725736Y-85200000D02*
X205097056Y-85200000D01*
X216936028Y-81236028D02*
X217200000Y-81500000D01*
X208397056Y-81900000D02*
X214872057Y-81900000D01*
X217150000Y-77237500D02*
X217150000Y-74100000D01*
X217200000Y-79400000D02*
X217150000Y-79350000D01*
X195377639Y-87100000D02*
X198825736Y-87100000D01*
X217150000Y-74100000D02*
X217037500Y-73987500D01*
X198825736Y-87100000D02*
X200725736Y-85200000D01*
%TO.N,/MMC0_CLK*%
X215447793Y-80900000D02*
X221700000Y-80900000D01*
X222412500Y-75087500D02*
X222412500Y-73987500D01*
X204972792Y-84900000D02*
X208272792Y-81600000D01*
X208272792Y-81600000D02*
X214747793Y-81600000D01*
X192732932Y-83960318D02*
X195572614Y-86800000D01*
X195572614Y-86800000D02*
X198701472Y-86800000D01*
X222000000Y-79300000D02*
X222075000Y-79225000D01*
X222075000Y-77237500D02*
X222075000Y-75425000D01*
X198701472Y-86800000D02*
X200601472Y-84900000D01*
X221700000Y-80900000D02*
X222000000Y-81200000D01*
X214747793Y-81600000D02*
X215447793Y-80900000D01*
X222075000Y-75425000D02*
X222412500Y-75087500D01*
X200601472Y-84900000D02*
X204972792Y-84900000D01*
X222075000Y-79225000D02*
X222075000Y-77237500D01*
%TO.N,/MMC0_CMD*%
X214623529Y-81300000D02*
X215323529Y-80600000D01*
X204848528Y-84600000D02*
X208148528Y-81300000D01*
X198577208Y-86500000D02*
X200477208Y-84600000D01*
X215323529Y-80600000D02*
X229300000Y-80600000D01*
X229600000Y-79400000D02*
X229575000Y-79375000D01*
X229300000Y-80600000D02*
X229600000Y-80900000D01*
X192980419Y-83712831D02*
X195767588Y-86500000D01*
X208148528Y-81300000D02*
X214623529Y-81300000D01*
X200477208Y-84600000D02*
X204848528Y-84600000D01*
X195767588Y-86500000D02*
X198577208Y-86500000D01*
X229575000Y-79375000D02*
X229575000Y-77237500D01*
X230362500Y-75037500D02*
X230362500Y-73987500D01*
X229575000Y-77237500D02*
X229575000Y-75825000D01*
X229575000Y-75825000D02*
X230362500Y-75037500D01*
%TO.N,/MMC0_D3*%
X204724264Y-84300000D02*
X200352944Y-84300000D01*
X232075000Y-77237500D02*
X232075000Y-74000000D01*
X200352944Y-84300000D02*
X198452944Y-86200000D01*
X215199265Y-80300000D02*
X214499265Y-81000000D01*
X214499265Y-81000000D02*
X208024264Y-81000000D01*
X232100000Y-79300000D02*
X232075000Y-79275000D01*
X232075000Y-79275000D02*
X232075000Y-77237500D01*
X195962563Y-86200000D02*
X193227907Y-83465344D01*
X232075000Y-74000000D02*
X232087500Y-73987500D01*
X232100000Y-80524500D02*
X231875500Y-80300000D01*
X231875500Y-80300000D02*
X215199265Y-80300000D01*
X208024264Y-81000000D02*
X204724264Y-84300000D01*
X198452944Y-86200000D02*
X195962563Y-86200000D01*
%TO.N,/MMC0_D2*%
X193475394Y-83217856D02*
X196157538Y-85900000D01*
X198328680Y-85900000D02*
X200228680Y-84000000D01*
X237487500Y-75012500D02*
X237487500Y-73987500D01*
X234575000Y-78125000D02*
X234575000Y-77237500D01*
X214375001Y-80700000D02*
X215075001Y-80000000D01*
X196157538Y-85900000D02*
X198328680Y-85900000D01*
X207900000Y-80700000D02*
X214375001Y-80700000D01*
X235262500Y-77237500D02*
X237487500Y-75012500D01*
X232700000Y-80000000D02*
X234575000Y-78125000D01*
X204600000Y-84000000D02*
X207900000Y-80700000D01*
X234575000Y-77237500D02*
X235262500Y-77237500D01*
X200228680Y-84000000D02*
X204600000Y-84000000D01*
X215075001Y-80000000D02*
X232700000Y-80000000D01*
%TO.N,/MICLP*%
X190719455Y-85588442D02*
X193550000Y-88418987D01*
X165500000Y-97725000D02*
X165500000Y-90548528D01*
X170025000Y-52450000D02*
X174930000Y-52450000D01*
X193550000Y-88418987D02*
X193550000Y-101000000D01*
X163800000Y-88848528D02*
X163800000Y-70551472D01*
X190275000Y-84325000D02*
X190719455Y-84769455D01*
X189787310Y-84325000D02*
X190275000Y-84325000D01*
X193550000Y-101000000D02*
X191575000Y-102975000D01*
X189409530Y-84702780D02*
X189787310Y-84325000D01*
X168275000Y-54200000D02*
X170025000Y-52450000D01*
X165500000Y-90548528D02*
X163800000Y-88848528D01*
X170750000Y-102975000D02*
X165500000Y-97725000D01*
X191575000Y-102975000D02*
X170750000Y-102975000D01*
X190719455Y-84769455D02*
X190719455Y-85588442D01*
X168275000Y-66076472D02*
X168275000Y-54200000D01*
X163800000Y-70551472D02*
X168275000Y-66076472D01*
X174930000Y-52450000D02*
X176280000Y-53800000D01*
%TO.N,/HPOUTL*%
X170874264Y-102675000D02*
X165800000Y-97600736D01*
X164100000Y-70675736D02*
X168575000Y-66200736D01*
X165800000Y-90424264D02*
X164100000Y-88724264D01*
X168575000Y-55375000D02*
X169025000Y-54925000D01*
X165800000Y-97600736D02*
X165800000Y-90424264D01*
X164100000Y-88724264D02*
X164100000Y-70675736D01*
X191450736Y-102675000D02*
X170874264Y-102675000D01*
X193250000Y-100875736D02*
X191450736Y-102675000D01*
X168575000Y-66200736D02*
X168575000Y-55375000D01*
X190151992Y-85445243D02*
X193250000Y-88543251D01*
X193250000Y-88543251D02*
X193250000Y-100875736D01*
%TO.N,Net-(IC1-Pad57)*%
X207600000Y-58040000D02*
X209300000Y-56340000D01*
X207800000Y-59151472D02*
X207600000Y-58951472D01*
X204573614Y-82826386D02*
X207800000Y-79600000D01*
X198917402Y-82826386D02*
X204573614Y-82826386D01*
X196004301Y-82526386D02*
X196778415Y-83300500D01*
X195530614Y-82526386D02*
X196004301Y-82526386D01*
X196778415Y-83300500D02*
X198443288Y-83300500D01*
X207800000Y-79600000D02*
X207800000Y-59151472D01*
X194217856Y-82475394D02*
X194498922Y-82756460D01*
X194498922Y-82756460D02*
X195300540Y-82756460D01*
X207600000Y-58951472D02*
X207600000Y-58040000D01*
X195300540Y-82756460D02*
X195530614Y-82526386D01*
X198443288Y-83300500D02*
X198917402Y-82826386D01*
%TO.N,Net-(IC1-Pad58)*%
X207500000Y-59275736D02*
X206760000Y-58535736D01*
X193976284Y-81301299D02*
X193976284Y-81738847D01*
X196995878Y-82775500D02*
X197220878Y-83000500D01*
X207500000Y-79475736D02*
X207500000Y-59275736D01*
X204449350Y-82526386D02*
X207500000Y-79475736D01*
X206760000Y-58535736D02*
X206760000Y-56340000D01*
X193976284Y-81738847D02*
X194465344Y-82227907D01*
X198319024Y-83000500D02*
X198793138Y-82526386D01*
X198793138Y-82526386D02*
X204449350Y-82526386D01*
X197220878Y-83000500D02*
X198319024Y-83000500D01*
%TO.N,Net-(IC1-Pad59)*%
X198668874Y-82226386D02*
X204325086Y-82226386D01*
X195332736Y-82300000D02*
X195406350Y-82226386D01*
X198194760Y-82700500D02*
X198668874Y-82226386D01*
X207200000Y-59400000D02*
X204220000Y-56420000D01*
X197285720Y-82226386D02*
X197759834Y-82700500D01*
X195406350Y-82226386D02*
X197285720Y-82226386D01*
X204220000Y-56420000D02*
X204220000Y-56340000D01*
X195032412Y-82300000D02*
X195332736Y-82300000D01*
X207200000Y-79351472D02*
X207200000Y-59400000D01*
X194712831Y-81980419D02*
X195032412Y-82300000D01*
X204325086Y-82226386D02*
X207200000Y-79351472D01*
X197759834Y-82700500D02*
X198194760Y-82700500D01*
%TO.N,Net-(IC1-Pad60)*%
X198252797Y-81900000D02*
X204227208Y-81900000D01*
X206900000Y-79227208D02*
X206900000Y-59524264D01*
X206900000Y-59524264D02*
X205375736Y-58000000D01*
X204227208Y-81900000D02*
X206900000Y-79227208D01*
X194500000Y-81272614D02*
X194960318Y-81732932D01*
X197977297Y-82175500D02*
X198252797Y-81900000D01*
X205375736Y-58000000D02*
X203340000Y-58000000D01*
X194700000Y-80700000D02*
X194500000Y-80900000D01*
X194500000Y-80900000D02*
X194500000Y-81272614D01*
X203340000Y-58000000D02*
X201680000Y-56340000D01*
%TO.N,Net-(IC1-Pad61)*%
X197423614Y-81926386D02*
X197750000Y-81600000D01*
X195207806Y-81485445D02*
X195648747Y-81926386D01*
X197750000Y-81600000D02*
X204102944Y-81600000D01*
X206600000Y-63200000D02*
X199740000Y-56340000D01*
X204102944Y-81600000D02*
X206600000Y-79102944D01*
X206600000Y-79102944D02*
X206600000Y-63200000D01*
X199740000Y-56340000D02*
X199140000Y-56340000D01*
X195648747Y-81926386D02*
X197423614Y-81926386D01*
%TO.N,Net-(IC1-Pad62)*%
X203978680Y-81300000D02*
X197625736Y-81300000D01*
X195843722Y-81626386D02*
X195455293Y-81237957D01*
X200150000Y-57700000D02*
X200675736Y-57700000D01*
X197625736Y-81300000D02*
X197299350Y-81626386D01*
X206300000Y-78978680D02*
X203978680Y-81300000D01*
X197299350Y-81626386D02*
X195843722Y-81626386D01*
X200675736Y-57700000D02*
X206300000Y-63324264D01*
X206300000Y-63324264D02*
X206300000Y-78978680D01*
%TO.N,Net-(IC1-Pad63)*%
X195702780Y-80990470D02*
X196038696Y-81326386D01*
X196038696Y-81326386D02*
X197173614Y-81326386D01*
X206000000Y-63448528D02*
X201000963Y-58449491D01*
X206000000Y-78854416D02*
X206000000Y-63448528D01*
X197173614Y-81326386D02*
X197500000Y-81000000D01*
X197500000Y-81000000D02*
X203854416Y-81000000D01*
X201000963Y-58449491D02*
X200154142Y-58449491D01*
X203854416Y-81000000D02*
X206000000Y-78854416D01*
%TO.N,Net-(IC1-Pad64)*%
X205700000Y-78730152D02*
X205700000Y-63572792D01*
X203730152Y-80700000D02*
X205700000Y-78730152D01*
X195950268Y-80742983D02*
X196233671Y-81026386D01*
X197049350Y-81026386D02*
X197375736Y-80700000D01*
X205700000Y-63572792D02*
X201349776Y-59222568D01*
X201349776Y-59222568D02*
X200185462Y-59222568D01*
X197375736Y-80700000D02*
X203730152Y-80700000D01*
X196233671Y-81026386D02*
X197049350Y-81026386D01*
%TO.N,Net-(IC1-Pad65)*%
X198825500Y-79750000D02*
X204255888Y-79750000D01*
X196197755Y-80495495D02*
X195872595Y-80170335D01*
X205400000Y-78605888D02*
X205400000Y-63697056D01*
X198400000Y-80175500D02*
X198825500Y-79750000D01*
X195872595Y-80170335D02*
X195356896Y-80170335D01*
X205400000Y-63697056D02*
X201674842Y-59971898D01*
X201674842Y-59971898D02*
X200201543Y-59971898D01*
X204255888Y-79750000D02*
X205400000Y-78605888D01*
%TO.N,Net-(IC1-Pad66)*%
X202028680Y-60750000D02*
X200200000Y-60750000D01*
X198383037Y-79450000D02*
X204131624Y-79450000D01*
X197585029Y-80248008D02*
X198383037Y-79450000D01*
X205100000Y-63821320D02*
X202028680Y-60750000D01*
X196445243Y-80248008D02*
X197585029Y-80248008D01*
X204131624Y-79450000D02*
X205100000Y-78481624D01*
X205100000Y-78481624D02*
X205100000Y-63821320D01*
%TO.N,Net-(IC1-Pad67)*%
X200262500Y-76137500D02*
X202200000Y-76137500D01*
X196445243Y-79151992D02*
X196723621Y-78873614D01*
X196723621Y-78873614D02*
X197526386Y-78873614D01*
X197526386Y-78873614D02*
X200262500Y-76137500D01*
%TO.N,Net-(IC1-Pad68)*%
X197155782Y-78573614D02*
X196528646Y-78573614D01*
X199300000Y-74300000D02*
X199300000Y-76429396D01*
X197850000Y-72850000D02*
X199300000Y-74300000D01*
X196528646Y-78573614D02*
X196197755Y-78904505D01*
X199300000Y-76429396D02*
X197155782Y-78573614D01*
X197850000Y-59853616D02*
X197850000Y-72850000D01*
X197523192Y-59526808D02*
X197850000Y-59853616D01*
%TO.N,Net-(IC1-Pad69)*%
X196756299Y-59501671D02*
X197550000Y-60295372D01*
X199000000Y-76305132D02*
X197031518Y-78273614D01*
X199000000Y-74424264D02*
X199000000Y-76305132D01*
X196200000Y-78407285D02*
X195950268Y-78657017D01*
X197550000Y-72974264D02*
X199000000Y-74424264D01*
X196200000Y-78400000D02*
X196200000Y-78407285D01*
X197031518Y-78273614D02*
X196326386Y-78273614D01*
X196326386Y-78273614D02*
X196200000Y-78400000D01*
X197550000Y-60295372D02*
X197550000Y-72974264D01*
%TO.N,Net-(IC1-Pad70)*%
X197250000Y-73098528D02*
X198700000Y-74548528D01*
X197250000Y-60775998D02*
X197250000Y-73098528D01*
X196907254Y-77973614D02*
X196138696Y-77973614D01*
X198700000Y-74548528D02*
X198700000Y-76180868D01*
X196138696Y-77973614D02*
X195702780Y-78409530D01*
X198700000Y-76180868D02*
X196907254Y-77973614D01*
X196724500Y-60250498D02*
X197250000Y-60775998D01*
%TO.N,Net-(IC1-Pad71)*%
X196950000Y-73222792D02*
X198400000Y-74672792D01*
X196725500Y-61000000D02*
X196950000Y-61224500D01*
X198400000Y-74672792D02*
X198400000Y-76056604D01*
X195943722Y-77673614D02*
X195455293Y-78162043D01*
X198400000Y-76056604D02*
X196782990Y-77673614D01*
X196950000Y-61224500D02*
X196950000Y-73222792D01*
X196782990Y-77673614D02*
X195943722Y-77673614D01*
%TO.N,/UART_RX*%
X203939868Y-78900000D02*
X198500000Y-78900000D01*
X194600000Y-78027386D02*
X194960318Y-77667068D01*
X194600000Y-78600000D02*
X194600000Y-78027386D01*
X196498797Y-79948008D02*
X196270244Y-79719455D01*
X207331538Y-84131538D02*
X207707274Y-84131538D01*
X195719455Y-79719455D02*
X194600000Y-78600000D01*
X198500000Y-78900000D02*
X197451992Y-79948008D01*
X233000000Y-86400000D02*
X239940000Y-93340000D01*
X239940000Y-93340000D02*
X246200000Y-93340000D01*
X209975736Y-86400000D02*
X233000000Y-86400000D01*
X196270244Y-79719455D02*
X195719455Y-79719455D01*
X197451992Y-79948008D02*
X196498797Y-79948008D01*
X203957184Y-78882684D02*
X203939868Y-78900000D01*
X207707274Y-84131538D02*
X209975736Y-86400000D01*
%TO.N,/UART_TX*%
X197166622Y-79423508D02*
X197552228Y-79423508D01*
X210100000Y-86100000D02*
X233124264Y-86100000D01*
X203200000Y-78600000D02*
X204000000Y-77800000D01*
X194300000Y-77832412D02*
X194712831Y-77419581D01*
X194300000Y-78124013D02*
X194300000Y-77832412D01*
X208200000Y-84200000D02*
X210100000Y-86100000D01*
X233124264Y-86100000D02*
X237824264Y-90800000D01*
X194075500Y-78348513D02*
X194300000Y-78124013D01*
X198375736Y-78600000D02*
X203200000Y-78600000D01*
X204000000Y-77800000D02*
X204575500Y-77800000D01*
X197552228Y-79423508D02*
X198375736Y-78600000D01*
X237824264Y-90800000D02*
X246200000Y-90800000D01*
X208200000Y-83600000D02*
X208200000Y-84200000D01*
%TO.N,/PB30*%
X196200000Y-72467588D02*
X196200000Y-58684544D01*
X198400000Y-55100000D02*
X200380000Y-55100000D01*
X200380000Y-55100000D02*
X201680000Y-53800000D01*
X196200000Y-58684544D02*
X198000000Y-56884544D01*
X198000000Y-55500000D02*
X198400000Y-55100000D01*
X192980419Y-75687169D02*
X196200000Y-72467588D01*
X198000000Y-56884544D02*
X198000000Y-55500000D01*
%TO.N,/PB29*%
X197675000Y-56785280D02*
X197675000Y-55265000D01*
X195900000Y-58560280D02*
X197675000Y-56785280D01*
X192732932Y-75439682D02*
X195900000Y-72272614D01*
X197675000Y-55265000D02*
X199140000Y-53800000D01*
X195900000Y-72272614D02*
X195900000Y-58560280D01*
%TO.N,/PB28*%
X192376561Y-73219024D02*
X192376561Y-74311129D01*
X192000000Y-66174264D02*
X192000000Y-72842463D01*
X194060000Y-54185736D02*
X195450000Y-55575736D01*
X194060000Y-53800000D02*
X194060000Y-54185736D01*
X192000000Y-72842463D02*
X192376561Y-73219024D01*
X192376561Y-74311129D02*
X191990470Y-74697220D01*
X195450000Y-55575736D02*
X195450000Y-62724264D01*
X195450000Y-62724264D02*
X192000000Y-66174264D01*
%TO.N,/PB27*%
X191700000Y-72966727D02*
X191700000Y-66050000D01*
X192076561Y-73343288D02*
X191700000Y-72966727D01*
X191742983Y-74449732D02*
X192076561Y-74116154D01*
X195150000Y-62600000D02*
X195150000Y-55700000D01*
X192076561Y-74116154D02*
X192076561Y-73343288D01*
X192870000Y-55150000D02*
X191520000Y-53800000D01*
X191700000Y-66050000D02*
X195150000Y-62600000D01*
X194600000Y-55150000D02*
X192870000Y-55150000D01*
X195150000Y-55700000D02*
X194600000Y-55150000D01*
D57*
%TO.N,+5V*%
X186550000Y-93850000D02*
X190400000Y-93850000D01*
D60*
X216912500Y-72400000D02*
X218600000Y-70712500D01*
X211500000Y-72400000D02*
X216912500Y-72400000D01*
X210200000Y-79200000D02*
X210200000Y-73700000D01*
D57*
X172950000Y-99755000D02*
X172950000Y-98450000D01*
X177850000Y-99755000D02*
X177850000Y-98730000D01*
X172950000Y-98450000D02*
X172300000Y-97800000D01*
X178280000Y-98300000D02*
X179500000Y-98300000D01*
X182100000Y-98300000D02*
X186550000Y-93850000D01*
X177850000Y-98730000D02*
X178280000Y-98300000D01*
D60*
X210200000Y-73700000D02*
X211500000Y-72400000D01*
D57*
X179500000Y-98300000D02*
X182100000Y-98300000D01*
D63*
%TO.N,Net-(J1-PadA5)*%
X173620000Y-97287500D02*
X174150000Y-97817500D01*
X174150000Y-97817500D02*
X174150000Y-99755000D01*
%TO.N,Net-(J1-PadB5)*%
X178100000Y-97312500D02*
X177150000Y-98262500D01*
X177150000Y-98262500D02*
X177150000Y-99755000D01*
D61*
%TO.N,Net-(R13-Pad2)*%
X204680000Y-100570000D02*
X205900000Y-99350000D01*
X200300000Y-92912500D02*
X202662500Y-92912500D01*
X205900000Y-97000000D02*
X204835000Y-95935000D01*
X204800000Y-94565000D02*
X204835000Y-94600000D01*
X202662500Y-92912500D02*
X202700000Y-92950000D01*
X204835000Y-95935000D02*
X204835000Y-94600000D01*
X204680000Y-105800000D02*
X204680000Y-100570000D01*
X204800000Y-93000000D02*
X204800000Y-94565000D01*
X205900000Y-99350000D02*
X205900000Y-97000000D01*
%TO.N,Net-(R14-Pad1)*%
X203565000Y-86335000D02*
X203800000Y-86100000D01*
X207100000Y-91937500D02*
X208175000Y-93012500D01*
X203800000Y-86100000D02*
X206750000Y-86100000D01*
X207950000Y-96200000D02*
X208175000Y-95975000D01*
X208175000Y-95975000D02*
X208175000Y-93012500D01*
X203565000Y-87400000D02*
X203565000Y-86335000D01*
X207100000Y-86450000D02*
X207100000Y-91937500D01*
X202140000Y-96660000D02*
X202600000Y-96200000D01*
X206750000Y-86100000D02*
X207100000Y-86450000D01*
X202140000Y-98180000D02*
X202140000Y-96660000D01*
%TO.N,/PB26*%
X185190000Y-55050000D02*
X186440000Y-53800000D01*
X185850000Y-65100000D02*
X186350000Y-65600000D01*
X185650000Y-63125500D02*
X185650000Y-62807537D01*
X191776561Y-73921179D02*
X191495495Y-74202245D01*
X187974264Y-65600000D02*
X191400000Y-69025736D01*
X185300000Y-62457537D02*
X185300000Y-60275736D01*
X191400000Y-69025736D02*
X191400000Y-73090991D01*
X185300000Y-60275736D02*
X182800000Y-57775736D01*
X191776561Y-73467552D02*
X191776561Y-73921179D01*
X183450000Y-55050000D02*
X185190000Y-55050000D01*
X191400000Y-73090991D02*
X191776561Y-73467552D01*
X186350000Y-65600000D02*
X187974264Y-65600000D01*
X182800000Y-57775736D02*
X182800000Y-55700000D01*
X185650000Y-62807537D02*
X185300000Y-62457537D01*
X182800000Y-55700000D02*
X183450000Y-55050000D01*
%TO.N,/PB25*%
X182450000Y-55250000D02*
X183900000Y-53800000D01*
X185400000Y-65900000D02*
X187850000Y-65900000D01*
X185000000Y-62650000D02*
X185000000Y-60400000D01*
X184850000Y-65350000D02*
X185400000Y-65900000D01*
X187850000Y-65900000D02*
X191100000Y-69150000D01*
X185000000Y-60400000D02*
X182450000Y-57850000D01*
X191100000Y-73806749D02*
X191248008Y-73954757D01*
X182450000Y-57850000D02*
X182450000Y-55250000D01*
X191100000Y-69150000D02*
X191100000Y-73806749D01*
X184550000Y-63100000D02*
X185000000Y-62650000D01*
%TO.N,/CAM_PE*%
X170350000Y-83000000D02*
X169100000Y-83000000D01*
X187396054Y-76148566D02*
X187677119Y-76429631D01*
X186799483Y-76148566D02*
X187396054Y-76148566D01*
X171950000Y-84600000D02*
X170350000Y-83000000D01*
X186726184Y-76221865D02*
X186799483Y-76148566D01*
X180000000Y-84600000D02*
X171950000Y-84600000D01*
%TO.N,/I2C0_SCK*%
X187775647Y-77023135D02*
X187775647Y-77748617D01*
X169100000Y-85000000D02*
X166800000Y-85000000D01*
X187775647Y-77748617D02*
X186300000Y-79224264D01*
X181800000Y-84600000D02*
X181800000Y-84750000D01*
X171100000Y-85700000D02*
X170400000Y-85000000D01*
X187429631Y-76677119D02*
X187775647Y-77023135D01*
X170400000Y-85000000D02*
X169100000Y-85000000D01*
X181800000Y-84750000D02*
X180850000Y-85700000D01*
X180850000Y-85700000D02*
X171100000Y-85700000D01*
X186300000Y-79224264D02*
X186300000Y-80200000D01*
%TO.N,/I2C0_SDA*%
X185650000Y-79450000D02*
X185650000Y-79650000D01*
X187182144Y-76924606D02*
X187475647Y-77218109D01*
X187475647Y-77624353D02*
X185650000Y-79450000D01*
X167000000Y-86000000D02*
X166800000Y-86200000D01*
X185650000Y-79650000D02*
X185700000Y-79700000D01*
X181300000Y-86000000D02*
X169100000Y-86000000D01*
X182700000Y-84600000D02*
X181300000Y-86000000D01*
X187475647Y-77218109D02*
X187475647Y-77624353D01*
X169100000Y-86000000D02*
X167000000Y-86000000D01*
%TO.N,/AUX0*%
X168875000Y-66325000D02*
X164400000Y-70800000D01*
X168875000Y-56700000D02*
X168875000Y-66325000D01*
X173200000Y-90000000D02*
X175325000Y-87875000D01*
X170430011Y-55144989D02*
X168875000Y-56700000D01*
X172395011Y-55144989D02*
X170430011Y-55144989D01*
X186901078Y-82756460D02*
X187182144Y-82475394D01*
X175325000Y-87875000D02*
X181281604Y-87875000D01*
X186400144Y-82756460D02*
X186901078Y-82756460D01*
X164400000Y-88600000D02*
X165800000Y-90000000D01*
X165800000Y-90000000D02*
X173200000Y-90000000D01*
X164400000Y-70800000D02*
X164400000Y-88600000D01*
X181281604Y-87875000D02*
X186400144Y-82756460D01*
X173740000Y-53800000D02*
X172395011Y-55144989D01*
%TO.N,/CAM_LED*%
X170925736Y-84000000D02*
X169100000Y-84000000D01*
X171825736Y-84900000D02*
X170925736Y-84000000D01*
X180900000Y-84600000D02*
X180375000Y-85125000D01*
X179782537Y-85125000D02*
X179557537Y-84900000D01*
X192500000Y-76600000D02*
X192562563Y-76600000D01*
X180375000Y-85125000D02*
X179782537Y-85125000D01*
X192562563Y-76600000D02*
X193227907Y-75934656D01*
X179557537Y-84900000D02*
X171825736Y-84900000D01*
%TD*%
M02*
