%TF.GenerationSoftware,KiCad,Pcbnew,(6.0.6-0)*%
%TF.CreationDate,2023-04-01T16:22:28+01:00*%
%TF.ProjectId,Teacup,54656163-7570-42e6-9b69-6361645f7063,A*%
%TF.SameCoordinates,Original*%
%TF.FileFunction,Legend,Top*%
%TF.FilePolarity,Positive*%
%FSLAX46Y46*%
G04 Gerber Fmt 4.6, Leading zero omitted, Abs format (unit mm)*
G04 Created by KiCad (PCBNEW (6.0.6-0)) date 2023-04-01 16:22:28*
%MOMM*%
%LPD*%
G01*
G04 APERTURE LIST*
%ADD10C,0.120000*%
%ADD11C,0.150000*%
%ADD12C,0.175000*%
%ADD13C,0.100000*%
%ADD14C,0.200000*%
G04 APERTURE END LIST*
D10*
X167657142Y-57971428D02*
X167657142Y-57371428D01*
X167847619Y-57371428D01*
X167895238Y-57400000D01*
X167919047Y-57428571D01*
X167942857Y-57485714D01*
X167942857Y-57571428D01*
X167919047Y-57628571D01*
X167895238Y-57657142D01*
X167847619Y-57685714D01*
X167657142Y-57685714D01*
X168157142Y-57971428D02*
X168157142Y-57571428D01*
X168157142Y-57371428D02*
X168133333Y-57400000D01*
X168157142Y-57428571D01*
X168180952Y-57400000D01*
X168157142Y-57371428D01*
X168157142Y-57428571D01*
X168395238Y-57571428D02*
X168395238Y-57971428D01*
X168395238Y-57628571D02*
X168419047Y-57600000D01*
X168466666Y-57571428D01*
X168538095Y-57571428D01*
X168585714Y-57600000D01*
X168609523Y-57657142D01*
X168609523Y-57971428D01*
X169490476Y-57971428D02*
X169204761Y-57971428D01*
X169347619Y-57971428D02*
X169347619Y-57371428D01*
X169300000Y-57457142D01*
X169252380Y-57514285D01*
X169204761Y-57542857D01*
X169919047Y-57371428D02*
X169823809Y-57371428D01*
X169776190Y-57400000D01*
X169752380Y-57428571D01*
X169704761Y-57514285D01*
X169680952Y-57628571D01*
X169680952Y-57857142D01*
X169704761Y-57914285D01*
X169728571Y-57942857D01*
X169776190Y-57971428D01*
X169871428Y-57971428D01*
X169919047Y-57942857D01*
X169942857Y-57914285D01*
X169966666Y-57857142D01*
X169966666Y-57714285D01*
X169942857Y-57657142D01*
X169919047Y-57628571D01*
X169871428Y-57600000D01*
X169776190Y-57600000D01*
X169728571Y-57628571D01*
X169704761Y-57657142D01*
X169680952Y-57714285D01*
X210495238Y-58071428D02*
X210495238Y-57471428D01*
X210685714Y-57471428D01*
X210733333Y-57500000D01*
X210757142Y-57528571D01*
X210780952Y-57585714D01*
X210780952Y-57671428D01*
X210757142Y-57728571D01*
X210733333Y-57757142D01*
X210685714Y-57785714D01*
X210495238Y-57785714D01*
X210995238Y-58071428D02*
X210995238Y-57671428D01*
X210995238Y-57471428D02*
X210971428Y-57500000D01*
X210995238Y-57528571D01*
X211019047Y-57500000D01*
X210995238Y-57471428D01*
X210995238Y-57528571D01*
X211233333Y-57671428D02*
X211233333Y-58071428D01*
X211233333Y-57728571D02*
X211257142Y-57700000D01*
X211304761Y-57671428D01*
X211376190Y-57671428D01*
X211423809Y-57700000D01*
X211447619Y-57757142D01*
X211447619Y-58071428D01*
X212328571Y-58071428D02*
X212042857Y-58071428D01*
X212185714Y-58071428D02*
X212185714Y-57471428D01*
X212138095Y-57557142D01*
X212090476Y-57614285D01*
X212042857Y-57642857D01*
D11*
X180311499Y-63591262D02*
X181106994Y-62972544D01*
X181376368Y-63241918D01*
X181405831Y-63338724D01*
X181401622Y-63401858D01*
X181359532Y-63494456D01*
X181245890Y-63582844D01*
X181136457Y-63608098D01*
X181064904Y-63603889D01*
X180959680Y-63566008D01*
X180690306Y-63296634D01*
X181212218Y-64087920D02*
X181548936Y-64424638D01*
X180917590Y-64197354D02*
X181948788Y-63814337D01*
X181388995Y-64668758D01*
X181995086Y-65274850D02*
X181591025Y-64870789D01*
X181793056Y-65072819D02*
X182588551Y-64454101D01*
X182407565Y-64475146D01*
X182264460Y-64466728D01*
X182159236Y-64428847D01*
X183228314Y-65093864D02*
X183295658Y-65161207D01*
X183325121Y-65258014D01*
X183320912Y-65321148D01*
X183278822Y-65413746D01*
X183160971Y-65565268D01*
X182971567Y-65712582D01*
X182786373Y-65796762D01*
X182676939Y-65822016D01*
X182605387Y-65817807D01*
X182500163Y-65779926D01*
X182432819Y-65712582D01*
X182403356Y-65615776D01*
X182407565Y-65552642D01*
X182449655Y-65460044D01*
X182567506Y-65308521D01*
X182756910Y-65161207D01*
X182942104Y-65077028D01*
X183051538Y-65051774D01*
X183123090Y-65055983D01*
X183228314Y-65093864D01*
D10*
X210557142Y-52871428D02*
X210557142Y-52271428D01*
X210747619Y-52271428D01*
X210795238Y-52300000D01*
X210819047Y-52328571D01*
X210842857Y-52385714D01*
X210842857Y-52471428D01*
X210819047Y-52528571D01*
X210795238Y-52557142D01*
X210747619Y-52585714D01*
X210557142Y-52585714D01*
X211057142Y-52871428D02*
X211057142Y-52471428D01*
X211057142Y-52271428D02*
X211033333Y-52300000D01*
X211057142Y-52328571D01*
X211080952Y-52300000D01*
X211057142Y-52271428D01*
X211057142Y-52328571D01*
X211295238Y-52471428D02*
X211295238Y-52871428D01*
X211295238Y-52528571D02*
X211319047Y-52500000D01*
X211366666Y-52471428D01*
X211438095Y-52471428D01*
X211485714Y-52500000D01*
X211509523Y-52557142D01*
X211509523Y-52871428D01*
X212390476Y-52871428D02*
X212104761Y-52871428D01*
X212247619Y-52871428D02*
X212247619Y-52271428D01*
X212200000Y-52357142D01*
X212152380Y-52414285D01*
X212104761Y-52442857D01*
X212819047Y-52271428D02*
X212723809Y-52271428D01*
X212676190Y-52300000D01*
X212652380Y-52328571D01*
X212604761Y-52414285D01*
X212580952Y-52528571D01*
X212580952Y-52757142D01*
X212604761Y-52814285D01*
X212628571Y-52842857D01*
X212676190Y-52871428D01*
X212771428Y-52871428D01*
X212819047Y-52842857D01*
X212842857Y-52814285D01*
X212866666Y-52757142D01*
X212866666Y-52614285D01*
X212842857Y-52557142D01*
X212819047Y-52528571D01*
X212771428Y-52500000D01*
X212676190Y-52500000D01*
X212628571Y-52528571D01*
X212604761Y-52557142D01*
X212580952Y-52614285D01*
D11*
X190471499Y-63591262D02*
X191266994Y-62972544D01*
X191536368Y-63241918D01*
X191565831Y-63338724D01*
X191561622Y-63401858D01*
X191519532Y-63494456D01*
X191405890Y-63582844D01*
X191296457Y-63608098D01*
X191224904Y-63603889D01*
X191119680Y-63566008D01*
X190850306Y-63296634D01*
X191372218Y-64087920D02*
X191708936Y-64424638D01*
X191077590Y-64197354D02*
X192108788Y-63814337D01*
X191548995Y-64668758D01*
X192155086Y-65274850D02*
X191751025Y-64870789D01*
X191953056Y-65072819D02*
X192748551Y-64454101D01*
X192567565Y-64475146D01*
X192424460Y-64466728D01*
X192319236Y-64428847D01*
X193556673Y-65262223D02*
X193421986Y-65127536D01*
X193316762Y-65089655D01*
X193245209Y-65085446D01*
X193064224Y-65106491D01*
X192879029Y-65190670D01*
X192575983Y-65426373D01*
X192533894Y-65518970D01*
X192529685Y-65582104D01*
X192559147Y-65678911D01*
X192693834Y-65813598D01*
X192799059Y-65851478D01*
X192870611Y-65855687D01*
X192980044Y-65830434D01*
X193169448Y-65683120D01*
X193211538Y-65590522D01*
X193215747Y-65527388D01*
X193186284Y-65430581D01*
X193051597Y-65295894D01*
X192946373Y-65258014D01*
X192874820Y-65253805D01*
X192765387Y-65279059D01*
X180824375Y-95252380D02*
X180949375Y-94252380D01*
X181187470Y-94252380D01*
X181324375Y-94300000D01*
X181407708Y-94395238D01*
X181443422Y-94490476D01*
X181467232Y-94680952D01*
X181449375Y-94823809D01*
X181377946Y-95014285D01*
X181318422Y-95109523D01*
X181211279Y-95204761D01*
X181062470Y-95252380D01*
X180824375Y-95252380D01*
X181871994Y-94871428D02*
X182633898Y-94871428D01*
X182205327Y-95252380D02*
X182300565Y-94490476D01*
X185391499Y-63591262D02*
X186186994Y-62972544D01*
X186456368Y-63241918D01*
X186485831Y-63338724D01*
X186481622Y-63401858D01*
X186439532Y-63494456D01*
X186325890Y-63582844D01*
X186216457Y-63608098D01*
X186144904Y-63603889D01*
X186039680Y-63566008D01*
X185770306Y-63296634D01*
X186292218Y-64087920D02*
X186628936Y-64424638D01*
X185997590Y-64197354D02*
X187028788Y-63814337D01*
X186468995Y-64668758D01*
X187075086Y-65274850D02*
X186671025Y-64870789D01*
X186873056Y-65072819D02*
X187668551Y-64454101D01*
X187487565Y-64475146D01*
X187344460Y-64466728D01*
X187239236Y-64428847D01*
X188211508Y-65468462D02*
X187681178Y-65880941D01*
X188346195Y-65064401D02*
X187609625Y-65337984D01*
X188047358Y-65775717D01*
X184052380Y-103103005D02*
X184052380Y-103579196D01*
X184528571Y-103686339D01*
X184480952Y-103632767D01*
X184433333Y-103531577D01*
X184433333Y-103293482D01*
X184480952Y-103204196D01*
X184528571Y-103162529D01*
X184623809Y-103126815D01*
X184861904Y-103156577D01*
X184957142Y-103216101D01*
X185004761Y-103269672D01*
X185052380Y-103370863D01*
X185052380Y-103608958D01*
X185004761Y-103698244D01*
X184957142Y-103739910D01*
X184052380Y-102769672D02*
X185052380Y-102561339D01*
X184052380Y-102103005D01*
X185052380Y-101132767D02*
X184052380Y-101007767D01*
X185052380Y-100656577D02*
X184052380Y-100531577D01*
X185052380Y-100085148D01*
X184052380Y-99960148D01*
D10*
X167995238Y-52771428D02*
X167995238Y-52171428D01*
X168185714Y-52171428D01*
X168233333Y-52200000D01*
X168257142Y-52228571D01*
X168280952Y-52285714D01*
X168280952Y-52371428D01*
X168257142Y-52428571D01*
X168233333Y-52457142D01*
X168185714Y-52485714D01*
X167995238Y-52485714D01*
X168495238Y-52771428D02*
X168495238Y-52371428D01*
X168495238Y-52171428D02*
X168471428Y-52200000D01*
X168495238Y-52228571D01*
X168519047Y-52200000D01*
X168495238Y-52171428D01*
X168495238Y-52228571D01*
X168733333Y-52371428D02*
X168733333Y-52771428D01*
X168733333Y-52428571D02*
X168757142Y-52400000D01*
X168804761Y-52371428D01*
X168876190Y-52371428D01*
X168923809Y-52400000D01*
X168947619Y-52457142D01*
X168947619Y-52771428D01*
X169828571Y-52771428D02*
X169542857Y-52771428D01*
X169685714Y-52771428D02*
X169685714Y-52171428D01*
X169638095Y-52257142D01*
X169590476Y-52314285D01*
X169542857Y-52342857D01*
D11*
X242062470Y-95300000D02*
X241973184Y-95252380D01*
X241830327Y-95252380D01*
X241681517Y-95300000D01*
X241574375Y-95395238D01*
X241514851Y-95490476D01*
X241443422Y-95680952D01*
X241425565Y-95823809D01*
X241449375Y-96014285D01*
X241485089Y-96109523D01*
X241568422Y-96204761D01*
X241705327Y-96252380D01*
X241800565Y-96252380D01*
X241949375Y-96204761D01*
X242002946Y-96157142D01*
X242044613Y-95823809D01*
X241854136Y-95823809D01*
X242419613Y-96252380D02*
X242544613Y-95252380D01*
X242991041Y-96252380D01*
X243116041Y-95252380D01*
X243467232Y-96252380D02*
X243592232Y-95252380D01*
X243830327Y-95252380D01*
X243967232Y-95300000D01*
X244050565Y-95395238D01*
X244086279Y-95490476D01*
X244110089Y-95680952D01*
X244092232Y-95823809D01*
X244020803Y-96014285D01*
X243961279Y-96109523D01*
X243854136Y-96204761D01*
X243705327Y-96252380D01*
X243467232Y-96252380D01*
X175568216Y-63627980D02*
X176363711Y-63009261D01*
X176633085Y-63278635D01*
X176662548Y-63375441D01*
X176658339Y-63438576D01*
X176616250Y-63531173D01*
X176502607Y-63619562D01*
X176393174Y-63644815D01*
X176321622Y-63640606D01*
X176216398Y-63602726D01*
X175947024Y-63333352D01*
X176468936Y-64124638D02*
X176805653Y-64461355D01*
X176174308Y-64234071D02*
X177205505Y-63851055D01*
X176645712Y-64705476D01*
X177436999Y-64688640D02*
X177407536Y-64591833D01*
X177411745Y-64528699D01*
X177453834Y-64436102D01*
X177491715Y-64406639D01*
X177601148Y-64381385D01*
X177672701Y-64385594D01*
X177777925Y-64423475D01*
X177912612Y-64558162D01*
X177942075Y-64654968D01*
X177937866Y-64718103D01*
X177895776Y-64810700D01*
X177857895Y-64840163D01*
X177748462Y-64865416D01*
X177676910Y-64861207D01*
X177571686Y-64823327D01*
X177436999Y-64688640D01*
X177331774Y-64650759D01*
X177260222Y-64646550D01*
X177150789Y-64671804D01*
X176999266Y-64789655D01*
X176957176Y-64882252D01*
X176952967Y-64945387D01*
X176982430Y-65042193D01*
X177117117Y-65176880D01*
X177222341Y-65214761D01*
X177293894Y-65218970D01*
X177403327Y-65193716D01*
X177554850Y-65075865D01*
X177596939Y-64983268D01*
X177601148Y-64920133D01*
X177571686Y-64823327D01*
X173028216Y-63627980D02*
X173823711Y-63009261D01*
X174093085Y-63278635D01*
X174122548Y-63375441D01*
X174118339Y-63438576D01*
X174076250Y-63531173D01*
X173962607Y-63619562D01*
X173853174Y-63644815D01*
X173781622Y-63640606D01*
X173676398Y-63602726D01*
X173407024Y-63333352D01*
X173928936Y-64124638D02*
X174265653Y-64461355D01*
X173634308Y-64234071D02*
X174665505Y-63851055D01*
X174105712Y-64705476D01*
X175069566Y-64255116D02*
X175540971Y-64726520D01*
X174442430Y-65042193D01*
X209392232Y-66652380D02*
X210011279Y-66652380D01*
X209630327Y-67033333D01*
X209773184Y-67033333D01*
X209862470Y-67080952D01*
X209904136Y-67128571D01*
X209939851Y-67223809D01*
X209910089Y-67461904D01*
X209850565Y-67557142D01*
X209796994Y-67604761D01*
X209695803Y-67652380D01*
X209410089Y-67652380D01*
X209320803Y-67604761D01*
X209279136Y-67557142D01*
X210296994Y-66652380D02*
X210505327Y-67652380D01*
X210963660Y-66652380D01*
X211201755Y-66652380D02*
X211820803Y-66652380D01*
X211439851Y-67033333D01*
X211582708Y-67033333D01*
X211671994Y-67080952D01*
X211713660Y-67128571D01*
X211749375Y-67223809D01*
X211719613Y-67461904D01*
X211660089Y-67557142D01*
X211606517Y-67604761D01*
X211505327Y-67652380D01*
X211219613Y-67652380D01*
X211130327Y-67604761D01*
X211088660Y-67557142D01*
X241468422Y-90252380D02*
X242039851Y-90252380D01*
X241629136Y-91252380D02*
X241754136Y-90252380D01*
X242277946Y-90252380D02*
X242819613Y-91252380D01*
X242944613Y-90252380D02*
X242152946Y-91252380D01*
X176624375Y-89852380D02*
X176749375Y-88852380D01*
X176987470Y-88852380D01*
X177124375Y-88900000D01*
X177207708Y-88995238D01*
X177243422Y-89090476D01*
X177267232Y-89280952D01*
X177249375Y-89423809D01*
X177177946Y-89614285D01*
X177118422Y-89709523D01*
X177011279Y-89804761D01*
X176862470Y-89852380D01*
X176624375Y-89852380D01*
X177671994Y-89471428D02*
X178433898Y-89471428D01*
X178108216Y-63627980D02*
X178903711Y-63009261D01*
X179173085Y-63278635D01*
X179202548Y-63375441D01*
X179198339Y-63438576D01*
X179156250Y-63531173D01*
X179042607Y-63619562D01*
X178933174Y-63644815D01*
X178861622Y-63640606D01*
X178756398Y-63602726D01*
X178487024Y-63333352D01*
X179008936Y-64124638D02*
X179345653Y-64461355D01*
X178714308Y-64234071D02*
X179745505Y-63851055D01*
X179185712Y-64705476D01*
X179455086Y-64974850D02*
X179589773Y-65109537D01*
X179694998Y-65147417D01*
X179766550Y-65151626D01*
X179947536Y-65130581D01*
X180132730Y-65046402D01*
X180435776Y-64810700D01*
X180477866Y-64718103D01*
X180482075Y-64654968D01*
X180452612Y-64558162D01*
X180317925Y-64423475D01*
X180212701Y-64385594D01*
X180141148Y-64381385D01*
X180031715Y-64406639D01*
X179842312Y-64553953D01*
X179800222Y-64646550D01*
X179796013Y-64709685D01*
X179825476Y-64806491D01*
X179960163Y-64941178D01*
X180065387Y-64979059D01*
X180136939Y-64983268D01*
X180246373Y-64958014D01*
X187931499Y-63591262D02*
X188726994Y-62972544D01*
X188996368Y-63241918D01*
X189025831Y-63338724D01*
X189021622Y-63401858D01*
X188979532Y-63494456D01*
X188865890Y-63582844D01*
X188756457Y-63608098D01*
X188684904Y-63603889D01*
X188579680Y-63566008D01*
X188310306Y-63296634D01*
X188832218Y-64087920D02*
X189168936Y-64424638D01*
X188537590Y-64197354D02*
X189568788Y-63814337D01*
X189008995Y-64668758D01*
X189615086Y-65274850D02*
X189211025Y-64870789D01*
X189413056Y-65072819D02*
X190208551Y-64454101D01*
X190027565Y-64475146D01*
X189884460Y-64466728D01*
X189779236Y-64428847D01*
X191050345Y-65295894D02*
X190713627Y-64959177D01*
X190301148Y-65220133D01*
X190372701Y-65224342D01*
X190477925Y-65262223D01*
X190646284Y-65430581D01*
X190675747Y-65527388D01*
X190671538Y-65590522D01*
X190629448Y-65683120D01*
X190440044Y-65830434D01*
X190330611Y-65855687D01*
X190259059Y-65851478D01*
X190153834Y-65813598D01*
X189985476Y-65645239D01*
X189956013Y-65548433D01*
X189960222Y-65485298D01*
X172552380Y-84856577D02*
X171552380Y-84731577D01*
X171552380Y-84350625D01*
X171600000Y-84261339D01*
X171647619Y-84219672D01*
X171742857Y-84183958D01*
X171885714Y-84201815D01*
X171980952Y-84261339D01*
X172028571Y-84314910D01*
X172076190Y-84416101D01*
X172076190Y-84797053D01*
X172552380Y-83856577D02*
X171885714Y-83773244D01*
X171552380Y-83731577D02*
X171600000Y-83785148D01*
X171647619Y-83743482D01*
X171600000Y-83689910D01*
X171552380Y-83731577D01*
X171647619Y-83743482D01*
X171552380Y-82636339D02*
X172552380Y-82428005D01*
X171552380Y-81969672D01*
X171647619Y-81695863D02*
X171600000Y-81642291D01*
X171552380Y-81541101D01*
X171552380Y-81303005D01*
X171600000Y-81213720D01*
X171647619Y-81172053D01*
X171742857Y-81136339D01*
X171838095Y-81148244D01*
X171980952Y-81213720D01*
X172552380Y-81856577D01*
X172552380Y-81237529D01*
X172457142Y-80797053D02*
X172504761Y-80755386D01*
X172552380Y-80808958D01*
X172504761Y-80850625D01*
X172457142Y-80797053D01*
X172552380Y-80808958D01*
X172552380Y-79808958D02*
X172552380Y-80380386D01*
X172552380Y-80094672D02*
X171552380Y-79969672D01*
X171695238Y-80082767D01*
X171790476Y-80189910D01*
X171838095Y-80291101D01*
X172457142Y-78035148D02*
X172504761Y-78088720D01*
X172552380Y-78237529D01*
X172552380Y-78332767D01*
X172504761Y-78469672D01*
X172409523Y-78553005D01*
X172314285Y-78588720D01*
X172123809Y-78612529D01*
X171980952Y-78594672D01*
X171790476Y-78523244D01*
X171695238Y-78463720D01*
X171600000Y-78356577D01*
X171552380Y-78207767D01*
X171552380Y-78112529D01*
X171600000Y-77975625D01*
X171647619Y-77933958D01*
X172266666Y-77630386D02*
X172266666Y-77154196D01*
X172552380Y-77761339D02*
X171552380Y-77303005D01*
X172552380Y-77094672D01*
X172552380Y-76761339D02*
X171552380Y-76636339D01*
X172266666Y-76392291D01*
X171552380Y-75969672D01*
X172552380Y-76094672D01*
X172028571Y-75553005D02*
X172028571Y-75219672D01*
X172552380Y-75142291D02*
X172552380Y-75618482D01*
X171552380Y-75493482D01*
X171552380Y-75017291D01*
X172552380Y-74142291D02*
X172076190Y-74416101D01*
X172552380Y-74713720D02*
X171552380Y-74588720D01*
X171552380Y-74207767D01*
X171600000Y-74118482D01*
X171647619Y-74076815D01*
X171742857Y-74041101D01*
X171885714Y-74058958D01*
X171980952Y-74118482D01*
X172028571Y-74172053D01*
X172076190Y-74273244D01*
X172076190Y-74654196D01*
X172266666Y-73725625D02*
X172266666Y-73249434D01*
X172552380Y-73856577D02*
X171552380Y-73398244D01*
X172552380Y-73189910D01*
X170488216Y-63627980D02*
X171283711Y-63009261D01*
X171553085Y-63278635D01*
X171582548Y-63375441D01*
X171578339Y-63438576D01*
X171536250Y-63531173D01*
X171422607Y-63619562D01*
X171313174Y-63644815D01*
X171241622Y-63640606D01*
X171136398Y-63602726D01*
X170867024Y-63333352D01*
X171388936Y-64124638D02*
X171725653Y-64461355D01*
X171094308Y-64234071D02*
X172125505Y-63851055D01*
X171565712Y-64705476D01*
X172899955Y-64625505D02*
X172765268Y-64490818D01*
X172660044Y-64452937D01*
X172588492Y-64448729D01*
X172407506Y-64469773D01*
X172222312Y-64553953D01*
X171919266Y-64789655D01*
X171877176Y-64882252D01*
X171872967Y-64945387D01*
X171902430Y-65042193D01*
X172037117Y-65176880D01*
X172142341Y-65214761D01*
X172213894Y-65218970D01*
X172323327Y-65193716D01*
X172512730Y-65046402D01*
X172554820Y-64953805D01*
X172559029Y-64890670D01*
X172529566Y-64793864D01*
X172394879Y-64659177D01*
X172289655Y-64621296D01*
X172218103Y-64617087D01*
X172108669Y-64642341D01*
X241677946Y-71852380D02*
X241773184Y-71852380D01*
X241862470Y-71900000D01*
X241904136Y-71947619D01*
X241939851Y-72042857D01*
X241963660Y-72233333D01*
X241933898Y-72471428D01*
X241862470Y-72661904D01*
X241802946Y-72757142D01*
X241749375Y-72804761D01*
X241648184Y-72852380D01*
X241552946Y-72852380D01*
X241463660Y-72804761D01*
X241421994Y-72757142D01*
X241386279Y-72661904D01*
X241362470Y-72471428D01*
X241392232Y-72233333D01*
X241463660Y-72042857D01*
X241523184Y-71947619D01*
X241576755Y-71900000D01*
X241677946Y-71852380D01*
X242296994Y-71852380D02*
X242505327Y-72852380D01*
X242963660Y-71852380D01*
X243386279Y-72280952D02*
X243296994Y-72233333D01*
X243255327Y-72185714D01*
X243219613Y-72090476D01*
X243225565Y-72042857D01*
X243285089Y-71947619D01*
X243338660Y-71900000D01*
X243439851Y-71852380D01*
X243630327Y-71852380D01*
X243719613Y-71900000D01*
X243761279Y-71947619D01*
X243796994Y-72042857D01*
X243791041Y-72090476D01*
X243731517Y-72185714D01*
X243677946Y-72233333D01*
X243576755Y-72280952D01*
X243386279Y-72280952D01*
X243285089Y-72328571D01*
X243231517Y-72376190D01*
X243171994Y-72471428D01*
X243148184Y-72661904D01*
X243183898Y-72757142D01*
X243225565Y-72804761D01*
X243314851Y-72852380D01*
X243505327Y-72852380D01*
X243606517Y-72804761D01*
X243660089Y-72757142D01*
X243719613Y-72661904D01*
X243743422Y-72471428D01*
X243707708Y-72376190D01*
X243666041Y-72328571D01*
X243576755Y-72280952D01*
X242138660Y-93852380D02*
X241864851Y-93376190D01*
X241567232Y-93852380D02*
X241692232Y-92852380D01*
X242073184Y-92852380D01*
X242162470Y-92900000D01*
X242204136Y-92947619D01*
X242239851Y-93042857D01*
X242221994Y-93185714D01*
X242162470Y-93280952D01*
X242108898Y-93328571D01*
X242007708Y-93376190D01*
X241626755Y-93376190D01*
X242596994Y-92852380D02*
X243138660Y-93852380D01*
X243263660Y-92852380D02*
X242471994Y-93852380D01*
X221839851Y-67452380D02*
X221363660Y-67452380D01*
X221256517Y-67928571D01*
X221310089Y-67880952D01*
X221411279Y-67833333D01*
X221649375Y-67833333D01*
X221738660Y-67880952D01*
X221780327Y-67928571D01*
X221816041Y-68023809D01*
X221786279Y-68261904D01*
X221726755Y-68357142D01*
X221673184Y-68404761D01*
X221571994Y-68452380D01*
X221333898Y-68452380D01*
X221244613Y-68404761D01*
X221202946Y-68357142D01*
X222173184Y-67452380D02*
X222381517Y-68452380D01*
X222839851Y-67452380D01*
X193011499Y-63591262D02*
X193806994Y-62972544D01*
X194076368Y-63241918D01*
X194105831Y-63338724D01*
X194101622Y-63401858D01*
X194059532Y-63494456D01*
X193945890Y-63582844D01*
X193836457Y-63608098D01*
X193764904Y-63603889D01*
X193659680Y-63566008D01*
X193390306Y-63296634D01*
X193912218Y-64087920D02*
X194248936Y-64424638D01*
X193617590Y-64197354D02*
X194648788Y-63814337D01*
X194088995Y-64668758D01*
X194695086Y-65274850D02*
X194291025Y-64870789D01*
X194493056Y-65072819D02*
X195288551Y-64454101D01*
X195107565Y-64475146D01*
X194964460Y-64466728D01*
X194859236Y-64428847D01*
X195726284Y-64891833D02*
X196197688Y-65363238D01*
X195099147Y-65678911D01*
X182851499Y-63591262D02*
X183646994Y-62972544D01*
X183916368Y-63241918D01*
X183945831Y-63338724D01*
X183941622Y-63401858D01*
X183899532Y-63494456D01*
X183785890Y-63582844D01*
X183676457Y-63608098D01*
X183604904Y-63603889D01*
X183499680Y-63566008D01*
X183230306Y-63296634D01*
X183752218Y-64087920D02*
X184088936Y-64424638D01*
X183457590Y-64197354D02*
X184488788Y-63814337D01*
X183928995Y-64668758D01*
X184535086Y-65274850D02*
X184131025Y-64870789D01*
X184333056Y-65072819D02*
X185128551Y-64454101D01*
X184947565Y-64475146D01*
X184804460Y-64466728D01*
X184699236Y-64428847D01*
X185208521Y-65948285D02*
X184804460Y-65544224D01*
X185006491Y-65746254D02*
X185801986Y-65127536D01*
X185621000Y-65148581D01*
X185477895Y-65140163D01*
X185372671Y-65102282D01*
X221286279Y-60252380D02*
X220714851Y-60252380D01*
X221000565Y-60252380D02*
X221125565Y-59252380D01*
X221012470Y-59395238D01*
X220905327Y-59490476D01*
X220804136Y-59538095D01*
X221696994Y-59252380D02*
X221905327Y-60252380D01*
X222363660Y-59252380D01*
X222786279Y-59680952D02*
X222696994Y-59633333D01*
X222655327Y-59585714D01*
X222619613Y-59490476D01*
X222625565Y-59442857D01*
X222685089Y-59347619D01*
X222738660Y-59300000D01*
X222839851Y-59252380D01*
X223030327Y-59252380D01*
X223119613Y-59300000D01*
X223161279Y-59347619D01*
X223196994Y-59442857D01*
X223191041Y-59490476D01*
X223131517Y-59585714D01*
X223077946Y-59633333D01*
X222976755Y-59680952D01*
X222786279Y-59680952D01*
X222685089Y-59728571D01*
X222631517Y-59776190D01*
X222571994Y-59871428D01*
X222548184Y-60061904D01*
X222583898Y-60157142D01*
X222625565Y-60204761D01*
X222714851Y-60252380D01*
X222905327Y-60252380D01*
X223006517Y-60204761D01*
X223060089Y-60157142D01*
X223119613Y-60061904D01*
X223143422Y-59871428D01*
X223107708Y-59776190D01*
X223066041Y-59728571D01*
X222976755Y-59680952D01*
D10*
%TO.C,C19*%
X200014285Y-67521428D02*
X200042857Y-67545238D01*
X200071428Y-67616666D01*
X200071428Y-67664285D01*
X200042857Y-67735714D01*
X199985714Y-67783333D01*
X199928571Y-67807142D01*
X199814285Y-67830952D01*
X199728571Y-67830952D01*
X199614285Y-67807142D01*
X199557142Y-67783333D01*
X199500000Y-67735714D01*
X199471428Y-67664285D01*
X199471428Y-67616666D01*
X199500000Y-67545238D01*
X199528571Y-67521428D01*
X200071428Y-67045238D02*
X200071428Y-67330952D01*
X200071428Y-67188095D02*
X199471428Y-67188095D01*
X199557142Y-67235714D01*
X199614285Y-67283333D01*
X199642857Y-67330952D01*
X200071428Y-66807142D02*
X200071428Y-66711904D01*
X200042857Y-66664285D01*
X200014285Y-66640476D01*
X199928571Y-66592857D01*
X199814285Y-66569047D01*
X199585714Y-66569047D01*
X199528571Y-66592857D01*
X199500000Y-66616666D01*
X199471428Y-66664285D01*
X199471428Y-66759523D01*
X199500000Y-66807142D01*
X199528571Y-66830952D01*
X199585714Y-66854761D01*
X199728571Y-66854761D01*
X199785714Y-66830952D01*
X199814285Y-66807142D01*
X199842857Y-66759523D01*
X199842857Y-66664285D01*
X199814285Y-66616666D01*
X199785714Y-66592857D01*
X199728571Y-66569047D01*
%TO.C,C2*%
X220916666Y-64214285D02*
X220892857Y-64242857D01*
X220821428Y-64271428D01*
X220773809Y-64271428D01*
X220702380Y-64242857D01*
X220654761Y-64185714D01*
X220630952Y-64128571D01*
X220607142Y-64014285D01*
X220607142Y-63928571D01*
X220630952Y-63814285D01*
X220654761Y-63757142D01*
X220702380Y-63700000D01*
X220773809Y-63671428D01*
X220821428Y-63671428D01*
X220892857Y-63700000D01*
X220916666Y-63728571D01*
X221107142Y-63728571D02*
X221130952Y-63700000D01*
X221178571Y-63671428D01*
X221297619Y-63671428D01*
X221345238Y-63700000D01*
X221369047Y-63728571D01*
X221392857Y-63785714D01*
X221392857Y-63842857D01*
X221369047Y-63928571D01*
X221083333Y-64271428D01*
X221392857Y-64271428D01*
%TO.C,TP8*%
X244569047Y-58623428D02*
X244854761Y-58623428D01*
X244711904Y-59223428D02*
X244711904Y-58623428D01*
X245021428Y-59223428D02*
X245021428Y-58623428D01*
X245211904Y-58623428D01*
X245259523Y-58652000D01*
X245283333Y-58680571D01*
X245307142Y-58737714D01*
X245307142Y-58823428D01*
X245283333Y-58880571D01*
X245259523Y-58909142D01*
X245211904Y-58937714D01*
X245021428Y-58937714D01*
X245592857Y-58880571D02*
X245545238Y-58852000D01*
X245521428Y-58823428D01*
X245497619Y-58766285D01*
X245497619Y-58737714D01*
X245521428Y-58680571D01*
X245545238Y-58652000D01*
X245592857Y-58623428D01*
X245688095Y-58623428D01*
X245735714Y-58652000D01*
X245759523Y-58680571D01*
X245783333Y-58737714D01*
X245783333Y-58766285D01*
X245759523Y-58823428D01*
X245735714Y-58852000D01*
X245688095Y-58880571D01*
X245592857Y-58880571D01*
X245545238Y-58909142D01*
X245521428Y-58937714D01*
X245497619Y-58994857D01*
X245497619Y-59109142D01*
X245521428Y-59166285D01*
X245545238Y-59194857D01*
X245592857Y-59223428D01*
X245688095Y-59223428D01*
X245735714Y-59194857D01*
X245759523Y-59166285D01*
X245783333Y-59109142D01*
X245783333Y-58994857D01*
X245759523Y-58937714D01*
X245735714Y-58909142D01*
X245688095Y-58880571D01*
%TO.C,C20*%
X183134708Y-72735420D02*
X183097669Y-72738787D01*
X183026959Y-72708483D01*
X182993287Y-72674811D01*
X182962982Y-72604100D01*
X182969717Y-72530022D01*
X182993287Y-72472780D01*
X183057263Y-72375132D01*
X183117872Y-72314523D01*
X183215520Y-72250547D01*
X183272762Y-72226977D01*
X183346840Y-72220242D01*
X183417551Y-72250547D01*
X183451223Y-72284219D01*
X183481527Y-72354929D01*
X183478160Y-72391968D01*
X183612847Y-72526655D02*
X183649886Y-72523288D01*
X183703761Y-72536757D01*
X183787940Y-72620936D01*
X183801409Y-72674811D01*
X183798042Y-72711850D01*
X183774472Y-72769092D01*
X183734065Y-72809498D01*
X183656620Y-72853271D01*
X183212153Y-72893677D01*
X183431020Y-73112544D01*
X184074150Y-72907146D02*
X184107822Y-72940818D01*
X184121291Y-72994693D01*
X184117923Y-73031731D01*
X184094353Y-73088973D01*
X184030377Y-73186622D01*
X183929362Y-73287637D01*
X183831714Y-73351613D01*
X183774472Y-73375183D01*
X183737433Y-73378551D01*
X183683558Y-73365082D01*
X183649886Y-73331410D01*
X183636417Y-73277535D01*
X183639785Y-73240496D01*
X183663355Y-73183254D01*
X183727331Y-73085606D01*
X183828346Y-72984591D01*
X183925994Y-72920615D01*
X183983236Y-72897044D01*
X184020275Y-72893677D01*
X184074150Y-72907146D01*
%TO.C,U2*%
X223819047Y-54271428D02*
X223819047Y-54757142D01*
X223842857Y-54814285D01*
X223866666Y-54842857D01*
X223914285Y-54871428D01*
X224009523Y-54871428D01*
X224057142Y-54842857D01*
X224080952Y-54814285D01*
X224104761Y-54757142D01*
X224104761Y-54271428D01*
X224319047Y-54328571D02*
X224342857Y-54300000D01*
X224390476Y-54271428D01*
X224509523Y-54271428D01*
X224557142Y-54300000D01*
X224580952Y-54328571D01*
X224604761Y-54385714D01*
X224604761Y-54442857D01*
X224580952Y-54528571D01*
X224295238Y-54871428D01*
X224604761Y-54871428D01*
%TO.C,C1*%
X221216666Y-65914285D02*
X221192857Y-65942857D01*
X221121428Y-65971428D01*
X221073809Y-65971428D01*
X221002380Y-65942857D01*
X220954761Y-65885714D01*
X220930952Y-65828571D01*
X220907142Y-65714285D01*
X220907142Y-65628571D01*
X220930952Y-65514285D01*
X220954761Y-65457142D01*
X221002380Y-65400000D01*
X221073809Y-65371428D01*
X221121428Y-65371428D01*
X221192857Y-65400000D01*
X221216666Y-65428571D01*
X221692857Y-65971428D02*
X221407142Y-65971428D01*
X221550000Y-65971428D02*
X221550000Y-65371428D01*
X221502380Y-65457142D01*
X221454761Y-65514285D01*
X221407142Y-65542857D01*
%TO.C,TP6*%
X241969047Y-68223428D02*
X242254761Y-68223428D01*
X242111904Y-68823428D02*
X242111904Y-68223428D01*
X242421428Y-68823428D02*
X242421428Y-68223428D01*
X242611904Y-68223428D01*
X242659523Y-68252000D01*
X242683333Y-68280571D01*
X242707142Y-68337714D01*
X242707142Y-68423428D01*
X242683333Y-68480571D01*
X242659523Y-68509142D01*
X242611904Y-68537714D01*
X242421428Y-68537714D01*
X243135714Y-68223428D02*
X243040476Y-68223428D01*
X242992857Y-68252000D01*
X242969047Y-68280571D01*
X242921428Y-68366285D01*
X242897619Y-68480571D01*
X242897619Y-68709142D01*
X242921428Y-68766285D01*
X242945238Y-68794857D01*
X242992857Y-68823428D01*
X243088095Y-68823428D01*
X243135714Y-68794857D01*
X243159523Y-68766285D01*
X243183333Y-68709142D01*
X243183333Y-68566285D01*
X243159523Y-68509142D01*
X243135714Y-68480571D01*
X243088095Y-68452000D01*
X242992857Y-68452000D01*
X242945238Y-68480571D01*
X242921428Y-68509142D01*
X242897619Y-68566285D01*
%TO.C,C37*%
X183971192Y-77024238D02*
X183934153Y-77027605D01*
X183863443Y-76997301D01*
X183829771Y-76963629D01*
X183799466Y-76892918D01*
X183806201Y-76818840D01*
X183829771Y-76761598D01*
X183893747Y-76663950D01*
X183954356Y-76603341D01*
X184052004Y-76539365D01*
X184109246Y-76515795D01*
X184183324Y-76509060D01*
X184254035Y-76539365D01*
X184287707Y-76573037D01*
X184318011Y-76643747D01*
X184314644Y-76680786D01*
X184472901Y-76758231D02*
X184691768Y-76977098D01*
X184412292Y-77020871D01*
X184462800Y-77071379D01*
X184476269Y-77125253D01*
X184472901Y-77162292D01*
X184449331Y-77219534D01*
X184348316Y-77320549D01*
X184291074Y-77344120D01*
X184254035Y-77347487D01*
X184200160Y-77334018D01*
X184099145Y-77233003D01*
X184085676Y-77179128D01*
X184089043Y-77142089D01*
X184809619Y-77094949D02*
X185045321Y-77330651D01*
X184469534Y-77603392D01*
%TO.C,TP3*%
X179121514Y-90213815D02*
X179323544Y-90011785D01*
X179646793Y-90537064D02*
X179222529Y-90112800D01*
X179865659Y-90318198D02*
X179441395Y-89893933D01*
X179576082Y-89759246D01*
X179629957Y-89745778D01*
X179666996Y-89749145D01*
X179724238Y-89772715D01*
X179784847Y-89833324D01*
X179808417Y-89890566D01*
X179811785Y-89927605D01*
X179798316Y-89981480D01*
X179663629Y-90116167D01*
X179761277Y-89574052D02*
X179980143Y-89355185D01*
X180023917Y-89634661D01*
X180074424Y-89584153D01*
X180128299Y-89570685D01*
X180165338Y-89574052D01*
X180222580Y-89597622D01*
X180323595Y-89698637D01*
X180347165Y-89755879D01*
X180350533Y-89792918D01*
X180337064Y-89846793D01*
X180236049Y-89947808D01*
X180182174Y-89961277D01*
X180145135Y-89957910D01*
%TO.C,R2*%
X217471428Y-69883333D02*
X217185714Y-70050000D01*
X217471428Y-70169047D02*
X216871428Y-70169047D01*
X216871428Y-69978571D01*
X216900000Y-69930952D01*
X216928571Y-69907142D01*
X216985714Y-69883333D01*
X217071428Y-69883333D01*
X217128571Y-69907142D01*
X217157142Y-69930952D01*
X217185714Y-69978571D01*
X217185714Y-70169047D01*
X216928571Y-69692857D02*
X216900000Y-69669047D01*
X216871428Y-69621428D01*
X216871428Y-69502380D01*
X216900000Y-69454761D01*
X216928571Y-69430952D01*
X216985714Y-69407142D01*
X217042857Y-69407142D01*
X217128571Y-69430952D01*
X217471428Y-69716666D01*
X217471428Y-69407142D01*
%TO.C,R0*%
X202471428Y-72908333D02*
X202185714Y-73075000D01*
X202471428Y-73194047D02*
X201871428Y-73194047D01*
X201871428Y-73003571D01*
X201900000Y-72955952D01*
X201928571Y-72932142D01*
X201985714Y-72908333D01*
X202071428Y-72908333D01*
X202128571Y-72932142D01*
X202157142Y-72955952D01*
X202185714Y-73003571D01*
X202185714Y-73194047D01*
X201871428Y-72598809D02*
X201871428Y-72551190D01*
X201900000Y-72503571D01*
X201928571Y-72479761D01*
X201985714Y-72455952D01*
X202100000Y-72432142D01*
X202242857Y-72432142D01*
X202357142Y-72455952D01*
X202414285Y-72479761D01*
X202442857Y-72503571D01*
X202471428Y-72551190D01*
X202471428Y-72598809D01*
X202442857Y-72646428D01*
X202414285Y-72670238D01*
X202357142Y-72694047D01*
X202242857Y-72717857D01*
X202100000Y-72717857D01*
X201985714Y-72694047D01*
X201928571Y-72670238D01*
X201900000Y-72646428D01*
X201871428Y-72598809D01*
%TO.C,R3*%
X213841428Y-69883333D02*
X213555714Y-70050000D01*
X213841428Y-70169047D02*
X213241428Y-70169047D01*
X213241428Y-69978571D01*
X213270000Y-69930952D01*
X213298571Y-69907142D01*
X213355714Y-69883333D01*
X213441428Y-69883333D01*
X213498571Y-69907142D01*
X213527142Y-69930952D01*
X213555714Y-69978571D01*
X213555714Y-70169047D01*
X213241428Y-69716666D02*
X213241428Y-69407142D01*
X213470000Y-69573809D01*
X213470000Y-69502380D01*
X213498571Y-69454761D01*
X213527142Y-69430952D01*
X213584285Y-69407142D01*
X213727142Y-69407142D01*
X213784285Y-69430952D01*
X213812857Y-69454761D01*
X213841428Y-69502380D01*
X213841428Y-69645238D01*
X213812857Y-69692857D01*
X213784285Y-69716666D01*
%TO.C,J7*%
X211533333Y-55671428D02*
X211533333Y-56100000D01*
X211509523Y-56185714D01*
X211461904Y-56242857D01*
X211390476Y-56271428D01*
X211342857Y-56271428D01*
X211723809Y-55671428D02*
X212057142Y-55671428D01*
X211842857Y-56271428D01*
%TO.C,J6*%
X211433333Y-54671428D02*
X211433333Y-55100000D01*
X211409523Y-55185714D01*
X211361904Y-55242857D01*
X211290476Y-55271428D01*
X211242857Y-55271428D01*
X211885714Y-54671428D02*
X211790476Y-54671428D01*
X211742857Y-54700000D01*
X211719047Y-54728571D01*
X211671428Y-54814285D01*
X211647619Y-54928571D01*
X211647619Y-55157142D01*
X211671428Y-55214285D01*
X211695238Y-55242857D01*
X211742857Y-55271428D01*
X211838095Y-55271428D01*
X211885714Y-55242857D01*
X211909523Y-55214285D01*
X211933333Y-55157142D01*
X211933333Y-55014285D01*
X211909523Y-54957142D01*
X211885714Y-54928571D01*
X211838095Y-54900000D01*
X211742857Y-54900000D01*
X211695238Y-54928571D01*
X211671428Y-54957142D01*
X211647619Y-55014285D01*
%TO.C,C16*%
X241778571Y-66714285D02*
X241754761Y-66742857D01*
X241683333Y-66771428D01*
X241635714Y-66771428D01*
X241564285Y-66742857D01*
X241516666Y-66685714D01*
X241492857Y-66628571D01*
X241469047Y-66514285D01*
X241469047Y-66428571D01*
X241492857Y-66314285D01*
X241516666Y-66257142D01*
X241564285Y-66200000D01*
X241635714Y-66171428D01*
X241683333Y-66171428D01*
X241754761Y-66200000D01*
X241778571Y-66228571D01*
X242254761Y-66771428D02*
X241969047Y-66771428D01*
X242111904Y-66771428D02*
X242111904Y-66171428D01*
X242064285Y-66257142D01*
X242016666Y-66314285D01*
X241969047Y-66342857D01*
X242683333Y-66171428D02*
X242588095Y-66171428D01*
X242540476Y-66200000D01*
X242516666Y-66228571D01*
X242469047Y-66314285D01*
X242445238Y-66428571D01*
X242445238Y-66657142D01*
X242469047Y-66714285D01*
X242492857Y-66742857D01*
X242540476Y-66771428D01*
X242635714Y-66771428D01*
X242683333Y-66742857D01*
X242707142Y-66714285D01*
X242730952Y-66657142D01*
X242730952Y-66514285D01*
X242707142Y-66457142D01*
X242683333Y-66428571D01*
X242635714Y-66400000D01*
X242540476Y-66400000D01*
X242492857Y-66428571D01*
X242469047Y-66457142D01*
X242445238Y-66514285D01*
%TO.C,R18*%
X221178571Y-72828928D02*
X221011904Y-72543214D01*
X220892857Y-72828928D02*
X220892857Y-72228928D01*
X221083333Y-72228928D01*
X221130952Y-72257500D01*
X221154761Y-72286071D01*
X221178571Y-72343214D01*
X221178571Y-72428928D01*
X221154761Y-72486071D01*
X221130952Y-72514642D01*
X221083333Y-72543214D01*
X220892857Y-72543214D01*
X221654761Y-72828928D02*
X221369047Y-72828928D01*
X221511904Y-72828928D02*
X221511904Y-72228928D01*
X221464285Y-72314642D01*
X221416666Y-72371785D01*
X221369047Y-72400357D01*
X221940476Y-72486071D02*
X221892857Y-72457500D01*
X221869047Y-72428928D01*
X221845238Y-72371785D01*
X221845238Y-72343214D01*
X221869047Y-72286071D01*
X221892857Y-72257500D01*
X221940476Y-72228928D01*
X222035714Y-72228928D01*
X222083333Y-72257500D01*
X222107142Y-72286071D01*
X222130952Y-72343214D01*
X222130952Y-72371785D01*
X222107142Y-72428928D01*
X222083333Y-72457500D01*
X222035714Y-72486071D01*
X221940476Y-72486071D01*
X221892857Y-72514642D01*
X221869047Y-72543214D01*
X221845238Y-72600357D01*
X221845238Y-72714642D01*
X221869047Y-72771785D01*
X221892857Y-72800357D01*
X221940476Y-72828928D01*
X222035714Y-72828928D01*
X222083333Y-72800357D01*
X222107142Y-72771785D01*
X222130952Y-72714642D01*
X222130952Y-72600357D01*
X222107142Y-72543214D01*
X222083333Y-72514642D01*
X222035714Y-72486071D01*
%TO.C,C21*%
X187121192Y-67824238D02*
X187084153Y-67827605D01*
X187013443Y-67797301D01*
X186979771Y-67763629D01*
X186949466Y-67692918D01*
X186956201Y-67618840D01*
X186979771Y-67561598D01*
X187043747Y-67463950D01*
X187104356Y-67403341D01*
X187202004Y-67339365D01*
X187259246Y-67315795D01*
X187333324Y-67309060D01*
X187404035Y-67339365D01*
X187437707Y-67373037D01*
X187468011Y-67443747D01*
X187464644Y-67480786D01*
X187599331Y-67615473D02*
X187636370Y-67612106D01*
X187690245Y-67625575D01*
X187774424Y-67709754D01*
X187787893Y-67763629D01*
X187784526Y-67800668D01*
X187760956Y-67857910D01*
X187720549Y-67898316D01*
X187643104Y-67942089D01*
X187198637Y-67982495D01*
X187417504Y-68201362D01*
X187754221Y-68538079D02*
X187552191Y-68336049D01*
X187653206Y-68437064D02*
X188077470Y-68012800D01*
X187983189Y-68039737D01*
X187909111Y-68046472D01*
X187855236Y-68033003D01*
%TO.C,C38*%
X197321192Y-85024238D02*
X197284153Y-85027605D01*
X197213443Y-84997301D01*
X197179771Y-84963629D01*
X197149466Y-84892918D01*
X197156201Y-84818840D01*
X197179771Y-84761598D01*
X197243747Y-84663950D01*
X197304356Y-84603341D01*
X197402004Y-84539365D01*
X197459246Y-84515795D01*
X197533324Y-84509060D01*
X197604035Y-84539365D01*
X197637707Y-84573037D01*
X197668011Y-84643747D01*
X197664644Y-84680786D01*
X197822901Y-84758231D02*
X198041768Y-84977098D01*
X197762292Y-85020871D01*
X197812800Y-85071379D01*
X197826269Y-85125253D01*
X197822901Y-85162292D01*
X197799331Y-85219534D01*
X197698316Y-85320549D01*
X197641074Y-85344120D01*
X197604035Y-85347487D01*
X197550160Y-85334018D01*
X197449145Y-85233003D01*
X197435676Y-85179128D01*
X197439043Y-85142089D01*
X198061971Y-85360956D02*
X198048502Y-85307081D01*
X198051869Y-85270042D01*
X198075440Y-85212800D01*
X198095643Y-85192597D01*
X198152885Y-85169027D01*
X198189923Y-85165659D01*
X198243798Y-85179128D01*
X198311142Y-85246472D01*
X198324610Y-85300346D01*
X198321243Y-85337385D01*
X198297673Y-85394627D01*
X198277470Y-85414830D01*
X198220228Y-85438401D01*
X198183189Y-85441768D01*
X198129314Y-85428299D01*
X198061971Y-85360956D01*
X198008096Y-85347487D01*
X197971057Y-85350854D01*
X197913815Y-85374424D01*
X197833003Y-85455236D01*
X197809433Y-85512478D01*
X197806066Y-85549517D01*
X197819534Y-85603392D01*
X197886878Y-85670736D01*
X197940753Y-85684204D01*
X197977791Y-85680837D01*
X198035033Y-85657267D01*
X198115846Y-85576455D01*
X198139416Y-85519213D01*
X198142783Y-85482174D01*
X198129314Y-85428299D01*
%TO.C,TP5*%
X180921514Y-91813815D02*
X181123544Y-91611785D01*
X181446793Y-92137064D02*
X181022529Y-91712800D01*
X181665659Y-91918198D02*
X181241395Y-91493933D01*
X181376082Y-91359246D01*
X181429957Y-91345778D01*
X181466996Y-91349145D01*
X181524238Y-91372715D01*
X181584847Y-91433324D01*
X181608417Y-91490566D01*
X181611785Y-91527605D01*
X181598316Y-91581480D01*
X181463629Y-91716167D01*
X181763307Y-90972021D02*
X181594949Y-91140380D01*
X181780143Y-91359246D01*
X181776776Y-91322208D01*
X181790245Y-91268333D01*
X181874424Y-91184153D01*
X181928299Y-91170685D01*
X181965338Y-91174052D01*
X182022580Y-91197622D01*
X182123595Y-91298637D01*
X182147165Y-91355879D01*
X182150533Y-91392918D01*
X182137064Y-91446793D01*
X182052885Y-91530972D01*
X181999010Y-91544441D01*
X181961971Y-91541074D01*
%TO.C,R17*%
X229203571Y-72833928D02*
X229036904Y-72548214D01*
X228917857Y-72833928D02*
X228917857Y-72233928D01*
X229108333Y-72233928D01*
X229155952Y-72262500D01*
X229179761Y-72291071D01*
X229203571Y-72348214D01*
X229203571Y-72433928D01*
X229179761Y-72491071D01*
X229155952Y-72519642D01*
X229108333Y-72548214D01*
X228917857Y-72548214D01*
X229679761Y-72833928D02*
X229394047Y-72833928D01*
X229536904Y-72833928D02*
X229536904Y-72233928D01*
X229489285Y-72319642D01*
X229441666Y-72376785D01*
X229394047Y-72405357D01*
X229846428Y-72233928D02*
X230179761Y-72233928D01*
X229965476Y-72833928D01*
%TO.C,C18*%
X241378571Y-63114285D02*
X241354761Y-63142857D01*
X241283333Y-63171428D01*
X241235714Y-63171428D01*
X241164285Y-63142857D01*
X241116666Y-63085714D01*
X241092857Y-63028571D01*
X241069047Y-62914285D01*
X241069047Y-62828571D01*
X241092857Y-62714285D01*
X241116666Y-62657142D01*
X241164285Y-62600000D01*
X241235714Y-62571428D01*
X241283333Y-62571428D01*
X241354761Y-62600000D01*
X241378571Y-62628571D01*
X241854761Y-63171428D02*
X241569047Y-63171428D01*
X241711904Y-63171428D02*
X241711904Y-62571428D01*
X241664285Y-62657142D01*
X241616666Y-62714285D01*
X241569047Y-62742857D01*
X242140476Y-62828571D02*
X242092857Y-62800000D01*
X242069047Y-62771428D01*
X242045238Y-62714285D01*
X242045238Y-62685714D01*
X242069047Y-62628571D01*
X242092857Y-62600000D01*
X242140476Y-62571428D01*
X242235714Y-62571428D01*
X242283333Y-62600000D01*
X242307142Y-62628571D01*
X242330952Y-62685714D01*
X242330952Y-62714285D01*
X242307142Y-62771428D01*
X242283333Y-62800000D01*
X242235714Y-62828571D01*
X242140476Y-62828571D01*
X242092857Y-62857142D01*
X242069047Y-62885714D01*
X242045238Y-62942857D01*
X242045238Y-63057142D01*
X242069047Y-63114285D01*
X242092857Y-63142857D01*
X242140476Y-63171428D01*
X242235714Y-63171428D01*
X242283333Y-63142857D01*
X242307142Y-63114285D01*
X242330952Y-63057142D01*
X242330952Y-62942857D01*
X242307142Y-62885714D01*
X242283333Y-62857142D01*
X242235714Y-62828571D01*
%TO.C,R13*%
X200671428Y-95071428D02*
X200385714Y-95238095D01*
X200671428Y-95357142D02*
X200071428Y-95357142D01*
X200071428Y-95166666D01*
X200100000Y-95119047D01*
X200128571Y-95095238D01*
X200185714Y-95071428D01*
X200271428Y-95071428D01*
X200328571Y-95095238D01*
X200357142Y-95119047D01*
X200385714Y-95166666D01*
X200385714Y-95357142D01*
X200671428Y-94595238D02*
X200671428Y-94880952D01*
X200671428Y-94738095D02*
X200071428Y-94738095D01*
X200157142Y-94785714D01*
X200214285Y-94833333D01*
X200242857Y-94880952D01*
X200071428Y-94428571D02*
X200071428Y-94119047D01*
X200300000Y-94285714D01*
X200300000Y-94214285D01*
X200328571Y-94166666D01*
X200357142Y-94142857D01*
X200414285Y-94119047D01*
X200557142Y-94119047D01*
X200614285Y-94142857D01*
X200642857Y-94166666D01*
X200671428Y-94214285D01*
X200671428Y-94357142D01*
X200642857Y-94404761D01*
X200614285Y-94428571D01*
%TO.C,R8*%
X234441428Y-69883333D02*
X234155714Y-70050000D01*
X234441428Y-70169047D02*
X233841428Y-70169047D01*
X233841428Y-69978571D01*
X233870000Y-69930952D01*
X233898571Y-69907142D01*
X233955714Y-69883333D01*
X234041428Y-69883333D01*
X234098571Y-69907142D01*
X234127142Y-69930952D01*
X234155714Y-69978571D01*
X234155714Y-70169047D01*
X234098571Y-69597619D02*
X234070000Y-69645238D01*
X234041428Y-69669047D01*
X233984285Y-69692857D01*
X233955714Y-69692857D01*
X233898571Y-69669047D01*
X233870000Y-69645238D01*
X233841428Y-69597619D01*
X233841428Y-69502380D01*
X233870000Y-69454761D01*
X233898571Y-69430952D01*
X233955714Y-69407142D01*
X233984285Y-69407142D01*
X234041428Y-69430952D01*
X234070000Y-69454761D01*
X234098571Y-69502380D01*
X234098571Y-69597619D01*
X234127142Y-69645238D01*
X234155714Y-69669047D01*
X234212857Y-69692857D01*
X234327142Y-69692857D01*
X234384285Y-69669047D01*
X234412857Y-69645238D01*
X234441428Y-69597619D01*
X234441428Y-69502380D01*
X234412857Y-69454761D01*
X234384285Y-69430952D01*
X234327142Y-69407142D01*
X234212857Y-69407142D01*
X234155714Y-69430952D01*
X234127142Y-69454761D01*
X234098571Y-69502380D01*
%TO.C,C25*%
X190537232Y-71350381D02*
X190540599Y-71387420D01*
X190510295Y-71458130D01*
X190476623Y-71491802D01*
X190405912Y-71522107D01*
X190331834Y-71515372D01*
X190274592Y-71491802D01*
X190176944Y-71427826D01*
X190116335Y-71367217D01*
X190052359Y-71269569D01*
X190028789Y-71212327D01*
X190022054Y-71138249D01*
X190052359Y-71067538D01*
X190086031Y-71033866D01*
X190156741Y-71003562D01*
X190193780Y-71006929D01*
X190328467Y-70872242D02*
X190325100Y-70835203D01*
X190338569Y-70781328D01*
X190422748Y-70697149D01*
X190476623Y-70683680D01*
X190513662Y-70687047D01*
X190570904Y-70710617D01*
X190611310Y-70751024D01*
X190655083Y-70828469D01*
X190695489Y-71272936D01*
X190914356Y-71054069D01*
X190809973Y-70309924D02*
X190641614Y-70478282D01*
X190826809Y-70697149D01*
X190823442Y-70660110D01*
X190836911Y-70606235D01*
X190921090Y-70522056D01*
X190974965Y-70508587D01*
X191012004Y-70511954D01*
X191069246Y-70535524D01*
X191170261Y-70636540D01*
X191193831Y-70693782D01*
X191197198Y-70730820D01*
X191183730Y-70784695D01*
X191099550Y-70868875D01*
X191045676Y-70882343D01*
X191008637Y-70878976D01*
%TO.C,C30*%
X185171192Y-75524237D02*
X185134153Y-75527604D01*
X185063443Y-75497300D01*
X185029771Y-75463628D01*
X184999466Y-75392917D01*
X185006201Y-75318839D01*
X185029771Y-75261597D01*
X185093747Y-75163949D01*
X185154356Y-75103340D01*
X185252004Y-75039364D01*
X185309246Y-75015794D01*
X185383324Y-75009059D01*
X185454035Y-75039364D01*
X185487707Y-75073036D01*
X185518011Y-75143746D01*
X185514644Y-75180785D01*
X185672901Y-75258230D02*
X185891768Y-75477097D01*
X185612292Y-75520870D01*
X185662800Y-75571378D01*
X185676269Y-75625252D01*
X185672901Y-75662291D01*
X185649331Y-75719533D01*
X185548316Y-75820548D01*
X185491074Y-75844119D01*
X185454035Y-75847486D01*
X185400160Y-75834017D01*
X185299145Y-75733002D01*
X185285676Y-75679127D01*
X185289043Y-75642088D01*
X186110634Y-75695963D02*
X186144306Y-75729635D01*
X186157775Y-75783510D01*
X186154407Y-75820548D01*
X186130837Y-75877790D01*
X186066861Y-75975439D01*
X185965846Y-76076454D01*
X185868198Y-76140430D01*
X185810956Y-76164000D01*
X185773917Y-76167368D01*
X185720042Y-76153899D01*
X185686370Y-76120227D01*
X185672901Y-76066352D01*
X185676269Y-76029313D01*
X185699839Y-75972071D01*
X185763815Y-75874423D01*
X185864830Y-75773408D01*
X185962478Y-75709432D01*
X186019720Y-75685861D01*
X186056759Y-75682494D01*
X186110634Y-75695963D01*
%TO.C,R15*%
X235853571Y-72833928D02*
X235686904Y-72548214D01*
X235567857Y-72833928D02*
X235567857Y-72233928D01*
X235758333Y-72233928D01*
X235805952Y-72262500D01*
X235829761Y-72291071D01*
X235853571Y-72348214D01*
X235853571Y-72433928D01*
X235829761Y-72491071D01*
X235805952Y-72519642D01*
X235758333Y-72548214D01*
X235567857Y-72548214D01*
X236329761Y-72833928D02*
X236044047Y-72833928D01*
X236186904Y-72833928D02*
X236186904Y-72233928D01*
X236139285Y-72319642D01*
X236091666Y-72376785D01*
X236044047Y-72405357D01*
X236782142Y-72233928D02*
X236544047Y-72233928D01*
X236520238Y-72519642D01*
X236544047Y-72491071D01*
X236591666Y-72462500D01*
X236710714Y-72462500D01*
X236758333Y-72491071D01*
X236782142Y-72519642D01*
X236805952Y-72576785D01*
X236805952Y-72719642D01*
X236782142Y-72776785D01*
X236758333Y-72805357D01*
X236710714Y-72833928D01*
X236591666Y-72833928D01*
X236544047Y-72805357D01*
X236520238Y-72776785D01*
%TO.C,J1*%
X170203333Y-97621428D02*
X170203333Y-98050000D01*
X170179523Y-98135714D01*
X170131904Y-98192857D01*
X170060476Y-98221428D01*
X170012857Y-98221428D01*
X170703333Y-98221428D02*
X170417619Y-98221428D01*
X170560476Y-98221428D02*
X170560476Y-97621428D01*
X170512857Y-97707142D01*
X170465238Y-97764285D01*
X170417619Y-97792857D01*
%TO.C,C15*%
X232678571Y-63114285D02*
X232654761Y-63142857D01*
X232583333Y-63171428D01*
X232535714Y-63171428D01*
X232464285Y-63142857D01*
X232416666Y-63085714D01*
X232392857Y-63028571D01*
X232369047Y-62914285D01*
X232369047Y-62828571D01*
X232392857Y-62714285D01*
X232416666Y-62657142D01*
X232464285Y-62600000D01*
X232535714Y-62571428D01*
X232583333Y-62571428D01*
X232654761Y-62600000D01*
X232678571Y-62628571D01*
X233154761Y-63171428D02*
X232869047Y-63171428D01*
X233011904Y-63171428D02*
X233011904Y-62571428D01*
X232964285Y-62657142D01*
X232916666Y-62714285D01*
X232869047Y-62742857D01*
X233607142Y-62571428D02*
X233369047Y-62571428D01*
X233345238Y-62857142D01*
X233369047Y-62828571D01*
X233416666Y-62800000D01*
X233535714Y-62800000D01*
X233583333Y-62828571D01*
X233607142Y-62857142D01*
X233630952Y-62914285D01*
X233630952Y-63057142D01*
X233607142Y-63114285D01*
X233583333Y-63142857D01*
X233535714Y-63171428D01*
X233416666Y-63171428D01*
X233369047Y-63142857D01*
X233345238Y-63114285D01*
%TO.C,C5*%
X212516666Y-64214285D02*
X212492857Y-64242857D01*
X212421428Y-64271428D01*
X212373809Y-64271428D01*
X212302380Y-64242857D01*
X212254761Y-64185714D01*
X212230952Y-64128571D01*
X212207142Y-64014285D01*
X212207142Y-63928571D01*
X212230952Y-63814285D01*
X212254761Y-63757142D01*
X212302380Y-63700000D01*
X212373809Y-63671428D01*
X212421428Y-63671428D01*
X212492857Y-63700000D01*
X212516666Y-63728571D01*
X212969047Y-63671428D02*
X212730952Y-63671428D01*
X212707142Y-63957142D01*
X212730952Y-63928571D01*
X212778571Y-63900000D01*
X212897619Y-63900000D01*
X212945238Y-63928571D01*
X212969047Y-63957142D01*
X212992857Y-64014285D01*
X212992857Y-64157142D01*
X212969047Y-64214285D01*
X212945238Y-64242857D01*
X212897619Y-64271428D01*
X212778571Y-64271428D01*
X212730952Y-64242857D01*
X212707142Y-64214285D01*
%TO.C,TP1*%
X219969047Y-71071428D02*
X220254761Y-71071428D01*
X220111904Y-71671428D02*
X220111904Y-71071428D01*
X220421428Y-71671428D02*
X220421428Y-71071428D01*
X220611904Y-71071428D01*
X220659523Y-71100000D01*
X220683333Y-71128571D01*
X220707142Y-71185714D01*
X220707142Y-71271428D01*
X220683333Y-71328571D01*
X220659523Y-71357142D01*
X220611904Y-71385714D01*
X220421428Y-71385714D01*
X221183333Y-71671428D02*
X220897619Y-71671428D01*
X221040476Y-71671428D02*
X221040476Y-71071428D01*
X220992857Y-71157142D01*
X220945238Y-71214285D01*
X220897619Y-71242857D01*
%TO.C,D1*%
X174690952Y-94406428D02*
X174690952Y-93806428D01*
X174810000Y-93806428D01*
X174881428Y-93835000D01*
X174929047Y-93892142D01*
X174952857Y-93949285D01*
X174976666Y-94063571D01*
X174976666Y-94149285D01*
X174952857Y-94263571D01*
X174929047Y-94320714D01*
X174881428Y-94377857D01*
X174810000Y-94406428D01*
X174690952Y-94406428D01*
X175452857Y-94406428D02*
X175167142Y-94406428D01*
X175310000Y-94406428D02*
X175310000Y-93806428D01*
X175262380Y-93892142D01*
X175214761Y-93949285D01*
X175167142Y-93977857D01*
%TO.C,C12*%
X222278571Y-62414285D02*
X222254761Y-62442857D01*
X222183333Y-62471428D01*
X222135714Y-62471428D01*
X222064285Y-62442857D01*
X222016666Y-62385714D01*
X221992857Y-62328571D01*
X221969047Y-62214285D01*
X221969047Y-62128571D01*
X221992857Y-62014285D01*
X222016666Y-61957142D01*
X222064285Y-61900000D01*
X222135714Y-61871428D01*
X222183333Y-61871428D01*
X222254761Y-61900000D01*
X222278571Y-61928571D01*
X222754761Y-62471428D02*
X222469047Y-62471428D01*
X222611904Y-62471428D02*
X222611904Y-61871428D01*
X222564285Y-61957142D01*
X222516666Y-62014285D01*
X222469047Y-62042857D01*
X222945238Y-61928571D02*
X222969047Y-61900000D01*
X223016666Y-61871428D01*
X223135714Y-61871428D01*
X223183333Y-61900000D01*
X223207142Y-61928571D01*
X223230952Y-61985714D01*
X223230952Y-62042857D01*
X223207142Y-62128571D01*
X222921428Y-62471428D01*
X223230952Y-62471428D01*
%TO.C,R19*%
X216878571Y-72858928D02*
X216711904Y-72573214D01*
X216592857Y-72858928D02*
X216592857Y-72258928D01*
X216783333Y-72258928D01*
X216830952Y-72287500D01*
X216854761Y-72316071D01*
X216878571Y-72373214D01*
X216878571Y-72458928D01*
X216854761Y-72516071D01*
X216830952Y-72544642D01*
X216783333Y-72573214D01*
X216592857Y-72573214D01*
X217354761Y-72858928D02*
X217069047Y-72858928D01*
X217211904Y-72858928D02*
X217211904Y-72258928D01*
X217164285Y-72344642D01*
X217116666Y-72401785D01*
X217069047Y-72430357D01*
X217592857Y-72858928D02*
X217688095Y-72858928D01*
X217735714Y-72830357D01*
X217759523Y-72801785D01*
X217807142Y-72716071D01*
X217830952Y-72601785D01*
X217830952Y-72373214D01*
X217807142Y-72316071D01*
X217783333Y-72287500D01*
X217735714Y-72258928D01*
X217640476Y-72258928D01*
X217592857Y-72287500D01*
X217569047Y-72316071D01*
X217545238Y-72373214D01*
X217545238Y-72516071D01*
X217569047Y-72573214D01*
X217592857Y-72601785D01*
X217640476Y-72630357D01*
X217735714Y-72630357D01*
X217783333Y-72601785D01*
X217807142Y-72573214D01*
X217830952Y-72516071D01*
%TO.C,C43*%
X186424238Y-89278807D02*
X186427605Y-89315846D01*
X186397301Y-89386556D01*
X186363629Y-89420228D01*
X186292918Y-89450533D01*
X186218840Y-89443798D01*
X186161598Y-89420228D01*
X186063950Y-89356252D01*
X186003341Y-89295643D01*
X185939365Y-89197995D01*
X185915795Y-89140753D01*
X185909060Y-89066675D01*
X185939365Y-88995964D01*
X185973037Y-88962292D01*
X186043747Y-88931988D01*
X186080786Y-88935355D01*
X186484847Y-88733324D02*
X186767690Y-89016167D01*
X186239043Y-88655879D02*
X186457910Y-89043104D01*
X186676776Y-88824238D01*
X186494949Y-88440380D02*
X186713815Y-88221514D01*
X186757588Y-88500989D01*
X186808096Y-88450482D01*
X186861971Y-88437013D01*
X186899010Y-88440380D01*
X186956252Y-88463950D01*
X187057267Y-88564966D01*
X187080837Y-88622208D01*
X187084204Y-88659246D01*
X187070736Y-88713121D01*
X186969720Y-88814137D01*
X186915846Y-88827605D01*
X186878807Y-88824238D01*
%TO.C,C44*%
X182524238Y-86178807D02*
X182527605Y-86215846D01*
X182497301Y-86286556D01*
X182463629Y-86320228D01*
X182392918Y-86350533D01*
X182318840Y-86343798D01*
X182261598Y-86320228D01*
X182163950Y-86256252D01*
X182103341Y-86195643D01*
X182039365Y-86097995D01*
X182015795Y-86040753D01*
X182009060Y-85966675D01*
X182039365Y-85895964D01*
X182073037Y-85862292D01*
X182143747Y-85831988D01*
X182180786Y-85835355D01*
X182584847Y-85633324D02*
X182867690Y-85916167D01*
X182339043Y-85555879D02*
X182557910Y-85943104D01*
X182776776Y-85724238D01*
X182921565Y-85296607D02*
X183204407Y-85579450D01*
X182675761Y-85219162D02*
X182894627Y-85606387D01*
X183113494Y-85387521D01*
%TO.C,IC1*%
X183196793Y-79637064D02*
X182772529Y-79212800D01*
X183526776Y-79226269D02*
X183530143Y-79263307D01*
X183499839Y-79334018D01*
X183466167Y-79367690D01*
X183395456Y-79397995D01*
X183321379Y-79391260D01*
X183264137Y-79367690D01*
X183166488Y-79303714D01*
X183105879Y-79243104D01*
X183041903Y-79145456D01*
X183018333Y-79088214D01*
X183011598Y-79014137D01*
X183041903Y-78943426D01*
X183075575Y-78909754D01*
X183146285Y-78879450D01*
X183183324Y-78882817D01*
X183903900Y-78929957D02*
X183701869Y-79131988D01*
X183802885Y-79030972D02*
X183378620Y-78606708D01*
X183405558Y-78700989D01*
X183412292Y-78775067D01*
X183398824Y-78828942D01*
%TO.C,R16*%
X232678571Y-72858928D02*
X232511904Y-72573214D01*
X232392857Y-72858928D02*
X232392857Y-72258928D01*
X232583333Y-72258928D01*
X232630952Y-72287500D01*
X232654761Y-72316071D01*
X232678571Y-72373214D01*
X232678571Y-72458928D01*
X232654761Y-72516071D01*
X232630952Y-72544642D01*
X232583333Y-72573214D01*
X232392857Y-72573214D01*
X233154761Y-72858928D02*
X232869047Y-72858928D01*
X233011904Y-72858928D02*
X233011904Y-72258928D01*
X232964285Y-72344642D01*
X232916666Y-72401785D01*
X232869047Y-72430357D01*
X233583333Y-72258928D02*
X233488095Y-72258928D01*
X233440476Y-72287500D01*
X233416666Y-72316071D01*
X233369047Y-72401785D01*
X233345238Y-72516071D01*
X233345238Y-72744642D01*
X233369047Y-72801785D01*
X233392857Y-72830357D01*
X233440476Y-72858928D01*
X233535714Y-72858928D01*
X233583333Y-72830357D01*
X233607142Y-72801785D01*
X233630952Y-72744642D01*
X233630952Y-72601785D01*
X233607142Y-72544642D01*
X233583333Y-72516071D01*
X233535714Y-72487500D01*
X233440476Y-72487500D01*
X233392857Y-72516071D01*
X233369047Y-72544642D01*
X233345238Y-72601785D01*
%TO.C,R12*%
X198946428Y-94946428D02*
X198660714Y-95113095D01*
X198946428Y-95232142D02*
X198346428Y-95232142D01*
X198346428Y-95041666D01*
X198375000Y-94994047D01*
X198403571Y-94970238D01*
X198460714Y-94946428D01*
X198546428Y-94946428D01*
X198603571Y-94970238D01*
X198632142Y-94994047D01*
X198660714Y-95041666D01*
X198660714Y-95232142D01*
X198946428Y-94470238D02*
X198946428Y-94755952D01*
X198946428Y-94613095D02*
X198346428Y-94613095D01*
X198432142Y-94660714D01*
X198489285Y-94708333D01*
X198517857Y-94755952D01*
X198403571Y-94279761D02*
X198375000Y-94255952D01*
X198346428Y-94208333D01*
X198346428Y-94089285D01*
X198375000Y-94041666D01*
X198403571Y-94017857D01*
X198460714Y-93994047D01*
X198517857Y-93994047D01*
X198603571Y-94017857D01*
X198946428Y-94303571D01*
X198946428Y-93994047D01*
%TO.C,U3*%
X234019047Y-54271428D02*
X234019047Y-54757142D01*
X234042857Y-54814285D01*
X234066666Y-54842857D01*
X234114285Y-54871428D01*
X234209523Y-54871428D01*
X234257142Y-54842857D01*
X234280952Y-54814285D01*
X234304761Y-54757142D01*
X234304761Y-54271428D01*
X234495238Y-54271428D02*
X234804761Y-54271428D01*
X234638095Y-54500000D01*
X234709523Y-54500000D01*
X234757142Y-54528571D01*
X234780952Y-54557142D01*
X234804761Y-54614285D01*
X234804761Y-54757142D01*
X234780952Y-54814285D01*
X234757142Y-54842857D01*
X234709523Y-54871428D01*
X234566666Y-54871428D01*
X234519047Y-54842857D01*
X234495238Y-54814285D01*
%TO.C,R11*%
X201571428Y-67521428D02*
X201285714Y-67688095D01*
X201571428Y-67807142D02*
X200971428Y-67807142D01*
X200971428Y-67616666D01*
X201000000Y-67569047D01*
X201028571Y-67545238D01*
X201085714Y-67521428D01*
X201171428Y-67521428D01*
X201228571Y-67545238D01*
X201257142Y-67569047D01*
X201285714Y-67616666D01*
X201285714Y-67807142D01*
X201571428Y-67045238D02*
X201571428Y-67330952D01*
X201571428Y-67188095D02*
X200971428Y-67188095D01*
X201057142Y-67235714D01*
X201114285Y-67283333D01*
X201142857Y-67330952D01*
X201571428Y-66569047D02*
X201571428Y-66854761D01*
X201571428Y-66711904D02*
X200971428Y-66711904D01*
X201057142Y-66759523D01*
X201114285Y-66807142D01*
X201142857Y-66854761D01*
%TO.C,C13*%
X233378571Y-68414285D02*
X233354761Y-68442857D01*
X233283333Y-68471428D01*
X233235714Y-68471428D01*
X233164285Y-68442857D01*
X233116666Y-68385714D01*
X233092857Y-68328571D01*
X233069047Y-68214285D01*
X233069047Y-68128571D01*
X233092857Y-68014285D01*
X233116666Y-67957142D01*
X233164285Y-67900000D01*
X233235714Y-67871428D01*
X233283333Y-67871428D01*
X233354761Y-67900000D01*
X233378571Y-67928571D01*
X233854761Y-68471428D02*
X233569047Y-68471428D01*
X233711904Y-68471428D02*
X233711904Y-67871428D01*
X233664285Y-67957142D01*
X233616666Y-68014285D01*
X233569047Y-68042857D01*
X234021428Y-67871428D02*
X234330952Y-67871428D01*
X234164285Y-68100000D01*
X234235714Y-68100000D01*
X234283333Y-68128571D01*
X234307142Y-68157142D01*
X234330952Y-68214285D01*
X234330952Y-68357142D01*
X234307142Y-68414285D01*
X234283333Y-68442857D01*
X234235714Y-68471428D01*
X234092857Y-68471428D01*
X234045238Y-68442857D01*
X234021428Y-68414285D01*
%TO.C,C39*%
X185124238Y-87778807D02*
X185127605Y-87815846D01*
X185097301Y-87886556D01*
X185063629Y-87920228D01*
X184992918Y-87950533D01*
X184918840Y-87943798D01*
X184861598Y-87920228D01*
X184763950Y-87856252D01*
X184703341Y-87795643D01*
X184639365Y-87697995D01*
X184615795Y-87640753D01*
X184609060Y-87566675D01*
X184639365Y-87495964D01*
X184673037Y-87462292D01*
X184743747Y-87431988D01*
X184780786Y-87435355D01*
X184858231Y-87277098D02*
X185077098Y-87058231D01*
X185120871Y-87337707D01*
X185171379Y-87287199D01*
X185225253Y-87273730D01*
X185262292Y-87277098D01*
X185319534Y-87300668D01*
X185420549Y-87401683D01*
X185444120Y-87458925D01*
X185447487Y-87495964D01*
X185434018Y-87549839D01*
X185333003Y-87650854D01*
X185279128Y-87664323D01*
X185242089Y-87660956D01*
X185669720Y-87314137D02*
X185737064Y-87246793D01*
X185750533Y-87192918D01*
X185747165Y-87155879D01*
X185720228Y-87061598D01*
X185656252Y-86963950D01*
X185494627Y-86802326D01*
X185437385Y-86778756D01*
X185400346Y-86775389D01*
X185346472Y-86788857D01*
X185279128Y-86856201D01*
X185265659Y-86910076D01*
X185269027Y-86947114D01*
X185292597Y-87004356D01*
X185393612Y-87105372D01*
X185450854Y-87128942D01*
X185487893Y-87132309D01*
X185541768Y-87118840D01*
X185609111Y-87051497D01*
X185622580Y-86997622D01*
X185619213Y-86960583D01*
X185595643Y-86903341D01*
%TO.C,TP2*%
X209769047Y-63223428D02*
X210054761Y-63223428D01*
X209911904Y-63823428D02*
X209911904Y-63223428D01*
X210221428Y-63823428D02*
X210221428Y-63223428D01*
X210411904Y-63223428D01*
X210459523Y-63252000D01*
X210483333Y-63280571D01*
X210507142Y-63337714D01*
X210507142Y-63423428D01*
X210483333Y-63480571D01*
X210459523Y-63509142D01*
X210411904Y-63537714D01*
X210221428Y-63537714D01*
X210697619Y-63280571D02*
X210721428Y-63252000D01*
X210769047Y-63223428D01*
X210888095Y-63223428D01*
X210935714Y-63252000D01*
X210959523Y-63280571D01*
X210983333Y-63337714D01*
X210983333Y-63394857D01*
X210959523Y-63480571D01*
X210673809Y-63823428D01*
X210983333Y-63823428D01*
%TO.C,U1*%
X213419047Y-54271428D02*
X213419047Y-54757142D01*
X213442857Y-54814285D01*
X213466666Y-54842857D01*
X213514285Y-54871428D01*
X213609523Y-54871428D01*
X213657142Y-54842857D01*
X213680952Y-54814285D01*
X213704761Y-54757142D01*
X213704761Y-54271428D01*
X214204761Y-54871428D02*
X213919047Y-54871428D01*
X214061904Y-54871428D02*
X214061904Y-54271428D01*
X214014285Y-54357142D01*
X213966666Y-54414285D01*
X213919047Y-54442857D01*
%TO.C,C9*%
X231241666Y-62439285D02*
X231217857Y-62467857D01*
X231146428Y-62496428D01*
X231098809Y-62496428D01*
X231027380Y-62467857D01*
X230979761Y-62410714D01*
X230955952Y-62353571D01*
X230932142Y-62239285D01*
X230932142Y-62153571D01*
X230955952Y-62039285D01*
X230979761Y-61982142D01*
X231027380Y-61925000D01*
X231098809Y-61896428D01*
X231146428Y-61896428D01*
X231217857Y-61925000D01*
X231241666Y-61953571D01*
X231479761Y-62496428D02*
X231575000Y-62496428D01*
X231622619Y-62467857D01*
X231646428Y-62439285D01*
X231694047Y-62353571D01*
X231717857Y-62239285D01*
X231717857Y-62010714D01*
X231694047Y-61953571D01*
X231670238Y-61925000D01*
X231622619Y-61896428D01*
X231527380Y-61896428D01*
X231479761Y-61925000D01*
X231455952Y-61953571D01*
X231432142Y-62010714D01*
X231432142Y-62153571D01*
X231455952Y-62210714D01*
X231479761Y-62239285D01*
X231527380Y-62267857D01*
X231622619Y-62267857D01*
X231670238Y-62239285D01*
X231694047Y-62210714D01*
X231717857Y-62153571D01*
%TO.C,U4*%
X201469047Y-85471428D02*
X201469047Y-85957142D01*
X201492857Y-86014285D01*
X201516666Y-86042857D01*
X201564285Y-86071428D01*
X201659523Y-86071428D01*
X201707142Y-86042857D01*
X201730952Y-86014285D01*
X201754761Y-85957142D01*
X201754761Y-85471428D01*
X202207142Y-85671428D02*
X202207142Y-86071428D01*
X202088095Y-85442857D02*
X201969047Y-85871428D01*
X202278571Y-85871428D01*
%TO.C,J5*%
X244833333Y-88071428D02*
X244833333Y-88500000D01*
X244809523Y-88585714D01*
X244761904Y-88642857D01*
X244690476Y-88671428D01*
X244642857Y-88671428D01*
X245309523Y-88071428D02*
X245071428Y-88071428D01*
X245047619Y-88357142D01*
X245071428Y-88328571D01*
X245119047Y-88300000D01*
X245238095Y-88300000D01*
X245285714Y-88328571D01*
X245309523Y-88357142D01*
X245333333Y-88414285D01*
X245333333Y-88557142D01*
X245309523Y-88614285D01*
X245285714Y-88642857D01*
X245238095Y-88671428D01*
X245119047Y-88671428D01*
X245071428Y-88642857D01*
X245047619Y-88614285D01*
%TO.C,R1*%
X200871428Y-72908332D02*
X200585714Y-73074999D01*
X200871428Y-73194046D02*
X200271428Y-73194046D01*
X200271428Y-73003570D01*
X200300000Y-72955951D01*
X200328571Y-72932141D01*
X200385714Y-72908332D01*
X200471428Y-72908332D01*
X200528571Y-72932141D01*
X200557142Y-72955951D01*
X200585714Y-73003570D01*
X200585714Y-73194046D01*
X200871428Y-72432141D02*
X200871428Y-72717856D01*
X200871428Y-72574999D02*
X200271428Y-72574999D01*
X200357142Y-72622618D01*
X200414285Y-72670237D01*
X200442857Y-72717856D01*
%TO.C,J4*%
X168633333Y-61211428D02*
X168633333Y-61640000D01*
X168609523Y-61725714D01*
X168561904Y-61782857D01*
X168490476Y-61811428D01*
X168442857Y-61811428D01*
X169085714Y-61411428D02*
X169085714Y-61811428D01*
X168966666Y-61182857D02*
X168847619Y-61611428D01*
X169157142Y-61611428D01*
%TO.C,C34*%
X184621192Y-76324238D02*
X184584153Y-76327605D01*
X184513443Y-76297301D01*
X184479771Y-76263629D01*
X184449466Y-76192918D01*
X184456201Y-76118840D01*
X184479771Y-76061598D01*
X184543747Y-75963950D01*
X184604356Y-75903341D01*
X184702004Y-75839365D01*
X184759246Y-75815795D01*
X184833324Y-75809060D01*
X184904035Y-75839365D01*
X184937707Y-75873037D01*
X184968011Y-75943747D01*
X184964644Y-75980786D01*
X185122901Y-76058231D02*
X185341768Y-76277098D01*
X185062292Y-76320871D01*
X185112800Y-76371379D01*
X185126269Y-76425253D01*
X185122901Y-76462292D01*
X185099331Y-76519534D01*
X184998316Y-76620549D01*
X184941074Y-76644120D01*
X184904035Y-76647487D01*
X184850160Y-76634018D01*
X184749145Y-76533003D01*
X184735676Y-76479128D01*
X184739043Y-76442089D01*
X185503392Y-76721565D02*
X185220549Y-77004407D01*
X185580837Y-76475761D02*
X185193612Y-76694627D01*
X185412478Y-76913494D01*
%TO.C,C23*%
X199828571Y-87214285D02*
X199804761Y-87242857D01*
X199733333Y-87271428D01*
X199685714Y-87271428D01*
X199614285Y-87242857D01*
X199566666Y-87185714D01*
X199542857Y-87128571D01*
X199519047Y-87014285D01*
X199519047Y-86928571D01*
X199542857Y-86814285D01*
X199566666Y-86757142D01*
X199614285Y-86700000D01*
X199685714Y-86671428D01*
X199733333Y-86671428D01*
X199804761Y-86700000D01*
X199828571Y-86728571D01*
X200019047Y-86728571D02*
X200042857Y-86700000D01*
X200090476Y-86671428D01*
X200209523Y-86671428D01*
X200257142Y-86700000D01*
X200280952Y-86728571D01*
X200304761Y-86785714D01*
X200304761Y-86842857D01*
X200280952Y-86928571D01*
X199995238Y-87271428D01*
X200304761Y-87271428D01*
X200471428Y-86671428D02*
X200780952Y-86671428D01*
X200614285Y-86900000D01*
X200685714Y-86900000D01*
X200733333Y-86928571D01*
X200757142Y-86957142D01*
X200780952Y-87014285D01*
X200780952Y-87157142D01*
X200757142Y-87214285D01*
X200733333Y-87242857D01*
X200685714Y-87271428D01*
X200542857Y-87271428D01*
X200495238Y-87242857D01*
X200471428Y-87214285D01*
%TO.C,J2*%
X241478571Y-76620833D02*
X241050000Y-76620833D01*
X240964285Y-76597023D01*
X240907142Y-76549404D01*
X240878571Y-76477976D01*
X240878571Y-76430357D01*
X241421428Y-76835119D02*
X241450000Y-76858928D01*
X241478571Y-76906547D01*
X241478571Y-77025595D01*
X241450000Y-77073214D01*
X241421428Y-77097023D01*
X241364285Y-77120833D01*
X241307142Y-77120833D01*
X241221428Y-77097023D01*
X240878571Y-76811309D01*
X240878571Y-77120833D01*
%TO.C,C11*%
X222278571Y-64214285D02*
X222254761Y-64242857D01*
X222183333Y-64271428D01*
X222135714Y-64271428D01*
X222064285Y-64242857D01*
X222016666Y-64185714D01*
X221992857Y-64128571D01*
X221969047Y-64014285D01*
X221969047Y-63928571D01*
X221992857Y-63814285D01*
X222016666Y-63757142D01*
X222064285Y-63700000D01*
X222135714Y-63671428D01*
X222183333Y-63671428D01*
X222254761Y-63700000D01*
X222278571Y-63728571D01*
X222754761Y-64271428D02*
X222469047Y-64271428D01*
X222611904Y-64271428D02*
X222611904Y-63671428D01*
X222564285Y-63757142D01*
X222516666Y-63814285D01*
X222469047Y-63842857D01*
X223230952Y-64271428D02*
X222945238Y-64271428D01*
X223088095Y-64271428D02*
X223088095Y-63671428D01*
X223040476Y-63757142D01*
X222992857Y-63814285D01*
X222945238Y-63842857D01*
%TO.C,R9*%
X238171428Y-69283333D02*
X237885714Y-69450000D01*
X238171428Y-69569047D02*
X237571428Y-69569047D01*
X237571428Y-69378571D01*
X237600000Y-69330952D01*
X237628571Y-69307142D01*
X237685714Y-69283333D01*
X237771428Y-69283333D01*
X237828571Y-69307142D01*
X237857142Y-69330952D01*
X237885714Y-69378571D01*
X237885714Y-69569047D01*
X238171428Y-69045238D02*
X238171428Y-68950000D01*
X238142857Y-68902380D01*
X238114285Y-68878571D01*
X238028571Y-68830952D01*
X237914285Y-68807142D01*
X237685714Y-68807142D01*
X237628571Y-68830952D01*
X237600000Y-68854761D01*
X237571428Y-68902380D01*
X237571428Y-68997619D01*
X237600000Y-69045238D01*
X237628571Y-69069047D01*
X237685714Y-69092857D01*
X237828571Y-69092857D01*
X237885714Y-69069047D01*
X237914285Y-69045238D01*
X237942857Y-68997619D01*
X237942857Y-68902380D01*
X237914285Y-68854761D01*
X237885714Y-68830952D01*
X237828571Y-68807142D01*
%TO.C,C46*%
X198924238Y-75278807D02*
X198927605Y-75315846D01*
X198897301Y-75386556D01*
X198863629Y-75420228D01*
X198792918Y-75450533D01*
X198718840Y-75443798D01*
X198661598Y-75420228D01*
X198563950Y-75356252D01*
X198503341Y-75295643D01*
X198439365Y-75197995D01*
X198415795Y-75140753D01*
X198409060Y-75066675D01*
X198439365Y-74995964D01*
X198473037Y-74962292D01*
X198543747Y-74931988D01*
X198580786Y-74935355D01*
X198984847Y-74733324D02*
X199267690Y-75016167D01*
X198739043Y-74655879D02*
X198957910Y-75043104D01*
X199176776Y-74824238D01*
X199180143Y-74255185D02*
X199112800Y-74322529D01*
X199099331Y-74376404D01*
X199102698Y-74413443D01*
X199129636Y-74507724D01*
X199193612Y-74605372D01*
X199355236Y-74766996D01*
X199412478Y-74790566D01*
X199449517Y-74793933D01*
X199503392Y-74780465D01*
X199570736Y-74713121D01*
X199584204Y-74659246D01*
X199580837Y-74622208D01*
X199557267Y-74564966D01*
X199456252Y-74463950D01*
X199399010Y-74440380D01*
X199361971Y-74437013D01*
X199308096Y-74450482D01*
X199240753Y-74517825D01*
X199227284Y-74571700D01*
X199230651Y-74608739D01*
X199254221Y-74665981D01*
%TO.C,C45*%
X195674238Y-71928807D02*
X195677605Y-71965846D01*
X195647301Y-72036556D01*
X195613629Y-72070228D01*
X195542918Y-72100533D01*
X195468840Y-72093798D01*
X195411598Y-72070228D01*
X195313950Y-72006252D01*
X195253341Y-71945643D01*
X195189365Y-71847995D01*
X195165795Y-71790753D01*
X195159060Y-71716675D01*
X195189365Y-71645964D01*
X195223037Y-71612292D01*
X195293747Y-71581988D01*
X195330786Y-71585355D01*
X195734847Y-71383324D02*
X196017690Y-71666167D01*
X195489043Y-71305879D02*
X195707910Y-71693104D01*
X195926776Y-71474238D01*
X195946979Y-70888350D02*
X195778620Y-71056708D01*
X195963815Y-71275575D01*
X195960448Y-71238536D01*
X195973917Y-71184661D01*
X196058096Y-71100482D01*
X196111971Y-71087013D01*
X196149010Y-71090380D01*
X196206252Y-71113950D01*
X196307267Y-71214966D01*
X196330837Y-71272208D01*
X196334204Y-71309246D01*
X196320736Y-71363121D01*
X196236556Y-71447301D01*
X196182682Y-71460769D01*
X196145643Y-71457402D01*
%TO.C,C8*%
X231304166Y-64214285D02*
X231280357Y-64242857D01*
X231208928Y-64271428D01*
X231161309Y-64271428D01*
X231089880Y-64242857D01*
X231042261Y-64185714D01*
X231018452Y-64128571D01*
X230994642Y-64014285D01*
X230994642Y-63928571D01*
X231018452Y-63814285D01*
X231042261Y-63757142D01*
X231089880Y-63700000D01*
X231161309Y-63671428D01*
X231208928Y-63671428D01*
X231280357Y-63700000D01*
X231304166Y-63728571D01*
X231589880Y-63928571D02*
X231542261Y-63900000D01*
X231518452Y-63871428D01*
X231494642Y-63814285D01*
X231494642Y-63785714D01*
X231518452Y-63728571D01*
X231542261Y-63700000D01*
X231589880Y-63671428D01*
X231685119Y-63671428D01*
X231732738Y-63700000D01*
X231756547Y-63728571D01*
X231780357Y-63785714D01*
X231780357Y-63814285D01*
X231756547Y-63871428D01*
X231732738Y-63900000D01*
X231685119Y-63928571D01*
X231589880Y-63928571D01*
X231542261Y-63957142D01*
X231518452Y-63985714D01*
X231494642Y-64042857D01*
X231494642Y-64157142D01*
X231518452Y-64214285D01*
X231542261Y-64242857D01*
X231589880Y-64271428D01*
X231685119Y-64271428D01*
X231732738Y-64242857D01*
X231756547Y-64214285D01*
X231780357Y-64157142D01*
X231780357Y-64042857D01*
X231756547Y-63985714D01*
X231732738Y-63957142D01*
X231685119Y-63928571D01*
%TO.C,C22*%
X189071191Y-90274238D02*
X189034152Y-90277605D01*
X188963442Y-90247301D01*
X188929770Y-90213629D01*
X188899465Y-90142918D01*
X188906200Y-90068840D01*
X188929770Y-90011598D01*
X188993746Y-89913950D01*
X189054355Y-89853341D01*
X189152003Y-89789365D01*
X189209245Y-89765795D01*
X189283323Y-89759060D01*
X189354034Y-89789365D01*
X189387706Y-89823037D01*
X189418010Y-89893747D01*
X189414643Y-89930786D01*
X189549330Y-90065473D02*
X189586369Y-90062106D01*
X189640244Y-90075575D01*
X189724423Y-90159754D01*
X189737892Y-90213629D01*
X189734525Y-90250668D01*
X189710955Y-90307910D01*
X189670548Y-90348316D01*
X189593103Y-90392089D01*
X189148636Y-90432495D01*
X189367503Y-90651362D01*
X189886048Y-90402191D02*
X189923087Y-90398824D01*
X189976961Y-90412292D01*
X190061141Y-90496472D01*
X190074609Y-90550346D01*
X190071242Y-90587385D01*
X190047672Y-90644627D01*
X190007266Y-90685033D01*
X189929821Y-90728807D01*
X189485354Y-90769213D01*
X189704220Y-90988079D01*
%TO.C,C6*%
X212516666Y-62414285D02*
X212492857Y-62442857D01*
X212421428Y-62471428D01*
X212373809Y-62471428D01*
X212302380Y-62442857D01*
X212254761Y-62385714D01*
X212230952Y-62328571D01*
X212207142Y-62214285D01*
X212207142Y-62128571D01*
X212230952Y-62014285D01*
X212254761Y-61957142D01*
X212302380Y-61900000D01*
X212373809Y-61871428D01*
X212421428Y-61871428D01*
X212492857Y-61900000D01*
X212516666Y-61928571D01*
X212945238Y-61871428D02*
X212850000Y-61871428D01*
X212802380Y-61900000D01*
X212778571Y-61928571D01*
X212730952Y-62014285D01*
X212707142Y-62128571D01*
X212707142Y-62357142D01*
X212730952Y-62414285D01*
X212754761Y-62442857D01*
X212802380Y-62471428D01*
X212897619Y-62471428D01*
X212945238Y-62442857D01*
X212969047Y-62414285D01*
X212992857Y-62357142D01*
X212992857Y-62214285D01*
X212969047Y-62157142D01*
X212945238Y-62128571D01*
X212897619Y-62100000D01*
X212802380Y-62100000D01*
X212754761Y-62128571D01*
X212730952Y-62157142D01*
X212707142Y-62214285D01*
%TO.C,C17*%
X241478571Y-64914285D02*
X241454761Y-64942857D01*
X241383333Y-64971428D01*
X241335714Y-64971428D01*
X241264285Y-64942857D01*
X241216666Y-64885714D01*
X241192857Y-64828571D01*
X241169047Y-64714285D01*
X241169047Y-64628571D01*
X241192857Y-64514285D01*
X241216666Y-64457142D01*
X241264285Y-64400000D01*
X241335714Y-64371428D01*
X241383333Y-64371428D01*
X241454761Y-64400000D01*
X241478571Y-64428571D01*
X241954761Y-64971428D02*
X241669047Y-64971428D01*
X241811904Y-64971428D02*
X241811904Y-64371428D01*
X241764285Y-64457142D01*
X241716666Y-64514285D01*
X241669047Y-64542857D01*
X242121428Y-64371428D02*
X242454761Y-64371428D01*
X242240476Y-64971428D01*
%TO.C,U5*%
X196941428Y-102370952D02*
X197427142Y-102370952D01*
X197484285Y-102347142D01*
X197512857Y-102323333D01*
X197541428Y-102275714D01*
X197541428Y-102180476D01*
X197512857Y-102132857D01*
X197484285Y-102109047D01*
X197427142Y-102085238D01*
X196941428Y-102085238D01*
X196941428Y-101609047D02*
X196941428Y-101847142D01*
X197227142Y-101870952D01*
X197198571Y-101847142D01*
X197170000Y-101799523D01*
X197170000Y-101680476D01*
X197198571Y-101632857D01*
X197227142Y-101609047D01*
X197284285Y-101585238D01*
X197427142Y-101585238D01*
X197484285Y-101609047D01*
X197512857Y-101632857D01*
X197541428Y-101680476D01*
X197541428Y-101799523D01*
X197512857Y-101847142D01*
X197484285Y-101870952D01*
%TO.C,C42*%
X196521192Y-85824238D02*
X196484153Y-85827605D01*
X196413443Y-85797301D01*
X196379771Y-85763629D01*
X196349466Y-85692918D01*
X196356201Y-85618840D01*
X196379771Y-85561598D01*
X196443747Y-85463950D01*
X196504356Y-85403341D01*
X196602004Y-85339365D01*
X196659246Y-85315795D01*
X196733324Y-85309060D01*
X196804035Y-85339365D01*
X196837707Y-85373037D01*
X196868011Y-85443747D01*
X196864644Y-85480786D01*
X197066675Y-85884847D02*
X196783832Y-86167690D01*
X197144120Y-85639043D02*
X196756895Y-85857910D01*
X196975761Y-86076776D01*
X197336049Y-85952191D02*
X197373088Y-85948824D01*
X197426962Y-85962292D01*
X197511142Y-86046472D01*
X197524610Y-86100346D01*
X197521243Y-86137385D01*
X197497673Y-86194627D01*
X197457267Y-86235033D01*
X197379822Y-86278807D01*
X196935355Y-86319213D01*
X197154221Y-86538079D01*
%TO.C,R7*%
X224371428Y-69283333D02*
X224085714Y-69450000D01*
X224371428Y-69569047D02*
X223771428Y-69569047D01*
X223771428Y-69378571D01*
X223800000Y-69330952D01*
X223828571Y-69307142D01*
X223885714Y-69283333D01*
X223971428Y-69283333D01*
X224028571Y-69307142D01*
X224057142Y-69330952D01*
X224085714Y-69378571D01*
X224085714Y-69569047D01*
X223771428Y-69116666D02*
X223771428Y-68783333D01*
X224371428Y-68997619D01*
%TO.C,C41*%
X197474238Y-73878807D02*
X197477605Y-73915846D01*
X197447301Y-73986556D01*
X197413629Y-74020228D01*
X197342918Y-74050533D01*
X197268840Y-74043798D01*
X197211598Y-74020228D01*
X197113950Y-73956252D01*
X197053341Y-73895643D01*
X196989365Y-73797995D01*
X196965795Y-73740753D01*
X196959060Y-73666675D01*
X196989365Y-73595964D01*
X197023037Y-73562292D01*
X197093747Y-73531988D01*
X197130786Y-73535355D01*
X197534847Y-73333324D02*
X197817690Y-73616167D01*
X197289043Y-73255879D02*
X197507910Y-73643104D01*
X197726776Y-73424238D01*
X198188079Y-73245778D02*
X197986049Y-73447808D01*
X198087064Y-73346793D02*
X197662800Y-72922529D01*
X197689737Y-73016810D01*
X197696472Y-73090888D01*
X197683003Y-73144763D01*
%TO.C,C26*%
X198224238Y-74528807D02*
X198227605Y-74565846D01*
X198197301Y-74636556D01*
X198163629Y-74670228D01*
X198092918Y-74700533D01*
X198018840Y-74693798D01*
X197961598Y-74670228D01*
X197863950Y-74606252D01*
X197803341Y-74545643D01*
X197739365Y-74447995D01*
X197715795Y-74390753D01*
X197709060Y-74316675D01*
X197739365Y-74245964D01*
X197773037Y-74212292D01*
X197843747Y-74181988D01*
X197880786Y-74185355D01*
X198015473Y-74050668D02*
X198012106Y-74013629D01*
X198025575Y-73959754D01*
X198109754Y-73875575D01*
X198163629Y-73862106D01*
X198200668Y-73865473D01*
X198257910Y-73889043D01*
X198298316Y-73929450D01*
X198342089Y-74006895D01*
X198382495Y-74451362D01*
X198601362Y-74232495D01*
X198480143Y-73505185D02*
X198412800Y-73572529D01*
X198399331Y-73626404D01*
X198402698Y-73663443D01*
X198429636Y-73757724D01*
X198493612Y-73855372D01*
X198655236Y-74016996D01*
X198712478Y-74040566D01*
X198749517Y-74043933D01*
X198803392Y-74030465D01*
X198870736Y-73963121D01*
X198884204Y-73909246D01*
X198880837Y-73872208D01*
X198857267Y-73814966D01*
X198756252Y-73713950D01*
X198699010Y-73690380D01*
X198661971Y-73687013D01*
X198608096Y-73700482D01*
X198540753Y-73767825D01*
X198527284Y-73821700D01*
X198530651Y-73858739D01*
X198554221Y-73915981D01*
%TO.C,C32*%
X184124238Y-86378807D02*
X184127605Y-86415846D01*
X184097301Y-86486556D01*
X184063629Y-86520228D01*
X183992918Y-86550533D01*
X183918840Y-86543798D01*
X183861598Y-86520228D01*
X183763950Y-86456252D01*
X183703341Y-86395643D01*
X183639365Y-86297995D01*
X183615795Y-86240753D01*
X183609060Y-86166675D01*
X183639365Y-86095964D01*
X183673037Y-86062292D01*
X183743747Y-86031988D01*
X183780786Y-86035355D01*
X183858231Y-85877098D02*
X184077098Y-85658231D01*
X184120871Y-85937707D01*
X184171379Y-85887199D01*
X184225253Y-85873730D01*
X184262292Y-85877098D01*
X184319534Y-85900668D01*
X184420549Y-86001683D01*
X184444120Y-86058925D01*
X184447487Y-86095964D01*
X184434018Y-86149839D01*
X184333003Y-86250854D01*
X184279128Y-86264323D01*
X184242089Y-86260956D01*
X184252191Y-85563950D02*
X184248824Y-85526911D01*
X184262292Y-85473037D01*
X184346472Y-85388857D01*
X184400346Y-85375389D01*
X184437385Y-85378756D01*
X184494627Y-85402326D01*
X184535033Y-85442732D01*
X184578807Y-85520177D01*
X184619213Y-85964644D01*
X184838079Y-85745778D01*
%TO.C,C40*%
X173164285Y-88671428D02*
X173192857Y-88695238D01*
X173221428Y-88766666D01*
X173221428Y-88814285D01*
X173192857Y-88885714D01*
X173135714Y-88933333D01*
X173078571Y-88957142D01*
X172964285Y-88980952D01*
X172878571Y-88980952D01*
X172764285Y-88957142D01*
X172707142Y-88933333D01*
X172650000Y-88885714D01*
X172621428Y-88814285D01*
X172621428Y-88766666D01*
X172650000Y-88695238D01*
X172678571Y-88671428D01*
X172821428Y-88242857D02*
X173221428Y-88242857D01*
X172592857Y-88361904D02*
X173021428Y-88480952D01*
X173021428Y-88171428D01*
X172621428Y-87885714D02*
X172621428Y-87838095D01*
X172650000Y-87790476D01*
X172678571Y-87766666D01*
X172735714Y-87742857D01*
X172850000Y-87719047D01*
X172992857Y-87719047D01*
X173107142Y-87742857D01*
X173164285Y-87766666D01*
X173192857Y-87790476D01*
X173221428Y-87838095D01*
X173221428Y-87885714D01*
X173192857Y-87933333D01*
X173164285Y-87957142D01*
X173107142Y-87980952D01*
X172992857Y-88004761D01*
X172850000Y-88004761D01*
X172735714Y-87980952D01*
X172678571Y-87957142D01*
X172650000Y-87933333D01*
X172621428Y-87885714D01*
%TO.C,C31*%
X191221192Y-88724238D02*
X191184153Y-88727605D01*
X191113443Y-88697301D01*
X191079771Y-88663629D01*
X191049466Y-88592918D01*
X191056201Y-88518840D01*
X191079771Y-88461598D01*
X191143747Y-88363950D01*
X191204356Y-88303341D01*
X191302004Y-88239365D01*
X191359246Y-88215795D01*
X191433324Y-88209060D01*
X191504035Y-88239365D01*
X191537707Y-88273037D01*
X191568011Y-88343747D01*
X191564644Y-88380786D01*
X191722901Y-88458231D02*
X191941768Y-88677098D01*
X191662292Y-88720871D01*
X191712800Y-88771379D01*
X191726269Y-88825253D01*
X191722901Y-88862292D01*
X191699331Y-88919534D01*
X191598316Y-89020549D01*
X191541074Y-89044120D01*
X191504035Y-89047487D01*
X191450160Y-89034018D01*
X191349145Y-88933003D01*
X191335676Y-88879128D01*
X191339043Y-88842089D01*
X191854221Y-89438079D02*
X191652191Y-89236049D01*
X191753206Y-89337064D02*
X192177470Y-88912800D01*
X192083189Y-88939737D01*
X192009111Y-88946472D01*
X191955236Y-88933003D01*
%TO.C,J3*%
X169928571Y-70633333D02*
X169500000Y-70633333D01*
X169414285Y-70609523D01*
X169357142Y-70561904D01*
X169328571Y-70490476D01*
X169328571Y-70442857D01*
X169928571Y-70823809D02*
X169928571Y-71133333D01*
X169700000Y-70966666D01*
X169700000Y-71038095D01*
X169671428Y-71085714D01*
X169642857Y-71109523D01*
X169585714Y-71133333D01*
X169442857Y-71133333D01*
X169385714Y-71109523D01*
X169357142Y-71085714D01*
X169328571Y-71038095D01*
X169328571Y-70895238D01*
X169357142Y-70847619D01*
X169385714Y-70823809D01*
%TO.C,R10*%
X203271428Y-67521428D02*
X202985714Y-67688095D01*
X203271428Y-67807142D02*
X202671428Y-67807142D01*
X202671428Y-67616666D01*
X202700000Y-67569047D01*
X202728571Y-67545238D01*
X202785714Y-67521428D01*
X202871428Y-67521428D01*
X202928571Y-67545238D01*
X202957142Y-67569047D01*
X202985714Y-67616666D01*
X202985714Y-67807142D01*
X203271428Y-67045238D02*
X203271428Y-67330952D01*
X203271428Y-67188095D02*
X202671428Y-67188095D01*
X202757142Y-67235714D01*
X202814285Y-67283333D01*
X202842857Y-67330952D01*
X202671428Y-66735714D02*
X202671428Y-66688095D01*
X202700000Y-66640476D01*
X202728571Y-66616666D01*
X202785714Y-66592857D01*
X202900000Y-66569047D01*
X203042857Y-66569047D01*
X203157142Y-66592857D01*
X203214285Y-66616666D01*
X203242857Y-66640476D01*
X203271428Y-66688095D01*
X203271428Y-66735714D01*
X203242857Y-66783333D01*
X203214285Y-66807142D01*
X203157142Y-66830952D01*
X203042857Y-66854761D01*
X202900000Y-66854761D01*
X202785714Y-66830952D01*
X202728571Y-66807142D01*
X202700000Y-66783333D01*
X202671428Y-66735714D01*
%TO.C,R14*%
X209771428Y-92421428D02*
X209485714Y-92588095D01*
X209771428Y-92707142D02*
X209171428Y-92707142D01*
X209171428Y-92516666D01*
X209200000Y-92469047D01*
X209228571Y-92445238D01*
X209285714Y-92421428D01*
X209371428Y-92421428D01*
X209428571Y-92445238D01*
X209457142Y-92469047D01*
X209485714Y-92516666D01*
X209485714Y-92707142D01*
X209771428Y-91945238D02*
X209771428Y-92230952D01*
X209771428Y-92088095D02*
X209171428Y-92088095D01*
X209257142Y-92135714D01*
X209314285Y-92183333D01*
X209342857Y-92230952D01*
X209371428Y-91516666D02*
X209771428Y-91516666D01*
X209142857Y-91635714D02*
X209571428Y-91754761D01*
X209571428Y-91445238D01*
%TO.C,C7*%
X231516666Y-66014285D02*
X231492857Y-66042857D01*
X231421428Y-66071428D01*
X231373809Y-66071428D01*
X231302380Y-66042857D01*
X231254761Y-65985714D01*
X231230952Y-65928571D01*
X231207142Y-65814285D01*
X231207142Y-65728571D01*
X231230952Y-65614285D01*
X231254761Y-65557142D01*
X231302380Y-65500000D01*
X231373809Y-65471428D01*
X231421428Y-65471428D01*
X231492857Y-65500000D01*
X231516666Y-65528571D01*
X231683333Y-65471428D02*
X232016666Y-65471428D01*
X231802380Y-66071428D01*
%TO.C,R5*%
X179721428Y-96508333D02*
X179435714Y-96675000D01*
X179721428Y-96794047D02*
X179121428Y-96794047D01*
X179121428Y-96603571D01*
X179150000Y-96555952D01*
X179178571Y-96532142D01*
X179235714Y-96508333D01*
X179321428Y-96508333D01*
X179378571Y-96532142D01*
X179407142Y-96555952D01*
X179435714Y-96603571D01*
X179435714Y-96794047D01*
X179121428Y-96055952D02*
X179121428Y-96294047D01*
X179407142Y-96317857D01*
X179378571Y-96294047D01*
X179350000Y-96246428D01*
X179350000Y-96127380D01*
X179378571Y-96079761D01*
X179407142Y-96055952D01*
X179464285Y-96032142D01*
X179607142Y-96032142D01*
X179664285Y-96055952D01*
X179692857Y-96079761D01*
X179721428Y-96127380D01*
X179721428Y-96246428D01*
X179692857Y-96294047D01*
X179664285Y-96317857D01*
%TO.C,C28*%
X185724238Y-88578807D02*
X185727605Y-88615846D01*
X185697301Y-88686556D01*
X185663629Y-88720228D01*
X185592918Y-88750533D01*
X185518840Y-88743798D01*
X185461598Y-88720228D01*
X185363950Y-88656252D01*
X185303341Y-88595643D01*
X185239365Y-88497995D01*
X185215795Y-88440753D01*
X185209060Y-88366675D01*
X185239365Y-88295964D01*
X185273037Y-88262292D01*
X185343747Y-88231988D01*
X185380786Y-88235355D01*
X185515473Y-88100668D02*
X185512106Y-88063629D01*
X185525575Y-88009754D01*
X185609754Y-87925575D01*
X185663629Y-87912106D01*
X185700668Y-87915473D01*
X185757910Y-87939043D01*
X185798316Y-87979450D01*
X185842089Y-88056895D01*
X185882495Y-88501362D01*
X186101362Y-88282495D01*
X186060956Y-87838028D02*
X186007081Y-87851497D01*
X185970042Y-87848130D01*
X185912800Y-87824559D01*
X185892597Y-87804356D01*
X185869027Y-87747114D01*
X185865659Y-87710076D01*
X185879128Y-87656201D01*
X185946472Y-87588857D01*
X186000346Y-87575389D01*
X186037385Y-87578756D01*
X186094627Y-87602326D01*
X186114830Y-87622529D01*
X186138401Y-87679771D01*
X186141768Y-87716810D01*
X186128299Y-87770685D01*
X186060956Y-87838028D01*
X186047487Y-87891903D01*
X186050854Y-87928942D01*
X186074424Y-87986184D01*
X186155236Y-88066996D01*
X186212478Y-88090566D01*
X186249517Y-88093933D01*
X186303392Y-88080465D01*
X186370736Y-88013121D01*
X186384204Y-87959246D01*
X186380837Y-87922208D01*
X186357267Y-87864966D01*
X186276455Y-87784153D01*
X186219213Y-87760583D01*
X186182174Y-87757216D01*
X186128299Y-87770685D01*
%TO.C,Y1*%
X184821539Y-68858257D02*
X185023570Y-69060287D01*
X184481455Y-68753874D02*
X184821539Y-68858257D01*
X184717157Y-68518172D01*
X185444467Y-68639390D02*
X185242436Y-68841421D01*
X185343451Y-68740406D02*
X184919187Y-68316142D01*
X184946125Y-68410422D01*
X184952859Y-68484500D01*
X184939390Y-68538375D01*
%TO.C,J8*%
X185583333Y-91571428D02*
X185583333Y-92000000D01*
X185559523Y-92085714D01*
X185511904Y-92142857D01*
X185440476Y-92171428D01*
X185392857Y-92171428D01*
X185892857Y-91828571D02*
X185845238Y-91800000D01*
X185821428Y-91771428D01*
X185797619Y-91714285D01*
X185797619Y-91685714D01*
X185821428Y-91628571D01*
X185845238Y-91600000D01*
X185892857Y-91571428D01*
X185988095Y-91571428D01*
X186035714Y-91600000D01*
X186059523Y-91628571D01*
X186083333Y-91685714D01*
X186083333Y-91714285D01*
X186059523Y-91771428D01*
X186035714Y-91800000D01*
X185988095Y-91828571D01*
X185892857Y-91828571D01*
X185845238Y-91857142D01*
X185821428Y-91885714D01*
X185797619Y-91942857D01*
X185797619Y-92057142D01*
X185821428Y-92114285D01*
X185845238Y-92142857D01*
X185892857Y-92171428D01*
X185988095Y-92171428D01*
X186035714Y-92142857D01*
X186059523Y-92114285D01*
X186083333Y-92057142D01*
X186083333Y-91942857D01*
X186059523Y-91885714D01*
X186035714Y-91857142D01*
X185988095Y-91828571D01*
%TO.C,C36*%
X194924238Y-71178807D02*
X194927605Y-71215846D01*
X194897301Y-71286556D01*
X194863629Y-71320228D01*
X194792918Y-71350533D01*
X194718840Y-71343798D01*
X194661598Y-71320228D01*
X194563950Y-71256252D01*
X194503341Y-71195643D01*
X194439365Y-71097995D01*
X194415795Y-71040753D01*
X194409060Y-70966675D01*
X194439365Y-70895964D01*
X194473037Y-70862292D01*
X194543747Y-70831988D01*
X194580786Y-70835355D01*
X194658231Y-70677098D02*
X194877098Y-70458231D01*
X194920871Y-70737707D01*
X194971379Y-70687199D01*
X195025253Y-70673730D01*
X195062292Y-70677098D01*
X195119534Y-70700668D01*
X195220549Y-70801683D01*
X195244120Y-70858925D01*
X195247487Y-70895964D01*
X195234018Y-70949839D01*
X195133003Y-71050854D01*
X195079128Y-71064323D01*
X195042089Y-71060956D01*
X195180143Y-70155185D02*
X195112800Y-70222529D01*
X195099331Y-70276404D01*
X195102698Y-70313443D01*
X195129636Y-70407724D01*
X195193612Y-70505372D01*
X195355236Y-70666996D01*
X195412478Y-70690566D01*
X195449517Y-70693933D01*
X195503392Y-70680465D01*
X195570736Y-70613121D01*
X195584204Y-70559246D01*
X195580837Y-70522208D01*
X195557267Y-70464966D01*
X195456252Y-70363950D01*
X195399010Y-70340380D01*
X195361971Y-70337013D01*
X195308096Y-70350482D01*
X195240753Y-70417825D01*
X195227284Y-70471700D01*
X195230651Y-70508739D01*
X195254221Y-70565981D01*
%TO.C,R6*%
X227641428Y-69883333D02*
X227355714Y-70050000D01*
X227641428Y-70169047D02*
X227041428Y-70169047D01*
X227041428Y-69978571D01*
X227070000Y-69930952D01*
X227098571Y-69907142D01*
X227155714Y-69883333D01*
X227241428Y-69883333D01*
X227298571Y-69907142D01*
X227327142Y-69930952D01*
X227355714Y-69978571D01*
X227355714Y-70169047D01*
X227041428Y-69454761D02*
X227041428Y-69550000D01*
X227070000Y-69597619D01*
X227098571Y-69621428D01*
X227184285Y-69669047D01*
X227298571Y-69692857D01*
X227527142Y-69692857D01*
X227584285Y-69669047D01*
X227612857Y-69645238D01*
X227641428Y-69597619D01*
X227641428Y-69502380D01*
X227612857Y-69454761D01*
X227584285Y-69430952D01*
X227527142Y-69407142D01*
X227384285Y-69407142D01*
X227327142Y-69430952D01*
X227298571Y-69454761D01*
X227270000Y-69502380D01*
X227270000Y-69597619D01*
X227298571Y-69645238D01*
X227327142Y-69669047D01*
X227384285Y-69692857D01*
%TO.C,C14*%
X232778571Y-65014285D02*
X232754761Y-65042857D01*
X232683333Y-65071428D01*
X232635714Y-65071428D01*
X232564285Y-65042857D01*
X232516666Y-64985714D01*
X232492857Y-64928571D01*
X232469047Y-64814285D01*
X232469047Y-64728571D01*
X232492857Y-64614285D01*
X232516666Y-64557142D01*
X232564285Y-64500000D01*
X232635714Y-64471428D01*
X232683333Y-64471428D01*
X232754761Y-64500000D01*
X232778571Y-64528571D01*
X233254761Y-65071428D02*
X232969047Y-65071428D01*
X233111904Y-65071428D02*
X233111904Y-64471428D01*
X233064285Y-64557142D01*
X233016666Y-64614285D01*
X232969047Y-64642857D01*
X233683333Y-64671428D02*
X233683333Y-65071428D01*
X233564285Y-64442857D02*
X233445238Y-64871428D01*
X233754761Y-64871428D01*
%TO.C,R21*%
X188409279Y-71071563D02*
X188089398Y-70987383D01*
X188207249Y-71273593D02*
X187782985Y-70849329D01*
X187917672Y-70714642D01*
X187971546Y-70701174D01*
X188008585Y-70704541D01*
X188065827Y-70728111D01*
X188126436Y-70788720D01*
X188150007Y-70845962D01*
X188153374Y-70883001D01*
X188139905Y-70936876D01*
X188005218Y-71071563D01*
X188160108Y-70553018D02*
X188156741Y-70515979D01*
X188170210Y-70462104D01*
X188254389Y-70377925D01*
X188308264Y-70364456D01*
X188345303Y-70367823D01*
X188402545Y-70391393D01*
X188442951Y-70431800D01*
X188486724Y-70509245D01*
X188527130Y-70953712D01*
X188745997Y-70734845D01*
X189082714Y-70398128D02*
X188880684Y-70600158D01*
X188981699Y-70499143D02*
X188557435Y-70074879D01*
X188584372Y-70169160D01*
X188591107Y-70243238D01*
X188577638Y-70297113D01*
%TO.C,C3*%
X220916666Y-62414285D02*
X220892857Y-62442857D01*
X220821428Y-62471428D01*
X220773809Y-62471428D01*
X220702380Y-62442857D01*
X220654761Y-62385714D01*
X220630952Y-62328571D01*
X220607142Y-62214285D01*
X220607142Y-62128571D01*
X220630952Y-62014285D01*
X220654761Y-61957142D01*
X220702380Y-61900000D01*
X220773809Y-61871428D01*
X220821428Y-61871428D01*
X220892857Y-61900000D01*
X220916666Y-61928571D01*
X221083333Y-61871428D02*
X221392857Y-61871428D01*
X221226190Y-62100000D01*
X221297619Y-62100000D01*
X221345238Y-62128571D01*
X221369047Y-62157142D01*
X221392857Y-62214285D01*
X221392857Y-62357142D01*
X221369047Y-62414285D01*
X221345238Y-62442857D01*
X221297619Y-62471428D01*
X221154761Y-62471428D01*
X221107142Y-62442857D01*
X221083333Y-62414285D01*
%TO.C,R20*%
X214028571Y-72828928D02*
X213861904Y-72543214D01*
X213742857Y-72828928D02*
X213742857Y-72228928D01*
X213933333Y-72228928D01*
X213980952Y-72257500D01*
X214004761Y-72286071D01*
X214028571Y-72343214D01*
X214028571Y-72428928D01*
X214004761Y-72486071D01*
X213980952Y-72514642D01*
X213933333Y-72543214D01*
X213742857Y-72543214D01*
X214219047Y-72286071D02*
X214242857Y-72257500D01*
X214290476Y-72228928D01*
X214409523Y-72228928D01*
X214457142Y-72257500D01*
X214480952Y-72286071D01*
X214504761Y-72343214D01*
X214504761Y-72400357D01*
X214480952Y-72486071D01*
X214195238Y-72828928D01*
X214504761Y-72828928D01*
X214814285Y-72228928D02*
X214861904Y-72228928D01*
X214909523Y-72257500D01*
X214933333Y-72286071D01*
X214957142Y-72343214D01*
X214980952Y-72457500D01*
X214980952Y-72600357D01*
X214957142Y-72714642D01*
X214933333Y-72771785D01*
X214909523Y-72800357D01*
X214861904Y-72828928D01*
X214814285Y-72828928D01*
X214766666Y-72800357D01*
X214742857Y-72771785D01*
X214719047Y-72714642D01*
X214695238Y-72600357D01*
X214695238Y-72457500D01*
X214719047Y-72343214D01*
X214742857Y-72286071D01*
X214766666Y-72257500D01*
X214814285Y-72228928D01*
%TO.C,TP4*%
X221369047Y-55823428D02*
X221654761Y-55823428D01*
X221511904Y-56423428D02*
X221511904Y-55823428D01*
X221821428Y-56423428D02*
X221821428Y-55823428D01*
X222011904Y-55823428D01*
X222059523Y-55852000D01*
X222083333Y-55880571D01*
X222107142Y-55937714D01*
X222107142Y-56023428D01*
X222083333Y-56080571D01*
X222059523Y-56109142D01*
X222011904Y-56137714D01*
X221821428Y-56137714D01*
X222535714Y-56023428D02*
X222535714Y-56423428D01*
X222416666Y-55794857D02*
X222297619Y-56223428D01*
X222607142Y-56223428D01*
%TO.C,R4*%
X172721428Y-96508333D02*
X172435714Y-96675000D01*
X172721428Y-96794047D02*
X172121428Y-96794047D01*
X172121428Y-96603571D01*
X172150000Y-96555952D01*
X172178571Y-96532142D01*
X172235714Y-96508333D01*
X172321428Y-96508333D01*
X172378571Y-96532142D01*
X172407142Y-96555952D01*
X172435714Y-96603571D01*
X172435714Y-96794047D01*
X172321428Y-96079761D02*
X172721428Y-96079761D01*
X172092857Y-96198809D02*
X172521428Y-96317857D01*
X172521428Y-96008333D01*
%TO.C,C35*%
X196724238Y-73178807D02*
X196727605Y-73215846D01*
X196697301Y-73286556D01*
X196663629Y-73320228D01*
X196592918Y-73350533D01*
X196518840Y-73343798D01*
X196461598Y-73320228D01*
X196363950Y-73256252D01*
X196303341Y-73195643D01*
X196239365Y-73097995D01*
X196215795Y-73040753D01*
X196209060Y-72966675D01*
X196239365Y-72895964D01*
X196273037Y-72862292D01*
X196343747Y-72831988D01*
X196380786Y-72835355D01*
X196458231Y-72677098D02*
X196677098Y-72458231D01*
X196720871Y-72737707D01*
X196771379Y-72687199D01*
X196825253Y-72673730D01*
X196862292Y-72677098D01*
X196919534Y-72700668D01*
X197020549Y-72801683D01*
X197044120Y-72858925D01*
X197047487Y-72895964D01*
X197034018Y-72949839D01*
X196933003Y-73050854D01*
X196879128Y-73064323D01*
X196842089Y-73060956D01*
X196996979Y-72138350D02*
X196828620Y-72306708D01*
X197013815Y-72525575D01*
X197010448Y-72488536D01*
X197023917Y-72434661D01*
X197108096Y-72350482D01*
X197161971Y-72337013D01*
X197199010Y-72340380D01*
X197256252Y-72363950D01*
X197357267Y-72464966D01*
X197380837Y-72522208D01*
X197384204Y-72559246D01*
X197370736Y-72613121D01*
X197286556Y-72697301D01*
X197232682Y-72710769D01*
X197195643Y-72707402D01*
%TO.C,C10*%
X222178571Y-65914285D02*
X222154761Y-65942857D01*
X222083333Y-65971428D01*
X222035714Y-65971428D01*
X221964285Y-65942857D01*
X221916666Y-65885714D01*
X221892857Y-65828571D01*
X221869047Y-65714285D01*
X221869047Y-65628571D01*
X221892857Y-65514285D01*
X221916666Y-65457142D01*
X221964285Y-65400000D01*
X222035714Y-65371428D01*
X222083333Y-65371428D01*
X222154761Y-65400000D01*
X222178571Y-65428571D01*
X222654761Y-65971428D02*
X222369047Y-65971428D01*
X222511904Y-65971428D02*
X222511904Y-65371428D01*
X222464285Y-65457142D01*
X222416666Y-65514285D01*
X222369047Y-65542857D01*
X222964285Y-65371428D02*
X223011904Y-65371428D01*
X223059523Y-65400000D01*
X223083333Y-65428571D01*
X223107142Y-65485714D01*
X223130952Y-65600000D01*
X223130952Y-65742857D01*
X223107142Y-65857142D01*
X223083333Y-65914285D01*
X223059523Y-65942857D01*
X223011904Y-65971428D01*
X222964285Y-65971428D01*
X222916666Y-65942857D01*
X222892857Y-65914285D01*
X222869047Y-65857142D01*
X222845238Y-65742857D01*
X222845238Y-65600000D01*
X222869047Y-65485714D01*
X222892857Y-65428571D01*
X222916666Y-65400000D01*
X222964285Y-65371428D01*
%TO.C,C24*%
X225303571Y-73041785D02*
X225279761Y-73070357D01*
X225208333Y-73098928D01*
X225160714Y-73098928D01*
X225089285Y-73070357D01*
X225041666Y-73013214D01*
X225017857Y-72956071D01*
X224994047Y-72841785D01*
X224994047Y-72756071D01*
X225017857Y-72641785D01*
X225041666Y-72584642D01*
X225089285Y-72527500D01*
X225160714Y-72498928D01*
X225208333Y-72498928D01*
X225279761Y-72527500D01*
X225303571Y-72556071D01*
X225494047Y-72556071D02*
X225517857Y-72527500D01*
X225565476Y-72498928D01*
X225684523Y-72498928D01*
X225732142Y-72527500D01*
X225755952Y-72556071D01*
X225779761Y-72613214D01*
X225779761Y-72670357D01*
X225755952Y-72756071D01*
X225470238Y-73098928D01*
X225779761Y-73098928D01*
X226208333Y-72698928D02*
X226208333Y-73098928D01*
X226089285Y-72470357D02*
X225970238Y-72898928D01*
X226279761Y-72898928D01*
%TO.C,C4*%
X212216666Y-65914285D02*
X212192857Y-65942857D01*
X212121428Y-65971428D01*
X212073809Y-65971428D01*
X212002380Y-65942857D01*
X211954761Y-65885714D01*
X211930952Y-65828571D01*
X211907142Y-65714285D01*
X211907142Y-65628571D01*
X211930952Y-65514285D01*
X211954761Y-65457142D01*
X212002380Y-65400000D01*
X212073809Y-65371428D01*
X212121428Y-65371428D01*
X212192857Y-65400000D01*
X212216666Y-65428571D01*
X212645238Y-65571428D02*
X212645238Y-65971428D01*
X212526190Y-65342857D02*
X212407142Y-65771428D01*
X212716666Y-65771428D01*
%TO.C,C19*%
X200309999Y-70341233D02*
X200309999Y-70633767D01*
X199289999Y-70341233D02*
X199289999Y-70633767D01*
%TO.C,C2*%
X218453733Y-64290000D02*
X218746267Y-64290000D01*
X218453733Y-65310000D02*
X218746267Y-65310000D01*
%TO.C,TP8*%
X246150000Y-60600000D02*
G75*
G03*
X246150000Y-60600000I-950000J0D01*
G01*
%TO.C,C20*%
X184469640Y-71702555D02*
X184622143Y-71855058D01*
X183960523Y-72211672D02*
X184113026Y-72364175D01*
%TO.C,U2*%
X223790000Y-55290000D02*
X225050000Y-55290000D01*
X223790000Y-61300000D02*
X223790000Y-55290000D01*
X230610000Y-55290000D02*
X229350000Y-55290000D01*
X230610000Y-59050000D02*
X230610000Y-55290000D01*
%TO.C,C1*%
X218538748Y-65865000D02*
X219061252Y-65865000D01*
X218538748Y-67335000D02*
X219061252Y-67335000D01*
%TO.C,TP6*%
X243550000Y-70200000D02*
G75*
G03*
X243550000Y-70200000I-950000J0D01*
G01*
%TO.C,C37*%
X186121693Y-75280810D02*
X185969190Y-75128307D01*
X186630810Y-74771693D02*
X186478307Y-74619190D01*
%TO.C,TP3*%
X179149999Y-91300000D02*
G75*
G03*
X179149999Y-91300000I-949999J0D01*
G01*
%TO.C,R2*%
X219122500Y-70054724D02*
X219122500Y-69545276D01*
X218077500Y-70054724D02*
X218077500Y-69545276D01*
%TO.C,R0*%
X201677500Y-74970276D02*
X201677500Y-75479724D01*
X202722500Y-74970276D02*
X202722500Y-75479724D01*
%TO.C,R3*%
X214477500Y-70054724D02*
X214477500Y-69545276D01*
X215522500Y-70054724D02*
X215522500Y-69545276D01*
%TO.C,C16*%
X239661252Y-65865000D02*
X239138748Y-65865000D01*
X239661252Y-67335000D02*
X239138748Y-67335000D01*
%TO.C,R18*%
X221245276Y-73465000D02*
X221754724Y-73465000D01*
X221245276Y-74510000D02*
X221754724Y-74510000D01*
%TO.C,C21*%
X187372942Y-68621540D02*
X187525445Y-68774043D01*
X186863825Y-69130657D02*
X187016328Y-69283160D01*
%TO.C,C38*%
X196178307Y-83119190D02*
X196330810Y-83271693D01*
X195669190Y-83628307D02*
X195821693Y-83780810D01*
%TO.C,TP5*%
X180988477Y-93138478D02*
G75*
G03*
X180988477Y-93138478I-949999J0D01*
G01*
%TO.C,R17*%
X229195276Y-73465000D02*
X229704724Y-73465000D01*
X229195276Y-74510000D02*
X229704724Y-74510000D01*
%TO.C,C18*%
X239346267Y-63510000D02*
X239053733Y-63510000D01*
X239346267Y-62490000D02*
X239053733Y-62490000D01*
%TO.C,R13*%
X200822500Y-91745276D02*
X200822500Y-92254724D01*
X199777500Y-91745276D02*
X199777500Y-92254724D01*
%TO.C,R8*%
X236122500Y-70054724D02*
X236122500Y-69545276D01*
X235077500Y-70054724D02*
X235077500Y-69545276D01*
%TO.C,C25*%
X188969190Y-72221693D02*
X189121693Y-72069190D01*
X189478307Y-72730810D02*
X189630810Y-72578307D01*
%TO.C,C30*%
X188030810Y-73371693D02*
X187878307Y-73219190D01*
X187521693Y-73880810D02*
X187369190Y-73728307D01*
%TO.C,R15*%
X236320276Y-74510000D02*
X236829724Y-74510000D01*
X236320276Y-73465000D02*
X236829724Y-73465000D01*
%TO.C,J1*%
X170700000Y-101900000D02*
X170700000Y-103900000D01*
X180100000Y-105800000D02*
X180100000Y-107700000D01*
X170700000Y-107700000D02*
X180100000Y-107700000D01*
X170700000Y-105800000D02*
X170700000Y-107700000D01*
X180100000Y-101900000D02*
X180100000Y-103900000D01*
%TO.C,C15*%
X235453733Y-62490000D02*
X235746267Y-62490000D01*
X235453733Y-63510000D02*
X235746267Y-63510000D01*
%TO.C,C5*%
X215146267Y-65310000D02*
X214853733Y-65310000D01*
X215146267Y-64290000D02*
X214853733Y-64290000D01*
%TO.C,TP1*%
X222750000Y-69800000D02*
G75*
G03*
X222750000Y-69800000I-950000J0D01*
G01*
%TO.C,D1*%
X174715000Y-95620000D02*
X175375000Y-95620000D01*
X176375000Y-95620000D02*
X177035000Y-95620000D01*
X177035000Y-97030000D02*
X177035000Y-95620000D01*
X174715000Y-95620000D02*
X174715000Y-97650000D01*
%TO.C,C12*%
X225546267Y-62490000D02*
X225253733Y-62490000D01*
X225546267Y-63510000D02*
X225253733Y-63510000D01*
%TO.C,R19*%
X218204724Y-73465000D02*
X217695276Y-73465000D01*
X218204724Y-74510000D02*
X217695276Y-74510000D01*
%TO.C,C43*%
X188680810Y-87278307D02*
X188528307Y-87430810D01*
X188171693Y-86769190D02*
X188019190Y-86921693D01*
%TO.C,C44*%
X184271693Y-83619190D02*
X184119190Y-83771693D01*
X184780810Y-84128307D02*
X184628307Y-84280810D01*
D12*
%TO.C,IC1*%
X190309849Y-73282652D02*
G75*
G03*
X190309849Y-73282652I-87500J0D01*
G01*
D10*
%TO.C,R16*%
X233254724Y-73465000D02*
X232745276Y-73465000D01*
X233254724Y-74510000D02*
X232745276Y-74510000D01*
%TO.C,R12*%
X199122500Y-92254724D02*
X199122500Y-91745276D01*
X198077500Y-92254724D02*
X198077500Y-91745276D01*
%TO.C,U3*%
X240810000Y-59050000D02*
X240810000Y-55290000D01*
X233990000Y-61300000D02*
X233990000Y-55290000D01*
X233990000Y-55290000D02*
X235250000Y-55290000D01*
X240810000Y-55290000D02*
X239550000Y-55290000D01*
%TO.C,R11*%
X201922500Y-70232776D02*
X201922500Y-70742224D01*
X200877500Y-70232776D02*
X200877500Y-70742224D01*
%TO.C,C13*%
X235138748Y-65865000D02*
X235661252Y-65865000D01*
X235138748Y-67335000D02*
X235661252Y-67335000D01*
%TO.C,C39*%
X187630810Y-85528307D02*
X187478307Y-85680810D01*
X187121693Y-85019190D02*
X186969190Y-85171693D01*
%TO.C,TP2*%
X211350000Y-65200000D02*
G75*
G03*
X211350000Y-65200000I-950000J0D01*
G01*
%TO.C,U1*%
X220210000Y-59050000D02*
X220210000Y-55290000D01*
X213390000Y-61300000D02*
X213390000Y-55290000D01*
X213390000Y-55290000D02*
X214650000Y-55290000D01*
X220210000Y-55290000D02*
X218950000Y-55290000D01*
%TO.C,C9*%
X228753733Y-62490000D02*
X229046267Y-62490000D01*
X228753733Y-63510000D02*
X229046267Y-63510000D01*
%TO.C,U4*%
X206925000Y-91000000D02*
X206925000Y-93725000D01*
X201735000Y-93725000D02*
X201735000Y-95400000D01*
X206925000Y-88275000D02*
X206665000Y-88275000D01*
X201475000Y-88275000D02*
X201735000Y-88275000D01*
X201475000Y-91000000D02*
X201475000Y-88275000D01*
X201475000Y-93725000D02*
X201735000Y-93725000D01*
X206925000Y-91000000D02*
X206925000Y-88275000D01*
X206925000Y-93725000D02*
X206665000Y-93725000D01*
X201475000Y-91000000D02*
X201475000Y-93725000D01*
%TO.C,J5*%
X244870000Y-92070000D02*
X244870000Y-97210000D01*
X244870000Y-92070000D02*
X247530000Y-92070000D01*
X247530000Y-92070000D02*
X247530000Y-97210000D01*
X244870000Y-97210000D02*
X247530000Y-97210000D01*
X244870000Y-89470000D02*
X246200000Y-89470000D01*
X244870000Y-90800000D02*
X244870000Y-89470000D01*
%TO.C,R1*%
X201122500Y-74970275D02*
X201122500Y-75479723D01*
X200077500Y-74970275D02*
X200077500Y-75479723D01*
%TO.C,C34*%
X187330810Y-74071693D02*
X187178307Y-73919190D01*
X186821693Y-74580810D02*
X186669190Y-74428307D01*
%TO.C,C23*%
X200307836Y-88310000D02*
X200092164Y-88310000D01*
X200307836Y-87590000D02*
X200092164Y-87590000D01*
%TO.C,J2*%
X211800000Y-101377500D02*
X211800000Y-100947500D01*
X240190000Y-85247500D02*
X240200000Y-101377500D01*
X240200000Y-76737500D02*
X240200000Y-82727500D01*
X240200000Y-107637500D02*
X211800000Y-107637500D01*
X240200000Y-76737500D02*
X236300000Y-76737500D01*
X211800000Y-82727500D02*
X211800000Y-76737500D01*
X240200000Y-103897500D02*
X240200000Y-107637500D01*
X236300000Y-76737500D02*
X236300000Y-78037500D01*
X211800000Y-96817500D02*
X211800000Y-89397500D01*
X214300000Y-78037500D02*
X214640000Y-78037500D01*
X211800000Y-76737500D02*
X214300000Y-76737500D01*
X214300000Y-76737500D02*
X214300000Y-78037500D01*
X211800000Y-107637500D02*
X211800000Y-103897500D01*
X211800000Y-99427500D02*
X211800000Y-98347500D01*
X211800000Y-87877500D02*
X211800000Y-85247500D01*
%TO.C,C11*%
X225546267Y-64290000D02*
X225253733Y-64290000D01*
X225546267Y-65310000D02*
X225253733Y-65310000D01*
%TO.C,R9*%
X239722500Y-70054724D02*
X239722500Y-69545276D01*
X238677500Y-70054724D02*
X238677500Y-69545276D01*
%TO.C,C46*%
X197478307Y-76730810D02*
X197630810Y-76578307D01*
X196969190Y-76221693D02*
X197121693Y-76069190D01*
%TO.C,C45*%
X193978307Y-73730810D02*
X194130810Y-73578307D01*
X193469190Y-73221693D02*
X193621693Y-73069190D01*
%TO.C,C8*%
X228791233Y-64290000D02*
X229083767Y-64290000D01*
X228791233Y-65310000D02*
X229083767Y-65310000D01*
%TO.C,C22*%
X190035949Y-89807198D02*
X190242802Y-90014051D01*
X190757198Y-89085949D02*
X190964051Y-89292802D01*
%TO.C,C6*%
X215146267Y-62490000D02*
X214853733Y-62490000D01*
X215146267Y-63510000D02*
X214853733Y-63510000D01*
%TO.C,C17*%
X239346267Y-64290000D02*
X239053733Y-64290000D01*
X239346267Y-65310000D02*
X239053733Y-65310000D01*
%TO.C,U5*%
X198210000Y-107240000D02*
X208610000Y-107240000D01*
X198270000Y-102990000D02*
X198270000Y-104240000D01*
X208550000Y-99740000D02*
X198270000Y-99740000D01*
X198270000Y-104240000D02*
X208550000Y-104240000D01*
X198270000Y-99740000D02*
X198270000Y-100990000D01*
X208610000Y-107240000D02*
X208610000Y-96740000D01*
X208550000Y-104240000D02*
X208550000Y-99740000D01*
X198210000Y-96740000D02*
X198210000Y-107240000D01*
X208610000Y-96740000D02*
X198210000Y-96740000D01*
X198270000Y-102990000D02*
G75*
G03*
X198270000Y-100990000I0J1000000D01*
G01*
%TO.C,C42*%
X194919190Y-84328307D02*
X195071693Y-84480810D01*
X195428307Y-83819190D02*
X195580810Y-83971693D01*
%TO.C,R7*%
X225922500Y-70054724D02*
X225922500Y-69545276D01*
X224877500Y-70054724D02*
X224877500Y-69545276D01*
%TO.C,C41*%
X195728307Y-75680810D02*
X195880810Y-75528307D01*
X195219190Y-75171693D02*
X195371693Y-75019190D01*
%TO.C,C26*%
X195919190Y-75871693D02*
X196071693Y-75719190D01*
X196428307Y-76380810D02*
X196580810Y-76228307D01*
%TO.C,C32*%
X186330810Y-84328307D02*
X186178307Y-84480810D01*
X185821693Y-83819190D02*
X185669190Y-83971693D01*
%TO.C,C40*%
X171540000Y-87492164D02*
X171540000Y-87707836D01*
X172260000Y-87492164D02*
X172260000Y-87707836D01*
%TO.C,C31*%
X190019190Y-87678307D02*
X190171693Y-87830810D01*
X190528307Y-87169190D02*
X190680810Y-87321693D01*
D13*
%TO.C,J3*%
X170500000Y-73000000D02*
X170500000Y-73000000D01*
D14*
X168600000Y-89800000D02*
X168600000Y-88600000D01*
X168600000Y-70200000D02*
X163100000Y-70200000D01*
D13*
X170600000Y-73000000D02*
X170600000Y-73000000D01*
D14*
X168600000Y-71400000D02*
X168600000Y-70200000D01*
X164300000Y-69600000D02*
X163100000Y-69600000D01*
X164300000Y-90400000D02*
X163100000Y-90400000D01*
X164300000Y-89800000D02*
X164300000Y-90400000D01*
X163100000Y-70200000D02*
X163100000Y-89800000D01*
X163100000Y-69600000D02*
X163100000Y-70200000D01*
X163100000Y-89800000D02*
X168600000Y-89800000D01*
X163100000Y-90400000D02*
X163100000Y-89800000D01*
X164300000Y-70200000D02*
X164300000Y-69600000D01*
D13*
X170500000Y-73000000D02*
G75*
G03*
X170600000Y-73000000I50000J0D01*
G01*
X170600000Y-73000000D02*
G75*
G03*
X170500000Y-73000000I-50000J0D01*
G01*
D10*
%TO.C,R10*%
X202477499Y-70232776D02*
X202477499Y-70742224D01*
X203522499Y-70232776D02*
X203522499Y-70742224D01*
%TO.C,R14*%
X208697500Y-92354724D02*
X208697500Y-91845276D01*
X207652500Y-92354724D02*
X207652500Y-91845276D01*
%TO.C,C7*%
X228938748Y-67335000D02*
X229461252Y-67335000D01*
X228938748Y-65865000D02*
X229461252Y-65865000D01*
%TO.C,R5*%
X177577500Y-96145276D02*
X177577500Y-96654724D01*
X178622500Y-96145276D02*
X178622500Y-96654724D01*
%TO.C,C28*%
X187471693Y-86069190D02*
X187319190Y-86221693D01*
X187980810Y-86578307D02*
X187828307Y-86730810D01*
%TO.C,Y1*%
X183990813Y-70707538D02*
X185617159Y-72333884D01*
X185617159Y-72333884D02*
X187526347Y-70424696D01*
%TO.C,J8*%
X185800000Y-92850000D02*
X187900000Y-92850000D01*
X187200000Y-92550000D02*
X185500000Y-92550000D01*
X192900000Y-92850000D02*
X195000000Y-92850000D01*
X195000000Y-92850000D02*
X195000000Y-94650000D01*
X185800000Y-107550000D02*
X185800000Y-92850000D01*
X185500000Y-92550000D02*
X185500000Y-94150000D01*
X195000000Y-107550000D02*
X185800000Y-107550000D01*
X195000000Y-99050000D02*
X195000000Y-107550000D01*
%TO.C,C36*%
X192869190Y-72421693D02*
X193021693Y-72269190D01*
X193378307Y-72930810D02*
X193530810Y-72778307D01*
%TO.C,R6*%
X228277500Y-70054724D02*
X228277500Y-69545276D01*
X229322500Y-70054724D02*
X229322500Y-69545276D01*
%TO.C,C14*%
X235453733Y-64290000D02*
X235746267Y-64290000D01*
X235453733Y-65310000D02*
X235746267Y-65310000D01*
%TO.C,R21*%
X186714135Y-71760168D02*
X186931416Y-71542887D01*
X187251536Y-72297569D02*
X187468817Y-72080288D01*
%TO.C,C3*%
X218453733Y-62490000D02*
X218746267Y-62490000D01*
X218453733Y-63510000D02*
X218746267Y-63510000D01*
%TO.C,R20*%
X214095276Y-73465000D02*
X214604724Y-73465000D01*
X214095276Y-74510000D02*
X214604724Y-74510000D01*
%TO.C,TP4*%
X222950000Y-57800000D02*
G75*
G03*
X222950000Y-57800000I-950000J0D01*
G01*
%TO.C,R4*%
X173097500Y-96120276D02*
X173097500Y-96629724D01*
X174142500Y-96120276D02*
X174142500Y-96629724D01*
%TO.C,C35*%
X194519190Y-74471693D02*
X194671693Y-74319190D01*
X195028307Y-74980810D02*
X195180810Y-74828307D01*
%TO.C,C10*%
X225461252Y-65865000D02*
X224938748Y-65865000D01*
X225461252Y-67335000D02*
X224938748Y-67335000D01*
%TO.C,C24*%
X225517164Y-73627500D02*
X225732836Y-73627500D01*
X225517164Y-74347500D02*
X225732836Y-74347500D01*
%TO.C,C4*%
X215061252Y-67335000D02*
X214538748Y-67335000D01*
X215061252Y-65865000D02*
X214538748Y-65865000D01*
%TD*%
M02*
