%TF.GenerationSoftware,KiCad,Pcbnew,(6.0.6-0)*%
%TF.CreationDate,2023-04-01T16:22:28+01:00*%
%TF.ProjectId,Teacup,54656163-7570-42e6-9b69-6361645f7063,A*%
%TF.SameCoordinates,Original*%
%TF.FileFunction,Soldermask,Top*%
%TF.FilePolarity,Negative*%
%FSLAX46Y46*%
G04 Gerber Fmt 4.6, Leading zero omitted, Abs format (unit mm)*
G04 Created by KiCad (PCBNEW (6.0.6-0)) date 2023-04-01 16:22:28*
%MOMM*%
%LPD*%
G01*
G04 APERTURE LIST*
G04 Aperture macros list*
%AMRoundRect*
0 Rectangle with rounded corners*
0 $1 Rounding radius*
0 $2 $3 $4 $5 $6 $7 $8 $9 X,Y pos of 4 corners*
0 Add a 4 corners polygon primitive as box body*
4,1,4,$2,$3,$4,$5,$6,$7,$8,$9,$2,$3,0*
0 Add four circle primitives for the rounded corners*
1,1,$1+$1,$2,$3*
1,1,$1+$1,$4,$5*
1,1,$1+$1,$6,$7*
1,1,$1+$1,$8,$9*
0 Add four rect primitives between the rounded corners*
20,1,$1+$1,$2,$3,$4,$5,0*
20,1,$1+$1,$4,$5,$6,$7,0*
20,1,$1+$1,$6,$7,$8,$9,0*
20,1,$1+$1,$8,$9,$2,$3,0*%
%AMRotRect*
0 Rectangle, with rotation*
0 The origin of the aperture is its center*
0 $1 length*
0 $2 width*
0 $3 Rotation angle, in degrees counterclockwise*
0 Add horizontal line*
21,1,$1,$2,0,0,$3*%
G04 Aperture macros list end*
%ADD10RoundRect,0.237500X-0.237500X0.300000X-0.237500X-0.300000X0.237500X-0.300000X0.237500X0.300000X0*%
%ADD11RoundRect,0.237500X-0.300000X-0.237500X0.300000X-0.237500X0.300000X0.237500X-0.300000X0.237500X0*%
%ADD12C,1.500000*%
%ADD13RoundRect,0.140000X-0.219203X-0.021213X-0.021213X-0.219203X0.219203X0.021213X0.021213X0.219203X0*%
%ADD14R,1.500000X2.000000*%
%ADD15R,3.800000X2.000000*%
%ADD16C,0.800000*%
%ADD17C,5.400000*%
%ADD18RoundRect,0.250000X-0.337500X-0.475000X0.337500X-0.475000X0.337500X0.475000X-0.337500X0.475000X0*%
%ADD19RoundRect,0.140000X0.219203X0.021213X0.021213X0.219203X-0.219203X-0.021213X-0.021213X-0.219203X0*%
%ADD20RoundRect,0.237500X0.237500X-0.250000X0.237500X0.250000X-0.237500X0.250000X-0.237500X-0.250000X0*%
%ADD21RoundRect,0.237500X-0.237500X0.250000X-0.237500X-0.250000X0.237500X-0.250000X0.237500X0.250000X0*%
%ADD22R,1.700000X1.700000*%
%ADD23O,1.700000X1.700000*%
%ADD24RoundRect,0.250000X0.337500X0.475000X-0.337500X0.475000X-0.337500X-0.475000X0.337500X-0.475000X0*%
%ADD25RoundRect,0.237500X-0.250000X-0.237500X0.250000X-0.237500X0.250000X0.237500X-0.250000X0.237500X0*%
%ADD26RoundRect,0.237500X0.300000X0.237500X-0.300000X0.237500X-0.300000X-0.237500X0.300000X-0.237500X0*%
%ADD27RoundRect,0.140000X0.021213X-0.219203X0.219203X-0.021213X-0.021213X0.219203X-0.219203X0.021213X0*%
%ADD28C,0.650000*%
%ADD29R,0.600000X1.450000*%
%ADD30R,0.300000X1.450000*%
%ADD31O,1.000000X1.600000*%
%ADD32O,1.000000X2.100000*%
%ADD33R,0.450000X0.700000*%
%ADD34RoundRect,0.237500X0.250000X0.237500X-0.250000X0.237500X-0.250000X-0.237500X0.250000X-0.237500X0*%
%ADD35RoundRect,0.140000X-0.021213X0.219203X-0.219203X0.021213X0.021213X-0.219203X0.219203X-0.021213X0*%
%ADD36RotRect,0.150000X0.850000X45.000000*%
%ADD37RotRect,0.150000X0.850000X315.000000*%
%ADD38RotRect,5.800000X5.800000X315.000000*%
%ADD39RoundRect,0.150000X0.150000X-0.650000X0.150000X0.650000X-0.150000X0.650000X-0.150000X-0.650000X0*%
%ADD40RoundRect,0.140000X0.140000X0.170000X-0.140000X0.170000X-0.140000X-0.170000X0.140000X-0.170000X0*%
%ADD41C,1.300000*%
%ADD42R,1.100000X2.000000*%
%ADD43R,2.000000X1.000000*%
%ADD44R,2.000000X2.000000*%
%ADD45RoundRect,0.237500X-0.380070X0.044194X0.044194X-0.380070X0.380070X-0.044194X-0.044194X0.380070X0*%
%ADD46R,1.600000X2.400000*%
%ADD47O,1.600000X2.400000*%
%ADD48RoundRect,0.140000X-0.170000X0.140000X-0.170000X-0.140000X0.170000X-0.140000X0.170000X0.140000X0*%
%ADD49R,2.000000X0.600000*%
%ADD50R,4.200000X0.700000*%
%ADD51RotRect,0.900000X0.800000X45.000000*%
%ADD52R,4.400000X1.800000*%
%ADD53O,4.000000X1.800000*%
%ADD54O,1.800000X4.000000*%
%ADD55RoundRect,0.135000X0.035355X-0.226274X0.226274X-0.035355X-0.035355X0.226274X-0.226274X0.035355X0*%
%ADD56RoundRect,0.140000X-0.140000X-0.170000X0.140000X-0.170000X0.140000X0.170000X-0.140000X0.170000X0*%
G04 APERTURE END LIST*
D10*
%TO.C,C19*%
X199799999Y-69625000D03*
X199799999Y-71350000D03*
%TD*%
D11*
%TO.C,C2*%
X217737500Y-64800000D03*
X219462500Y-64800000D03*
%TD*%
D12*
%TO.C,TP8*%
X245200000Y-60600000D03*
%TD*%
D13*
%TO.C,C20*%
X183951922Y-71693954D03*
X184630744Y-72372776D03*
%TD*%
D14*
%TO.C,U2*%
X224900000Y-60350000D03*
D15*
X227200000Y-54050000D03*
D14*
X227200000Y-60350000D03*
X229500000Y-60350000D03*
%TD*%
D16*
%TO.C,REF\u002A\u002A*%
X246431891Y-53568109D03*
X245000000Y-52975000D03*
X243568109Y-56431891D03*
X242975000Y-55000000D03*
X245000000Y-57025000D03*
X246431891Y-56431891D03*
D17*
X245000000Y-55000000D03*
D16*
X247025000Y-55000000D03*
X243568109Y-53568109D03*
%TD*%
D18*
%TO.C,C1*%
X217762500Y-66600000D03*
X219837500Y-66600000D03*
%TD*%
D12*
%TO.C,TP6*%
X242600000Y-70200000D03*
%TD*%
D19*
%TO.C,C37*%
X186639411Y-75289411D03*
X185960589Y-74610589D03*
%TD*%
D12*
%TO.C,TP3*%
X178200000Y-91300000D03*
%TD*%
D20*
%TO.C,R2*%
X218600000Y-70712500D03*
X218600000Y-68887500D03*
%TD*%
D21*
%TO.C,R0*%
X202200000Y-74312500D03*
X202200000Y-76137500D03*
%TD*%
D20*
%TO.C,R3*%
X215000000Y-70712500D03*
X215000000Y-68887500D03*
%TD*%
D16*
%TO.C,REF\u002A\u002A*%
X243568109Y-106431891D03*
D17*
X245000000Y-105000000D03*
D16*
X243568109Y-103568109D03*
X246431891Y-103568109D03*
X247025000Y-105000000D03*
X245000000Y-107025000D03*
X242975000Y-105000000D03*
X245000000Y-102975000D03*
X246431891Y-106431891D03*
%TD*%
D22*
%TO.C,J7*%
X209300000Y-56340000D03*
D23*
X206760000Y-56340000D03*
X204220000Y-56340000D03*
X201680000Y-56340000D03*
X199140000Y-56340000D03*
X196600000Y-56340000D03*
X194060000Y-56340000D03*
X191520000Y-56340000D03*
X188980000Y-56340000D03*
X186440000Y-56340000D03*
X183900000Y-56340000D03*
X181360000Y-56340000D03*
X178820000Y-56340000D03*
X176280000Y-56340000D03*
X173740000Y-56340000D03*
X171200000Y-56340000D03*
%TD*%
D22*
%TO.C,J6*%
X171200000Y-53800000D03*
D23*
X173740000Y-53800000D03*
X176280000Y-53800000D03*
X178820000Y-53800000D03*
X181360000Y-53800000D03*
X183900000Y-53800000D03*
X186440000Y-53800000D03*
X188980000Y-53800000D03*
X191520000Y-53800000D03*
X194060000Y-53800000D03*
X196600000Y-53800000D03*
X199140000Y-53800000D03*
X201680000Y-53800000D03*
X204220000Y-53800000D03*
X206760000Y-53800000D03*
X209300000Y-53800000D03*
%TD*%
D24*
%TO.C,C16*%
X240437500Y-66600000D03*
X238362500Y-66600000D03*
%TD*%
D25*
%TO.C,R18*%
X220587500Y-73987500D03*
X222412500Y-73987500D03*
%TD*%
D13*
%TO.C,C21*%
X186855224Y-68612939D03*
X187534046Y-69291761D03*
%TD*%
%TO.C,C38*%
X195660589Y-83110589D03*
X196339411Y-83789411D03*
%TD*%
D12*
%TO.C,TP5*%
X180038478Y-93138478D03*
%TD*%
D25*
%TO.C,R17*%
X228537500Y-73987500D03*
X230362500Y-73987500D03*
%TD*%
D26*
%TO.C,C18*%
X240062500Y-63000000D03*
X238337500Y-63000000D03*
%TD*%
D21*
%TO.C,R13*%
X200300000Y-91087500D03*
X200300000Y-92912500D03*
%TD*%
D20*
%TO.C,R8*%
X235600000Y-70712500D03*
X235600000Y-68887500D03*
%TD*%
D27*
%TO.C,C25*%
X188960589Y-72739411D03*
X189639411Y-72060589D03*
%TD*%
D19*
%TO.C,C30*%
X188039411Y-73889411D03*
X187360589Y-73210589D03*
%TD*%
D25*
%TO.C,R15*%
X235662500Y-73987500D03*
X237487500Y-73987500D03*
%TD*%
D28*
%TO.C,J1*%
X172510000Y-101200000D03*
X178290000Y-101200000D03*
D29*
X172150000Y-99755000D03*
X172950000Y-99755000D03*
D30*
X174150000Y-99755000D03*
X175150000Y-99755000D03*
X175650000Y-99755000D03*
X176650000Y-99755000D03*
D29*
X177850000Y-99755000D03*
X178650000Y-99755000D03*
X178650000Y-99755000D03*
X177850000Y-99755000D03*
D30*
X177150000Y-99755000D03*
X176150000Y-99755000D03*
X174650000Y-99755000D03*
X173650000Y-99755000D03*
D29*
X172950000Y-99755000D03*
X172150000Y-99755000D03*
D31*
X171080000Y-104850000D03*
D32*
X171080000Y-100670000D03*
D31*
X179720000Y-104850000D03*
D32*
X179720000Y-100670000D03*
%TD*%
D11*
%TO.C,C15*%
X234737500Y-63000000D03*
X236462500Y-63000000D03*
%TD*%
D26*
%TO.C,C5*%
X215862500Y-64800000D03*
X214137500Y-64800000D03*
%TD*%
D12*
%TO.C,TP1*%
X221800000Y-69800000D03*
%TD*%
D33*
%TO.C,D1*%
X175225000Y-97350000D03*
X176525000Y-97350000D03*
X175875000Y-95350000D03*
%TD*%
D26*
%TO.C,C12*%
X226262500Y-63000000D03*
X224537500Y-63000000D03*
%TD*%
D34*
%TO.C,R19*%
X218862500Y-73987500D03*
X217037500Y-73987500D03*
%TD*%
D35*
%TO.C,C43*%
X188689411Y-86760589D03*
X188010589Y-87439411D03*
%TD*%
%TO.C,C44*%
X184789411Y-83610589D03*
X184110589Y-84289411D03*
%TD*%
D36*
%TO.C,IC1*%
X190151992Y-73954757D03*
X189904505Y-74202245D03*
X189657017Y-74449732D03*
X189409530Y-74697220D03*
X189162043Y-74944707D03*
X188914555Y-75192194D03*
X188667068Y-75439682D03*
X188419581Y-75687169D03*
X188172093Y-75934656D03*
X187924606Y-76182144D03*
X187677119Y-76429631D03*
X187429631Y-76677119D03*
X187182144Y-76924606D03*
X186934656Y-77172093D03*
X186687169Y-77419581D03*
X186439682Y-77667068D03*
X186192194Y-77914555D03*
X185944707Y-78162043D03*
X185697220Y-78409530D03*
X185449732Y-78657017D03*
X185202245Y-78904505D03*
X184954757Y-79151992D03*
D37*
X184954757Y-80248008D03*
X185202245Y-80495495D03*
X185449732Y-80742983D03*
X185697220Y-80990470D03*
X185944707Y-81237957D03*
X186192194Y-81485445D03*
X186439682Y-81732932D03*
X186687169Y-81980419D03*
X186934656Y-82227907D03*
X187182144Y-82475394D03*
X187429631Y-82722881D03*
X187677119Y-82970369D03*
X187924606Y-83217856D03*
X188172093Y-83465344D03*
X188419581Y-83712831D03*
X188667068Y-83960318D03*
X188914555Y-84207806D03*
X189162043Y-84455293D03*
X189409530Y-84702780D03*
X189657017Y-84950268D03*
X189904505Y-85197755D03*
X190151992Y-85445243D03*
D36*
X191248008Y-85445243D03*
X191495495Y-85197755D03*
X191742983Y-84950268D03*
X191990470Y-84702780D03*
X192237957Y-84455293D03*
X192485445Y-84207806D03*
X192732932Y-83960318D03*
X192980419Y-83712831D03*
X193227907Y-83465344D03*
X193475394Y-83217856D03*
X193722881Y-82970369D03*
X193970369Y-82722881D03*
X194217856Y-82475394D03*
X194465344Y-82227907D03*
X194712831Y-81980419D03*
X194960318Y-81732932D03*
X195207806Y-81485445D03*
X195455293Y-81237957D03*
X195702780Y-80990470D03*
X195950268Y-80742983D03*
X196197755Y-80495495D03*
X196445243Y-80248008D03*
D37*
X196445243Y-79151992D03*
X196197755Y-78904505D03*
X195950268Y-78657017D03*
X195702780Y-78409530D03*
X195455293Y-78162043D03*
X195207806Y-77914555D03*
X194960318Y-77667068D03*
X194712831Y-77419581D03*
X194465344Y-77172093D03*
X194217856Y-76924606D03*
X193970369Y-76677119D03*
X193722881Y-76429631D03*
X193475394Y-76182144D03*
X193227907Y-75934656D03*
X192980419Y-75687169D03*
X192732932Y-75439682D03*
X192485445Y-75192194D03*
X192237957Y-74944707D03*
X191990470Y-74697220D03*
X191742983Y-74449732D03*
X191495495Y-74202245D03*
X191248008Y-73954757D03*
D38*
X190700000Y-79700000D03*
%TD*%
D34*
%TO.C,R16*%
X233912500Y-73987500D03*
X232087500Y-73987500D03*
%TD*%
D20*
%TO.C,R12*%
X198600000Y-92912500D03*
X198600000Y-91087500D03*
%TD*%
D14*
%TO.C,U3*%
X235100000Y-60350000D03*
D15*
X237400000Y-54050000D03*
D14*
X237400000Y-60350000D03*
X239700000Y-60350000D03*
%TD*%
D21*
%TO.C,R11*%
X201400000Y-69575000D03*
X201400000Y-71400000D03*
%TD*%
D16*
%TO.C,REF\u002A\u002A*%
X166431891Y-103568109D03*
X165000000Y-102975000D03*
D17*
X165000000Y-105000000D03*
D16*
X167025000Y-105000000D03*
X166431891Y-106431891D03*
X162975000Y-105000000D03*
X163568109Y-103568109D03*
X165000000Y-107025000D03*
X163568109Y-106431891D03*
%TD*%
D18*
%TO.C,C13*%
X234362500Y-66600000D03*
X236437500Y-66600000D03*
%TD*%
D35*
%TO.C,C39*%
X187639411Y-85010589D03*
X186960589Y-85689411D03*
%TD*%
D12*
%TO.C,TP2*%
X210400000Y-65200000D03*
%TD*%
D14*
%TO.C,U1*%
X214500000Y-60350000D03*
X216800000Y-60350000D03*
D15*
X216800000Y-54050000D03*
D14*
X219100000Y-60350000D03*
%TD*%
D11*
%TO.C,C9*%
X228037500Y-63000000D03*
X229762500Y-63000000D03*
%TD*%
D39*
%TO.C,U4*%
X202295000Y-94600000D03*
X203565000Y-94600000D03*
X204835000Y-94600000D03*
X206105000Y-94600000D03*
X206105000Y-87400000D03*
X204835000Y-87400000D03*
X203565000Y-87400000D03*
X202295000Y-87400000D03*
%TD*%
D22*
%TO.C,J5*%
X246200000Y-90800000D03*
D23*
X246200000Y-93340000D03*
X246200000Y-95880000D03*
%TD*%
D21*
%TO.C,R1*%
X200600000Y-74312499D03*
X200600000Y-76137499D03*
%TD*%
D22*
%TO.C,J4*%
X171200000Y-61480000D03*
D23*
X173740000Y-61480000D03*
X176280000Y-61480000D03*
X178820000Y-61480000D03*
X181360000Y-61480000D03*
X183900000Y-61480000D03*
X186440000Y-61480000D03*
X188980000Y-61480000D03*
X191520000Y-61480000D03*
X194060000Y-61480000D03*
%TD*%
D19*
%TO.C,C34*%
X187339411Y-74589411D03*
X186660589Y-73910589D03*
%TD*%
D40*
%TO.C,C23*%
X200680000Y-87950000D03*
X199720000Y-87950000D03*
%TD*%
D41*
%TO.C,J2*%
X214100000Y-79437500D03*
X236500000Y-79437500D03*
D42*
X232075000Y-77237500D03*
X229575000Y-77237500D03*
X227075000Y-77237500D03*
X224575000Y-77237500D03*
X222075000Y-77237500D03*
X219575000Y-77237500D03*
X217150000Y-77237500D03*
X215450000Y-77237500D03*
X234575000Y-77237500D03*
D43*
X212400000Y-88637500D03*
D44*
X211500000Y-102637500D03*
X240500000Y-83987500D03*
X240500000Y-102637500D03*
X211500000Y-83987500D03*
D43*
X212400000Y-100187500D03*
X212400000Y-97587500D03*
%TD*%
D26*
%TO.C,C11*%
X226262500Y-64800000D03*
X224537500Y-64800000D03*
%TD*%
D20*
%TO.C,R9*%
X239200000Y-70712500D03*
X239200000Y-68887500D03*
%TD*%
D27*
%TO.C,C46*%
X196960589Y-76739411D03*
X197639411Y-76060589D03*
%TD*%
%TO.C,C45*%
X193460589Y-73739411D03*
X194139411Y-73060589D03*
%TD*%
D16*
%TO.C,REF\u002A\u002A*%
X167025000Y-55000000D03*
X166431891Y-56431891D03*
X166431891Y-53568109D03*
X163568109Y-53568109D03*
X165000000Y-52975000D03*
X165000000Y-57025000D03*
X162975000Y-55000000D03*
X163568109Y-56431891D03*
D17*
X165000000Y-55000000D03*
%TD*%
D11*
%TO.C,C8*%
X228075000Y-64800000D03*
X229800000Y-64800000D03*
%TD*%
D45*
%TO.C,C22*%
X189890120Y-88940120D03*
X191109880Y-90159880D03*
%TD*%
D26*
%TO.C,C6*%
X215862500Y-63000000D03*
X214137500Y-63000000D03*
%TD*%
%TO.C,C17*%
X240062500Y-64800000D03*
X238337500Y-64800000D03*
%TD*%
D46*
%TO.C,U5*%
X199600000Y-105800000D03*
D47*
X202140000Y-105800000D03*
X204680000Y-105800000D03*
X207220000Y-105800000D03*
X207220000Y-98180000D03*
X204680000Y-98180000D03*
X202140000Y-98180000D03*
X199600000Y-98180000D03*
%TD*%
D13*
%TO.C,C42*%
X194910589Y-83810589D03*
X195589411Y-84489411D03*
%TD*%
D20*
%TO.C,R7*%
X225400000Y-70712500D03*
X225400000Y-68887500D03*
%TD*%
D27*
%TO.C,C41*%
X195210589Y-75689411D03*
X195889411Y-75010589D03*
%TD*%
%TO.C,C26*%
X195910589Y-76389411D03*
X196589411Y-75710589D03*
%TD*%
D35*
%TO.C,C32*%
X186339411Y-83810589D03*
X185660589Y-84489411D03*
%TD*%
D48*
%TO.C,C40*%
X171900000Y-87120000D03*
X171900000Y-88080000D03*
%TD*%
D13*
%TO.C,C31*%
X190010589Y-87160589D03*
X190689411Y-87839411D03*
%TD*%
D49*
%TO.C,J3*%
X169100000Y-73000000D03*
X169100000Y-74000000D03*
X169100000Y-75000000D03*
X169100000Y-76000000D03*
X169100000Y-77000000D03*
X169100000Y-78000000D03*
X169100000Y-79000000D03*
X169100000Y-80000000D03*
X169100000Y-81000000D03*
X169100000Y-82000000D03*
X169100000Y-83000000D03*
X169100000Y-84000000D03*
X169100000Y-85000000D03*
X169100000Y-86000000D03*
X169100000Y-87000000D03*
D50*
X167000000Y-72000000D03*
X167000000Y-88000000D03*
%TD*%
D21*
%TO.C,R10*%
X202999999Y-69575000D03*
X202999999Y-71400000D03*
%TD*%
D20*
%TO.C,R14*%
X208175000Y-93012500D03*
X208175000Y-91187500D03*
%TD*%
D18*
%TO.C,C7*%
X228162500Y-66600000D03*
X230237500Y-66600000D03*
%TD*%
D21*
%TO.C,R5*%
X178100000Y-95487500D03*
X178100000Y-97312500D03*
%TD*%
D35*
%TO.C,C28*%
X187989411Y-86060589D03*
X187310589Y-86739411D03*
%TD*%
D51*
%TO.C,Y1*%
X185652514Y-71450000D03*
X186642463Y-70460051D03*
X185864646Y-69682234D03*
X184874697Y-70672183D03*
%TD*%
D52*
%TO.C,J8*%
X190400000Y-93850000D03*
D53*
X190400000Y-99650000D03*
D54*
X195200000Y-96850000D03*
%TD*%
D27*
%TO.C,C36*%
X192860589Y-72939411D03*
X193539411Y-72260589D03*
%TD*%
D20*
%TO.C,R6*%
X228800000Y-70712500D03*
X228800000Y-68887500D03*
%TD*%
D11*
%TO.C,C14*%
X234737500Y-64800000D03*
X236462500Y-64800000D03*
%TD*%
D55*
%TO.C,R21*%
X186730852Y-72280852D03*
X187452100Y-71559604D03*
%TD*%
D11*
%TO.C,C3*%
X217737500Y-63000000D03*
X219462500Y-63000000D03*
%TD*%
D25*
%TO.C,R20*%
X213437500Y-73987500D03*
X215262500Y-73987500D03*
%TD*%
D12*
%TO.C,TP4*%
X222000000Y-57800000D03*
%TD*%
D21*
%TO.C,R4*%
X173620000Y-95462500D03*
X173620000Y-97287500D03*
%TD*%
D27*
%TO.C,C35*%
X194510589Y-74989411D03*
X195189411Y-74310589D03*
%TD*%
D24*
%TO.C,C10*%
X226237500Y-66600000D03*
X224162500Y-66600000D03*
%TD*%
D56*
%TO.C,C24*%
X225145000Y-73987500D03*
X226105000Y-73987500D03*
%TD*%
D24*
%TO.C,C4*%
X215837500Y-66600000D03*
X213762500Y-66600000D03*
%TD*%
M02*
