%TF.GenerationSoftware,KiCad,Pcbnew,(6.0.6-0)*%
%TF.CreationDate,2023-04-01T16:22:28+01:00*%
%TF.ProjectId,Teacup,54656163-7570-42e6-9b69-6361645f7063,A*%
%TF.SameCoordinates,Original*%
%TF.FileFunction,Legend,Bot*%
%TF.FilePolarity,Positive*%
%FSLAX46Y46*%
G04 Gerber Fmt 4.6, Leading zero omitted, Abs format (unit mm)*
G04 Created by KiCad (PCBNEW (6.0.6-0)) date 2023-04-01 16:22:28*
%MOMM*%
%LPD*%
G01*
G04 APERTURE LIST*
%ADD10C,0.150000*%
%ADD11C,0.120000*%
G04 APERTURE END LIST*
D10*
X201295863Y-61628571D02*
X200962529Y-61628571D01*
X200885148Y-62152380D02*
X201361339Y-62152380D01*
X201236339Y-61152380D01*
X200760148Y-61152380D01*
X200426815Y-61152380D02*
X199885148Y-62152380D01*
X199760148Y-61152380D02*
X200551815Y-62152380D01*
X199504196Y-62152380D02*
X199379196Y-61152380D01*
X198998244Y-61152380D01*
X198908958Y-61200000D01*
X198867291Y-61247619D01*
X198831577Y-61342857D01*
X198849434Y-61485714D01*
X198908958Y-61580952D01*
X198962529Y-61628571D01*
X199063720Y-61676190D01*
X199444672Y-61676190D01*
X198188720Y-61152380D02*
X198093482Y-61152380D01*
X198004196Y-61200000D01*
X197962529Y-61247619D01*
X197926815Y-61342857D01*
X197903005Y-61533333D01*
X197932767Y-61771428D01*
X198004196Y-61961904D01*
X198063720Y-62057142D01*
X198117291Y-62104761D01*
X198218482Y-62152380D01*
X198313720Y-62152380D01*
X198403005Y-62104761D01*
X198444672Y-62057142D01*
X198480386Y-61961904D01*
X198504196Y-61771428D01*
X198474434Y-61533333D01*
X198403005Y-61342857D01*
X198343482Y-61247619D01*
X198289910Y-61200000D01*
X198188720Y-61152380D01*
D11*
X239245238Y-105271428D02*
X238959523Y-105271428D01*
X239102380Y-105871428D02*
X239102380Y-105271428D01*
X238602380Y-105842857D02*
X238650000Y-105871428D01*
X238745238Y-105871428D01*
X238792857Y-105842857D01*
X238816666Y-105785714D01*
X238816666Y-105557142D01*
X238792857Y-105500000D01*
X238745238Y-105471428D01*
X238650000Y-105471428D01*
X238602380Y-105500000D01*
X238578571Y-105557142D01*
X238578571Y-105614285D01*
X238816666Y-105671428D01*
X238150000Y-105871428D02*
X238150000Y-105557142D01*
X238173809Y-105500000D01*
X238221428Y-105471428D01*
X238316666Y-105471428D01*
X238364285Y-105500000D01*
X238150000Y-105842857D02*
X238197619Y-105871428D01*
X238316666Y-105871428D01*
X238364285Y-105842857D01*
X238388095Y-105785714D01*
X238388095Y-105728571D01*
X238364285Y-105671428D01*
X238316666Y-105642857D01*
X238197619Y-105642857D01*
X238150000Y-105614285D01*
X237697619Y-105842857D02*
X237745238Y-105871428D01*
X237840476Y-105871428D01*
X237888095Y-105842857D01*
X237911904Y-105814285D01*
X237935714Y-105757142D01*
X237935714Y-105585714D01*
X237911904Y-105528571D01*
X237888095Y-105500000D01*
X237840476Y-105471428D01*
X237745238Y-105471428D01*
X237697619Y-105500000D01*
X237269047Y-105471428D02*
X237269047Y-105871428D01*
X237483333Y-105471428D02*
X237483333Y-105785714D01*
X237459523Y-105842857D01*
X237411904Y-105871428D01*
X237340476Y-105871428D01*
X237292857Y-105842857D01*
X237269047Y-105814285D01*
X237030952Y-105471428D02*
X237030952Y-106071428D01*
X237030952Y-105500000D02*
X236983333Y-105471428D01*
X236888095Y-105471428D01*
X236840476Y-105500000D01*
X236816666Y-105528571D01*
X236792857Y-105585714D01*
X236792857Y-105757142D01*
X236816666Y-105814285D01*
X236840476Y-105842857D01*
X236888095Y-105871428D01*
X236983333Y-105871428D01*
X237030952Y-105842857D01*
X236197619Y-105871428D02*
X236197619Y-105271428D01*
X236078571Y-105271428D01*
X236007142Y-105300000D01*
X235959523Y-105357142D01*
X235935714Y-105414285D01*
X235911904Y-105528571D01*
X235911904Y-105614285D01*
X235935714Y-105728571D01*
X235959523Y-105785714D01*
X236007142Y-105842857D01*
X236078571Y-105871428D01*
X236197619Y-105871428D01*
X235507142Y-105842857D02*
X235554761Y-105871428D01*
X235650000Y-105871428D01*
X235697619Y-105842857D01*
X235721428Y-105785714D01*
X235721428Y-105557142D01*
X235697619Y-105500000D01*
X235650000Y-105471428D01*
X235554761Y-105471428D01*
X235507142Y-105500000D01*
X235483333Y-105557142D01*
X235483333Y-105614285D01*
X235721428Y-105671428D01*
X235316666Y-105471428D02*
X235197619Y-105871428D01*
X235078571Y-105471428D01*
X234697619Y-105842857D02*
X234745238Y-105871428D01*
X234840476Y-105871428D01*
X234888095Y-105842857D01*
X234911904Y-105785714D01*
X234911904Y-105557142D01*
X234888095Y-105500000D01*
X234840476Y-105471428D01*
X234745238Y-105471428D01*
X234697619Y-105500000D01*
X234673809Y-105557142D01*
X234673809Y-105614285D01*
X234911904Y-105671428D01*
X234388095Y-105871428D02*
X234435714Y-105842857D01*
X234459523Y-105785714D01*
X234459523Y-105271428D01*
X234126190Y-105871428D02*
X234173809Y-105842857D01*
X234197619Y-105814285D01*
X234221428Y-105757142D01*
X234221428Y-105585714D01*
X234197619Y-105528571D01*
X234173809Y-105500000D01*
X234126190Y-105471428D01*
X234054761Y-105471428D01*
X234007142Y-105500000D01*
X233983333Y-105528571D01*
X233959523Y-105585714D01*
X233959523Y-105757142D01*
X233983333Y-105814285D01*
X234007142Y-105842857D01*
X234054761Y-105871428D01*
X234126190Y-105871428D01*
X233745238Y-105471428D02*
X233745238Y-106071428D01*
X233745238Y-105500000D02*
X233697619Y-105471428D01*
X233602380Y-105471428D01*
X233554761Y-105500000D01*
X233530952Y-105528571D01*
X233507142Y-105585714D01*
X233507142Y-105757142D01*
X233530952Y-105814285D01*
X233554761Y-105842857D01*
X233602380Y-105871428D01*
X233697619Y-105871428D01*
X233745238Y-105842857D01*
X233292857Y-105871428D02*
X233292857Y-105471428D01*
X233292857Y-105528571D02*
X233269047Y-105500000D01*
X233221428Y-105471428D01*
X233150000Y-105471428D01*
X233102380Y-105500000D01*
X233078571Y-105557142D01*
X233078571Y-105871428D01*
X233078571Y-105557142D02*
X233054761Y-105500000D01*
X233007142Y-105471428D01*
X232935714Y-105471428D01*
X232888095Y-105500000D01*
X232864285Y-105557142D01*
X232864285Y-105871428D01*
X232435714Y-105842857D02*
X232483333Y-105871428D01*
X232578571Y-105871428D01*
X232626190Y-105842857D01*
X232650000Y-105785714D01*
X232650000Y-105557142D01*
X232626190Y-105500000D01*
X232578571Y-105471428D01*
X232483333Y-105471428D01*
X232435714Y-105500000D01*
X232411904Y-105557142D01*
X232411904Y-105614285D01*
X232650000Y-105671428D01*
X232197619Y-105471428D02*
X232197619Y-105871428D01*
X232197619Y-105528571D02*
X232173809Y-105500000D01*
X232126190Y-105471428D01*
X232054761Y-105471428D01*
X232007142Y-105500000D01*
X231983333Y-105557142D01*
X231983333Y-105871428D01*
X231816666Y-105471428D02*
X231626190Y-105471428D01*
X231745238Y-105271428D02*
X231745238Y-105785714D01*
X231721428Y-105842857D01*
X231673809Y-105871428D01*
X231626190Y-105871428D01*
X230911904Y-105557142D02*
X230840476Y-105585714D01*
X230816666Y-105614285D01*
X230792857Y-105671428D01*
X230792857Y-105757142D01*
X230816666Y-105814285D01*
X230840476Y-105842857D01*
X230888095Y-105871428D01*
X231078571Y-105871428D01*
X231078571Y-105271428D01*
X230911904Y-105271428D01*
X230864285Y-105300000D01*
X230840476Y-105328571D01*
X230816666Y-105385714D01*
X230816666Y-105442857D01*
X230840476Y-105500000D01*
X230864285Y-105528571D01*
X230911904Y-105557142D01*
X231078571Y-105557142D01*
X230507142Y-105871428D02*
X230554761Y-105842857D01*
X230578571Y-105814285D01*
X230602380Y-105757142D01*
X230602380Y-105585714D01*
X230578571Y-105528571D01*
X230554761Y-105500000D01*
X230507142Y-105471428D01*
X230435714Y-105471428D01*
X230388095Y-105500000D01*
X230364285Y-105528571D01*
X230340476Y-105585714D01*
X230340476Y-105757142D01*
X230364285Y-105814285D01*
X230388095Y-105842857D01*
X230435714Y-105871428D01*
X230507142Y-105871428D01*
X229911904Y-105871428D02*
X229911904Y-105557142D01*
X229935714Y-105500000D01*
X229983333Y-105471428D01*
X230078571Y-105471428D01*
X230126190Y-105500000D01*
X229911904Y-105842857D02*
X229959523Y-105871428D01*
X230078571Y-105871428D01*
X230126190Y-105842857D01*
X230150000Y-105785714D01*
X230150000Y-105728571D01*
X230126190Y-105671428D01*
X230078571Y-105642857D01*
X229959523Y-105642857D01*
X229911904Y-105614285D01*
X229673809Y-105871428D02*
X229673809Y-105471428D01*
X229673809Y-105585714D02*
X229650000Y-105528571D01*
X229626190Y-105500000D01*
X229578571Y-105471428D01*
X229530952Y-105471428D01*
X229150000Y-105871428D02*
X229150000Y-105271428D01*
X229150000Y-105842857D02*
X229197619Y-105871428D01*
X229292857Y-105871428D01*
X229340476Y-105842857D01*
X229364285Y-105814285D01*
X229388095Y-105757142D01*
X229388095Y-105585714D01*
X229364285Y-105528571D01*
X229340476Y-105500000D01*
X229292857Y-105471428D01*
X229197619Y-105471428D01*
X229150000Y-105500000D01*
X228245238Y-105871428D02*
X228411904Y-105585714D01*
X228530952Y-105871428D02*
X228530952Y-105271428D01*
X228340476Y-105271428D01*
X228292857Y-105300000D01*
X228269047Y-105328571D01*
X228245238Y-105385714D01*
X228245238Y-105471428D01*
X228269047Y-105528571D01*
X228292857Y-105557142D01*
X228340476Y-105585714D01*
X228530952Y-105585714D01*
X227840476Y-105842857D02*
X227888095Y-105871428D01*
X227983333Y-105871428D01*
X228030952Y-105842857D01*
X228054761Y-105785714D01*
X228054761Y-105557142D01*
X228030952Y-105500000D01*
X227983333Y-105471428D01*
X227888095Y-105471428D01*
X227840476Y-105500000D01*
X227816666Y-105557142D01*
X227816666Y-105614285D01*
X228054761Y-105671428D01*
X227650000Y-105471428D02*
X227530952Y-105871428D01*
X227411904Y-105471428D01*
X227221428Y-105814285D02*
X227197619Y-105842857D01*
X227221428Y-105871428D01*
X227245238Y-105842857D01*
X227221428Y-105814285D01*
X227221428Y-105871428D01*
X227007142Y-105700000D02*
X226769047Y-105700000D01*
X227054761Y-105871428D02*
X226888095Y-105271428D01*
X226721428Y-105871428D01*
X226173809Y-105642857D02*
X225792857Y-105642857D01*
X225173809Y-105871428D02*
X225173809Y-105271428D01*
X225173809Y-105557142D02*
X224888095Y-105557142D01*
X224888095Y-105871428D02*
X224888095Y-105271428D01*
X224435714Y-105871428D02*
X224435714Y-105557142D01*
X224459523Y-105500000D01*
X224507142Y-105471428D01*
X224602380Y-105471428D01*
X224650000Y-105500000D01*
X224435714Y-105842857D02*
X224483333Y-105871428D01*
X224602380Y-105871428D01*
X224650000Y-105842857D01*
X224673809Y-105785714D01*
X224673809Y-105728571D01*
X224650000Y-105671428D01*
X224602380Y-105642857D01*
X224483333Y-105642857D01*
X224435714Y-105614285D01*
X223983333Y-105842857D02*
X224030952Y-105871428D01*
X224126190Y-105871428D01*
X224173809Y-105842857D01*
X224197619Y-105814285D01*
X224221428Y-105757142D01*
X224221428Y-105585714D01*
X224197619Y-105528571D01*
X224173809Y-105500000D01*
X224126190Y-105471428D01*
X224030952Y-105471428D01*
X223983333Y-105500000D01*
X223769047Y-105871428D02*
X223769047Y-105271428D01*
X223721428Y-105642857D02*
X223578571Y-105871428D01*
X223578571Y-105471428D02*
X223769047Y-105700000D01*
X223173809Y-105842857D02*
X223221428Y-105871428D01*
X223316666Y-105871428D01*
X223364285Y-105842857D01*
X223388095Y-105785714D01*
X223388095Y-105557142D01*
X223364285Y-105500000D01*
X223316666Y-105471428D01*
X223221428Y-105471428D01*
X223173809Y-105500000D01*
X223150000Y-105557142D01*
X223150000Y-105614285D01*
X223388095Y-105671428D01*
X222935714Y-105871428D02*
X222935714Y-105471428D01*
X222935714Y-105585714D02*
X222911904Y-105528571D01*
X222888095Y-105500000D01*
X222840476Y-105471428D01*
X222792857Y-105471428D01*
X222245238Y-105871428D02*
X222245238Y-105271428D01*
X222245238Y-105557142D02*
X221959523Y-105557142D01*
X221959523Y-105871428D02*
X221959523Y-105271428D01*
X221650000Y-105871428D02*
X221697619Y-105842857D01*
X221721428Y-105814285D01*
X221745238Y-105757142D01*
X221745238Y-105585714D01*
X221721428Y-105528571D01*
X221697619Y-105500000D01*
X221650000Y-105471428D01*
X221578571Y-105471428D01*
X221530952Y-105500000D01*
X221507142Y-105528571D01*
X221483333Y-105585714D01*
X221483333Y-105757142D01*
X221507142Y-105814285D01*
X221530952Y-105842857D01*
X221578571Y-105871428D01*
X221650000Y-105871428D01*
X221269047Y-105871428D02*
X221269047Y-105471428D01*
X221269047Y-105528571D02*
X221245238Y-105500000D01*
X221197619Y-105471428D01*
X221126190Y-105471428D01*
X221078571Y-105500000D01*
X221054761Y-105557142D01*
X221054761Y-105871428D01*
X221054761Y-105557142D02*
X221030952Y-105500000D01*
X220983333Y-105471428D01*
X220911904Y-105471428D01*
X220864285Y-105500000D01*
X220840476Y-105557142D01*
X220840476Y-105871428D01*
X220411904Y-105842857D02*
X220459523Y-105871428D01*
X220554761Y-105871428D01*
X220602380Y-105842857D01*
X220626190Y-105785714D01*
X220626190Y-105557142D01*
X220602380Y-105500000D01*
X220554761Y-105471428D01*
X220459523Y-105471428D01*
X220411904Y-105500000D01*
X220388095Y-105557142D01*
X220388095Y-105614285D01*
X220626190Y-105671428D01*
X220197619Y-105842857D02*
X220150000Y-105871428D01*
X220054761Y-105871428D01*
X220007142Y-105842857D01*
X219983333Y-105785714D01*
X219983333Y-105757142D01*
X220007142Y-105700000D01*
X220054761Y-105671428D01*
X220126190Y-105671428D01*
X220173809Y-105642857D01*
X220197619Y-105585714D01*
X220197619Y-105557142D01*
X220173809Y-105500000D01*
X220126190Y-105471428D01*
X220054761Y-105471428D01*
X220007142Y-105500000D01*
X219840476Y-105471428D02*
X219650000Y-105471428D01*
X219769047Y-105271428D02*
X219769047Y-105785714D01*
X219745238Y-105842857D01*
X219697619Y-105871428D01*
X219650000Y-105871428D01*
X219292857Y-105842857D02*
X219340476Y-105871428D01*
X219435714Y-105871428D01*
X219483333Y-105842857D01*
X219507142Y-105785714D01*
X219507142Y-105557142D01*
X219483333Y-105500000D01*
X219435714Y-105471428D01*
X219340476Y-105471428D01*
X219292857Y-105500000D01*
X219269047Y-105557142D01*
X219269047Y-105614285D01*
X219507142Y-105671428D01*
X218840476Y-105871428D02*
X218840476Y-105557142D01*
X218864285Y-105500000D01*
X218911904Y-105471428D01*
X219007142Y-105471428D01*
X219054761Y-105500000D01*
X218840476Y-105842857D02*
X218888095Y-105871428D01*
X219007142Y-105871428D01*
X219054761Y-105842857D01*
X219078571Y-105785714D01*
X219078571Y-105728571D01*
X219054761Y-105671428D01*
X219007142Y-105642857D01*
X218888095Y-105642857D01*
X218840476Y-105614285D01*
X218388095Y-105871428D02*
X218388095Y-105271428D01*
X218388095Y-105842857D02*
X218435714Y-105871428D01*
X218530952Y-105871428D01*
X218578571Y-105842857D01*
X218602380Y-105814285D01*
X218626190Y-105757142D01*
X218626190Y-105585714D01*
X218602380Y-105528571D01*
X218578571Y-105500000D01*
X218530952Y-105471428D01*
X218435714Y-105471428D01*
X218388095Y-105500000D01*
X217626190Y-106100000D02*
X217650000Y-106071428D01*
X217697619Y-105985714D01*
X217721428Y-105928571D01*
X217745238Y-105842857D01*
X217769047Y-105700000D01*
X217769047Y-105585714D01*
X217745238Y-105442857D01*
X217721428Y-105357142D01*
X217697619Y-105300000D01*
X217650000Y-105214285D01*
X217626190Y-105185714D01*
X217221428Y-105842857D02*
X217269047Y-105871428D01*
X217364285Y-105871428D01*
X217411904Y-105842857D01*
X217435714Y-105814285D01*
X217459523Y-105757142D01*
X217459523Y-105585714D01*
X217435714Y-105528571D01*
X217411904Y-105500000D01*
X217364285Y-105471428D01*
X217269047Y-105471428D01*
X217221428Y-105500000D01*
X217054761Y-106100000D02*
X217030952Y-106071428D01*
X216983333Y-105985714D01*
X216959523Y-105928571D01*
X216935714Y-105842857D01*
X216911904Y-105700000D01*
X216911904Y-105585714D01*
X216935714Y-105442857D01*
X216959523Y-105357142D01*
X216983333Y-105300000D01*
X217030952Y-105214285D01*
X217054761Y-105185714D01*
X216316666Y-105328571D02*
X216292857Y-105300000D01*
X216245238Y-105271428D01*
X216126190Y-105271428D01*
X216078571Y-105300000D01*
X216054761Y-105328571D01*
X216030952Y-105385714D01*
X216030952Y-105442857D01*
X216054761Y-105528571D01*
X216340476Y-105871428D01*
X216030952Y-105871428D01*
X215721428Y-105271428D02*
X215673809Y-105271428D01*
X215626190Y-105300000D01*
X215602380Y-105328571D01*
X215578571Y-105385714D01*
X215554761Y-105500000D01*
X215554761Y-105642857D01*
X215578571Y-105757142D01*
X215602380Y-105814285D01*
X215626190Y-105842857D01*
X215673809Y-105871428D01*
X215721428Y-105871428D01*
X215769047Y-105842857D01*
X215792857Y-105814285D01*
X215816666Y-105757142D01*
X215840476Y-105642857D01*
X215840476Y-105500000D01*
X215816666Y-105385714D01*
X215792857Y-105328571D01*
X215769047Y-105300000D01*
X215721428Y-105271428D01*
X215364285Y-105328571D02*
X215340476Y-105300000D01*
X215292857Y-105271428D01*
X215173809Y-105271428D01*
X215126190Y-105300000D01*
X215102380Y-105328571D01*
X215078571Y-105385714D01*
X215078571Y-105442857D01*
X215102380Y-105528571D01*
X215388095Y-105871428D01*
X215078571Y-105871428D01*
X214911904Y-105271428D02*
X214602380Y-105271428D01*
X214769047Y-105500000D01*
X214697619Y-105500000D01*
X214650000Y-105528571D01*
X214626190Y-105557142D01*
X214602380Y-105614285D01*
X214602380Y-105757142D01*
X214626190Y-105814285D01*
X214650000Y-105842857D01*
X214697619Y-105871428D01*
X214840476Y-105871428D01*
X214888095Y-105842857D01*
X214911904Y-105814285D01*
D10*
X166479196Y-82604761D02*
X166342291Y-82652380D01*
X166104196Y-82652380D01*
X166003005Y-82604761D01*
X165949434Y-82557142D01*
X165889910Y-82461904D01*
X165878005Y-82366666D01*
X165913720Y-82271428D01*
X165955386Y-82223809D01*
X166044672Y-82176190D01*
X166229196Y-82128571D01*
X166318482Y-82080952D01*
X166360148Y-82033333D01*
X166395863Y-81938095D01*
X166383958Y-81842857D01*
X166324434Y-81747619D01*
X166270863Y-81700000D01*
X166169672Y-81652380D01*
X165931577Y-81652380D01*
X165794672Y-81700000D01*
X164901815Y-82557142D02*
X164955386Y-82604761D01*
X165104196Y-82652380D01*
X165199434Y-82652380D01*
X165336339Y-82604761D01*
X165419672Y-82509523D01*
X165455386Y-82414285D01*
X165479196Y-82223809D01*
X165461339Y-82080952D01*
X165389910Y-81890476D01*
X165330386Y-81795238D01*
X165223244Y-81700000D01*
X165074434Y-81652380D01*
X164979196Y-81652380D01*
X164842291Y-81700000D01*
X164800625Y-81747619D01*
X164008958Y-82652380D02*
X164485148Y-82652380D01*
X164360148Y-81652380D01*
X191903005Y-104652380D02*
X192379196Y-104652380D01*
X192486339Y-105128571D01*
X192432767Y-105080952D01*
X192331577Y-105033333D01*
X192093482Y-105033333D01*
X192004196Y-105080952D01*
X191962529Y-105128571D01*
X191926815Y-105223809D01*
X191956577Y-105461904D01*
X192016101Y-105557142D01*
X192069672Y-105604761D01*
X192170863Y-105652380D01*
X192408958Y-105652380D01*
X192498244Y-105604761D01*
X192539910Y-105557142D01*
X191569672Y-104652380D02*
X191361339Y-105652380D01*
X190903005Y-104652380D01*
X189932767Y-105652380D02*
X189807767Y-104652380D01*
X189456577Y-105652380D02*
X189331577Y-104652380D01*
X188885148Y-105652380D01*
X188760148Y-104652380D01*
X166503005Y-89604761D02*
X166366101Y-89652380D01*
X166128005Y-89652380D01*
X166026815Y-89604761D01*
X165973244Y-89557142D01*
X165913720Y-89461904D01*
X165901815Y-89366666D01*
X165937529Y-89271428D01*
X165979196Y-89223809D01*
X166068482Y-89176190D01*
X166253005Y-89128571D01*
X166342291Y-89080952D01*
X166383958Y-89033333D01*
X166419672Y-88938095D01*
X166407767Y-88842857D01*
X166348244Y-88747619D01*
X166294672Y-88700000D01*
X166193482Y-88652380D01*
X165955386Y-88652380D01*
X165818482Y-88700000D01*
X165508958Y-89652380D02*
X165383958Y-88652380D01*
X165145863Y-88652380D01*
X165008958Y-88700000D01*
X164925625Y-88795238D01*
X164889910Y-88890476D01*
X164866101Y-89080952D01*
X164883958Y-89223809D01*
X164955386Y-89414285D01*
X165014910Y-89509523D01*
X165122053Y-89604761D01*
X165270863Y-89652380D01*
X165508958Y-89652380D01*
X164520863Y-89366666D02*
X164044672Y-89366666D01*
X164651815Y-89652380D02*
X164193482Y-88652380D01*
X163985148Y-89652380D01*
X216795863Y-56228571D02*
X216462529Y-56228571D01*
X216385148Y-56752380D02*
X216861339Y-56752380D01*
X216736339Y-55752380D01*
X216260148Y-55752380D01*
X215926815Y-55752380D02*
X215385148Y-56752380D01*
X215260148Y-55752380D02*
X216051815Y-56752380D01*
X215004196Y-56752380D02*
X214879196Y-55752380D01*
X214498244Y-55752380D01*
X214408958Y-55800000D01*
X214367291Y-55847619D01*
X214331577Y-55942857D01*
X214349434Y-56085714D01*
X214408958Y-56180952D01*
X214462529Y-56228571D01*
X214563720Y-56276190D01*
X214944672Y-56276190D01*
X213480386Y-56752380D02*
X214051815Y-56752380D01*
X213766101Y-56752380D02*
X213641101Y-55752380D01*
X213754196Y-55895238D01*
X213861339Y-55990476D01*
X213962529Y-56038095D01*
X216695863Y-53728571D02*
X216362529Y-53728571D01*
X216285148Y-54252380D02*
X216761339Y-54252380D01*
X216636339Y-53252380D01*
X216160148Y-53252380D01*
X215826815Y-53252380D02*
X215285148Y-54252380D01*
X215160148Y-53252380D02*
X215951815Y-54252380D01*
X214904196Y-54252380D02*
X214779196Y-53252380D01*
X214398244Y-53252380D01*
X214308958Y-53300000D01*
X214267291Y-53347619D01*
X214231577Y-53442857D01*
X214249434Y-53585714D01*
X214308958Y-53680952D01*
X214362529Y-53728571D01*
X214463720Y-53776190D01*
X214844672Y-53776190D01*
X213838720Y-53347619D02*
X213785148Y-53300000D01*
X213683958Y-53252380D01*
X213445863Y-53252380D01*
X213356577Y-53300000D01*
X213314910Y-53347619D01*
X213279196Y-53442857D01*
X213291101Y-53538095D01*
X213356577Y-53680952D01*
X213999434Y-54252380D01*
X213380386Y-54252380D01*
D11*
%TO.C,G\u002A\u002A\u002A*%
X226440476Y-81900000D02*
X226488095Y-81871428D01*
X226559523Y-81871428D01*
X226630952Y-81900000D01*
X226678571Y-81957142D01*
X226702380Y-82014285D01*
X226726190Y-82128571D01*
X226726190Y-82214285D01*
X226702380Y-82328571D01*
X226678571Y-82385714D01*
X226630952Y-82442857D01*
X226559523Y-82471428D01*
X226511904Y-82471428D01*
X226440476Y-82442857D01*
X226416666Y-82414285D01*
X226416666Y-82214285D01*
X226511904Y-82214285D01*
X226130952Y-81871428D02*
X226130952Y-82014285D01*
X226250000Y-81957142D02*
X226130952Y-82014285D01*
X226011904Y-81957142D01*
X226202380Y-82128571D02*
X226130952Y-82014285D01*
X226059523Y-82128571D01*
X225750000Y-81871428D02*
X225750000Y-82014285D01*
X225869047Y-81957142D02*
X225750000Y-82014285D01*
X225630952Y-81957142D01*
X225821428Y-82128571D02*
X225750000Y-82014285D01*
X225678571Y-82128571D01*
X225369047Y-81871428D02*
X225369047Y-82014285D01*
X225488095Y-81957142D02*
X225369047Y-82014285D01*
X225250000Y-81957142D01*
X225440476Y-82128571D02*
X225369047Y-82014285D01*
X225297619Y-82128571D01*
%TO.C,TP7*%
X168030952Y-86871428D02*
X167745238Y-86871428D01*
X167888095Y-87471428D02*
X167888095Y-86871428D01*
X167578571Y-87471428D02*
X167578571Y-86871428D01*
X167388095Y-86871428D01*
X167340476Y-86900000D01*
X167316666Y-86928571D01*
X167292857Y-86985714D01*
X167292857Y-87071428D01*
X167316666Y-87128571D01*
X167340476Y-87157142D01*
X167388095Y-87185714D01*
X167578571Y-87185714D01*
X167126190Y-86871428D02*
X166792857Y-86871428D01*
X167007142Y-87471428D01*
%TO.C,TP9*%
X168030952Y-84071428D02*
X167745238Y-84071428D01*
X167888095Y-84671428D02*
X167888095Y-84071428D01*
X167578571Y-84671428D02*
X167578571Y-84071428D01*
X167388095Y-84071428D01*
X167340476Y-84100000D01*
X167316666Y-84128571D01*
X167292857Y-84185714D01*
X167292857Y-84271428D01*
X167316666Y-84328571D01*
X167340476Y-84357142D01*
X167388095Y-84385714D01*
X167578571Y-84385714D01*
X167054761Y-84671428D02*
X166959523Y-84671428D01*
X166911904Y-84642857D01*
X166888095Y-84614285D01*
X166840476Y-84528571D01*
X166816666Y-84414285D01*
X166816666Y-84185714D01*
X166840476Y-84128571D01*
X166864285Y-84100000D01*
X166911904Y-84071428D01*
X167007142Y-84071428D01*
X167054761Y-84100000D01*
X167078571Y-84128571D01*
X167102380Y-84185714D01*
X167102380Y-84328571D01*
X167078571Y-84385714D01*
X167054761Y-84414285D01*
X167007142Y-84442857D01*
X166911904Y-84442857D01*
X166864285Y-84414285D01*
X166840476Y-84385714D01*
X166816666Y-84328571D01*
%TO.C,G\u002A\u002A\u002A*%
G36*
X214218453Y-77846615D02*
G01*
X214074677Y-77972388D01*
X213963325Y-78059406D01*
X213903900Y-78091913D01*
X213883248Y-78095158D01*
X213783686Y-78130463D01*
X213650690Y-78192111D01*
X213602348Y-78215530D01*
X213464448Y-78270385D01*
X213367511Y-78292308D01*
X213321439Y-78297941D01*
X213254086Y-78335635D01*
X213246566Y-78342778D01*
X213166624Y-78359817D01*
X213038210Y-78354012D01*
X213016374Y-78351179D01*
X212868604Y-78334128D01*
X212761440Y-78324999D01*
X212715387Y-78317833D01*
X212673767Y-78287413D01*
X212639085Y-78258169D01*
X212542102Y-78228721D01*
X212410437Y-78203551D01*
X212443124Y-78485898D01*
X212480414Y-78856575D01*
X212514795Y-79518771D01*
X212500231Y-80108427D01*
X212437452Y-80623036D01*
X212327187Y-81060089D01*
X212170168Y-81417077D01*
X211967123Y-81691492D01*
X211718781Y-81880825D01*
X211425874Y-81982567D01*
X211337154Y-82003059D01*
X211276309Y-82027701D01*
X211242884Y-82043715D01*
X211136432Y-82049946D01*
X211015615Y-82030711D01*
X210932212Y-81991463D01*
X210929087Y-81988024D01*
X210901297Y-81903707D01*
X210892780Y-81736240D01*
X210903103Y-81477952D01*
X210907398Y-81364548D01*
X210904840Y-81088225D01*
X210890057Y-80750338D01*
X210865028Y-80375352D01*
X210831734Y-79987730D01*
X210792155Y-79611936D01*
X210748270Y-79272435D01*
X210702059Y-78993689D01*
X210638731Y-78668048D01*
X210577112Y-78942938D01*
X210526057Y-79124355D01*
X210416781Y-79360894D01*
X210250664Y-79592059D01*
X210011601Y-79843498D01*
X210002067Y-79852655D01*
X209879993Y-79965032D01*
X209774274Y-80045205D01*
X209648799Y-80117154D01*
X209467455Y-80204862D01*
X209460880Y-80207936D01*
X209213524Y-80316804D01*
X209014458Y-80385018D01*
X208826637Y-80422784D01*
X208613018Y-80440312D01*
X208447183Y-80442133D01*
X208126600Y-80400117D01*
X207854134Y-80288202D01*
X207606938Y-80098629D01*
X207485457Y-79977063D01*
X207397062Y-79877465D01*
X207363313Y-79823762D01*
X207353835Y-79794790D01*
X207293918Y-79725642D01*
X207254209Y-79678383D01*
X207178815Y-79537489D01*
X207095174Y-79335130D01*
X207011430Y-79093603D01*
X206935729Y-78835207D01*
X206876216Y-78582238D01*
X206846077Y-78419064D01*
X206821615Y-78206061D01*
X206823176Y-77998389D01*
X206849095Y-77744587D01*
X206921926Y-77341971D01*
X207035991Y-76933038D01*
X207061380Y-76865964D01*
X208302196Y-76865964D01*
X208304523Y-77130989D01*
X208325976Y-77378633D01*
X208366288Y-77570978D01*
X208408218Y-77685654D01*
X208570228Y-77992825D01*
X208778584Y-78242247D01*
X209017282Y-78413209D01*
X209089374Y-78449310D01*
X209219604Y-78510479D01*
X209300635Y-78533898D01*
X209361262Y-78524811D01*
X209430278Y-78488468D01*
X209488745Y-78464965D01*
X209568403Y-78468117D01*
X209599052Y-78472652D01*
X209648514Y-78420730D01*
X209670187Y-78382662D01*
X209734238Y-78342407D01*
X209741887Y-78341953D01*
X209831995Y-78289403D01*
X209932303Y-78165637D01*
X210027343Y-77993643D01*
X210101647Y-77796409D01*
X210109190Y-77770257D01*
X210146106Y-77621809D01*
X210156823Y-77498917D01*
X210141168Y-77360872D01*
X210098968Y-77166966D01*
X210027933Y-76912403D01*
X209889528Y-76565959D01*
X209721779Y-76278408D01*
X209532264Y-76057939D01*
X209328560Y-75912738D01*
X209118243Y-75850994D01*
X208908890Y-75880895D01*
X208804287Y-75932430D01*
X208617203Y-76073897D01*
X208457230Y-76250534D01*
X208358249Y-76428639D01*
X208355988Y-76435444D01*
X208319262Y-76621476D01*
X208302196Y-76865964D01*
X207061380Y-76865964D01*
X207180945Y-76550088D01*
X207347406Y-76217847D01*
X207525990Y-75961040D01*
X207561117Y-75920735D01*
X207686487Y-75783320D01*
X207806315Y-75659975D01*
X207900343Y-75571048D01*
X207948312Y-75536884D01*
X207973297Y-75524127D01*
X208056781Y-75460548D01*
X208171488Y-75361539D01*
X208245791Y-75298996D01*
X208363313Y-75217922D01*
X208442341Y-75186194D01*
X208517175Y-75169336D01*
X208630066Y-75113633D01*
X208694888Y-75080571D01*
X208879754Y-75031205D01*
X209088320Y-75014679D01*
X209270637Y-75036970D01*
X209328700Y-75049437D01*
X209389970Y-75034700D01*
X209446243Y-74965027D01*
X209519222Y-74821616D01*
X209607856Y-74674355D01*
X209763280Y-74472174D01*
X209955190Y-74255499D01*
X210160555Y-74048716D01*
X210356344Y-73876215D01*
X210519526Y-73762383D01*
X210600006Y-73721139D01*
X210777610Y-73663002D01*
X210910628Y-73681974D01*
X211013768Y-73778536D01*
X211021988Y-73790818D01*
X211090317Y-73907456D01*
X211169151Y-74059022D01*
X211243731Y-74214868D01*
X211299301Y-74344346D01*
X211321104Y-74416809D01*
X211331672Y-74453089D01*
X211374998Y-74559973D01*
X211440385Y-74705423D01*
X211446936Y-74719596D01*
X211524805Y-74902585D01*
X211613522Y-75130442D01*
X211695141Y-75357257D01*
X211822591Y-75668954D01*
X211998657Y-75957061D01*
X212199176Y-76155089D01*
X212420969Y-76260037D01*
X212660858Y-76268906D01*
X212687052Y-76264676D01*
X212823160Y-76243145D01*
X212910847Y-76229981D01*
X212913262Y-76229577D01*
X212990020Y-76186842D01*
X213086192Y-76100501D01*
X213109328Y-76074630D01*
X213156829Y-76001676D01*
X213184099Y-75906413D01*
X213196409Y-75762912D01*
X213199028Y-75545241D01*
X213197870Y-75462183D01*
X213169472Y-75108423D01*
X213106844Y-74810454D01*
X213106115Y-74808064D01*
X213046956Y-74631279D01*
X212963779Y-74404083D01*
X212867998Y-74155475D01*
X212771024Y-73914458D01*
X212684271Y-73710030D01*
X212619152Y-73571193D01*
X212576715Y-73444603D01*
X212588502Y-73223113D01*
X212692007Y-72970136D01*
X212886065Y-72688189D01*
X213169514Y-72379791D01*
X213253077Y-72299864D01*
X213504613Y-72087961D01*
X213717262Y-71959828D01*
X213897795Y-71912105D01*
X214052978Y-71941435D01*
X214075776Y-71959976D01*
X214145565Y-72060400D01*
X214235417Y-72226782D01*
X214336599Y-72439393D01*
X214440377Y-72678507D01*
X214538018Y-72924397D01*
X214620787Y-73157335D01*
X214679951Y-73357594D01*
X214693725Y-73409034D01*
X214782466Y-73667324D01*
X214903839Y-73947029D01*
X215042997Y-74218658D01*
X215185093Y-74452715D01*
X215315281Y-74619706D01*
X215347660Y-74652336D01*
X215573563Y-74830285D01*
X215792187Y-74920522D01*
X215993990Y-74922652D01*
X216169430Y-74836279D01*
X216308964Y-74661005D01*
X216338834Y-74587427D01*
X216374557Y-74373265D01*
X216375122Y-74092656D01*
X216341951Y-73763580D01*
X216276467Y-73404019D01*
X216180093Y-73031953D01*
X216163634Y-72977106D01*
X216061243Y-72644459D01*
X215966814Y-72351769D01*
X215885155Y-72113154D01*
X215821070Y-71942736D01*
X215779366Y-71854635D01*
X215740603Y-71774496D01*
X215687006Y-71622865D01*
X215634946Y-71445427D01*
X215595711Y-71281122D01*
X215580587Y-71168891D01*
X215607861Y-71019773D01*
X215708466Y-70800511D01*
X215869383Y-70563311D01*
X216076068Y-70326458D01*
X216313974Y-70108238D01*
X216568556Y-69926937D01*
X216742545Y-69837015D01*
X216931039Y-69792995D01*
X217071671Y-69835571D01*
X217166068Y-69964846D01*
X217287678Y-70271196D01*
X217434421Y-70669601D01*
X217575297Y-71079048D01*
X217694100Y-71453846D01*
X217788234Y-71770387D01*
X217864456Y-72034340D01*
X217923452Y-72253182D01*
X217971445Y-72452890D01*
X218014657Y-72659447D01*
X218059313Y-72898831D01*
X218111634Y-73197024D01*
X218183770Y-73666439D01*
X218239995Y-74240497D01*
X218247754Y-74752515D01*
X218207085Y-75217264D01*
X218118027Y-75649520D01*
X218082063Y-75777019D01*
X218014008Y-75992157D01*
X217949296Y-76168091D01*
X217898133Y-76275752D01*
X217808509Y-76396540D01*
X217610430Y-76604561D01*
X217380752Y-76796927D01*
X217157146Y-76939876D01*
X217047518Y-76995184D01*
X216927006Y-77047684D01*
X216811638Y-77080128D01*
X216666383Y-77101570D01*
X216456213Y-77121065D01*
X216366682Y-77127507D01*
X216203295Y-77124542D01*
X216064559Y-77087454D01*
X215898704Y-77005511D01*
X215649324Y-76852939D01*
X215402844Y-76648770D01*
X215192317Y-76399411D01*
X215042030Y-76191945D01*
X215013475Y-76468615D01*
X214948303Y-76768680D01*
X214796354Y-77121194D01*
X214573297Y-77465362D01*
X214543126Y-77498917D01*
X214291469Y-77778797D01*
X214218453Y-77846615D01*
G37*
G36*
X221435599Y-64253850D02*
G01*
X221569792Y-64272487D01*
X221636373Y-64298886D01*
X221669034Y-64325588D01*
X221772506Y-64388829D01*
X221915470Y-64465089D01*
X221944110Y-64480073D01*
X222187568Y-64645634D01*
X222445771Y-64879536D01*
X222697320Y-65160453D01*
X222920819Y-65467061D01*
X223028161Y-65641388D01*
X223163101Y-65878132D01*
X223297661Y-66129313D01*
X223418895Y-66369937D01*
X223513853Y-66575006D01*
X223569589Y-66719527D01*
X223579798Y-66751152D01*
X223633016Y-66893064D01*
X223699847Y-67051462D01*
X223714138Y-67084846D01*
X223776876Y-67251301D01*
X223849375Y-67465770D01*
X223918673Y-67690407D01*
X223924302Y-67709689D01*
X224003846Y-67982164D01*
X224091113Y-68281080D01*
X224168204Y-68545125D01*
X224199561Y-68663940D01*
X224254591Y-68909205D01*
X224313870Y-69208513D01*
X224372086Y-69534557D01*
X224423928Y-69860026D01*
X224468073Y-70167716D01*
X224505287Y-70467518D01*
X224528314Y-70730262D01*
X224539203Y-70989254D01*
X224540003Y-71277796D01*
X224532762Y-71629192D01*
X224524091Y-71878151D01*
X224484166Y-72456420D01*
X224415210Y-72967583D01*
X224312804Y-73433531D01*
X224172528Y-73876152D01*
X223989961Y-74317337D01*
X223949073Y-74399875D01*
X223854945Y-74566350D01*
X223745286Y-74741422D01*
X223636123Y-74901033D01*
X223543487Y-75021127D01*
X223483403Y-75077647D01*
X223475993Y-75081821D01*
X223444970Y-75145192D01*
X223443742Y-75152001D01*
X223397705Y-75219534D01*
X223305426Y-75317833D01*
X223194738Y-75420738D01*
X223093475Y-75502088D01*
X223029470Y-75535721D01*
X223022617Y-75537103D01*
X222953406Y-75579422D01*
X222854637Y-75662130D01*
X222836333Y-75678702D01*
X222736270Y-75756363D01*
X222668954Y-75788566D01*
X222608073Y-75804461D01*
X222480376Y-75850235D01*
X222317751Y-75915236D01*
X222173887Y-75968579D01*
X221956032Y-76031547D01*
X221770845Y-76066524D01*
X221690184Y-76076618D01*
X221543064Y-76103732D01*
X221452881Y-76132428D01*
X221420275Y-76144223D01*
X221282956Y-76157154D01*
X221082486Y-76149265D01*
X220843179Y-76122111D01*
X220589349Y-76077245D01*
X220395979Y-76018185D01*
X220154991Y-75911170D01*
X219915849Y-75777556D01*
X219710117Y-75635150D01*
X219569360Y-75501761D01*
X219544096Y-75469015D01*
X219421901Y-75292285D01*
X219291381Y-75081513D01*
X219175301Y-74874803D01*
X219096428Y-74710257D01*
X219027833Y-74517645D01*
X218934248Y-74146941D01*
X218874351Y-73750399D01*
X218848238Y-73348019D01*
X218856007Y-72959799D01*
X218897757Y-72605736D01*
X218973584Y-72305830D01*
X219083586Y-72080079D01*
X219164774Y-71953950D01*
X219250515Y-71804537D01*
X219373557Y-71622098D01*
X219583819Y-71399280D01*
X219835114Y-71196062D01*
X220097726Y-71039286D01*
X220248585Y-70969784D01*
X220386061Y-70921691D01*
X220497644Y-70910329D01*
X220617318Y-70928448D01*
X220643201Y-70934826D01*
X220837030Y-71028402D01*
X220956777Y-71172940D01*
X220997247Y-71348335D01*
X220953245Y-71534481D01*
X220819577Y-71711272D01*
X220734856Y-71800314D01*
X220647691Y-71950061D01*
X220588971Y-72157046D01*
X220561413Y-72333803D01*
X220561971Y-72634235D01*
X220625630Y-72886871D01*
X220746891Y-73080816D01*
X220920254Y-73205173D01*
X221140217Y-73249047D01*
X221142103Y-73249050D01*
X221247137Y-73259738D01*
X221290730Y-73284936D01*
X221300865Y-73292388D01*
X221377142Y-73284200D01*
X221503649Y-73248000D01*
X221646466Y-73186445D01*
X221896015Y-72998132D01*
X222093797Y-72724285D01*
X222239735Y-72365119D01*
X222333756Y-71920850D01*
X222375784Y-71391691D01*
X222365743Y-70777859D01*
X222345077Y-70530360D01*
X222270229Y-70035261D01*
X222153346Y-69505331D01*
X222001107Y-68959843D01*
X221820192Y-68418072D01*
X221617281Y-67899291D01*
X221399054Y-67422775D01*
X221172189Y-67007797D01*
X220943367Y-66673631D01*
X220791448Y-66516599D01*
X220573625Y-66365954D01*
X220346440Y-66273637D01*
X220138461Y-66254522D01*
X220089864Y-66262970D01*
X219937301Y-66314790D01*
X219791134Y-66393074D01*
X219681320Y-66479740D01*
X219637817Y-66556706D01*
X219634315Y-66579699D01*
X219589389Y-66619330D01*
X219577065Y-66622779D01*
X219526244Y-66691651D01*
X219472517Y-66831968D01*
X219421302Y-67021389D01*
X219378014Y-67237573D01*
X219348069Y-67458179D01*
X219336883Y-67660866D01*
X219339158Y-67802305D01*
X219373266Y-68150767D01*
X219455475Y-68439883D01*
X219594975Y-68695018D01*
X219800957Y-68941532D01*
X219929895Y-69076967D01*
X220023366Y-69187866D01*
X220070396Y-69274553D01*
X220083941Y-69362094D01*
X220076955Y-69475554D01*
X220064693Y-69548458D01*
X220007060Y-69722098D01*
X219918953Y-69901796D01*
X219815688Y-70062200D01*
X219712582Y-70177958D01*
X219624950Y-70223720D01*
X219578594Y-70235061D01*
X219537278Y-70291514D01*
X219509031Y-70344513D01*
X219403802Y-70403685D01*
X219245408Y-70449421D01*
X219060157Y-70477993D01*
X218874361Y-70485672D01*
X218714330Y-70468729D01*
X218606372Y-70423437D01*
X218565809Y-70396788D01*
X218535305Y-70403406D01*
X218526377Y-70416122D01*
X218474129Y-70386792D01*
X218391624Y-70307464D01*
X218297946Y-70197469D01*
X218212179Y-70076134D01*
X218084126Y-69839728D01*
X217956565Y-69475013D01*
X217884107Y-69049893D01*
X217871259Y-68893588D01*
X217869425Y-68373409D01*
X217923581Y-67844849D01*
X218029160Y-67340979D01*
X218181597Y-66894872D01*
X218184862Y-66887195D01*
X218233309Y-66765970D01*
X218288503Y-66619330D01*
X218290629Y-66613548D01*
X218358909Y-66455464D01*
X218433136Y-66318738D01*
X218501368Y-66205762D01*
X218582698Y-66056566D01*
X218648793Y-65943446D01*
X218732550Y-65831122D01*
X218748288Y-65813264D01*
X218836692Y-65701605D01*
X218933376Y-65567259D01*
X218934073Y-65566241D01*
X219032927Y-65442202D01*
X219176084Y-65286045D01*
X219332804Y-65131321D01*
X219344261Y-65120640D01*
X219494853Y-64979770D01*
X219626875Y-64855476D01*
X219712906Y-64773565D01*
X219792017Y-64713933D01*
X219940287Y-64625707D01*
X220113695Y-64538223D01*
X220259707Y-64470129D01*
X220452198Y-64378115D01*
X220601874Y-64304114D01*
X220647138Y-64282313D01*
X220750895Y-64247626D01*
X220789743Y-64263252D01*
X220803143Y-64290478D01*
X220877416Y-64273777D01*
X220950972Y-64255210D01*
X221093827Y-64244140D01*
X221266157Y-64244044D01*
X221435599Y-64253850D01*
G37*
G36*
X239205864Y-71476253D02*
G01*
X239351922Y-71518201D01*
X239576726Y-71587898D01*
X239743997Y-71671981D01*
X239941192Y-71838754D01*
X240120987Y-72054867D01*
X240262209Y-72294284D01*
X240343683Y-72530967D01*
X240362236Y-72603226D01*
X240411826Y-72757753D01*
X240475380Y-72931756D01*
X240508417Y-73017941D01*
X240643912Y-73390077D01*
X240797514Y-73836104D01*
X240963619Y-74337883D01*
X241136628Y-74877280D01*
X241310939Y-75436155D01*
X241480950Y-75996373D01*
X241641061Y-76539797D01*
X241785671Y-77048289D01*
X241909177Y-77503712D01*
X242005980Y-77887930D01*
X242036320Y-78016639D01*
X242102968Y-78317998D01*
X242148193Y-78566579D01*
X242176310Y-78794392D01*
X242191634Y-79033443D01*
X242198480Y-79315740D01*
X242199120Y-79552784D01*
X242188446Y-79825330D01*
X242160372Y-80024123D01*
X242110860Y-80164526D01*
X242035870Y-80261905D01*
X241931361Y-80331622D01*
X241826776Y-80372536D01*
X241705917Y-80395169D01*
X241577478Y-80381424D01*
X241350558Y-80315100D01*
X241126781Y-80210540D01*
X240951831Y-80086446D01*
X240923963Y-80059732D01*
X240830053Y-79950127D01*
X240787886Y-79836670D01*
X240777345Y-79671521D01*
X240777200Y-79660202D01*
X240765366Y-79478135D01*
X240738657Y-79248697D01*
X240702448Y-79018738D01*
X240658827Y-78773244D01*
X240612348Y-78500974D01*
X240574222Y-78267259D01*
X240546099Y-78116182D01*
X240495123Y-77877724D01*
X240427178Y-77579100D01*
X240346885Y-77239295D01*
X240258865Y-76877292D01*
X240167737Y-76512075D01*
X240078121Y-76162628D01*
X239994639Y-75847936D01*
X239921910Y-75586982D01*
X239854774Y-75357054D01*
X239730012Y-74939170D01*
X239593384Y-74491077D01*
X239450602Y-74030831D01*
X239307374Y-73576486D01*
X239169411Y-73146097D01*
X239042422Y-72757719D01*
X238932117Y-72429406D01*
X238844207Y-72179214D01*
X238784612Y-72005164D01*
X238741503Y-71858584D01*
X238725049Y-71773566D01*
X238747948Y-71688837D01*
X238821151Y-71585162D01*
X238915139Y-71510639D01*
X238999091Y-71496437D01*
X239038801Y-71504987D01*
X239075739Y-71479929D01*
X239084224Y-71461435D01*
X239122111Y-71458512D01*
X239205864Y-71476253D01*
G37*
G36*
X218406515Y-82119663D02*
G01*
X218593220Y-82203988D01*
X218610912Y-82212859D01*
X218847227Y-82313717D01*
X219160537Y-82423409D01*
X219530823Y-82535398D01*
X219938067Y-82643148D01*
X220011889Y-82660882D01*
X220300119Y-82724404D01*
X220651328Y-82795453D01*
X221042526Y-82869942D01*
X221450723Y-82943782D01*
X221852928Y-83012885D01*
X222226150Y-83073164D01*
X222547401Y-83120531D01*
X222793688Y-83150898D01*
X223018437Y-83174585D01*
X223318211Y-83207458D01*
X223640618Y-83243805D01*
X223945956Y-83279206D01*
X224030954Y-83288758D01*
X224487567Y-83328100D01*
X225022179Y-83358019D01*
X225617003Y-83378660D01*
X226254251Y-83390167D01*
X226916135Y-83392682D01*
X227584867Y-83386350D01*
X228242659Y-83371315D01*
X228871725Y-83347720D01*
X229454275Y-83315708D01*
X229972522Y-83275424D01*
X230408678Y-83227011D01*
X230677852Y-83189621D01*
X231184363Y-83110508D01*
X231629454Y-83025626D01*
X232039377Y-82928392D01*
X232440385Y-82812222D01*
X232858732Y-82670532D01*
X233320669Y-82496738D01*
X233379399Y-82473931D01*
X233610172Y-82386195D01*
X233804767Y-82315115D01*
X233944209Y-82267485D01*
X234009525Y-82250099D01*
X234015117Y-82250362D01*
X234059387Y-82299698D01*
X234053928Y-82434598D01*
X233998670Y-82655498D01*
X233893543Y-82962828D01*
X233683421Y-83559297D01*
X233388606Y-84515859D01*
X233148224Y-85456410D01*
X233128920Y-85541364D01*
X232948274Y-86333859D01*
X232786418Y-87038905D01*
X232641110Y-87666011D01*
X232510103Y-88224687D01*
X232391156Y-88724443D01*
X232282023Y-89174788D01*
X232180460Y-89585233D01*
X232084223Y-89965286D01*
X232052570Y-90090289D01*
X231979725Y-90385222D01*
X231903201Y-90702563D01*
X231835124Y-90992308D01*
X231789100Y-91181667D01*
X231634882Y-91713604D01*
X231453167Y-92217245D01*
X231251602Y-92674625D01*
X231037831Y-93067781D01*
X230819498Y-93378751D01*
X230520443Y-93701720D01*
X230100174Y-94074283D01*
X229626211Y-94426819D01*
X229123259Y-94742629D01*
X228616018Y-95005015D01*
X228129191Y-95197279D01*
X227880808Y-95270174D01*
X227496839Y-95363387D01*
X227103332Y-95440778D01*
X226751479Y-95491420D01*
X226739776Y-95492652D01*
X226316761Y-95514649D01*
X225833944Y-95503144D01*
X225314118Y-95461555D01*
X224780074Y-95393304D01*
X224254603Y-95301810D01*
X223760498Y-95190495D01*
X223320549Y-95062777D01*
X222957549Y-94922078D01*
X222347588Y-94587941D01*
X221778365Y-94168112D01*
X221267390Y-93676324D01*
X220825935Y-93123438D01*
X220465272Y-92520316D01*
X220384431Y-92336606D01*
X220279405Y-92048370D01*
X220162435Y-91685757D01*
X220036770Y-91261550D01*
X219905663Y-90788536D01*
X219772365Y-90279500D01*
X219640125Y-89747227D01*
X219512195Y-89204504D01*
X219391827Y-88664116D01*
X219282271Y-88138847D01*
X219186779Y-87641484D01*
X219108600Y-87184813D01*
X219079201Y-86998043D01*
X219017832Y-86601852D01*
X218954643Y-86186621D01*
X218892112Y-85769209D01*
X218832714Y-85366480D01*
X218778926Y-84995293D01*
X218733225Y-84672511D01*
X218698088Y-84414995D01*
X218675991Y-84239605D01*
X218664194Y-84146159D01*
X218628618Y-83927469D01*
X218576509Y-83674889D01*
X218504294Y-83373056D01*
X218408398Y-83006609D01*
X218285247Y-82560187D01*
X218261226Y-82471457D01*
X218219106Y-82266512D01*
X218225352Y-82144109D01*
X218285857Y-82097431D01*
X218406515Y-82119663D01*
G37*
G36*
X223216021Y-95224309D02*
G01*
X223230348Y-95229705D01*
X223579013Y-95338824D01*
X224002011Y-95437540D01*
X224474876Y-95522500D01*
X224973145Y-95590347D01*
X225472355Y-95637727D01*
X225948041Y-95661283D01*
X226375739Y-95657662D01*
X226583235Y-95646148D01*
X227043936Y-95606566D01*
X227462878Y-95551171D01*
X227820668Y-95482817D01*
X228097916Y-95404357D01*
X228160494Y-95383053D01*
X228303679Y-95342218D01*
X228398508Y-95326147D01*
X228432155Y-95341632D01*
X228522161Y-95422556D01*
X228642186Y-95557108D01*
X228775612Y-95727597D01*
X228853348Y-95829186D01*
X229048093Y-96064901D01*
X229265526Y-96309751D01*
X229471468Y-96524592D01*
X229543430Y-96596717D01*
X229721817Y-96788816D01*
X229821091Y-96922073D01*
X229842032Y-96997482D01*
X229774141Y-97068824D01*
X229622602Y-97156319D01*
X229403214Y-97250865D01*
X229131163Y-97345036D01*
X229069018Y-97363028D01*
X228848487Y-97416237D01*
X228560694Y-97475724D01*
X228228895Y-97537463D01*
X227876350Y-97597430D01*
X227526318Y-97651601D01*
X227202056Y-97695952D01*
X226926824Y-97726457D01*
X226829886Y-97734017D01*
X226564194Y-97747491D01*
X226245107Y-97756663D01*
X225904478Y-97760767D01*
X225574162Y-97759035D01*
X225334076Y-97754343D01*
X225034171Y-97743238D01*
X224780408Y-97724126D01*
X224540290Y-97693439D01*
X224281321Y-97647611D01*
X223971006Y-97583075D01*
X223688833Y-97519557D01*
X223244446Y-97409235D01*
X222836531Y-97295389D01*
X222475437Y-97181605D01*
X222171516Y-97071466D01*
X221935115Y-96968558D01*
X221776586Y-96876463D01*
X221706278Y-96798767D01*
X221717188Y-96770876D01*
X221790297Y-96688748D01*
X221917350Y-96572926D01*
X222082089Y-96438977D01*
X222212596Y-96335890D01*
X222424134Y-96151315D01*
X222586687Y-95974237D01*
X222725191Y-95775571D01*
X222864578Y-95526233D01*
X222952629Y-95359860D01*
X223020270Y-95250214D01*
X223075151Y-95201009D01*
X223134619Y-95197341D01*
X223216021Y-95224309D01*
G37*
G36*
X235642395Y-67051188D02*
G01*
X235782210Y-67213450D01*
X235894238Y-67471006D01*
X235939582Y-67598999D01*
X236061344Y-67876492D01*
X236207617Y-68149052D01*
X236361240Y-68386158D01*
X236505050Y-68557287D01*
X236553084Y-68605682D01*
X236637563Y-68705468D01*
X236671006Y-68768919D01*
X236671491Y-68773366D01*
X236719250Y-68832087D01*
X236821302Y-68898817D01*
X236833886Y-68905480D01*
X236931554Y-68970105D01*
X236971597Y-69020847D01*
X236978540Y-69031036D01*
X237052143Y-69081747D01*
X237191323Y-69160933D01*
X237377606Y-69259498D01*
X237592518Y-69368348D01*
X237817584Y-69478389D01*
X238034331Y-69580527D01*
X238224283Y-69665667D01*
X238368966Y-69724714D01*
X238449907Y-69748575D01*
X238474077Y-69755367D01*
X238571013Y-69801635D01*
X238700400Y-69876392D01*
X238762890Y-69914346D01*
X238876200Y-69978608D01*
X238937968Y-70006956D01*
X238988067Y-70023496D01*
X239020068Y-70034189D01*
X239113313Y-70054494D01*
X239160430Y-70069198D01*
X239290164Y-70133606D01*
X239433946Y-70226116D01*
X239510454Y-70279093D01*
X239627332Y-70349938D01*
X239696964Y-70378426D01*
X239786304Y-70402841D01*
X239946887Y-70477399D01*
X240154691Y-70592872D01*
X240391801Y-70739941D01*
X240396530Y-70743013D01*
X240543002Y-70836224D01*
X240652776Y-70902551D01*
X240702406Y-70927811D01*
X240724936Y-70937222D01*
X240812844Y-70987118D01*
X240939401Y-71065582D01*
X241012854Y-71112350D01*
X241148291Y-71197559D01*
X241239280Y-71253452D01*
X241313788Y-71299776D01*
X241484743Y-71413863D01*
X241682557Y-71552317D01*
X241879588Y-71695283D01*
X242048192Y-71822904D01*
X242160724Y-71915323D01*
X242240434Y-71986230D01*
X242394734Y-72120135D01*
X242554018Y-72255424D01*
X242664041Y-72352660D01*
X242836342Y-72514023D01*
X243032028Y-72704126D01*
X243226429Y-72899341D01*
X243349097Y-73025007D01*
X243543058Y-73224798D01*
X243685504Y-73374084D01*
X243788932Y-73486651D01*
X243865838Y-73576287D01*
X243928716Y-73656781D01*
X243990064Y-73741919D01*
X244011458Y-73772080D01*
X244097933Y-73889408D01*
X244159100Y-73965711D01*
X244249491Y-74072318D01*
X244457568Y-74387312D01*
X244475909Y-74419531D01*
X244543674Y-74528479D01*
X244588244Y-74585010D01*
X244616277Y-74625462D01*
X244681464Y-74739717D01*
X244771696Y-74907975D01*
X244876458Y-75111046D01*
X244905416Y-75168900D01*
X245101342Y-75614291D01*
X245227827Y-76014076D01*
X245284479Y-76363319D01*
X245270904Y-76657083D01*
X245186710Y-76890431D01*
X245031503Y-77058426D01*
X244997635Y-77077050D01*
X244845432Y-77111126D01*
X244654715Y-77110600D01*
X244466577Y-77077948D01*
X244322112Y-77015648D01*
X244237232Y-76966485D01*
X244152114Y-76939645D01*
X244089516Y-76920718D01*
X243958809Y-76847033D01*
X243792041Y-76731627D01*
X243610408Y-76589410D01*
X243435104Y-76435291D01*
X243210446Y-76224205D01*
X243204432Y-75742773D01*
X243195459Y-75506005D01*
X243165772Y-75256197D01*
X243108510Y-75016645D01*
X243016399Y-74764127D01*
X242882169Y-74475418D01*
X242698547Y-74127298D01*
X242535331Y-73839373D01*
X242351101Y-73548949D01*
X242160342Y-73291917D01*
X241940080Y-73035198D01*
X241823495Y-72907210D01*
X241622535Y-72690711D01*
X241478519Y-72542719D01*
X241386115Y-72457862D01*
X241339993Y-72430769D01*
X241339739Y-72430767D01*
X241278552Y-72397434D01*
X241190602Y-72318048D01*
X241125951Y-72251474D01*
X240995023Y-72127630D01*
X240849296Y-72008976D01*
X240653846Y-71866109D01*
X240645145Y-71859950D01*
X240462924Y-71738037D01*
X240253773Y-71608360D01*
X240039830Y-71483473D01*
X239843228Y-71375930D01*
X239686105Y-71298286D01*
X239590594Y-71263093D01*
X239582395Y-71261481D01*
X239472694Y-71224126D01*
X239338757Y-71161719D01*
X239310010Y-71146936D01*
X239214486Y-71105764D01*
X239175937Y-71103156D01*
X239175774Y-71104418D01*
X239133219Y-71101242D01*
X239038165Y-71060268D01*
X238945041Y-71022814D01*
X238799375Y-70980567D01*
X238646935Y-70947165D01*
X238521770Y-70929898D01*
X238457930Y-70936054D01*
X238436131Y-70935422D01*
X238367978Y-70893206D01*
X238298565Y-70851439D01*
X238172408Y-70807174D01*
X238090713Y-70785992D01*
X237932305Y-70738142D01*
X237752874Y-70678958D01*
X237611890Y-70632968D01*
X237470078Y-70592644D01*
X237388979Y-70577121D01*
X237342300Y-70570989D01*
X237233935Y-70533138D01*
X237077790Y-70457598D01*
X236906710Y-70382525D01*
X236774423Y-70332721D01*
X236706105Y-70318426D01*
X236678321Y-70310834D01*
X236578494Y-70262248D01*
X236428173Y-70179659D01*
X236248030Y-70075351D01*
X236058740Y-69961606D01*
X235880976Y-69850709D01*
X235735412Y-69754943D01*
X235642720Y-69686593D01*
X235607556Y-69653572D01*
X235502615Y-69537937D01*
X235392512Y-69399803D01*
X235340455Y-69330647D01*
X235258577Y-69226307D01*
X235212896Y-69174359D01*
X235162157Y-69108526D01*
X235087924Y-68957721D01*
X235010938Y-68753593D01*
X234941463Y-68520856D01*
X234884699Y-68225835D01*
X234868187Y-67895271D01*
X234901467Y-67593302D01*
X234981032Y-67336177D01*
X235103377Y-67140148D01*
X235264994Y-67021465D01*
X235282279Y-67014605D01*
X235475511Y-66984735D01*
X235642395Y-67051188D01*
G37*
G36*
X238361691Y-74455926D02*
G01*
X238509281Y-75183083D01*
X238603397Y-75942106D01*
X238608526Y-76020304D01*
X238605567Y-76294264D01*
X238577371Y-76588084D01*
X238528706Y-76871798D01*
X238464341Y-77115438D01*
X238389046Y-77289038D01*
X238226951Y-77482678D01*
X237993009Y-77654909D01*
X237735682Y-77762192D01*
X237650285Y-77781890D01*
X237445023Y-77811404D01*
X237282854Y-77809490D01*
X237189589Y-77775519D01*
X237184418Y-77771547D01*
X237104218Y-77749762D01*
X236975772Y-77740485D01*
X236971841Y-77740452D01*
X236810009Y-77718467D01*
X236671006Y-77668341D01*
X236535161Y-77595928D01*
X236382939Y-77521340D01*
X236362109Y-77511237D01*
X236261185Y-77447022D01*
X236220118Y-77393089D01*
X236212571Y-77369757D01*
X236147681Y-77340434D01*
X236110048Y-77324258D01*
X236008864Y-77249993D01*
X235869162Y-77129238D01*
X235709318Y-76977219D01*
X235629375Y-76897626D01*
X235449801Y-76714862D01*
X235316574Y-76569105D01*
X235210328Y-76436886D01*
X235111698Y-76294736D01*
X235001317Y-76119183D01*
X234929573Y-76002509D01*
X234839841Y-75857411D01*
X234779663Y-75761107D01*
X234729863Y-75673698D01*
X234663937Y-75536884D01*
X234608583Y-75409923D01*
X234509073Y-75200662D01*
X234421333Y-75039296D01*
X234353868Y-74940863D01*
X234315183Y-74920395D01*
X234308680Y-74929005D01*
X234266864Y-75015002D01*
X234219663Y-75144612D01*
X234211326Y-75169274D01*
X234151085Y-75302723D01*
X234088364Y-75388715D01*
X234050923Y-75429156D01*
X234015779Y-75513883D01*
X234007041Y-75546850D01*
X233929527Y-75629071D01*
X233796413Y-75706662D01*
X233637810Y-75764204D01*
X233483830Y-75786277D01*
X233427124Y-75783553D01*
X233161476Y-75720328D01*
X232870154Y-75580760D01*
X232570577Y-75374613D01*
X232280165Y-75111651D01*
X232179241Y-75002230D01*
X232094495Y-74897331D01*
X232061933Y-74838209D01*
X232033099Y-74777875D01*
X231956164Y-74690769D01*
X231918294Y-74646430D01*
X231830912Y-74517091D01*
X231724117Y-74337723D01*
X231613073Y-74132977D01*
X231375751Y-73673723D01*
X231341796Y-74080881D01*
X231294228Y-74427111D01*
X231197410Y-74778898D01*
X231060889Y-75062196D01*
X230889414Y-75267530D01*
X230687735Y-75385428D01*
X230678806Y-75388284D01*
X230484163Y-75421110D01*
X230262486Y-75418181D01*
X230055105Y-75382995D01*
X229903353Y-75319049D01*
X229802184Y-75264052D01*
X229696150Y-75236292D01*
X229648524Y-75228472D01*
X229607100Y-75186194D01*
X229598618Y-75163143D01*
X229531941Y-75136095D01*
X229508288Y-75130733D01*
X229410378Y-75067208D01*
X229275661Y-74946140D01*
X229119504Y-74785300D01*
X228957276Y-74602458D01*
X228804346Y-74415386D01*
X228676083Y-74241853D01*
X228587854Y-74099632D01*
X228555029Y-74006492D01*
X228554942Y-74004970D01*
X228526287Y-73942268D01*
X228461786Y-73841265D01*
X228449049Y-73822129D01*
X228371151Y-73673779D01*
X228307112Y-73507890D01*
X228299082Y-73482346D01*
X228231527Y-73291388D01*
X228156744Y-73107101D01*
X228136407Y-73059602D01*
X228037390Y-72788815D01*
X227933707Y-72450721D01*
X227831733Y-72071688D01*
X227737843Y-71678086D01*
X227658411Y-71296283D01*
X227599813Y-70952649D01*
X227568423Y-70673551D01*
X227560875Y-70522479D01*
X227566142Y-70288689D01*
X227601424Y-70135395D01*
X227670272Y-70051531D01*
X227776237Y-70026036D01*
X227782928Y-70026103D01*
X227859699Y-70045978D01*
X227915801Y-70117439D01*
X227970423Y-70264004D01*
X227991811Y-70333828D01*
X228042475Y-70511475D01*
X228077902Y-70652268D01*
X228098231Y-70726651D01*
X228176404Y-70935692D01*
X228305407Y-71227747D01*
X228485808Y-71604142D01*
X228531943Y-71691196D01*
X228645927Y-71875466D01*
X228757427Y-72024245D01*
X228799319Y-72073518D01*
X228875519Y-72172508D01*
X228905720Y-72227100D01*
X228910496Y-72237336D01*
X228976512Y-72279551D01*
X229091411Y-72326621D01*
X229218308Y-72364881D01*
X229320320Y-72380671D01*
X229387938Y-72338779D01*
X229435698Y-72201928D01*
X229438474Y-72185590D01*
X229450621Y-72005699D01*
X229446379Y-71756277D01*
X229427794Y-71463016D01*
X229396908Y-71151609D01*
X229355767Y-70847746D01*
X229306415Y-70577121D01*
X229287325Y-70488420D01*
X229189039Y-70035349D01*
X229106891Y-69664518D01*
X229047622Y-69405977D01*
X230840678Y-69405977D01*
X230841063Y-69608389D01*
X230850273Y-69802380D01*
X230895320Y-70190175D01*
X230972448Y-70614790D01*
X231076313Y-71059169D01*
X231201572Y-71506257D01*
X231342880Y-71938997D01*
X231494894Y-72340333D01*
X231652270Y-72693210D01*
X231809665Y-72980571D01*
X231961735Y-73185361D01*
X232017945Y-73239728D01*
X232172897Y-73353991D01*
X232318742Y-73422074D01*
X232429757Y-73445866D01*
X232516856Y-73432730D01*
X232593229Y-73364366D01*
X232606466Y-73346785D01*
X232661741Y-73206262D01*
X232696880Y-72997456D01*
X232710294Y-72745596D01*
X232700398Y-72475912D01*
X232665605Y-72213634D01*
X232663207Y-72201185D01*
X232604399Y-71933180D01*
X232525785Y-71623519D01*
X232435481Y-71300138D01*
X232341602Y-70990971D01*
X232252265Y-70723954D01*
X232175585Y-70527022D01*
X232123769Y-70409731D01*
X232041813Y-70222849D01*
X231978160Y-70076134D01*
X231892953Y-69905931D01*
X231779772Y-69717089D01*
X231657134Y-69536995D01*
X231543332Y-69392505D01*
X231456657Y-69310473D01*
X231398673Y-69262397D01*
X231360552Y-69192258D01*
X231360493Y-69190595D01*
X231315485Y-69134908D01*
X231211886Y-69082237D01*
X231166626Y-69067905D01*
X231054365Y-69061556D01*
X230948868Y-69123102D01*
X230930881Y-69138211D01*
X230879793Y-69196967D01*
X230851656Y-69277529D01*
X230840678Y-69405977D01*
X229047622Y-69405977D01*
X229037622Y-69362353D01*
X228977971Y-69115279D01*
X228924680Y-68909724D01*
X228874487Y-68732114D01*
X228824134Y-68568875D01*
X228808376Y-68518077D01*
X228746860Y-68284179D01*
X228702699Y-68059191D01*
X228684582Y-67885651D01*
X228684198Y-67816352D01*
X228696926Y-67677641D01*
X228742426Y-67581158D01*
X228836647Y-67484862D01*
X228870536Y-67455676D01*
X228982506Y-67371338D01*
X229061077Y-67329398D01*
X229279507Y-67297835D01*
X229588750Y-67323619D01*
X229868041Y-67429187D01*
X230095562Y-67608649D01*
X230145932Y-67668114D01*
X230226679Y-67785546D01*
X230258662Y-67867617D01*
X230259360Y-67882376D01*
X230277398Y-67994366D01*
X230312144Y-68138539D01*
X230365347Y-68330135D01*
X230499735Y-68154604D01*
X230657852Y-68003563D01*
X230878660Y-67912025D01*
X231132362Y-67910833D01*
X231410651Y-68001385D01*
X231469994Y-68028764D01*
X231660175Y-68108977D01*
X231828695Y-68170994D01*
X231845421Y-68177185D01*
X231978564Y-68255432D01*
X232151631Y-68389755D01*
X232345058Y-68561197D01*
X232539279Y-68750803D01*
X232714729Y-68939616D01*
X232851843Y-69108682D01*
X232931058Y-69239044D01*
X232934234Y-69246538D01*
X233003904Y-69381037D01*
X233075075Y-69478964D01*
X233127747Y-69552878D01*
X233211319Y-69695871D01*
X233312020Y-69882347D01*
X233417409Y-70088008D01*
X233515047Y-70288556D01*
X233592493Y-70459693D01*
X233637307Y-70577121D01*
X233641162Y-70589734D01*
X233681746Y-70708819D01*
X233744840Y-70882591D01*
X233818530Y-71078107D01*
X233899141Y-71307349D01*
X233980245Y-71572426D01*
X234040081Y-71804537D01*
X234044026Y-71822354D01*
X234194215Y-72415048D01*
X234296677Y-72745596D01*
X234379504Y-73012803D01*
X234588067Y-73580533D01*
X234808080Y-74083153D01*
X234855123Y-74177002D01*
X235038679Y-74494160D01*
X235241675Y-74781874D01*
X235452459Y-75027559D01*
X235659378Y-75218629D01*
X235850777Y-75342501D01*
X236015004Y-75386588D01*
X236074683Y-75395705D01*
X236148523Y-75442435D01*
X236148922Y-75443064D01*
X236221438Y-75475760D01*
X236352820Y-75480403D01*
X236507595Y-75461333D01*
X236650293Y-75422888D01*
X236745441Y-75369408D01*
X236834759Y-75230573D01*
X236899141Y-74998970D01*
X236921499Y-74702160D01*
X236921138Y-74641125D01*
X236910024Y-74456778D01*
X236875878Y-74348450D01*
X236808616Y-74297283D01*
X236698157Y-74284418D01*
X236643827Y-74279680D01*
X236481618Y-74237660D01*
X236315252Y-74166308D01*
X236127517Y-74065058D01*
X235895180Y-73934766D01*
X235721832Y-73825878D01*
X235589062Y-73723550D01*
X235478463Y-73612939D01*
X235371625Y-73479202D01*
X235250139Y-73307495D01*
X235010964Y-72902961D01*
X234806131Y-72380240D01*
X234695102Y-71822578D01*
X234687691Y-71569433D01*
X235352854Y-71569433D01*
X235362319Y-71782786D01*
X235398806Y-72025809D01*
X235463484Y-72284415D01*
X235488297Y-72360959D01*
X235662883Y-72727186D01*
X235907780Y-73024104D01*
X236220118Y-73248061D01*
X236379192Y-73328167D01*
X236525531Y-73391522D01*
X236630692Y-73426339D01*
X236671006Y-73423412D01*
X236663702Y-73398085D01*
X236629383Y-73295175D01*
X236573353Y-73132736D01*
X236502731Y-72931575D01*
X236438649Y-72760614D01*
X236312631Y-72461759D01*
X236172030Y-72163406D01*
X236028749Y-71889080D01*
X235894690Y-71662304D01*
X235781755Y-71506601D01*
X235774096Y-71497725D01*
X235699641Y-71394485D01*
X235669033Y-71319869D01*
X235666452Y-71299986D01*
X235636069Y-71294766D01*
X235615720Y-71304476D01*
X235546716Y-71280932D01*
X235474911Y-71248284D01*
X235410319Y-71288094D01*
X235369244Y-71399839D01*
X235352854Y-71569433D01*
X234687691Y-71569433D01*
X234677738Y-71229470D01*
X234713707Y-70869845D01*
X234793452Y-70557159D01*
X234917273Y-70326179D01*
X235087213Y-70171623D01*
X235089943Y-70169966D01*
X235258373Y-70097272D01*
X235437603Y-70086243D01*
X235648497Y-70139062D01*
X235911919Y-70257912D01*
X235961862Y-70284412D01*
X236300993Y-70511150D01*
X236622086Y-70812803D01*
X236930314Y-71195684D01*
X237230852Y-71666104D01*
X237528874Y-72230375D01*
X237531587Y-72235952D01*
X237879493Y-73005329D01*
X238036194Y-73423412D01*
X238153978Y-73737664D01*
X238361691Y-74455926D01*
G37*
G36*
X226911859Y-79062286D02*
G01*
X227468265Y-79089879D01*
X228012719Y-79132404D01*
X228555029Y-79189597D01*
X228586354Y-79193303D01*
X229036761Y-79246537D01*
X229405861Y-79290623D01*
X229710732Y-79328421D01*
X229968449Y-79362792D01*
X230196088Y-79396599D01*
X230410727Y-79432702D01*
X230629442Y-79473962D01*
X230869309Y-79523240D01*
X231147405Y-79583398D01*
X231480805Y-79657296D01*
X231886588Y-79747796D01*
X232047003Y-79786540D01*
X232403253Y-79888445D01*
X232780740Y-80013637D01*
X233149610Y-80151290D01*
X233480009Y-80290577D01*
X233742085Y-80420673D01*
X233895060Y-80510198D01*
X234202661Y-80726535D01*
X234411320Y-80938008D01*
X234520887Y-81146231D01*
X234531212Y-81352814D01*
X234442146Y-81559369D01*
X234253537Y-81767509D01*
X233965237Y-81978846D01*
X233577096Y-82194990D01*
X233513923Y-82225934D01*
X233287346Y-82328541D01*
X233069750Y-82416233D01*
X232900765Y-82472735D01*
X232780229Y-82506878D01*
X232553098Y-82576145D01*
X232337475Y-82646729D01*
X232335068Y-82647553D01*
X232072792Y-82724233D01*
X231731472Y-82804526D01*
X231331781Y-82885003D01*
X230894390Y-82962237D01*
X230439970Y-83032798D01*
X229989195Y-83093259D01*
X229562735Y-83140192D01*
X229181262Y-83170167D01*
X229098150Y-83172903D01*
X228913922Y-83175629D01*
X228650482Y-83177606D01*
X228319428Y-83178811D01*
X227932362Y-83179220D01*
X227500882Y-83178811D01*
X227036590Y-83177560D01*
X226551085Y-83175443D01*
X226136567Y-83173053D01*
X225630225Y-83169110D01*
X225204344Y-83164112D01*
X224847380Y-83157637D01*
X224547790Y-83149263D01*
X224294033Y-83138568D01*
X224074563Y-83125131D01*
X223877838Y-83108528D01*
X223692315Y-83088339D01*
X223506451Y-83064141D01*
X223297483Y-83033461D01*
X222999663Y-82980597D01*
X222801020Y-82930511D01*
X222700928Y-82883062D01*
X222634038Y-82831217D01*
X222564300Y-82798598D01*
X222556482Y-82797379D01*
X222479439Y-82743585D01*
X222384273Y-82632203D01*
X222291232Y-82493061D01*
X222220561Y-82355989D01*
X222192505Y-82250816D01*
X222202240Y-82159796D01*
X222248384Y-82075639D01*
X222349873Y-81994045D01*
X222525480Y-81894954D01*
X222718540Y-81793955D01*
X222392899Y-81819514D01*
X222379681Y-81820617D01*
X222140181Y-81855558D01*
X221856697Y-81917622D01*
X221565102Y-81997095D01*
X221301269Y-82084259D01*
X221101070Y-82169400D01*
X221066115Y-82189726D01*
X220929577Y-82295621D01*
X220802437Y-82425884D01*
X220655816Y-82603760D01*
X220259368Y-82524149D01*
X219952246Y-82458547D01*
X219354083Y-82302199D01*
X218847368Y-82124968D01*
X218427113Y-81924253D01*
X218088331Y-81697451D01*
X217826033Y-81441960D01*
X217635231Y-81155179D01*
X217626110Y-81136410D01*
X217591143Y-80947412D01*
X217648064Y-80750238D01*
X217790778Y-80553559D01*
X218013190Y-80366046D01*
X218309206Y-80196368D01*
X218405486Y-80152076D01*
X218736731Y-80016597D01*
X219122433Y-79878159D01*
X219538233Y-79743982D01*
X219959769Y-79621287D01*
X220362681Y-79517294D01*
X220722607Y-79439225D01*
X221015187Y-79394300D01*
X221858644Y-79309642D01*
X222773289Y-79225245D01*
X223607338Y-79157646D01*
X224370596Y-79106577D01*
X225072871Y-79071773D01*
X225723969Y-79052967D01*
X226333696Y-79049894D01*
X226911859Y-79062286D01*
G37*
G36*
X237110022Y-82365215D02*
G01*
X237532616Y-82465138D01*
X237948520Y-82639820D01*
X238007488Y-82670158D01*
X238213508Y-82782055D01*
X238397227Y-82889929D01*
X238524655Y-82974061D01*
X238583823Y-83019761D01*
X238793452Y-83200491D01*
X239010796Y-83411287D01*
X239214157Y-83629251D01*
X239381836Y-83831483D01*
X239492134Y-83995084D01*
X239620722Y-84296009D01*
X239721966Y-84703363D01*
X239772645Y-85151288D01*
X239772922Y-85615261D01*
X239722963Y-86070758D01*
X239622931Y-86493255D01*
X239472990Y-86858227D01*
X239443561Y-86908586D01*
X239315932Y-87086760D01*
X239135454Y-87304621D01*
X238919393Y-87543526D01*
X238685017Y-87784826D01*
X238449594Y-88009876D01*
X238230391Y-88200030D01*
X238082620Y-88308572D01*
X237791022Y-88487768D01*
X237442558Y-88672312D01*
X237061706Y-88850955D01*
X236672947Y-89012447D01*
X236300760Y-89145538D01*
X235969625Y-89238978D01*
X235726826Y-89297371D01*
X235363718Y-89392920D01*
X235024430Y-89491496D01*
X234727547Y-89587315D01*
X234491653Y-89674594D01*
X234335333Y-89747549D01*
X234238835Y-89816686D01*
X234103980Y-89956481D01*
X233996188Y-90115583D01*
X233932693Y-90266910D01*
X233930727Y-90383382D01*
X233966247Y-90427501D01*
X234048480Y-90462351D01*
X234129480Y-90460248D01*
X234166075Y-90415331D01*
X234187871Y-90361223D01*
X234274078Y-90257595D01*
X234403048Y-90137634D01*
X234550177Y-90021894D01*
X234690864Y-89930930D01*
X234800506Y-89885295D01*
X234838142Y-89878821D01*
X235093012Y-89875309D01*
X235299513Y-89955700D01*
X235469018Y-90124056D01*
X235533039Y-90219637D01*
X235630386Y-90439639D01*
X235649915Y-90669040D01*
X235596667Y-90940056D01*
X235545007Y-91082898D01*
X235371238Y-91375370D01*
X235131373Y-91622232D01*
X234845360Y-91805353D01*
X234533149Y-91906603D01*
X234461729Y-91917152D01*
X234064838Y-91917495D01*
X233674713Y-91820592D01*
X233298408Y-91628934D01*
X232942980Y-91345015D01*
X232713472Y-91093554D01*
X232556458Y-90834419D01*
X232471300Y-90551024D01*
X232445852Y-90215779D01*
X232456021Y-90003178D01*
X232485999Y-89759377D01*
X232528797Y-89559605D01*
X232625537Y-89333945D01*
X232835125Y-89055125D01*
X233134767Y-88795229D01*
X233519240Y-88557373D01*
X233983324Y-88344674D01*
X234521796Y-88160249D01*
X235129436Y-88007216D01*
X235515238Y-87917354D01*
X236140853Y-87729949D01*
X236679742Y-87507217D01*
X237137646Y-87245629D01*
X237520310Y-86941657D01*
X237833476Y-86591773D01*
X238082888Y-86192447D01*
X238140976Y-86045461D01*
X238198405Y-85773871D01*
X238220604Y-85469749D01*
X238205586Y-85170289D01*
X238151358Y-84912682D01*
X238055636Y-84703164D01*
X237861597Y-84434756D01*
X237612297Y-84197577D01*
X237332438Y-84018598D01*
X237281262Y-83993925D01*
X237135591Y-83933388D01*
X236996478Y-83898974D01*
X236828406Y-83884107D01*
X236595858Y-83882210D01*
X236277391Y-83898662D01*
X236020934Y-83948642D01*
X235798586Y-84041634D01*
X235578604Y-84187155D01*
X235529370Y-84227640D01*
X235356444Y-84443310D01*
X235253799Y-84723641D01*
X235219246Y-85074040D01*
X235218817Y-85145742D01*
X235211531Y-85305878D01*
X235185188Y-85413346D01*
X235126867Y-85503727D01*
X235023645Y-85612600D01*
X234931875Y-85700363D01*
X234829200Y-85771465D01*
X234714068Y-85801143D01*
X234542698Y-85807101D01*
X234437191Y-85805450D01*
X234300669Y-85787976D01*
X234199631Y-85738996D01*
X234092569Y-85643418D01*
X233959640Y-85465585D01*
X233872136Y-85215114D01*
X233863291Y-85173115D01*
X233828710Y-84968989D01*
X233820654Y-84791046D01*
X233839816Y-84598550D01*
X233886893Y-84350764D01*
X233945750Y-84115115D01*
X234064668Y-83804286D01*
X234235476Y-83520478D01*
X234477044Y-83227786D01*
X234593424Y-83104292D01*
X234861854Y-82854635D01*
X235127001Y-82669853D01*
X235414528Y-82536928D01*
X235750101Y-82442844D01*
X236159384Y-82374587D01*
X236657249Y-82336570D01*
X237110022Y-82365215D01*
G37*
%TO.C,TP7*%
X166150000Y-87000000D02*
G75*
G03*
X166150000Y-87000000I-950000J0D01*
G01*
%TO.C,TP9*%
X166150000Y-84400000D02*
G75*
G03*
X166150000Y-84400000I-950000J0D01*
G01*
%TD*%
M02*
